<?xml version="1.0" encoding="UTF-8" standalone="no"?><!DOCTYPE svg PUBLIC "-//W3C//DTD SVG 1.1//EN" "http://www.w3.org/Graphics/SVG/1.1/DTD/svg11.dtd"><svg width="100%" height="100%" viewBox="0 0 105 70" version="1.1" xmlns="http://www.w3.org/2000/svg" xmlns:xlink="http://www.w3.org/1999/xlink" xml:space="preserve" xmlns:serif="http://www.serif.com/" style="fill-rule:evenodd;clip-rule:evenodd;stroke-linejoin:round;stroke-miterlimit:1.41421;"><rect id="_-express" serif:id="©express" x="0" y="0" width="105" height="70" style="fill:#999;"/><clipPath id="_clip1"><rect id="_-express1" serif:id="©express" x="0" y="0" width="105" height="70"/></clipPath><g clip-path="url(#_clip1)"><path d="M33.762,48.033l-0.585,0l0,-20.209l0.585,0l0,4.218l0.059,0c0.195,-0.664 0.478,-1.274 0.849,-1.831c0.372,-0.556 0.81,-1.039 1.318,-1.449c0.508,-0.41 1.089,-0.728 1.742,-0.952c0.655,-0.225 1.362,-0.337 2.124,-0.337c0.995,0 1.889,0.196 2.68,0.586c0.79,0.391 1.464,0.937 2.02,1.64c0.557,0.703 0.982,1.532 1.274,2.489c0.294,0.957 0.44,2.002 0.44,3.135c0,1.053 -0.141,2.059 -0.425,3.015c-0.283,0.958 -0.692,1.797 -1.23,2.52c-0.537,0.722 -1.205,1.293 -2.006,1.712c-0.8,0.42 -1.718,0.63 -2.753,0.63c-1.601,0 -2.919,-0.414 -3.954,-1.245c-1.035,-0.829 -1.728,-1.927 -2.079,-3.294l-0.059,0l0,9.372Z"/><path d="M56.196,35.469c0.02,1.015 0.142,1.957 0.367,2.825c0.224,0.869 0.571,1.626 1.039,2.271c0.468,0.644 1.074,1.151 1.816,1.523c0.742,0.371 1.649,0.556 2.724,0.556c1.581,0 2.894,-0.415 3.939,-1.245c1.045,-0.829 1.693,-2.074 1.947,-3.734l0.586,0c-0.214,1.757 -0.908,3.119 -2.079,4.086c-1.172,0.967 -2.617,1.449 -4.335,1.449c-1.171,0.02 -2.172,-0.166 -3.002,-0.556c-0.83,-0.391 -1.508,-0.942 -2.035,-1.654c-0.527,-0.714 -0.918,-1.553 -1.172,-2.519c-0.253,-0.967 -0.381,-2.007 -0.381,-3.119c0,-1.25 0.186,-2.363 0.557,-3.339c0.371,-0.977 0.859,-1.802 1.465,-2.475c0.605,-0.674 1.307,-1.186 2.108,-1.537c0.801,-0.352 1.621,-0.528 2.46,-0.528c1.172,0 2.182,0.225 3.032,0.674c0.849,0.449 1.542,1.044 2.079,1.787c0.536,0.741 0.927,1.591 1.171,2.547c0.245,0.957 0.347,1.953 0.308,2.988l-12.594,0Z"/><path d="M81.53,32.277l-0.586,0c0,-0.763 -0.117,-1.407 -0.351,-1.934c-0.235,-0.526 -0.566,-0.961 -0.996,-1.303c-0.429,-0.342 -0.942,-0.59 -1.537,-0.747c-0.597,-0.156 -1.255,-0.234 -1.978,-0.234c-1.054,0 -1.884,0.141 -2.489,0.424c-0.605,0.284 -1.054,0.606 -1.347,0.967c-0.293,0.361 -0.479,0.717 -0.557,1.069c-0.077,0.351 -0.117,0.596 -0.117,0.732c0,0.742 0.151,1.313 0.454,1.714c0.303,0.4 0.708,0.708 1.216,0.922c0.527,0.215 1.098,0.4 1.713,0.556c0.615,0.157 1.333,0.342 2.152,0.557c0.586,0.157 1.167,0.317 1.743,0.483c0.577,0.166 1.093,0.395 1.552,0.689c0.459,0.292 0.83,0.664 1.113,1.113c0.283,0.449 0.425,1.035 0.425,1.757c0,0.761 -0.161,1.406 -0.483,1.933c-0.322,0.527 -0.742,0.956 -1.26,1.288c-0.517,0.333 -1.103,0.572 -1.757,0.718c-0.654,0.146 -1.303,0.219 -1.948,0.219c-2.011,0 -3.529,-0.438 -4.553,-1.318c-1.026,-0.878 -1.539,-2.264 -1.539,-4.159l0.586,0c0,1.699 0.474,2.944 1.421,3.735c0.946,0.791 2.309,1.186 4.085,1.186c0.547,0 1.108,-0.063 1.685,-0.19c0.575,-0.127 1.098,-0.333 1.566,-0.615c0.469,-0.283 0.854,-0.65 1.157,-1.099c0.303,-0.449 0.454,-0.995 0.454,-1.639c0,-0.665 -0.151,-1.201 -0.454,-1.612c-0.303,-0.41 -0.693,-0.746 -1.172,-1.01c-0.478,-0.264 -1.029,-0.473 -1.654,-0.63c-0.625,-0.156 -1.259,-0.312 -1.903,-0.468c-0.723,-0.176 -1.358,-0.342 -1.904,-0.498c-0.547,-0.157 -1.035,-0.332 -1.465,-0.527c-0.624,-0.274 -1.084,-0.654 -1.376,-1.143c-0.294,-0.487 -0.44,-1.142 -0.44,-1.962c0,-0.41 0.088,-0.839 0.264,-1.288c0.176,-0.449 0.468,-0.86 0.879,-1.23c0.41,-0.371 0.937,-0.674 1.582,-0.909c0.644,-0.234 1.434,-0.351 2.371,-0.351c1.68,0 3.007,0.38 3.984,1.143c0.976,0.761 1.464,1.982 1.464,3.661Z"/><path d="M95.09,32.277l-0.586,0c0,-0.763 -0.117,-1.407 -0.351,-1.934c-0.235,-0.526 -0.566,-0.961 -0.996,-1.303c-0.429,-0.342 -0.942,-0.59 -1.537,-0.747c-0.596,-0.156 -1.255,-0.234 -1.978,-0.234c-1.054,0 -1.884,0.141 -2.489,0.424c-0.605,0.284 -1.054,0.606 -1.347,0.967c-0.293,0.361 -0.479,0.717 -0.557,1.069c-0.077,0.351 -0.117,0.596 -0.117,0.732c0,0.742 0.152,1.313 0.454,1.714c0.303,0.4 0.708,0.708 1.216,0.922c0.527,0.215 1.098,0.4 1.713,0.556c0.615,0.157 1.333,0.342 2.152,0.557c0.586,0.157 1.167,0.317 1.743,0.483c0.577,0.166 1.093,0.395 1.552,0.689c0.459,0.292 0.83,0.664 1.113,1.113c0.283,0.449 0.425,1.035 0.425,1.757c0,0.761 -0.161,1.406 -0.483,1.933c-0.322,0.527 -0.742,0.956 -1.26,1.288c-0.517,0.333 -1.102,0.572 -1.757,0.718c-0.654,0.146 -1.303,0.219 -1.948,0.219c-2.011,0 -3.529,-0.438 -4.553,-1.318c-1.026,-0.878 -1.538,-2.264 -1.538,-4.159l0.585,0c0,1.699 0.474,2.944 1.421,3.735c0.947,0.791 2.309,1.186 4.085,1.186c0.548,0 1.108,-0.063 1.685,-0.19c0.575,-0.127 1.098,-0.333 1.566,-0.615c0.469,-0.283 0.854,-0.65 1.157,-1.099c0.303,-0.449 0.454,-0.995 0.454,-1.639c0,-0.665 -0.151,-1.201 -0.454,-1.612c-0.303,-0.41 -0.693,-0.746 -1.172,-1.01c-0.478,-0.264 -1.029,-0.473 -1.654,-0.63c-0.625,-0.156 -1.259,-0.312 -1.903,-0.468c-0.723,-0.176 -1.358,-0.342 -1.904,-0.498c-0.547,-0.157 -1.035,-0.332 -1.465,-0.527c-0.624,-0.274 -1.084,-0.654 -1.376,-1.143c-0.293,-0.487 -0.44,-1.142 -0.44,-1.962c0,-0.41 0.088,-0.839 0.264,-1.288c0.176,-0.449 0.468,-0.86 0.879,-1.23c0.41,-0.371 0.937,-0.674 1.582,-0.909c0.644,-0.234 1.434,-0.351 2.371,-0.351c1.68,0 3.007,0.38 3.984,1.143c0.976,0.761 1.464,1.982 1.464,3.661Z"/><path d="M49.489,42.879l-0.586,0l0,-15.055l0.586,0l0,3.72l0.059,0c0.137,-0.566 0.352,-1.098 0.644,-1.596c0.293,-0.498 0.684,-0.932 1.172,-1.303c0.488,-0.372 1.069,-0.664 1.742,-0.879c0.674,-0.214 1.46,-0.312 2.358,-0.293l0,0.586c-1.035,-0.058 -1.927,0.083 -2.679,0.424c-0.752,0.343 -1.372,0.81 -1.86,1.407c-0.489,0.595 -0.85,1.283 -1.084,2.064c-0.234,0.781 -0.352,1.582 -0.352,2.402l0,8.523Z"/><path d="M19.382,22.553l-13.296,0l0,9.138l12.505,0l0,0.586l-12.505,0l0,10.016l13.414,0l0,0.244l5.74,-7.449l-5.477,-7.264l0.761,0l5.068,6.824l5.183,-6.824l0.703,0l-5.506,7.264l6.033,7.791l-0.732,0l-5.681,-7.352l-5.654,7.352l-14.438,0l0,-20.912l13.882,0l0,0.586Z"/><path d="M39.854,42.644c-1.835,0 -3.31,-0.63 -4.422,-1.889c-1.113,-1.26 -1.67,-3.07 -1.67,-5.433c0,-0.976 0.137,-1.904 0.41,-2.782c0.273,-0.878 0.669,-1.65 1.186,-2.314c0.518,-0.664 1.157,-1.191 1.919,-1.581c0.761,-0.391 1.62,-0.586 2.577,-0.586c0.977,0 1.831,0.195 2.563,0.586c0.732,0.39 1.337,0.922 1.816,1.596c0.478,0.673 0.839,1.445 1.084,2.313c0.243,0.869 0.365,1.792 0.365,2.768c0,0.879 -0.112,1.753 -0.336,2.622c-0.225,0.868 -0.571,1.649 -1.04,2.343c-0.469,0.692 -1.069,1.259 -1.801,1.698c-0.732,0.439 -1.616,0.659 -2.651,0.659Z" style="fill:#999;"/><path d="M68.204,34.883c0,-0.918 -0.127,-1.792 -0.381,-2.621c-0.253,-0.83 -0.629,-1.558 -1.127,-2.182c-0.498,-0.625 -1.118,-1.118 -1.86,-1.479c-0.742,-0.361 -1.601,-0.542 -2.577,-0.542c-0.82,0 -1.586,0.156 -2.3,0.469c-0.712,0.312 -1.337,0.765 -1.874,1.362c-0.537,0.595 -0.971,1.312 -1.303,2.152c-0.332,0.839 -0.527,1.786 -0.586,2.841l12.008,0Z" style="fill:#999;"/></g></svg>