<?xml version="1.0" encoding="UTF-8" standalone="no"?><!DOCTYPE svg PUBLIC "-//W3C//DTD SVG 1.1//EN" "http://www.w3.org/Graphics/SVG/1.1/DTD/svg11.dtd"><svg width="100%" height="100%" viewBox="0 0 70 70" version="1.1" xmlns="http://www.w3.org/2000/svg" xmlns:xlink="http://www.w3.org/1999/xlink" xml:space="preserve" xmlns:serif="http://www.serif.com/" style="fill-rule:evenodd;clip-rule:evenodd;stroke-linejoin:round;stroke-miterlimit:1.41421;"><rect id="_-gulp" serif:id="©gulp" x="0" y="0" width="70" height="70" style="fill:#999;"/><clipPath id="_clip1"><rect id="_-gulp1" serif:id="©gulp" x="0" y="0" width="70" height="70"/></clipPath><g clip-path="url(#_clip1)"><path d="M38.123,39.099c0.135,-0.499 0.275,-0.964 0.446,-1.382c0.372,-0.954 0.721,-1.885 1.094,-2.816l1.023,-2.559l4.629,-11.656c0.174,-0.464 0.418,-0.795 0.732,-1c0.317,-0.186 0.628,-0.279 0.948,-0.279c0.325,0 0.604,0.093 0.87,0.302c0.256,0.2 0.395,0.536 0.395,0.994c0,0.217 -0.046,0.447 -0.128,0.689c-0.093,0.232 -0.186,0.498 -0.325,0.774c-0.257,0.564 -0.559,1.257 -0.908,2.081l-1.163,2.699c-0.396,0.966 -0.815,1.978 -1.233,3.025l-1.257,3.071c-0.419,0.996 -0.791,1.931 -1.14,2.825l-0.908,2.311l-0.072,0.076c-0.112,0.28 -0.221,0.606 -0.326,0.973c-0.109,0.368 -0.163,0.698 -0.163,0.989c0,0.182 0.031,0.326 0.093,0.435c0.061,0.109 0.177,0.163 0.35,0.163c0.216,0 0.483,-0.074 0.807,-0.225c0.321,-0.152 0.667,-0.349 1.04,-0.601c0.372,-0.246 0.764,-0.53 1.163,-0.852c0.406,-0.325 0.808,-0.674 1.206,-1c0.395,-0.349 0.777,-0.698 1.14,-1.047c0.363,-0.349 0.689,-0.675 0.977,-0.954c0.079,-0.093 0.175,-0.14 0.289,-0.186c0.055,-0.023 0.106,-0.04 0.154,-0.052c0.137,-0.422 0.264,-0.837 0.381,-1.244l0.326,-0.922c0.14,-0.396 0.302,-0.791 0.488,-1.163c0.186,-0.373 0.396,-0.721 0.629,-1.001c0.232,-0.279 0.488,-0.425 0.745,-0.425c0.418,0 0.714,0.093 0.898,0.278c0.186,0.205 0.279,0.466 0.279,0.838c0,0.07 -0.01,0.186 -0.031,0.349c-0.023,0.163 -0.046,0.326 -0.083,0.5l-0.1,0.49c-0.023,0.162 -0.07,0.278 -0.093,0.348c0.372,-0.409 0.791,-0.814 1.228,-1.221c0.443,-0.403 0.907,-0.768 1.373,-1.094c0.465,-0.326 0.954,-0.605 1.443,-0.803c0.488,-0.209 0.977,-0.314 1.465,-0.314c0.35,0 0.675,0.047 1.015,0.14c0.326,0.097 0.628,0.239 0.884,0.428c0.273,0.186 0.484,0.419 0.647,0.698c0.163,0.279 0.245,0.612 0.245,0.987c0,0.495 -0.131,1.023 -0.373,1.582c-0.256,0.567 -0.558,1.14 -0.944,1.699c-0.373,0.572 -0.785,1.126 -1.224,1.663c-0.443,0.535 -0.838,1.024 -1.234,1.466l-0.977,1.141c-0.256,0.302 -0.396,0.511 -0.4,0.627c0,0.14 0.046,0.257 0.14,0.35c0.093,0.093 0.255,0.139 0.465,0.139c0.181,0 0.438,-0.104 0.768,-0.302c0.344,-0.21 0.814,-0.536 1.419,-1.015c0.605,-0.488 1.387,-1.117 2.32,-1.931c0.931,-0.805 2.094,-1.815 3.46,-3.041l-0.179,-0.171c0.147,-0.1 0.279,-0.179 0.403,-0.239c0.12,-0.06 0.239,-0.093 0.348,-0.093c0.226,0 0.396,0.102 0.508,0.302c0.116,0.201 0.186,0.443 0.186,0.736c0,0.314 -0.07,0.635 -0.209,0.96c-0.14,0.327 -0.326,0.601 -0.606,0.815c-1.093,0.97 -2.07,1.855 -2.908,2.653c-0.861,0.798 -1.652,1.484 -2.42,2.059c-0.768,0.582 -1.513,1.024 -2.234,1.35c-0.722,0.326 -1.489,0.488 -2.327,0.488c-0.768,0 -1.372,-0.162 -1.792,-0.512c-0.418,-0.325 -0.628,-0.791 -0.628,-1.395l0,-0.14c0,-0.023 0.024,-0.093 0.024,-0.14c0.046,-0.349 0.209,-0.768 0.488,-1.256c0.279,-0.466 0.605,-0.954 1,-1.467c0.396,-0.511 0.815,-1.023 1.257,-1.535c0.442,-0.512 0.838,-1.001 1.233,-1.466c0.373,-0.466 0.675,-0.884 0.931,-1.28c0.256,-0.372 0.373,-0.698 0.373,-0.931c0,-0.139 -0.047,-0.255 -0.144,-0.348c-0.11,-0.07 -0.28,-0.117 -0.513,-0.117c-0.418,0 -0.837,0.117 -1.27,0.326c-0.442,0.209 -0.875,0.512 -1.303,0.861c-0.419,0.372 -0.838,0.768 -1.238,1.233c-0.4,0.465 -0.768,0.954 -1.14,1.443c-0.349,0.512 -0.675,1 -0.978,1.512c-0.278,0.512 -0.535,0.977 -0.744,1.396l-0.256,0.559l-0.349,0.837l-0.419,0.931l-0.396,0.907l-0.325,0.768c-0.093,0.233 -0.163,0.373 -0.21,0.466c-0.046,0.116 -0.116,0.325 -0.232,0.628l-0.419,1.066l-0.489,1.279l-0.465,1.257l-0.396,1.066c-0.116,0.302 -0.186,0.507 -0.209,0.617c-0.117,0.302 -0.233,0.605 -0.372,0.884c-0.14,0.279 -0.292,0.519 -0.471,0.731c-0.176,0.209 -0.381,0.383 -0.612,0.511c-0.232,0.117 -0.488,0.187 -0.767,0.187c-0.373,0 -0.675,-0.094 -0.908,-0.261c-0.233,-0.163 -0.372,-0.512 -0.372,-1.001c0,-0.232 0.023,-0.488 0.093,-0.745c0.046,-0.255 0.139,-0.492 0.232,-0.744c0.07,-0.256 0.187,-0.488 0.28,-0.721c0.093,-0.233 0.186,-0.466 0.256,-0.689c0.535,-1.21 1.105,-2.42 1.675,-3.644c0.57,-1.224 1.117,-2.42 1.652,-3.607c0.198,-0.446 0.391,-0.89 0.578,-1.331c-0.149,0.147 -0.299,0.294 -0.45,0.44c-0.652,0.629 -1.326,1.21 -1.977,1.699c-0.652,0.489 -1.304,0.861 -1.955,1.163c-0.652,0.28 -1.28,0.419 -1.885,0.419c-0.419,0 -0.768,-0.07 -1.047,-0.209c-0.279,-0.14 -0.489,-0.326 -0.675,-0.559c-0.163,-0.232 -0.279,-0.512 -0.349,-0.814c-0.019,-0.089 -0.034,-0.178 -0.047,-0.267c-0.202,0.158 -0.406,0.31 -0.611,0.455c-0.634,0.447 -1.257,0.808 -1.869,1.08c-0.614,0.272 -1.164,0.407 -1.652,0.407c-0.489,0 -0.891,-0.163 -1.199,-0.489c-0.307,-0.325 -0.46,-0.884 -0.46,-1.675c0,-0.558 0.084,-1.21 0.246,-1.955c-0.265,0.466 -0.598,0.954 -0.995,1.42c-0.396,0.488 -0.854,0.931 -1.364,1.326c-0.512,0.396 -1.084,0.721 -1.717,0.954c-0.633,0.233 -1.322,0.373 -2.071,0.373c-0.333,0 -0.659,-0.047 -0.97,-0.14c-0.326,-0.093 -0.605,-0.233 -0.838,-0.442c-0.233,-0.21 -0.419,-0.488 -0.582,-0.838c-0.139,-0.349 -0.209,-0.791 -0.209,-1.303l0.047,-0.558c0.046,-0.349 0.162,-0.931 0.395,-1.699c0.233,-0.768 0.558,-1.768 1.024,-3.002c0.465,-1.233 1.094,-2.699 1.931,-4.444c0.209,-0.465 0.442,-0.791 0.745,-1c0.279,-0.21 0.581,-0.303 0.907,-0.303c0.14,0 0.279,0.024 0.442,0.07c0.14,0.023 0.28,0.093 0.419,0.186c0.14,0.093 0.233,0.209 0.326,0.349c0.069,0.116 0.116,0.28 0.116,0.466c0,0.116 -0.023,0.232 -0.047,0.325c-0.069,0.21 -0.162,0.466 -0.325,0.791l-0.605,1.15c-0.233,0.419 -0.465,0.884 -0.722,1.377c-0.255,0.496 -0.488,1.024 -0.698,1.541c-0.209,0.535 -0.395,1.081 -0.558,1.629c-0.163,0.558 -0.256,1.093 -0.279,1.605c0,0.233 0.046,0.419 0.14,0.605c0.093,0.186 0.279,0.279 0.511,0.279c0.652,0 1.304,-0.209 1.908,-0.651c0.605,-0.435 1.164,-0.978 1.676,-1.625c0.512,-0.651 0.977,-1.349 1.396,-2.093c0.419,-0.745 0.744,-1.42 1.023,-2.035c0.187,-0.411 0.373,-0.854 0.513,-1.325c0.139,-0.466 0.302,-0.908 0.488,-1.304c0.163,-0.395 0.373,-0.735 0.605,-1c0.21,-0.265 0.489,-0.396 0.838,-0.396c0.349,0 0.651,0.14 0.861,0.419c0.209,0.279 0.326,0.605 0.326,1c0,0.21 -0.07,0.513 -0.21,0.885c-0.14,0.372 -0.302,0.814 -0.512,1.303l-0.675,1.575c-0.255,0.558 -0.465,1.117 -0.675,1.699c-0.209,0.57 -0.395,1.14 -0.534,1.685c-0.14,0.558 -0.21,1.07 -0.21,1.535c0,0.442 0.233,0.651 0.675,0.651c0.326,0 0.721,-0.093 1.187,-0.325c0.465,-0.209 0.954,-0.512 1.465,-0.907c0.218,-0.169 0.436,-0.35 0.653,-0.543Zm-16.792,-3.492c-0.039,0.06 -0.116,0.251 -0.221,0.57c-0.107,0.321 -0.237,0.721 -0.391,1.21c-0.153,0.482 -0.321,1.023 -0.497,1.621l-0.552,1.834c-0.209,0.624 -0.372,1.234 -0.559,1.834l-0.465,1.624l-0.349,1.215l-0.163,0.581c-0.07,0.194 -0.14,0.407 -0.256,0.644c-0.116,0.234 -0.255,0.459 -0.395,0.671c-0.164,0.209 -0.326,0.389 -0.512,0.528c-0.186,0.14 -0.373,0.21 -0.582,0.21c-0.326,0 -0.558,-0.112 -0.722,-0.326c-0.162,-0.222 -0.232,-0.619 -0.232,-1.201l0,-0.526c0,-0.193 0.093,-0.558 0.232,-1.089c0.14,-0.535 0.303,-1.135 0.513,-1.806c0.186,-0.675 0.418,-1.368 0.628,-2.086l0.628,-1.956c-0.558,0.606 -1.14,1.211 -1.769,1.792c-0.627,0.605 -1.279,1.141 -1.931,1.606c-0.675,0.466 -1.349,0.861 -2.024,1.164c-0.675,0.302 -1.326,0.441 -1.955,0.441c-0.721,0 -1.326,-0.162 -1.838,-0.488c-0.512,-0.326 -0.954,-0.721 -1.279,-1.233c-0.327,-0.512 -0.582,-1.094 -0.745,-1.722c-0.091,-0.603 -0.184,-1.254 -0.184,-1.883l0,-0.232c0,-0.07 0.009,-0.147 0.023,-0.219c0.056,-1.163 0.221,-2.35 0.489,-3.57c0.279,-1.228 0.628,-2.443 1.07,-3.652c0.442,-1.211 0.954,-2.397 1.536,-3.551c0.605,-1.108 1.233,-2.202 1.908,-3.225c0.674,-1.024 1.401,-1.979 2.164,-2.84c0.768,-0.865 1.552,-1.61 2.36,-2.233c0.805,-0.628 1.619,-1.117 2.443,-1.466c0.814,-0.349 1.629,-0.536 2.434,-0.536c0.931,0 1.829,0.257 2.699,0.761c0.861,0.52 1.675,1.334 2.439,2.474c0.172,0.256 0.278,0.512 0.325,0.772c0.046,0.256 0.07,0.506 0.07,0.734c0,0.544 -0.128,0.977 -0.388,1.289c-0.257,0.326 -0.559,0.465 -0.931,0.465c-0.326,0 -0.629,-0.163 -0.908,-0.512c-0.279,-0.349 -0.605,-0.838 -0.931,-1.466c-0.326,-0.582 -0.674,-1 -1.07,-1.257c-0.395,-0.255 -0.815,-0.371 -1.28,-0.371c-0.721,0 -1.466,0.302 -2.28,0.907c-0.815,0.605 -1.606,1.373 -2.397,2.35c-0.791,0.977 -1.559,2.094 -2.28,3.351c-0.721,1.256 -1.373,2.536 -1.932,3.862c-0.558,1.327 -1,2.606 -1.326,3.886c-0.326,1.28 -0.488,2.42 -0.488,3.444c0,0.349 0.023,0.698 0.069,1.047c0.047,0.373 0.14,0.675 0.256,0.977c0.117,0.303 0.303,0.536 0.535,0.722c0.233,0.186 0.513,0.279 0.838,0.279c0.372,0 0.815,-0.117 1.28,-0.372c0.488,-0.256 0.978,-0.582 1.489,-1.001c0.512,-0.419 1.047,-0.884 1.559,-1.396c0.512,-0.512 1.024,-1.047 1.466,-1.583c0.442,-0.534 0.861,-1.047 1.186,-1.535c0.35,-0.489 0.606,-0.908 0.792,-1.28l1.347,-4.33c0.172,-0.459 0.395,-0.787 0.682,-0.977c0.279,-0.196 0.565,-0.294 0.861,-0.294c0.14,0 0.286,0.023 0.43,0.07c0.14,0.047 0.275,0.121 0.389,0.224c0.117,0.093 0.203,0.232 0.27,0.395c0.07,0.163 0.116,0.349 0.116,0.582c0,0.582 -0.046,1.131 -0.139,1.638c-0.093,0.512 -0.233,1.001 -0.396,1.489c-0.14,0.477 -0.326,0.964 -0.512,1.454c-0.186,0.489 -0.372,1.001 -0.558,1.536l-0.089,-0.039Z"/></g></svg>