<?xml version="1.0" encoding="UTF-8" standalone="no"?><!DOCTYPE svg PUBLIC "-//W3C//DTD SVG 1.1//EN" "http://www.w3.org/Graphics/SVG/1.1/DTD/svg11.dtd"><svg width="100%" height="100%" viewBox="0 0 70 70" version="1.1" xmlns="http://www.w3.org/2000/svg" xmlns:xlink="http://www.w3.org/1999/xlink" xml:space="preserve" xmlns:serif="http://www.serif.com/" style="fill-rule:evenodd;clip-rule:evenodd;stroke-linejoin:round;stroke-miterlimit:1.41421;"><rect id="_-node" serif:id="©node" x="0" y="0" width="70" height="70" style="fill:#999;"/><clipPath id="_clip1"><rect id="_-node1" serif:id="©node" x="0" y="0" width="70" height="70"/></clipPath><g clip-path="url(#_clip1)"><path d="M34.636,57.902c-0.613,0 -1.223,-0.161 -1.76,-0.47l-5.604,-3.318c-0.837,-0.468 -0.428,-0.633 -0.152,-0.729c1.116,-0.39 1.342,-0.479 2.533,-1.155c0.125,-0.071 0.289,-0.046 0.417,0.029l4.305,2.555c0.155,0.084 0.376,0.084 0.52,0l16.785,-9.688c0.155,-0.089 0.256,-0.269 0.256,-0.454l0,-19.368c0,-0.194 -0.101,-0.366 -0.26,-0.463l-16.778,-9.679c-0.155,-0.093 -0.361,-0.093 -0.516,0l-16.775,9.679c-0.162,0.093 -0.266,0.274 -0.266,0.458l0,19.369c0,0.184 0.101,0.361 0.261,0.449l4.596,2.655c2.496,1.248 4.021,-0.222 4.021,-1.701l0,-19.116c0,-0.273 0.214,-0.483 0.487,-0.483l2.126,0c0.265,0 0.483,0.21 0.483,0.483l0,19.124c0,3.328 -1.815,5.239 -4.97,5.239c-0.97,0 -1.735,0 -3.869,-1.05l-4.403,-2.538c-1.088,-0.63 -1.761,-1.806 -1.761,-3.062l0,-19.369c0,-1.26 0.673,-2.436 1.761,-3.058l16.801,-9.693c1.063,-0.601 2.474,-0.601 3.529,0l16.78,9.697c1.084,0.626 1.761,1.798 1.761,3.059l0,19.368c0,1.256 -0.677,2.428 -1.761,3.058l-16.78,9.693c-0.538,0.311 -1.147,0.47 -1.769,0.47l0.002,0.009Zm12.386,-25.531l-2.18,0c-0.227,0 -0.425,-0.16 -0.471,-0.378c-0.525,-2.323 -1.794,-3.067 -5.243,-3.067c-3.861,0 -4.311,1.344 -4.311,2.353c0,1.222 0.53,1.579 5.739,2.268c5.16,0.685 7.609,1.652 7.609,5.277c0,3.656 -3.05,5.752 -8.369,5.752l0.024,-0.02c-7.344,0 -8.883,-3.371 -8.883,-6.198c0,-0.269 0.216,-0.484 0.486,-0.484l2.168,0c0.239,0 0.441,0.175 0.479,0.411c0.327,2.209 1.302,3.324 5.743,3.324c3.537,0 5.041,-0.799 5.041,-2.675c0,-1.08 -0.428,-1.883 -5.923,-2.42c-4.597,-0.454 -7.437,-1.467 -7.437,-5.143c0,-3.386 2.857,-5.403 7.642,-5.403c5.374,0 8.038,1.866 8.374,5.874c0.012,0.138 -0.038,0.273 -0.131,0.374c-0.092,0.096 -0.222,0.155 -0.357,0.155Zm16.978,-8.109c0,1.782 -1.458,3.236 -3.235,3.236c-1.765,0 -3.235,-1.437 -3.235,-3.236c0,-1.831 1.504,-3.235 3.235,-3.235c1.743,0 3.231,1.408 3.231,3.235l0.004,0Zm-5.945,-0.008c0,1.504 1.214,2.723 2.706,2.723c1.504,0 2.718,-1.244 2.718,-2.723c0,-1.508 -1.231,-2.706 -2.722,-2.706c-1.471,0 -2.706,1.181 -2.706,2.702l0.004,0.004Zm2.202,1.828l-0.702,0l0,-3.634l1.248,0c0.428,0 1.269,0 1.269,0.957c0,0.668 -0.429,0.807 -0.685,0.891c0.5,0.034 0.533,0.361 0.601,0.824c0.033,0.289 0.088,0.789 0.189,0.957l-0.769,0c-0.021,-0.168 -0.139,-1.092 -0.139,-1.142c-0.05,-0.206 -0.122,-0.307 -0.378,-0.307l-0.634,0l0,1.454Zm0.567,-3.055l-0.58,0l-0.004,1.009l0.563,0c0.462,0 0.55,-0.324 0.55,-0.513c0,-0.496 -0.34,-0.496 -0.529,-0.496Z" style="fill-rule:nonzero;"/></g></svg>