<?xml version="1.0" encoding="UTF-8" standalone="no"?><!DOCTYPE svg PUBLIC "-//W3C//DTD SVG 1.1//EN" "http://www.w3.org/Graphics/SVG/1.1/DTD/svg11.dtd"><svg width="100%" height="100%" viewBox="0 0 70 70" version="1.1" xmlns="http://www.w3.org/2000/svg" xmlns:xlink="http://www.w3.org/1999/xlink" xml:space="preserve" xmlns:serif="http://www.serif.com/" style="fill-rule:evenodd;clip-rule:evenodd;stroke-linejoin:round;stroke-miterlimit:1.41421;"><rect id="_-postgre" serif:id="©postgre" x="0" y="0" width="70" height="70" style="fill:#999;"/><clipPath id="_clip1"><rect id="_-postgre1" serif:id="©postgre" x="0" y="0" width="70" height="70"/></clipPath><g clip-path="url(#_clip1)"><path d="M58.771,39.084c1.312,0.038 2.604,0.921 2.812,2.267c0.218,1.415 -0.848,2.753 -2.009,3.652c-2.325,1.797 -5.406,2.598 -8.413,2.498c-0.064,-0.002 -0.128,-0.005 -0.192,-0.008l-0.425,-0.038c-0.027,0.23 -0.054,0.46 -0.08,0.69c0,0 -0.021,0.686 -0.05,1.282c-0.113,2.321 -0.343,4.656 -1.058,6.879c-0.607,1.889 -1.677,3.694 -3.312,4.825c-1.342,0.929 -2.96,1.396 -4.585,1.674c-1.622,0.277 -3.362,0.121 -4.747,-0.758c-1.463,-0.93 -2.269,-2.601 -2.831,-4.276c-0.949,-2.802 -0.882,-5.821 -0.973,-8.714l-0.003,-0.108c-2.082,0.906 -4.551,0.958 -6.761,0.291c-0.958,-0.289 -1.879,-0.762 -2.526,-1.528c0,0 -0.382,0.29 -0.705,0.491c-1.388,0.859 -3.166,0.993 -4.711,0.19c-1.767,-0.919 -2.943,-2.659 -3.876,-4.363c-1.568,-2.862 -2.606,-5.992 -3.511,-9.149c-0.977,-3.414 -1.813,-6.866 -2.269,-10.39c-0.211,-1.632 -0.202,-3.292 -0.018,-4.921c0.396,-3.521 1.955,-7.06 5.162,-9.015c3.46,-2.109 7.957,-2.053 11.987,-1.217c1.248,0.259 2.48,0.594 3.688,1c0,0 0.381,-0.202 0.688,-0.358c3.06,-1.551 6.755,-1.553 10.068,-0.992c0,0 0.318,-0.044 0.573,-0.114c4.685,-1.29 9.836,-1.226 14.248,1.063c1.975,1.026 3.705,2.496 5.086,4.253c0,0 0.212,0.277 0.37,0.548c0.788,1.357 0.966,2.991 0.954,4.587c-0.026,3.503 -0.922,6.974 -2.07,10.331c-1.18,3.447 -2.712,6.768 -4.579,9.919l-0.005,0.01c1.382,-0.043 2.768,-0.499 3.985,-0.502c0.044,0 0.044,0 0.088,0.001Z" style="fill-rule:nonzero;"/><path d="M40.052,10.617c0.142,-0.059 0.434,-0.175 0.736,-0.263c1.888,-0.554 3.854,-0.824 5.822,-0.835c0.045,0 0.09,-0.001 0.136,-0.001c4.457,0.014 8.887,1.725 11.777,5.227c0.898,1.087 1.048,1.951 1.163,2.872c0.379,3.012 -0.31,6.088 -1.138,9.022c-1.395,4.948 -3.574,9.685 -6.381,13.951c0.425,0.373 1.279,0.441 2.071,0.456c1.229,0.022 2.465,-0.213 3.655,-0.43c0.951,-0.168 2.377,-0.069 2.12,1.293c-0.165,0.868 -0.924,1.455 -1.704,2.011c-2.185,1.559 -5.039,2.196 -7.745,1.929c-0.38,-0.037 -0.773,-0.096 -1.136,-0.208c-0.283,2.984 -0.693,5.973 -1.162,8.914c-0.334,2.089 -0.985,4.17 -2.81,5.411c-1.174,0.8 -2.589,1.21 -3.94,1.429c-1.798,0.291 -3.738,-0.058 -5.047,-1.366c-0.733,-0.733 -1.218,-1.677 -1.609,-2.65c-0.206,-0.522 -0.206,-0.698 -0.252,-0.938c-0.5,-2.621 -0.474,-5.337 -0.495,-8.024c-0.005,-0.719 -0.005,-1.439 0.001,-2.159c-1.287,1.125 -3.017,1.788 -4.774,1.813c-1.478,0.021 -3.025,-0.2 -4.165,-1.033c-0.544,-0.397 -0.974,-1.136 -0.63,-1.81c0.47,-0.92 1.794,-1.109 2.786,-1.326c0.927,-0.205 1.897,-0.416 2.498,-1.128c0.29,-0.343 0.565,-0.727 0.857,-1.084c-0.011,-0.032 -0.038,-0.053 -0.099,-0.055c0,0 -0.333,-0.017 -0.573,-0.047c-0.838,-0.106 -1.635,-0.378 -2.365,-0.783c-1.477,1.573 -2.873,3.173 -4.279,4.844c-0.999,1.176 -2.462,2.063 -4.037,1.507c-1.34,-0.472 -2.277,-1.651 -3.028,-2.803c-1.841,-2.828 -2.916,-6.096 -3.884,-9.376c-1.092,-3.698 -2.064,-7.483 -2.456,-11.268c-0.165,-1.593 -0.101,-3.227 0.142,-4.767c0.426,-2.711 1.7,-5.401 4.026,-6.965c1.891,-1.272 4.257,-1.738 6.548,-1.753c0.04,0 0.079,0 0.118,0c3.012,0.01 6.037,0.643 8.806,1.701c1.834,-1.231 4.091,-1.81 6.311,-1.822c0.049,0 0.098,0 0.147,0c1.344,0.012 2.687,0.186 3.989,0.514Zm7.966,33.53c-0.033,-0.302 -0.012,-0.619 0.013,-0.915c0.096,-1.121 0.705,-2.257 1.832,-2.698c0.178,-0.07 0.444,-0.147 0.444,-0.147c-0.708,-1.016 -1.541,-1.95 -2.052,-3.145c-0.568,-1.334 -1.403,-2.561 -2.064,-3.883c-1.026,-2.055 -2.013,-4.183 -2.089,-6.541c-0.04,-1.26 0.335,-2.601 1.328,-3.435c1.33,-1.115 3.302,-1.204 5.18,-1.014c-0.686,-2.037 -1.861,-3.911 -3.292,-5.543c-2.94,-3.355 -7.362,-5.35 -11.847,-5.178c-2.54,0.097 -5.04,1.114 -6.762,3.133c-2.168,2.543 -3.061,5.924 -3.291,9.194c1.47,-0.84 3.128,-1.405 4.79,-1.423c0.028,0 0.055,0 0.083,0c1.217,0.009 2.451,0.441 3.218,1.379c0.698,0.853 0.916,1.991 1.115,3.107c0.541,3.043 0.562,6.195 -0.64,9.101c-0.583,1.412 -1.284,2.793 -1.653,4.328c0.094,-0.023 0.192,-0.04 0.293,-0.05c0.076,-0.008 0.151,-0.011 0.227,-0.01c1.632,0.033 3.04,1.777 2.838,3.42c-0.101,3.77 -0.163,7.6 0.281,11.342c0.218,1.841 0.812,3.767 2.722,4.527c1.477,0.588 3.195,0.156 4.52,-0.319c0.986,-0.354 1.931,-0.939 2.507,-1.827c0.658,-1.014 0.879,-2.259 1.063,-3.446c0.513,-3.314 0.968,-6.613 1.236,-9.957Zm-15.2,-2.204c-0.271,0.004 -0.493,0.232 -0.672,0.43c-0.638,0.714 -1.142,1.577 -1.905,2.105c-1.191,0.826 -2.846,0.752 -4.123,1.344c0,0 0.683,0.371 1.277,0.503c1.873,0.418 3.985,0.212 5.51,-1.061c0.878,-0.732 1.661,-1.793 0.859,-2.804c-0.23,-0.291 -0.59,-0.519 -0.946,-0.517Zm-4.604,-28.884c-3.081,-1.055 -6.344,-1.596 -9.413,-1.171c-1.925,0.267 -3.821,1.054 -5.106,2.491c-1.979,2.213 -2.397,5.496 -2.24,8.718c0.091,1.737 0.486,3.441 0.85,5.153c0.941,4.423 2.101,8.843 4.013,12.927c0.73,1.556 1.497,3.178 2.904,4.194c0.457,0.329 1.06,0.54 1.623,0.342c0.958,-0.338 1.551,-1.304 2.269,-2.143c1.061,-1.242 2.146,-2.465 3.266,-3.658c-1.861,-1.626 -2.997,-4.207 -2.716,-6.884c0.064,-0.613 0.155,-1.222 0.202,-1.835c0.14,-1.825 -0.016,-3.636 -0.042,-5.498c0,-0.048 0.003,-0.095 0.008,-0.14c-0.035,-0.423 0.005,-0.865 0.033,-1.301c0.263,-4.104 1.434,-8.37 4.349,-11.195Zm22.933,28.681c-0.427,0.142 -0.893,0.2 -1.198,0.526c-0.43,0.46 -0.421,1.156 -0.396,1.736c0,0 0.37,0.193 0.706,0.256c2.227,0.413 4.72,-0.143 6.391,-1.099c0.503,-0.288 0.988,-0.615 1.412,-1.011c0,0 -0.226,0.046 -0.471,0.093c-1.894,0.356 -3.938,0.663 -5.673,-0.071c-0.262,-0.111 -0.513,-0.253 -0.736,-0.43c0,0 0.01,-0.016 -0.035,0Zm-20.905,-17.652c-1.627,0.01 -3.251,0.626 -4.589,1.546c-0.121,0.083 -0.287,0.218 -0.287,0.218c0.106,2.394 0.171,4.778 -0.152,7.145c-0.433,3.351 1.866,7.088 5.617,7.107c0,0 0.038,-0.123 0.074,-0.254c0.606,-2.197 1.881,-4.203 2.332,-6.469c0.461,-2.315 0.176,-4.719 -0.312,-7.03c-0.159,-0.755 -0.475,-1.521 -1.151,-1.914c-0.455,-0.264 -0.999,-0.35 -1.532,-0.349Zm21.046,15.034c3.192,-5.004 5.551,-10.569 6.583,-16.342c0.324,-1.814 0.567,-3.69 0.212,-5.465c-0.281,-1.407 -1.524,-2.611 -2.822,-3.601c-3.491,-2.666 -8.309,-3.162 -12.66,-2.233c1.234,0.533 2.4,1.217 3.46,2.044c2.568,2.007 4.585,4.735 5.771,7.721c0.211,0.529 0.411,1.065 0.496,1.633c0.024,0.161 0.024,0.333 -0.012,0.494c0.003,0.033 0.004,0.066 0.006,0.1c0.064,2.127 -0.626,4.196 -0.474,6.314c0.163,2.261 0.662,4.556 0.12,6.741c-0.198,0.799 -0.522,1.566 -0.946,2.27c0.089,0.108 0.178,0.216 0.266,0.324Zm-0.501,-15.188c-1.151,-0.151 -2.321,-0.206 -3.397,0.124c-0.574,0.176 -1.115,0.505 -1.417,1.034c-0.511,0.893 -0.37,1.992 -0.177,2.923c0.604,2.905 2.3,5.576 3.629,8.108c0.213,0.405 0.412,0.818 0.632,1.225c0.866,-1.911 0.618,-4.196 0.373,-6.294c-0.202,-1.753 -0.087,-3.508 0.186,-5.321c0.089,-0.597 0.158,-1.195 0.171,-1.799Zm-20.339,1.009c0.85,0.011 2.008,0.393 1.689,1.092c-0.249,0.547 -0.925,0.833 -1.492,0.746c-0.691,-0.106 -1.353,-0.77 -1.308,-1.283l0.029,-0.235c0,0 0.528,-0.311 1.022,-0.32c0.03,0 0.03,0 0.06,0Zm18.915,0.044l0,0.004c0.005,0.039 0.003,0.041 0.003,0.06c-0.014,0.275 -0.226,0.521 -0.442,0.714c-0.566,0.504 -1.558,0.474 -2.03,-0.153c-0.011,-0.015 -0.022,-0.029 -0.032,-0.044c-0.236,-0.355 0.225,-0.753 0.708,-0.892c0.282,-0.082 0.577,-0.12 0.868,-0.118c0.39,0.008 0.87,0.077 0.925,0.429Z" style="fill:#ccc;fill-rule:nonzero;"/></g></svg>