<?xml version="1.0" encoding="UTF-8" standalone="no"?><!DOCTYPE svg PUBLIC "-//W3C//DTD SVG 1.1//EN" "http://www.w3.org/Graphics/SVG/1.1/DTD/svg11.dtd"><svg width="100%" height="100%" viewBox="0 0 70 70" version="1.1" xmlns="http://www.w3.org/2000/svg" xmlns:xlink="http://www.w3.org/1999/xlink" xml:space="preserve" xmlns:serif="http://www.serif.com/" style="fill-rule:evenodd;clip-rule:evenodd;stroke-linejoin:round;stroke-miterlimit:1.41421;"><rect id="_-react" serif:id="©react" x="0" y="0" width="70" height="70" style="fill:#999;"/><clipPath id="_clip1"><rect id="_-react1" serif:id="©react" x="0" y="0" width="70" height="70"/></clipPath><g clip-path="url(#_clip1)"><path d="M17.951,25.207c-0.347,-1.568 -0.614,-3.149 -0.794,-4.737c-0.548,-4.835 -0.392,-11.26 5.986,-11.498c0.091,-0.003 0.181,-0.004 0.272,-0.003c4.281,0.061 8.11,3.086 11.519,6.394c2.674,-2.669 5.659,-4.889 9.038,-5.951c0.902,-0.284 1.842,-0.453 2.79,-0.443c1.583,0.039 3.134,0.673 4.207,1.884c2.921,3.297 2.235,8.196 1.49,12.077c-0.139,0.727 -0.295,1.451 -0.468,2.171c2.577,0.755 5.028,1.77 7.27,3.123c3.037,1.832 5.958,4.936 4.575,8.703c-1.249,3.399 -4.804,5.227 -7.922,6.506c-1.269,0.521 -2.56,0.977 -3.87,1.374c0.336,1.521 0.598,3.054 0.78,4.597c0.076,0.648 0.131,1.299 0.158,1.951c0.021,0.497 0.025,0.995 0.01,1.493c-0.012,0.363 -0.034,0.727 -0.068,1.089c-0.027,0.278 -0.061,0.555 -0.104,0.831c-0.463,2.985 -2.552,6.154 -5.967,6.259c-4.23,0.131 -8.135,-2.898 -11.577,-6.185c-0.07,-0.066 -0.14,-0.133 -0.209,-0.2c-2.872,2.882 -6.093,5.242 -9.705,6.131c-2.231,0.549 -4.745,0.166 -6.335,-1.627c-2.954,-3.331 -2.23,-8.299 -1.465,-12.211c0.138,-0.703 0.291,-1.403 0.46,-2.1c-2.534,-0.715 -4.967,-1.678 -7.19,-3.002c-3.09,-1.839 -6.054,-4.996 -4.672,-8.76c1.235,-3.367 4.749,-5.191 7.803,-6.458c1.305,-0.542 2.636,-1.008 3.988,-1.408Zm31.624,20.274c-2.601,0.634 -5.263,1.053 -7.956,1.29c-0.568,0.786 -1.152,1.561 -1.748,2.325c-1,1.281 -2.053,2.571 -3.161,3.805c1.943,1.857 4.057,3.438 6.368,4.587c1.763,0.876 3.916,1.644 5.562,0.378c2.206,-1.697 1.945,-4.913 1.754,-7.266c-0.141,-1.724 -0.422,-3.431 -0.819,-5.119Zm-29.122,-0.038c-0.243,1.062 -0.449,2.13 -0.616,3.202c-0.648,4.151 -0.762,9.718 3.384,9.846c3.617,0.112 6.964,-2.775 9.987,-5.715c-1.855,-1.939 -3.602,-4.006 -5.215,-6.179c-0.37,-0.037 -0.739,-0.077 -1.108,-0.119c-2.149,-0.244 -4.313,-0.568 -6.432,-1.035Zm11.069,1.438c1.067,1.458 2.193,2.864 3.388,4.174c1.244,-1.306 2.435,-2.671 3.566,-4.088c-2.311,0.086 -4.635,0.05 -6.954,-0.086Zm8.804,-21.102c-1.655,-0.109 -3.317,-0.16 -4.974,-0.17c-0.177,0 -0.354,0 -0.532,0c-1.756,0.006 -3.541,0.038 -5.326,0.131c-2.031,2.857 -3.821,5.89 -5.311,9.041c1.064,2.138 2.25,4.235 3.49,6.279c0.655,1.078 1.334,2.158 2.042,3.224c3.582,0.319 7.193,0.345 10.749,0.051c2.046,-2.863 3.847,-5.903 5.345,-9.064c-1.032,-2.108 -2.182,-4.171 -3.396,-6.182c-0.669,-1.108 -1.363,-2.217 -2.087,-3.31Zm6.743,12.234c-1.072,2.05 -2.257,4.048 -3.534,5.986c1.813,-0.248 3.605,-0.583 5.366,-1.01c-0.512,-1.68 -1.13,-3.34 -1.832,-4.976Zm-24.353,0.155c-0.619,1.571 -1.161,3.166 -1.621,4.778c0.19,0.041 0.38,0.082 0.569,0.123c1.454,0.31 2.924,0.574 4.404,0.788c-1.219,-1.837 -2.342,-3.738 -3.352,-5.689Zm-4.212,-10.715c-2.705,0.816 -5.258,1.986 -7.54,3.661c-0.204,0.15 -0.404,0.306 -0.598,0.47c-0.16,0.135 -0.316,0.275 -0.466,0.42c-0.106,0.102 -0.209,0.207 -0.308,0.315c-1.132,1.226 -1.603,3.234 -0.473,4.788c2.068,2.844 5.692,4.276 9.563,5.271c0.713,-2.414 1.603,-4.781 2.642,-7.09c-1.146,-2.549 -2.096,-5.17 -2.82,-7.835Zm32.813,0.168c-0.714,2.422 -1.606,4.793 -2.648,7.106c1.11,2.467 2.036,5.002 2.752,7.583c0.566,-0.169 1.129,-0.348 1.688,-0.538c3.967,-1.344 9.13,-3.458 8.499,-7.248c-0.472,-2.833 -3.517,-4.211 -5.808,-5.245c-1.456,-0.658 -2.954,-1.205 -4.483,-1.658Zm-16.319,2.176c2.871,0 5.203,2.331 5.203,5.203c0,2.871 -2.332,5.202 -5.203,5.202c-2.872,0 -5.203,-2.331 -5.203,-5.202c0,-2.872 2.331,-5.203 5.203,-5.203Zm-8.511,-3.836c-1.869,0.182 -3.722,0.452 -5.525,0.852c0.53,1.763 1.187,3.507 1.939,5.228c1.086,-2.082 2.288,-4.111 3.586,-6.08Zm17.404,0.152c1.236,1.858 2.372,3.778 3.393,5.75c0.629,-1.601 1.179,-3.226 1.643,-4.87c-1.654,-0.383 -3.337,-0.67 -5.036,-0.88Zm-10.606,-9.009c-1.894,-1.806 -3.951,-3.355 -6.2,-4.509c-1.192,-0.611 -2.48,-1.104 -3.806,-1.088c-2.397,0.058 -3.565,3.042 -3.711,5.159c-0.026,0.384 -0.037,0.769 -0.036,1.154c0.009,2.267 0.308,4.52 0.829,6.749c2.591,-0.61 5.246,-1 7.934,-1.229c0.595,-0.824 1.205,-1.636 1.829,-2.437c1.003,-1.284 2.054,-2.57 3.161,-3.799Zm16.281,7.368c0.242,-1.073 0.446,-2.153 0.611,-3.237c0.636,-4.184 0.581,-9.735 -3.576,-9.729c-3.642,0.053 -6.879,2.851 -9.819,5.722c1.834,1.924 3.561,3.969 5.157,6.112c2.584,0.213 5.149,0.569 7.627,1.132Zm-14.481,-5.525c-1.27,1.339 -2.487,2.74 -3.64,4.196c1.242,-0.051 2.488,-0.073 3.736,-0.072c1.097,0.004 2.202,0.025 3.309,0.066c-1.071,-1.464 -2.203,-2.875 -3.405,-4.19Z"/></g></svg>