<svg xmlns="http://www.w3.org/2000/svg" style="display: none;">
    <symbol id="icon-close" viewBox="0 0 32 32">
      <title>close icon</title>
      <path d="M13.584 16l-5.088-5.119 2.432-2.434 5.088 5.121 5.12-5.121 2.433 2.434-5.153 5.119 5.152 5.121-2.433 2.432-5.12-5.152-5.151 5.152-2.433-2.432 5.153-5.121z"/>
    </symbol>

    <symbol id="icon-codepen" viewBox="0 0 24 24">
      <title>codepen icon</title>
      <path d="M23.982 8.164l-.019-.086-.016-.051-.027-.074-.022-.051-.035-.068-.029-.048-.044-.062-.035-.044-.051-.057-.042-.04-.059-.049-.047-.035-.017-.013-10.967-7.313c-.347-.23-.798-.23-1.145 0l-10.968 7.312-.017.014-.046.035-.059.048-.041.041-.052.056-.035.045-.044.062-.029.049-.035.067-.022.05-.027.075-.017.049-.017.086-.009.045-.009.135v7.314l.01.135.01.044.02.088.016.05.025.075.023.048.035.069.029.047.045.062.036.044.052.056.042.039.058.049.046.035.016.013 10.966 7.316c.173.116.371.175.571.174s.398-.058.572-.174l10.969-7.312.017-.013.047-.035.059-.049.042-.04.051-.057.035-.044.044-.062.029-.047.035-.069.022-.05.027-.075.016-.05.019-.087.008-.045.008-.135v-7.312l-.009-.135-.011-.045h.002zm-11.982 6.275l-3.647-2.439 3.647-2.439 3.647 2.439-3.647 2.439zm-1.031-6.67l-4.472 2.991-3.608-2.415 8.08-5.387v4.811zm-6.326 4.231l-2.58 1.725v-3.45l2.58 1.725zm1.854 1.241l4.472 2.99v4.812l-8.08-5.388 3.608-2.414zm6.534 2.99l4.471-2.99 3.609 2.414-8.08 5.387v-4.811zm6.326-4.231l2.58-1.726v3.451l-2.58-1.725zm-1.855-1.24l-4.471-2.99v-4.812l8.08 5.387-3.609 2.415z"/>
    </symbol>

    <symbol id="icon-deviantart" viewBox="0 0 36 24">
      <title>deviantart icon</title>
      <path d="M1.406 14.039c.938-1.383 2.309-2.637 4.113-3.762 1.969-1.147 4.219-2.004 6.75-2.566.234-.023.352-.165.352-.423v-3.0580000000000003c1.735-.165 3.293-.316 4.676-.457v3.339h.879c3.492.023 6.691.622 9.598 1.794 2.648 1.078 4.723 2.507 6.223 4.289 1.335 1.641 2.003 3.363 2.003 5.168v.316c0 .188-.023.433-.07.738l-.069.772-17.052-.034v-9.212l.738.036c.422 0 .751.012.984.035.352.047.844.129 1.477.246l1.09.211c.258.047.387.199.387.457v4.605h5.977c-.023 0-.059-.176-.105-.527-.609-2.321-2.086-3.996-4.43-5.027-1.477-.656-3.246-1.043-5.309-1.16h-2.145v10.266h-17.051l-.211.141c-.141-.585-.211-1.195-.211-1.827 0-1.477.469-2.93 1.406-4.36zm11.145 2.637l.035-6.047c-1.452.163-2.777.891-3.973 2.18-1.266 1.266-1.922 2.555-1.969 3.867h-.035 5.942z"/>
    </symbol>

    <symbol id="icon-expand" viewBox="0 0 24 24">
      <title>expand icon</title>
      <path d="M11.64 14.86l-5.187 5.187 2.25 2.25c.188.187.297.438.297.703 0 .547-.453 1-1 1h-7c-.547 0-1-.453-1-1v-7c0-.547.453-1 1-1 .265 0 .516.109.703.297l2.25 2.25 5.187-5.187c.095-.095.234-.157.36-.157s.265.062.36.157l1.78 1.78c.095.095.157.234.157.36s-.062.265-.157.36zm12.36-6.86c0 .547-.453 1-1 1-.265 0-.516-.109-.703-.297l-2.25-2.25-5.187 5.187c-.095.095-.234.157-.36.157s-.265-.062-.36-.157l-1.78-1.78c-.095-.095-.157-.234-.157-.36s.062-.265.157-.36l5.187-5.187-2.25-2.25c-.188-.187-.297-.438-.297-.703 0-.547.453-1 1-1h7c.547 0 1 .453 1 1v7z"/>
    </symbol>

    <symbol id="icon-github" viewBox="0 0 22 24">
      <title>github icon</title>
      <path d="M.161 15.765c.089-.155 1.229-.702 2.965 1.341l.018.01c.122.101.694.919 1.018 1.214 1.385 1.248 3.458.281 3.694.141.11-.895.447-1.6 1.012-2.118-.564-.031-1.067-.109-1.506-.235-.486-.062-.965-.203-1.435-.423-.534-.157-.989-.385-1.365-.683-.408-.219-.792-.549-1.152-.988-.377-.377-.69-.831-.942-1.365-.25-.47-.447-1.074-.588-1.811-.141-.675-.212-1.451-.212-2.33 0-1.615.541-3.035 1.624-4.259-.064-.126-.776-1.806.187-4.212 1.302-.047 2.706.549 4.353 1.599 1.208-.281 2.533-.454 3.977-.518 1.365.048 2.69.221 3.977.518.548-.329 2.48-1.646 4.328-1.552.886 2.094.259 3.984.165 4.188 1.082 1.083 1.623 2.455 1.623 4.118v.141l.012.354c0 .65-.074 1.31-.224 1.977-.125.627-.321 1.23-.588 1.812-.219.438-.526.886-.918 1.341-.345.346-.729.667-1.153.965-.376.221-.823.439-1.341.659-.502.156-.98.298-1.436.423-.471.062-.973.142-1.506.235.706.597 1.067 1.569 1.083 2.918-.007.407-.011.841-.011 1.3l.011 1.453c-.016.502-.023.883-.023 1.142s.007.396.023.411c-1.301.313-2.548.469-3.74.469h-.353c-1.279 0-2.526-.156-3.742-.471-.016-.016-.023-.918-.023-2.705-.487.109-3.692.738-5.114-1.637-.453-.703-.831-2.421-2.368-3.187-.163.422-.679.062-.33-.235z"/>
    </symbol>

    <symbol id="icon-linkedin" viewBox="0 0 24 24">
      <title>linkedin icon</title>
      <path d="M.948 4.964c.577.562 1.257.843 2.037.843.812 0 1.499-.281 2.061-.843.562-.578.843-1.245.843-2.002v-.11699999999999999c0-.757-.281-1.424-.843-2.002-.562-.562-1.241-.843-2.037-.843-.78 0-1.46.281-2.037.843-.562.577-.843 1.256-.843 2.037l-.047.047c.016.78.305 1.459.866 2.037zm-.586 18.755c.126.109.266.164.422.164h4.285c.156 0 .297-.062.422-.187.124-.125.187-.266.187-.421v-15.08c0-.171-.055-.32-.164-.445-.124-.109-.257-.164-.398-.164h-4.308c-.141 0-.273.054-.397.164-.11.125-.165.266-.165.422v15.079l-.07.07c0 .141.062.273.186.398zm7.704.117c.157.109.297.164.421.164h4.332c.141 0 .289-.062.445-.188.078-.109.133-.25.164-.421l-.047-8.196c.031-1.062.241-1.889.632-2.482.438-.593 1.155-.89 2.154-.89.827 0 1.373.188 1.639.562.312.375.469.905.469 1.592v.188l.047 9.226c-.031.141.031.273.188.397.093.109.233.164.421.164h4.332c.188 0 .327-.07.421-.211.156-.109.219-.25.188-.421l.047-10.162c-.031-1.967-.593-3.442-1.686-4.426-1.124-.983-2.646-1.475-4.566-1.475h-.175c-1.741 0-3.135.5-4.18 1.499l-.023-.257.023-.164c-.031-.062-.047-.164-.047-.304-.047-.156-.102-.266-.164-.328-.094-.031-.211-.055-.352-.07l-4.168.023c-.156-.015-.296.04-.421.164-.109.11-.164.25-.164.422v15.08l-.117.117c.031.139.094.272.187.397z"/>
    </symbol>

    <symbol id="icon-mail" viewBox="0 0 28 24">
      <title>mail icon</title>
      <path d="M.947 4.581l9.006 7.551-9.006 7.397v-14.948zm9.824 8.296l3.229 2.723 3.229-2.723 9.233 7.639-.284.198-.307.154c-.106.044-.22.078-.34.098-.122.023-.243.034-.365.034h-22.354c-.121 0-.239-.011-.353-.034-.113-.021-.228-.054-.341-.098l-.318-.154c-.1-.059-.187-.124-.261-.198l9.232-7.639zm-8.971-9.591l.318-.154c.113-.043.228-.077.341-.098.113-.023.231-.034.353-.034h22.354c.137 0 .262.011.376.034.112.021.223.055.329.098l.307.154.284.198-12.462 10.315-12.461-10.316c.074-.073.161-.139.261-.197zm25.253 1.295v14.948l-9.006-7.397 9.006-7.551z"/>
    </symbol>

    <symbol id="icon-menu" viewBox="0 0 36 24">
      <title>menu icon</title>
      <path d="M3.6 0h28.8v4.8h-28.8v-4.8zm0 14.4h28.8v-4.8h-28.8v4.8zm0 9.6h28.8v-4.8h-28.8v4.8z"/>
    </symbol>

    <symbol id="icon-next" viewBox="0 0 30 160">
      <title>next icon</title>
      <path fill="none" d="M.038 160l27.806-79.974-27.823-80.026"/>
    </symbol>

    <symbol id="icon-prev" viewBox="0 0 30 160">
      <title>prev icon</title>
      <path fill="none" d="M29.966 160l-27.806-79.974 27.823-80.026"/>
    </symbol>

    <symbol id="icon-tumblr" viewBox="0 0 16 24">
      <title>tumblr icon</title>
      <path d="M.56 6.441c.956-.313 1.763-.752 2.421-1.316.674-.565 1.215-1.254 1.623-2.069.407-.8.689-1.818.846-3.056h3.432v6.088h5.712v3.761h-5.713l.024 6.159v.341c0 1.198.078 1.978.235 2.339.125.392.4.705.823.94.501.314 1.112.471 1.833.471 1.175 0 2.39-.4 3.644-1.199l-.047 3.808c-1.003.47-1.928.807-2.774 1.011-.784.187-1.677.281-2.68.281-1.065 0-2.03-.141-2.891-.423-.831-.282-1.544-.682-2.139-1.2-.58-.517-.987-1.058-1.223-1.622-.219-.564-.329-1.402-.329-2.515v-8.462h-2.656l-.141.071v-3.408z"/>
    </symbol>
</svg>