<?xml version="1.0" encoding="UTF-8" standalone="no"?>
<!DOCTYPE svg PUBLIC "-//W3C//DTD SVG 1.1//EN" "http://www.w3.org/Graphics/SVG/1.1/DTD/svg11.dtd">
<svg width="100%" height="100%" viewBox="0 0 140 40" version="1.1" xmlns="http://www.w3.org/2000/svg" xmlns:xlink="http://www.w3.org/1999/xlink" xml:space="preserve" xmlns:serif="http://www.serif.com/" style="fill-rule:evenodd;clip-rule:evenodd;stroke-linejoin:round;stroke-miterlimit:1.41421;">
<path d="M11.667,13.991l-11.667,-5.812l0,25.454l12.727,6.364l0,-24.267l11.54,5.77l-11.54,5.77l12.728,6.363l0,-25.454l-13.788,-6.915l0,12.727Zm64.697,-5.812l-12.728,-6.364l-12.727,6.364l0,12.727l12.727,6.364l-12.727,6.363l12.727,6.364l12.728,-6.364l0,-12.727l-12.728,-6.364l12.728,-6.363Zm19.091,6.109l-12.728,-6.236l0,25.581l12.728,6.364l5.09,-10.182l7.637,3.818l0,-25.454l-12.727,-6.364l0,12.473Zm20.151,-5.473l11.667,-5.812l10.351,5.176l-10.351,5.176l0,1.187l12.727,-6.363l-12.727,-6.364l-12.728,6.364l0,25.454l12.728,6.364l12.727,-6.364l-12.727,-6.363l0,11.539l-11.667,-5.812l0,-24.182Zm-71.061,30.885l0,-22.273l-12.727,-6.363l0,22.272l12.727,6.364Zm39.243,-6.703l0,-23.079l11.667,5.812l0,23.122l-11.667,-5.855Zm-30.503,0.636l11.539,-5.769l10.352,5.175l-11.54,5.77l-10.351,-5.176Zm-52.224,-0.636l0,-23.121l10.606,5.303l0,23.121l-10.606,-5.303Zm42.424,-14.933l0,19.939l-10.606,-5.303l0,-19.897l10.606,5.261Zm53.03,7.763l3.861,1.952l-3.861,7.763l0,-9.715Zm0,-1.188l0,-21.084l10.606,5.303l0,23.715l-5.303,-5.303l-5.303,-2.631Zm30.758,2.631l12.727,-6.364l-12.727,-6.364l0,12.728Zm-53.285,-6.364l-10.352,5.176l0,-10.352l10.352,5.176Zm-22.018,-12.091l11.666,-5.812l10.352,5.176l-11.412,5.727l0,11.667l-10.606,-5.303l0,-11.455Zm-39.243,5.727l0,-11.539l11.667,5.812l0,11.54l-11.667,-5.813Zm19.091,-6.66l12.727,6.363l0,-6.363l-12.727,-6.364l0,6.364Zm1.061,-0.637l0,-3.987l10.606,5.303l0,3.987l-10.606,-5.303Z" style="fill-rule:nonzero;"/>
</svg>
