<?xml version="1.0" encoding="UTF-8" standalone="no"?><!DOCTYPE svg PUBLIC "-//W3C//DTD SVG 1.1//EN" "http://www.w3.org/Graphics/SVG/1.1/DTD/svg11.dtd"><svg width="100%" height="100%" viewBox="0 0 100 100" version="1.1" xmlns="http://www.w3.org/2000/svg" xmlns:xlink="http://www.w3.org/1999/xlink" xml:space="preserve" xmlns:serif="http://www.serif.com/" style="fill-rule:evenodd;clip-rule:evenodd;stroke-linejoin:round;stroke-miterlimit:1.41421;"><rect id="a-count-logo" x="0" y="0" width="100" height="100" style="fill:none;"/><g><path d="M100,17.544c0,-9.683 -7.861,-17.544 -17.544,-17.544l-64.912,0c-9.683,0 -17.544,7.861 -17.544,17.544l0,64.912c0,9.683 7.861,17.544 17.544,17.544l64.912,0c9.683,0 17.544,-7.861 17.544,-17.544l0,-64.912Z" style="fill:#4d419b;"/><path d="M29.772,68.243c0,-14.875 9.646,-18.27 18.415,-18.27c7.19,0 12.452,1.455 18.415,3.88l0,17.139c-3.859,7.437 -12.452,12.934 -20.169,12.934c-8.944,0 -16.661,-3.557 -16.661,-15.683Zm62.786,18.109l0,-2.749l-3.508,-0.162c-6.489,-0.323 -7.892,-0.485 -7.892,-21.504l0,-24.737c0,-17.462 -16.836,-25.385 -34.024,-25.385c-17.537,0 -27.183,6.629 -27.183,14.714c0,4.688 3.683,8.084 9.295,8.084c4.735,0 8.769,-3.396 8.769,-8.084c0,-4.528 -2.982,-6.306 -2.982,-8.085c0,-2.102 3.333,-3.719 12.277,-3.719c12.802,0 19.292,6.306 19.292,17.301l0,18.755c-6.84,-2.748 -12.628,-3.88 -21.397,-3.88c-20.87,0 -31.743,6.629 -31.743,20.534c0,13.258 12.276,20.695 28.236,20.695c14.205,0 21.221,-6.79 25.254,-12.934l0,11.156l25.606,0Z" style="fill:#fff;fill-rule:nonzero;"/></g></svg>