<svg xmlns="http://www.w3.org/2000/svg" width="280" height="80" viewBox="0 0 280 80"><g><path d="M126.477 33.474v31.934h-6.729v-31.934h-12.061v-5.979h31.391v5.979h-12.601zM156.615 62.639c-.588.966-1.609 1.756-3.068 2.368-1.457.611-2.98.918-4.566.918-2.984 0-5.332-.746-7.039-2.238-1.709-1.492-2.562-3.609-2.562-6.354 0-3.209 1.203-5.719 3.609-7.53 2.408-1.812 5.828-2.718 10.262-2.718.76 0 1.656.13 2.691.389 0-3.261-2.062-4.891-6.186-4.891-2.432 0-4.469.405-6.107 1.216l-1.396-5.021c2.225-1.069 4.873-1.604 7.945-1.604 4.227 0 7.322.962 9.289 2.886s2.951 5.568 2.951 10.934v5.926c0 3.693.742 6.014 2.225 6.962-.535.932-1.129 1.505-1.785 1.722-.656.215-1.406.322-2.252.322-.932 0-1.768-.345-2.51-1.035-.743-.691-1.243-1.441-1.501-2.252zm-.621-10.275c-1.105-.224-1.934-.336-2.484-.336-5.107 0-7.66 1.674-7.66 5.021 0 2.484 1.439 3.727 4.32 3.727 3.883 0 5.824-1.94 5.824-5.823v-2.589zM198.141 53.529h-19.799c.121 2.208.881 3.925 2.277 5.149 1.398 1.226 3.279 1.838 5.643 1.838 2.949 0 5.193-.768 6.729-2.303l2.51 4.942c-2.277 1.847-5.676 2.769-10.195 2.769-4.229 0-7.57-1.237-10.029-3.713s-3.688-5.931-3.688-10.365c0-4.364 1.35-7.9 4.051-10.609 2.699-2.709 5.939-4.063 9.717-4.063 4.02 0 7.246 1.199 9.68 3.597 2.432 2.398 3.648 5.453 3.648 9.162-.001.793-.183 1.992-.544 3.596zm-19.565-4.865h13.611c-.449-4.054-2.691-6.081-6.729-6.081-3.69 0-5.985 2.027-6.882 6.081zM208.947 27.366l6.469-1.553v31.158c0 3.416 1.018 5.451 3.055 6.107-1.002 1.897-2.709 2.846-5.125 2.846-2.934 0-4.398-2.035-4.398-6.107v-32.451zM239.707 69.858c-.691 1.846-2.17 3.377-4.439 4.594-2.268 1.217-4.912 1.824-7.932 1.824v-5.719c4.986 0 7.479-1.251 7.479-3.752 0-1.656-.689-4.193-2.07-7.609l-8.668-21.505h6.701l7.557 19.15 6.807-19.15h6.703l-12.138 32.167zM257.992 63.622l2.303-5.15c1.934 1.536 4.115 2.304 6.549 2.304 2.518 0 3.777-.897 3.777-2.691 0-1.052-.379-1.915-1.139-2.588s-2.234-1.466-4.426-2.381c-4.779-1.983-7.168-4.762-7.168-8.333 0-2.398.914-4.266 2.744-5.604 1.828-1.336 4.166-2.005 7.012-2.005 2.881 0 5.59.647 8.127 1.94l-1.863 5.021c-1.416-1.208-3.383-1.812-5.9-1.812-2.26 0-3.391.898-3.391 2.691 0 .708.371 1.346 1.113 1.916.742.568 2.328 1.332 4.762 2.289 2.432.959 4.184 2.119 5.254 3.481 1.068 1.363 1.604 3.011 1.604 4.942 0 2.571-.953 4.594-2.859 6.068-1.906 1.477-4.498 2.213-7.777 2.213-1.846 0-3.324-.15-4.438-.453-1.114-.299-2.542-.916-4.284-1.848z"/><path d="M49.23 68.081l.111.033" stroke="#002C54" stroke-width=".797" stroke-miterlimit="10" fill="none"/><linearGradient id="a" gradientUnits="userSpaceOnUse" x1="32.369" y1="63.506" x2="16.741" y2="32.71"><stop offset="0" stop-color="#16A4F0"/><stop offset="1" stop-color="#00146B"/></linearGradient><path d="M7.842 45.665c7.717 10.086 23.033 18.157 42.258 22.291-20.53-4.453-35.555-18.85-35.555-35.906 0-1.043.076-2.071.186-3.092-7.376 7.749-6.889 16.707-6.889 16.707z" fill="url(#a)"/><path d="M66.379 36.86c-3.781 0-6.852 3.061-6.852 6.85 0 3.779 3.07 6.85 6.852 6.85 3.789 0 6.85-3.07 6.85-6.85 0-3.789-3.061-6.85-6.85-6.85z"/><linearGradient id="b" gradientUnits="userSpaceOnUse" x1="21.589" y1="45.433" x2="58.589" y2="13.433"><stop offset="0" stop-color="#16A4F0"/><stop offset="1" stop-color="#00146B"/></linearGradient><path d="M46.039 3.724c-5.691 0-11.176.693-16.312 1.977-14.436 3.593-27.077 12.292-27.077 25.509 0 5.273 1.939 10.301 5.477 14.914-2.73-24.417 26.27-37.5 45.658-37.31 15.959.157 30.01 6.222 38.213 15.663-8.906-12.373-26.143-20.753-45.959-20.753z" fill="url(#b)"/></g></svg>