<svg xmlns="http://www.w3.org/2000/svg" width="533.58" height="347.638" viewBox="0 0 533.58 347.638"><path fill="none" d="M-.415-.912h533.58v347.638h-533.58z"/><g fill="#A1572E"><path d="M217.493 161.587c-1.962-1.873-4.407-3.329-7.271-4.327-2.842-.99-6.127-1.492-9.766-1.492-1.326 0-2.598.021-3.779.064-1.162.042-2.281.095-3.358.158-1.066.063-2.155.116-3.263.157-1.916.073-4.234.08-6.354.031-.889-.02-1.601-.091-2.407-.212l-.716-.129v3.427l.441.13c1.16.258 2.091.432 2.91.518.682.072 1.196.237 1.6.489.344.215.595.59.755 1.146.189.667.293 1.711.293 3.104v26.165c0 1.206-.095 2.188-.232 2.918-.116.611-.348 1.065-.662 1.35-.33.298-.822.568-1.451.67-.735.119-1.73.246-2.944.246h-.71v3h16.535c4.592 0 8.59-.38 11.883-1.385 3.322-1.014 6.098-2.411 8.248-4.279 2.164-1.88 3.773-4.155 4.781-6.826.994-2.638 1.498-5.617 1.498-8.886 0-3.351-.515-6.412-1.529-9.114-1.024-2.722-2.538-5.045-4.502-6.923zm-2.656 16.053c0 6.142-1.152 10.531-3.428 13.344-2.234 2.765-5.75 4.017-10.449 4.017h-1.892c-1.026 0-1.895.119-2.581.059-.577-.052-1.036-.122-1.364-.355-.304-.217-.334-.522-.476-1.013-.169-.579-.068-1.373-.068-2.433v-28.245c0-.817-.13-1.456-.02-1.899.09-.358.135-.627.32-.799.175-.163.392-.225.733-.268.471-.059 1.029-.047 1.753-.047h2.521c4.84 0 8.576 1.391 11.105 4.216 2.553 2.849 3.846 7.339 3.846 13.423zM269.115 161.574c-1.934-1.977-4.266-3.54-6.932-4.645-2.664-1.104-5.614-1.665-8.768-1.665-3.209 0-6.173.651-8.809 1.936-2.62 1.278-4.895 2.992-6.758 5.094-1.861 2.1-3.309 4.535-4.303 7.236-.994 2.697-1.497 5.51-1.497 8.361 0 3.067.537 5.991 1.597 8.69 1.059 2.704 2.553 5.096 4.438 7.111 1.89 2.021 4.168 3.627 6.771 4.776 2.606 1.151 5.487 1.735 8.562 1.735 3.293 0 6.332-.673 9.031-2 2.683-1.319 4.999-3.076 6.885-5.222 1.879-2.138 3.356-4.601 4.393-7.321 1.037-2.721 1.562-5.505 1.562-8.274 0-3.148-.549-6.106-1.631-8.792-1.082-2.682-2.611-5.044-4.541-7.02zm-15.196 34.734c-2.252 0-4.227-.476-5.869-1.415-1.651-.944-3.028-2.261-4.092-3.916-1.082-1.685-1.897-3.705-2.421-6.003-.531-2.329-.801-4.882-.801-7.588 0-2.462.218-4.854.649-7.109.423-2.219 1.135-4.197 2.117-5.878.963-1.652 2.237-2.987 3.787-3.968 1.531-.969 3.443-1.46 5.684-1.46 2.453 0 4.56.525 6.262 1.561 1.719 1.048 3.131 2.45 4.197 4.168 1.084 1.746 1.891 3.779 2.396 6.041.51 2.29.77 4.695.77 7.15 0 2.623-.259 5.102-.77 7.369-.505 2.238-1.288 4.206-2.329 5.848-1.023 1.614-2.339 2.9-3.907 3.822-1.555.914-3.465 1.378-5.673 1.378zM317.066 185.057c-1.752 5.955-3.479 7.947-4.596 8.557-.943.472-2.108.786-3.463 1.045-1.373.264-3.021.342-4.902.342h-2.9c-3.348 0-2.625-1.269-2.625-1.788v-29.758c0-1.735-.199-4.454 4.327-4.454h.673v-3h-19v3h.106c4.923 0 5.894 2.719 5.894 4.454v29.758c0 .657-.402 2.788-5.2 2.788h-.8v3h33.666l2.093-14.241-3.089-.392-.184.689zM339.58 192.267v-28.057c0-3.273 1.43-5.21 4.875-5.21h1.125v-3h-20v3h.654c3.746 0 6.346 1.937 6.346 5.21v28.056c0 1.545-1.396 3.733-6.094 3.733h.094v3h19v-3h-.873c-4.753.001-5.127-2.187-5.127-3.732zM391.564 161.587c-1.961-1.873-4.406-3.329-7.27-4.327-2.843-.99-6.129-1.492-9.767-1.492-1.326 0-2.598.021-3.779.064-1.162.042-2.28.095-3.358.158-1.066.063-2.154.116-3.264.157-1.917.073-4.232.081-6.354.031-.888-.02-1.636-.091-2.442-.212l-.751-.129v3.427l.478.13c1.159.258 2.108.432 2.928.518.683.072 1.205.237 1.608.489.345.215.565.59.724 1.146.189.667.262 1.712.262 3.104v26.165c0 1.21-.06 2.192-.197 2.918-.116.611-.329 1.064-.644 1.349-.33.298-.813.568-1.443.67-.734.119-1.72.246-2.935.246h-.781v3h16.606c4.593 0 8.591-.38 11.883-1.385 3.323-1.014 6.098-2.411 8.247-4.279 2.164-1.879 3.773-4.154 4.781-6.826.994-2.637 1.499-5.615 1.499-8.886 0-3.353-.515-6.413-1.529-9.114-1.024-2.721-2.539-5.045-4.502-6.922zm-2.655 16.053c0 6.141-1.153 10.531-3.427 13.344-2.234 2.765-5.751 4.017-10.45 4.017h-1.892c-1.026 0-1.895.119-2.581.059-.577-.052-1.036-.122-1.364-.356-.303-.216-.368-.522-.511-1.012-.17-.58-.104-1.374-.104-2.433v-28.245c0-.816-.095-1.455.017-1.899.09-.358.153-.627.339-.799.174-.162.398-.225.741-.268.471-.059 1.038-.047 1.762-.047h2.521c4.839 0 8.575 1.391 11.104 4.216 2.551 2.849 3.845 7.339 3.845 13.423zM434.58 159h-.158c3.746 0 6.158 1.937 6.158 5.21v10.292c-1 .224-2.502.497-4.708.497h-11.349c-1.352 0-1.943-.232-2.943-.562v-10.227c0-3.273.759-5.21 4.204-5.21h.796v-3h-20v3h.731c3.876 0 6.269 1.937 6.269 5.21v28.056c0 1.545-1.177 3.733-6.269 3.733h-.731v3h20v-3h-.796c-4.526 0-4.204-2.188-4.204-3.733v-12.697c0-.208.581-.312 1.114-.415.705-.138 1.04-.154 1.829-.154h11.349c2.399 0 3.708.215 4.708.49v12.777c0 1.545-1.236 3.733-6.158 3.733h.158v3h19v-3h-.938c-4.471 0-5.062-2.188-5.062-3.733v-28.057c0-3.273 1.66-5.21 5.062-5.21h.938v-3h-19v3zM481.581 196c-4.753 0-5.001-2.188-5.001-3.733v-28.057c0-3.273 1.303-5.21 4.749-5.21h1.251v-3h-20v3h.528c3.747 0 5.472 1.937 5.472 5.21v28.056c0 1.545-.523 3.733-5.22 3.733h-.78v3h20v-3h-.999z"/></g><g fill="#1F000E"><path d="M223.4 260.651c0 .902-.039 1.93-.117 3.084s-.188 2.34-.324 3.555c-.137 1.213-.293 2.408-.469 3.582-.176 1.176-.383 2.232-.617 3.172h-2.291l-3.172-9.574h-28.076l-3.172 9.574h-2.291c-.236-.979-.451-2.076-.646-3.289-.195-1.215-.363-2.438-.5-3.672-.137-1.232-.234-2.418-.293-3.553s-.088-2.096-.088-2.879h5.111c1.094-1.645 2.104-3.68 3.023-6.109.92-2.426 1.703-5.08 2.35-7.959.646-2.877 1.135-5.913 1.469-9.104.332-3.191.498-6.393.498-9.604-1.018-.195-2.074-.49-3.172-.881-1.096-.391-2.113-.861-3.053-1.41v-2.232h33.775v2.232c-1.371.744-2.977 1.312-4.816 1.703v33.364h6.871zm-15.684 0v-33.481h-9.457c-.195 4.543-.527 8.615-.998 12.217-.471 3.604-1.027 6.776-1.674 9.516-.646 2.742-1.342 5.082-2.086 7.02-.744 1.939-1.469 3.516-2.172 4.729h16.387zM225.632 243.91c0-3.055.432-5.883 1.291-8.488.863-2.604 2.135-4.854 3.82-6.754 1.682-1.898 3.758-3.377 6.225-4.436 2.467-1.057 5.307-1.586 8.518-1.586s6.051.529 8.516 1.586c2.469 1.059 4.533 2.537 6.199 4.436 1.664 1.9 2.926 4.15 3.787 6.754.861 2.605 1.293 5.434 1.293 8.488 0 3.055-.432 5.885-1.293 8.489s-2.123 4.855-3.787 6.754c-1.666 1.9-3.73 3.379-6.199 4.436-2.465 1.057-5.305 1.586-8.516 1.586s-6.051-.529-8.518-1.586-4.543-2.535-6.225-4.436c-1.686-1.898-2.957-4.15-3.82-6.754-.859-2.604-1.291-5.434-1.291-8.489zm9.987 0c0 2.506.195 4.827.586 6.961s1.008 3.975 1.852 5.521c.84 1.547 1.918 2.76 3.23 3.641 1.311.883 2.887 1.322 4.727 1.322 1.684 0 3.113-.439 4.289-1.322 1.176-.881 2.133-2.094 2.879-3.641.742-1.547 1.281-3.387 1.613-5.521s.5-4.455.5-6.961c0-2.506-.186-4.826-.559-6.961-.371-2.133-.959-3.973-1.762-5.521-.803-1.545-1.859-2.76-3.172-3.641s-2.906-1.322-4.785-1.322c-1.803 0-3.311.441-4.523 1.322-1.215.881-2.184 2.096-2.908 3.641-.725 1.549-1.232 3.389-1.527 5.521-.296 2.135-.44 4.455-.44 6.961zM278.556 227.875c-1.215-.195-2.359-.508-3.438-.939s-2.008-.881-2.789-1.352v-2.232h33.891v2.232c-.586.352-1.301.686-2.145.998-.84.314-1.73.549-2.672.705v33.247c.902.156 1.754.393 2.555.705.805.314 1.559.646 2.262.998v2.232h-18.09v-2.232c.664-.352 1.379-.676 2.145-.969.762-.293 1.535-.537 2.318-.734v-33.364h-9.574c-.117 5.953-.393 10.916-.822 14.891-.43 3.975-.961 7.254-1.586 9.838-.627 2.584-1.32 4.631-2.086 6.139-.762 1.508-1.555 2.811-2.379 3.906-.742 1.018-1.684 1.811-2.818 2.379-1.137.566-2.232.852-3.289.852-.51-.197-.998-.598-1.469-1.205-.471-.605-.9-1.301-1.291-2.084-.395-.783-.715-1.605-.971-2.467-.254-.861-.4-1.664-.439-2.408l1.586-2.232 6.988 1.703c.508-1.096 1.008-2.418 1.5-3.965.488-1.547.93-3.455 1.32-5.727.391-2.272.705-4.954.939-8.047.237-3.095.354-6.718.354-10.868zM326.251 264.469h-17.681v-2.232c.744-.391 1.527-.742 2.35-1.057.822-.312 1.645-.529 2.467-.646v-33.247c-.783-.195-1.607-.42-2.467-.676-.863-.254-1.645-.596-2.35-1.027v-2.232h17.682v2.232c-.59.352-1.254.686-2 .998-.742.314-1.547.549-2.406.705v22.321l-.588 4.582 2.877-4.816 14.806-20.676v-1.41c-1.844-.43-3.389-.998-4.642-1.703v-2.232h17.681v2.232c-.668.432-1.422.773-2.262 1.027-.844.256-1.695.48-2.555.676v33.247c.898.156 1.75.383 2.555.676.801.293 1.557.637 2.262 1.027v2.232h-17.681v-2.232c.548-.273 1.204-.576 1.968-.91.764-.332 1.576-.596 2.438-.793v-22.262l.588-4.641-2.645 4.641-15.036 20.969v1.293c.898.197 1.742.451 2.523.764.785.314 1.488.627 2.117.939v2.231zM395.209 260.651c0 .902-.039 1.93-.117 3.084s-.188 2.34-.324 3.555c-.137 1.213-.293 2.408-.469 3.582-.176 1.176-.383 2.232-.617 3.172h-2.291l-3.172-9.574h-28.076l-3.172 9.574h-2.291c-.236-.979-.451-2.076-.646-3.289-.195-1.215-.363-2.438-.5-3.672-.137-1.232-.234-2.418-.293-3.553s-.088-2.096-.088-2.879h5.111c1.094-1.645 2.104-3.68 3.023-6.109.92-2.426 1.703-5.08 2.35-7.959.646-2.877 1.135-5.913 1.469-9.104.332-3.191.498-6.393.498-9.604-1.018-.195-2.074-.49-3.172-.881-1.096-.391-2.113-.861-3.053-1.41v-2.232h33.775v2.232c-1.371.744-2.977 1.312-4.816 1.703v33.364h6.871zm-15.683 0v-33.481h-9.457c-.195 4.543-.527 8.615-.998 12.217-.471 3.604-1.027 6.776-1.674 9.516-.646 2.742-1.342 5.082-2.086 7.02-.744 1.939-1.469 3.516-2.172 4.729h16.387zM397.624 223.352h18.09v2.232c-.898.43-1.799.803-2.701 1.115-.9.312-1.801.51-2.701.588v13.861c1.096-.666 2.564-1.271 4.404-1.82 1.842-.549 3.857-.822 6.051-.822 1.566 0 3.045.166 4.434.5 1.391.332 2.605.91 3.643 1.732 1.039.822 1.859 1.947 2.467 3.377.607 1.43.912 3.241.912 5.434v10.984c.742.117 1.488.332 2.23.646.744.312 1.41.664 1.996 1.057v2.232h-16.621v-2.232c.432-.314.949-.627 1.557-.939.607-.314 1.283-.568 2.025-.764v-8.928c0-1.371-.078-2.605-.234-3.701-.156-1.098-.471-2.037-.939-2.82-.471-.784-1.107-1.391-1.91-1.82-.801-.432-1.85-.647-3.143-.647-1.291 0-2.516.186-3.67.559-1.154.372-2.223.872-3.201 1.498v15.86c.666.195 1.312.439 1.938.734.627.293 1.195.617 1.703.969v2.232h-16.328v-2.232c.508-.352 1.096-.676 1.762-.969.666-.295 1.371-.539 2.115-.734v-33.247c-.783-.156-1.508-.402-2.174-.734-.666-.334-1.234-.656-1.703-.969v-2.232zM456.479 264.469h-17.682v-2.232c.744-.391 1.527-.742 2.35-1.057.822-.312 1.646-.529 2.469-.646v-33.247c-.785-.195-1.607-.42-2.469-.676-.861-.254-1.645-.596-2.35-1.027v-2.232h17.682v2.232c-.588.352-1.254.686-1.998.998-.744.314-1.547.549-2.408.705v22.321l-.588 4.582 2.879-4.816 14.803-20.676v-1.41c-1.842-.43-3.389-.998-4.641-1.703v-2.232h17.68v2.232c-.666.432-1.42.773-2.262 1.027-.842.256-1.693.48-2.555.676v33.247c.9.156 1.752.383 2.555.676s1.557.637 2.262 1.027v2.232h-17.68v-2.232c.547-.273 1.203-.576 1.967-.91.764-.332 1.576-.596 2.438-.793v-22.262l.588-4.641-2.643 4.641-15.037 20.969v1.293c.9.197 1.742.451 2.525.764.783.314 1.488.627 2.115.939v2.231z"/></g><g fill="#766169"><path d="M57.976 306.283v-.715c.477 0 .861-.023 1.155-.071s.524-.146.691-.298c.167-.151.278-.373.333-.667.056-.293.083-.679.083-1.155v-9.886c0-.556-.04-.973-.119-1.25-.08-.278-.214-.477-.405-.596-.19-.119-.437-.194-.738-.226-.302-.032-.667-.095-1.096-.191v-.738c.317.048.651.076 1 .083.349.008.707.012 1.072.012.477 0 .925-.008 1.346-.024.42-.016.833-.036 1.239-.06.405-.023.825-.043 1.262-.059.437-.016.909-.024 1.417-.024 1.35 0 2.549.183 3.597.548s1.93.89 2.644 1.572c.715.683 1.259 1.521 1.632 2.513.373.993.56 2.108.56 3.347 0 1.208-.183 2.295-.548 3.264-.366.969-.941 1.795-1.727 2.478-.786.683-1.791 1.211-3.014 1.584-1.223.373-2.692.56-4.407.56h-5.977zm7.432-.929c1.874 0 3.263-.56 4.168-1.679s1.358-2.878 1.358-5.277c0-2.382-.508-4.141-1.524-5.276-1.017-1.135-2.486-1.703-4.407-1.703h-.953c-.286 0-.524.012-.715.036s-.342.087-.453.19c-.111.104-.19.25-.238.441-.047.19-.071.453-.071.786v10.672c0 .429.036.767.107 1.013.072.247.191.429.357.548.167.119.385.19.655.214.27.024.604.036 1 .036h.716zM85.228 306.641c-1.128 0-2.168-.211-3.121-.631-.953-.42-1.775-1-2.466-1.739-.691-.738-1.231-1.604-1.62-2.596-.39-.993-.584-2.053-.584-3.18 0-1.048.183-2.069.548-3.062.365-.992.89-1.874 1.572-2.644.683-.77 1.505-1.39 2.466-1.858.96-.468 2.028-.703 3.204-.703 1.159 0 2.227.203 3.204.608.977.405 1.818.969 2.525 1.691.707.723 1.258 1.577 1.656 2.561.396.985.595 2.057.595 3.216 0 1.017-.19 2.025-.571 3.025-.381 1-.917 1.894-1.608 2.68-.69.786-1.528 1.421-2.513 1.906s-2.08.726-3.287.726zm.19-.906c.889 0 1.651-.187 2.287-.56.635-.373 1.159-.885 1.572-1.536.413-.651.718-1.417.917-2.299.198-.881.298-1.831.298-2.847 0-.953-.1-1.874-.298-2.764-.199-.889-.512-1.679-.941-2.37s-.989-1.247-1.68-1.667-1.529-.631-2.513-.631c-.905 0-1.671.199-2.299.596s-1.136.929-1.524 1.596c-.39.667-.667 1.438-.834 2.311-.167.874-.25 1.787-.25 2.739 0 1.048.103 2.025.31 2.93s.524 1.691.953 2.358.977 1.191 1.644 1.572 1.453.572 2.358.572zM97.305 306.283v-.715c1.397 0 2.097-.429 2.097-1.286v-11.244c0-1.207-.786-1.811-2.358-1.811v-.738h6.884v.738c-1.461 0-2.191.604-2.191 1.811v11.244c0 .667.516 1 1.548 1h1.096c.73 0 1.366-.051 1.906-.155.54-.103 1-.25 1.382-.441.699-.381 1.326-1.516 1.882-3.406l.643.095-.714 4.907h-12.175zM126.153 306.545l-1.715-1.263c-.54.413-1.187.743-1.941.989s-1.529.369-2.323.369c-1.096 0-2.096-.207-3.001-.62-.905-.413-1.688-.98-2.346-1.703-.659-.723-1.171-1.568-1.537-2.537-.366-.968-.548-2.009-.548-3.121 0-1.096.187-2.156.56-3.18s.901-1.933 1.584-2.728c.683-.794 1.497-1.429 2.441-1.906s1.981-.715 3.109-.715c.683 0 1.338.119 1.965.357s1.243.516 1.846.834c.572-.572 1.144-.905 1.715-1 .54 1.318.81 3.128.81 5.431h-.81c-.35-1.397-.969-2.529-1.858-3.395-.89-.865-2.017-1.298-3.383-1.298-.969 0-1.787.203-2.454.607s-1.211.945-1.632 1.62-.723 1.449-.905 2.322c-.183.874-.274 1.771-.274 2.692 0 1 .107 1.946.321 2.835.214.89.544 1.667.989 2.334.444.667.992 1.199 1.644 1.596.651.397 1.421.596 2.311.596.524 0 1.013-.063 1.465-.191.453-.127.854-.325 1.203-.595.349-.27.623-.616.822-1.037.198-.42.298-.933.298-1.536 0-1.652-.81-2.478-2.43-2.478v-.715h6.813v.715c-1.414 0-2.121.604-2.121 1.81v4.908h-.618zM139.898 306.283v-.715l.703-.095c.246-.032.468-.071.667-.119.198-.047.365-.107.5-.179.135-.071.203-.155.203-.25l-.036-.274c-.008-.119-.052-.266-.131-.44l-1.072-2.93c-.175-.413-.659-.62-1.453-.62h-3.549c-.604 0-.969.207-1.096.62l-.81 2.478c-.064.143-.095.349-.095.619 0 .73.699 1.096 2.096 1.096v.81h-5.36v-.81c.46-.032.854-.19 1.179-.477.325-.286.599-.698.822-1.238l5.717-13.626.715.286 5.646 14.15c.222.333.397.54.524.62.032.032.163.076.393.131l.965.25v.715h-6.528zm-2.072-12.792l-2.096 5.003c-.175.381-.262.651-.262.81 0 .238.294.357.881.357h3.001c.477 0 .715-.095.715-.286 0-.08-.087-.341-.262-.786l-1.977-5.098zM162.481 306.545l-10.529-13.412v9.601c0 1.89.818 2.834 2.454 2.834v.715h-5.717v-.715c1.334 0 2.001-.944 2.001-2.834v-10.505c0-.667-.786-1.001-2.358-1.001v-.738h4.359l9.338 11.887v-8.528c0-1.747-.81-2.621-2.43-2.621v-.738h5.693v.738c-1.461 0-2.191.874-2.191 2.621v12.53l-.62.166zM177.68 295.301c-.318-1.286-.85-2.314-1.596-3.085-.747-.77-1.667-1.155-2.763-1.155-.905 0-1.628.238-2.168.715-.54.476-.81 1.08-.81 1.81 0 .572.194 1.068.583 1.489s.973.798 1.751 1.131c.969.413 1.85.759 2.645 1.036.794.278 1.473.6 2.037.965.563.366 1 .826 1.31 1.382.31.556.465 1.31.465 2.263 0 .587-.092 1.167-.274 1.739-.183.572-.465 1.084-.846 1.537-.381.453-.878.818-1.489 1.096s-1.346.417-2.203.417c-.556 0-1.037-.04-1.441-.119-.405-.08-.747-.175-1.024-.286-.278-.111-.497-.222-.655-.333l-.333-.238c-.302.222-.604.421-.905.595-.302.175-.604.302-.905.381-.175-1.191-.306-2.251-.393-3.18-.088-.929-.131-1.743-.131-2.442h.786c0 .699.143 1.338.429 1.917.286.58.651 1.076 1.096 1.489.444.413.944.734 1.5.964.556.23 1.096.346 1.62.346.333 0 .703-.056 1.107-.167.405-.111.786-.286 1.144-.524s.659-.54.905-.905.369-.802.369-1.31c0-.635-.171-1.191-.512-1.667-.341-.477-.885-.85-1.632-1.12-.874-.317-1.711-.611-2.513-.881s-1.509-.592-2.12-.965-1.1-.842-1.465-1.406c-.366-.563-.548-1.306-.548-2.227 0-.667.119-1.271.357-1.811s.56-1.004.964-1.394c.405-.389.877-.691 1.417-.905s1.104-.322 1.691-.322c.683 0 1.267.124 1.751.369.484.247.933.465 1.346.655.492-.396 1.008-.675 1.548-.833.222.73.381 1.505.476 2.322.096.818.143 1.704.143 2.656h-.714zM191.4 300.923v-1.453h8.981v1.453h-8.981zM212.911 306.283v-.715c1.509 0 2.263-.548 2.263-1.644v-10.601c0-1.397-.786-2.097-2.358-2.097v-.738h6.884v.738c-1.461 0-2.191.699-2.191 2.097v10.601c0 1.096.762 1.644 2.287 1.644v.715h-6.885zM223.821 306.283v-.715c.477 0 .861-.023 1.155-.071s.524-.146.691-.298c.167-.151.278-.373.333-.667.056-.293.083-.679.083-1.155v-9.886c0-.556-.04-.973-.119-1.25-.08-.278-.214-.477-.405-.596-.19-.119-.437-.194-.738-.226-.302-.032-.667-.095-1.096-.191v-.738c.317.048.651.076 1 .083.349.008.707.012 1.072.012.477 0 .925-.008 1.346-.024.42-.016.833-.036 1.239-.06.405-.023.825-.043 1.262-.059.437-.016.909-.024 1.417-.024 1.35 0 2.549.183 3.597.548s1.93.89 2.644 1.572c.715.683 1.259 1.521 1.632 2.513.373.993.56 2.108.56 3.347 0 1.208-.183 2.295-.548 3.264-.366.969-.941 1.795-1.727 2.478-.786.683-1.791 1.211-3.014 1.584-1.223.373-2.692.56-4.407.56h-5.977zm7.432-.929c1.874 0 3.263-.56 4.168-1.679s1.358-2.878 1.358-5.277c0-2.382-.508-4.141-1.524-5.276-1.017-1.135-2.486-1.703-4.407-1.703h-.953c-.286 0-.524.012-.715.036s-.342.087-.453.19c-.111.104-.19.25-.238.441-.047.19-.071.453-.071.786v10.672c0 .429.036.767.107 1.013.072.247.191.429.357.548.167.119.385.19.655.214.27.024.604.036 1 .036h.716zM243.617 306.283v-.715c1.461 0 2.192-.516 2.192-1.548v-10.791c0-1.334-.786-2.001-2.358-2.001v-.738h12.506l.19 4.455-.738.095c-.143-.857-.357-1.524-.643-2.001-.286-.476-.631-.83-1.037-1.06-.405-.23-.869-.365-1.394-.405-.524-.04-1.096-.06-1.715-.06h-.667c-1.207 0-1.811.357-1.811 1.072v4.264c0 .477.19.715.572.715h.81c.396 0 .766-.02 1.107-.06.341-.04.643-.143.905-.31s.477-.421.643-.763c.167-.341.282-.806.346-1.394h.881v6.17h-.881c-.064-.587-.159-1.052-.286-1.394-.127-.341-.31-.603-.548-.786-.238-.182-.532-.301-.881-.357-.35-.055-.778-.083-1.286-.083h-.286c-.73 0-1.096.262-1.096.786v4.55c0 .905.635 1.358 1.906 1.358h.738c1 0 1.807-.075 2.418-.227.611-.15 1.108-.389 1.489-.714.381-.325.687-.734.917-1.227.23-.492.464-1.072.703-1.739l.643.19-.643 4.717h-12.696zM273.965 306.545l-10.529-13.412v9.601c0 1.89.818 2.834 2.454 2.834v.715h-5.717v-.715c1.334 0 2.001-.944 2.001-2.834v-10.505c0-.667-.786-1.001-2.358-1.001v-.738h4.359l9.338 11.887v-8.528c0-1.747-.81-2.621-2.43-2.621v-.738h5.693v.738c-1.461 0-2.191.874-2.191 2.621v12.53l-.62.166zM281.875 306.283v-.715c1.699 0 2.549-.73 2.549-2.191v-10.982c0-.587-.389-.881-1.167-.881-1.048 0-1.898.337-2.549 1.012s-1.136 1.696-1.453 3.062l-.738-.191.643-5.074c.365.047.71.087 1.036.119.325.032.639.047.941.047h9.171c.333 0 .675-.016 1.024-.047.349-.032.707-.072 1.072-.119v4.979l-.644.095c-.19-2.541-1.461-3.812-3.812-3.812-.794 0-1.191.271-1.191.81v10.982c0 1.461.857 2.191 2.573 2.191v.715h-7.455zM295.524 306.283v-.715c1.509 0 2.263-.548 2.263-1.644v-10.601c0-1.397-.786-2.097-2.358-2.097v-.738h6.884v.738c-1.461 0-2.191.699-2.191 2.097v10.601c0 1.096.762 1.644 2.287 1.644v.715h-6.885zM308.364 306.283v-.715c1.699 0 2.549-.73 2.549-2.191v-10.982c0-.587-.389-.881-1.167-.881-1.048 0-1.898.337-2.549 1.012s-1.136 1.696-1.453 3.062l-.738-.191.643-5.074c.365.047.71.087 1.036.119.325.032.639.047.941.047h9.171c.333 0 .675-.016 1.024-.047.349-.032.707-.072 1.072-.119v4.979l-.644.095c-.19-2.541-1.461-3.812-3.812-3.812-.794 0-1.191.271-1.191.81v10.982c0 1.461.857 2.191 2.573 2.191v.715h-7.455zM326.135 306.283v-.715c1.62 0 2.43-.365 2.43-1.096v-4.645l-3.978-6.599c-.81-1.334-1.684-2.001-2.621-2.001v-.738h6.503v.738c-1.144 0-1.715.271-1.715.81 0 .127.031.247.095.357l.286.477 3.359 5.622 3.073-5.527c.047-.159.087-.325.119-.5.031-.174.047-.349.047-.524 0-.477-.635-.715-1.906-.715v-.738h5.527v.738c-.826 0-1.453.302-1.882.905l-4.455 7.623v4.812c0 .667.786 1 2.358 1v.715h-7.24zM348.408 300.923v-1.453h8.98v1.453h-8.98zM380.066 306.283v-.715c1.572 0 2.358-.548 2.358-1.644v-4.979c-.286-.238-.89-.357-1.811-.357h-4.288c-.317 0-.619.028-.905.083-.285.056-.556.147-.81.274v4.979c0 1.096.73 1.644 2.191 1.644v.715h-6.979v-.715c1.62 0 2.43-.548 2.43-1.644v-10.601c0-1.397-.81-2.097-2.43-2.097v-.738h6.979v.738c-1.461 0-2.191.699-2.191 2.097v4.073c.524.175 1.096.262 1.715.262h4.288c.89 0 1.493-.087 1.811-.262v-4.073c0-1.397-.786-2.097-2.358-2.097v-.738h6.885v.738c-1.445 0-2.168.699-2.168 2.097v10.601c0 1.096.723 1.644 2.168 1.644v.715h-6.885zM391 306.283v-.715c1.509 0 2.264-.548 2.264-1.644v-10.601c0-1.397-.786-2.097-2.358-2.097v-.738h6.885v.738c-1.462 0-2.192.699-2.192 2.097v10.601c0 1.096.763 1.644 2.287 1.644v.715h-6.886zM411.129 295.301c-.318-1.286-.85-2.314-1.597-3.085-.746-.77-1.667-1.155-2.763-1.155-.905 0-1.628.238-2.168.715-.54.476-.81 1.08-.81 1.81 0 .572.194 1.068.583 1.489.39.421.973.798 1.751 1.131.969.413 1.85.759 2.645 1.036.794.278 1.473.6 2.036.965.564.366 1.001.826 1.311 1.382.31.556.465 1.31.465 2.263 0 .587-.092 1.167-.274 1.739s-.464 1.084-.846 1.537c-.381.453-.877.818-1.488 1.096-.612.278-1.347.417-2.204.417-.556 0-1.036-.04-1.441-.119-.404-.08-.746-.175-1.023-.286-.278-.111-.497-.222-.655-.333l-.334-.238c-.302.222-.604.421-.905.595-.302.175-.604.302-.905.381-.175-1.191-.306-2.251-.393-3.18-.088-.929-.131-1.743-.131-2.442h.786c0 .699.143 1.338.429 1.917.285.58.65 1.076 1.096 1.489.444.413.944.734 1.501.964.556.23 1.096.346 1.619.346.334 0 .703-.056 1.108-.167.404-.111.786-.286 1.144-.524.356-.238.658-.54.905-.905.245-.365.369-.802.369-1.31 0-.635-.171-1.191-.513-1.667-.342-.477-.886-.85-1.632-1.12-.873-.317-1.711-.611-2.513-.881-.803-.27-1.509-.592-2.12-.965-.612-.373-1.101-.842-1.466-1.406-.365-.563-.548-1.306-.548-2.227 0-.667.119-1.271.357-1.811s.561-1.004.965-1.394c.405-.389.878-.691 1.418-.905.539-.214 1.104-.322 1.691-.322.683 0 1.266.124 1.751.369.483.247.933.465 1.346.655.492-.396 1.008-.675 1.548-.833.223.73.382 1.505.477 2.322.096.818.144 1.704.144 2.656h-.716zM418.418 306.283v-.715c1.699 0 2.549-.73 2.549-2.191v-10.982c0-.587-.389-.881-1.167-.881-1.048 0-1.897.337-2.549 1.012-.651.675-1.136 1.696-1.453 3.062l-.738-.191.643-5.074c.365.047.711.087 1.037.119.325.032.639.047.94.047h9.172c.333 0 .675-.016 1.024-.047.349-.032.706-.072 1.071-.119v4.979l-.643.095c-.19-2.541-1.462-3.812-3.812-3.812-.795 0-1.191.271-1.191.81v10.982c0 1.461.857 2.191 2.573 2.191v.715h-7.456zM439.596 306.641c-1.128 0-2.168-.211-3.121-.631-.952-.42-1.774-1-2.465-1.739-.691-.738-1.231-1.604-1.62-2.596-.39-.993-.584-2.053-.584-3.18 0-1.048.183-2.069.548-3.062.365-.992.89-1.874 1.572-2.644.683-.77 1.505-1.39 2.466-1.858s2.028-.703 3.204-.703c1.159 0 2.228.203 3.204.608.977.405 1.818.969 2.525 1.691.706.723 1.258 1.577 1.655 2.561.396.985.596 2.057.596 3.216 0 1.017-.19 2.025-.572 3.025-.381 1-.917 1.894-1.607 2.68-.691.786-1.529 1.421-2.514 1.906s-2.08.726-3.287.726zm.191-.906c.89 0 1.651-.187 2.287-.56.635-.373 1.159-.885 1.572-1.536.412-.651.718-1.417.917-2.299.198-.881.298-1.831.298-2.847 0-.953-.1-1.874-.298-2.764-.199-.889-.513-1.679-.941-2.37s-.988-1.247-1.679-1.667c-.691-.421-1.529-.631-2.514-.631-.905 0-1.672.199-2.299.596-.628.397-1.136.929-1.524 1.596-.39.667-.667 1.438-.834 2.311s-.25 1.787-.25 2.739c0 1.048.104 2.025.31 2.93s.524 1.691.953 2.358.977 1.191 1.644 1.572 1.452.572 2.358.572zM466.467 304.211c0 .19-.044.421-.132.69-.087.271-.222.524-.404.763-.183.238-.405.444-.667.619-.263.175-.56.262-.894.262-.969 0-1.684-.163-2.144-.488-.461-.326-.803-.854-1.024-1.584-.19-.604-.382-1.25-.572-1.941s-.417-1.326-.679-1.906c-.262-.58-.584-1.064-.965-1.453s-.857-.583-1.43-.583h-.714c-.429 0-.676.087-.739.262v5.169c0 1.033.73 1.548 2.192 1.548v.715h-6.718v-.715c1.396 0 2.096-.516 2.096-1.548v-11.268c0-1.016-.754-1.525-2.263-1.525v-.738h2.978c.524 0 .969-.004 1.334-.012l1.061-.036c.341-.016.706-.028 1.096-.036.389-.008.861-.012 1.417-.012.683 0 1.326.099 1.93.298s1.123.473 1.561.822c.437.35.782.762 1.036 1.239s.381.993.381 1.548c0 .556-.104 1.048-.31 1.477s-.496.802-.869 1.12c-.374.318-.814.588-1.322.81-.509.222-1.072.397-1.691.524v.071c.763.366 1.394.822 1.894 1.37.501.548.838 1.076 1.013 1.584l.334 1.144c.126.445.273.866.44 1.262.167.397.361.735.583 1.013.223.278.492.417.811.417.381 0 .658-.357.834-1.072l.546.19zm-8.552-6.551c.477 0 .938-.032 1.382-.095s.842-.206 1.191-.429c.349-.222.631-.54.846-.953.214-.413.321-.977.321-1.691 0-.603-.107-1.104-.321-1.5-.215-.397-.492-.71-.834-.941-.342-.23-.719-.393-1.132-.488-.413-.096-.817-.143-1.215-.143h-1.144c-.604 0-.905.445-.905 1.334v4.55c.063.238.254.357.572.357h1.239zM471.708 306.283v-.715c1.619 0 2.43-.365 2.43-1.096v-4.645l-3.979-6.599c-.81-1.334-1.684-2.001-2.62-2.001v-.738h6.503v.738c-1.144 0-1.715.271-1.715.81 0 .127.031.247.095.357l.286.477 3.359 5.622 3.072-5.527c.048-.159.088-.325.119-.5.032-.174.048-.349.048-.524 0-.477-.636-.715-1.905-.715v-.738h5.526v.738c-.826 0-1.453.302-1.882.905l-4.455 7.623v4.812c0 .667.786 1 2.358 1v.715h-7.24z"/></g><path fill="#A1572E" d="M157.273 155l-.6.851-2.96 3.421-43.55 49.035-43.55-48.967-2.96-3.5-.6-.84h-2.473v112h100v-112h-3.307zm-.693 37.096l-16.668 18.557 16.668 18.556v12.514l-27.91-31.07 27.91-31.07v12.513zm0-15.504l-30.59 34.06 30.59 34.06v16.142l-43.87-49.12.106-.002 43.764-49.11v13.97zm-29.581 86.408l-16.321-18.171-16.321 18.171h-11.774l28.09-31.28 28.1 31.28h-11.774zm-16.326-34.27l-30.779 34.27h-13.945l43.631-49.189v.091l.5.425.5-.357v-.17l43.798 49.2h-12.915l-30.79-34.27zm-46.093.478l16.668-18.556-16.668-18.556v-12.514l27.91 31.07-27.91 31.07v-12.514zm0 15.504l30.59-34.06-30.59-34.06v-13.97l43.452 49.11.106.002-43.559 49.12v-16.142z"/><path fill="#1F000E" d="M173.734 85.872c1.449-13.62-1.03-27.88-7.82-44.89-.62-1.54-2.37-2.29-3.9-1.68-1.539.62-2.279 2.36-1.67 3.9 6.5 16.29 8.801 29.25 7.42 42.11-1.02 9.56-2.72 25.56-10.1 31.91-3.91 3.36-8.189 5.128-12.35 7.008-4.09 1.851-8.25 3.77-12.01 6.77h-.091c-.17 1-.329.461-.5.611-2.949 2.629-5.47 5.27-7.528 7.539.102-1.683.786-3.223 1.358-4.653.43-1.07.69-2.108 1.13-3.158l.6-1.419c1.41-3.34 2.871-6.785 4.031-10.334 2.459-7.51.409-13.047-2.531-19.517-.449-1-1.639-1.449-2.639-.988-1.011.46-1.451 1.641-1 2.651 2.739 6.029 4.389 10.45 2.369 16.62l-.18.52-.004.013c-2.473-2.729-6.26-4.315-8.225-4.998-1.043-.364-2.184.189-2.545 1.233-.362 1.043.189 2.183 1.232 2.545 3.354 1.165 7.055 3.321 7.77 5.971-.64 1.599-1.309 3.188-1.959 4.747-.42.99-.84 1.98-1.25 2.98l-.689 1.69c-.76 1.91-1.311 4-1.84 6.03-.7 2.72-1.43 5.53-2.67 7.67l-.101.21c-2.21-.68-4.72-1.07-7.37-1.07-1.96 0-3.85.21-5.59.6-1.15-2.1-1.85-4.8-2.529-7.41-.531-2.03-1.07-4.12-1.841-6.03-.229-.57-.46-1.13-.69-1.69-.409-1-.819-1.99-1.239-2.98-.659-1.557-1.327-3.144-1.966-4.74.71-2.652 4.415-4.811 7.77-5.977 1.044-.362 1.596-1.502 1.233-2.545s-1.501-1.598-2.546-1.233c-1.963.682-5.746 2.267-8.219 4.993l-.002-.008-.181-.52c-2.021-6.17-.38-10.59 2.36-16.62.459-1.01.01-2.19-.99-2.65-1.01-.46-2.189-.01-2.65.99-2.93 6.47-4.979 12.01-2.529 19.52 1.17 3.55 2.619 7 4.029 10.34l.6 1.43c.451 1.05.881 2.11 1.311 3.17.62 1.56 1.09 3.3 1.57 5.15-2.131-2.38-4.77-5.09-7.92-7.89l-.5-.43c-3.76-3.19-7.971-5.1-12.051-6.95-4.16-1.88-8.469-3.83-12.369-7.189-8.17-7.03-9.521-26.4-9.961-32.771-.909-13.06 1.531-26.94 7.261-41.25.62-1.53-.13-3.28-1.67-3.9-1.54-.61-3.28.13-3.9 1.67-6.069 15.149-8.649 29.919-7.68 43.899.819 11.72 2.87 28.018 11.148 36.099-2.7 1.416-6.188 2.607-7.987 2.399-1.095-.132-2.092.654-2.222 1.75-.13 1.097.653 2.091 1.75 2.222.285.034.581.05.888.05 3.535 0 8.335-2.136 10.891-3.702l.002.002c3.79 2.75 7.641 4.5 11.381 6.19 1.079.49 2.149.98 3.199 1.48 2.84 1.35 5.5 2.84 7.83 4.91 5.859 5.2 9.91 9.979 11.93 12.668-2.59 1.7-4.17 4.06-4.17 6.06h-17.68l3.59 4.181 30.34 33.871 30.34-33.916 3.59-4.136h-17.67c0-2-1.06-3.56-2.869-5.089 1.68-2.33 6-7.82 12.64-13.729 2.34-2.07 5-3.515 7.83-4.865 1.05-.5 2.12-.967 3.21-1.457 3.24-1.47 6.55-2.959 9.84-5.119h.009c2.638 1.325 6.184 2.648 8.962 2.648.307 0 .604-.015.889-.049 1.098-.13 1.881-1.124 1.75-2.221-.13-1.097-1.127-1.884-2.222-1.75-1.332.153-3.563-.45-5.724-1.341l.307-.256c9.179-7.9 10.979-24.7 12.179-35.9z"/></svg>