<svg xmlns="http://www.w3.org/2000/svg" width="358.145" height="64.963" viewBox="0 0 358.145 64.963"><path d="M86.986 54.222c.121-.088-.041-.027-.188-.019l.188.019zM86.798 54.204l-.133-.014.133.014zM85.555 54.144c.286-.07.626.025.805-.082-.288-.064-.734-.038-.805.082zM85.984 54.212l.037-.059-.251.092zM86.164 54.267l-.037-.022-.391.059zM84.589 54.101l.286-.017c.269.08-.177.106.002.161.357-.001.124-.167.569-.141-.035-.076-.715 0-.644-.117-.374-.036-.016.071-.213.114zM67.343 54.739l-.041-.012.041.012zM62.62 54.822l-.193-.024.077.032.116-.008zM70.3 54.517l.187.028-.187-.028zM40.214 54.09l.024-.034-.009-.003-.052.031.037.006zM57.33 55.005l-.213.012.213-.012zM72.004 54.507l-.071-.001.088.013-.013-.012zM64.162 54.981l-.171-.015.171.015zM80.208 53.968l-.208.012c.052.017.118.02.208-.012zM78.519 53.778h.01-.01zM77.439 53.97l.02-.003-.02.003zM80 53.979c-.141-.047-.183-.196-.362-.032l.036.021c-.108-.038-.27.026-.395.032l.047.04.274.017c.153.036.253-.042.4-.078zM67.361 54.708zM68.816 54.584l-.143-.005.143.005zM74.304 54.627l-.026-.007.026.007zM68.542 54.778h.132-.132zM72.657 54.539l-.023-.005.023.005zM17.655 53.563c.111-.014.177.029.28.043l-.144-.1-.263.03.148.103-.021-.076zM38.843 53.876l.047.009c-.032-.047-.003-.062-.184-.086-.154.071.086.179-.185.257l.203.006c-.108-.064.001-.131.119-.186zM38.726 54.062l.008.006.04.024.107.013-.155-.043zM21.318 53.61l.124.01-.124-.01zM57.67 53.698l.146-.032-.146.032zM41.451 53.978l.13.017.083-.005-.213-.012zM32.762 54.966l-.257-.059-.172.062c.157.02.303 0 .429-.003zM17.519 53.53l-.002.011.013-.003zM27.656 54.992l-.082-.017.082.017zM39.749 54.112l.657.007-.192-.028c-.091.056-.374-.049-.465.021zM35.564 55.035l.06.069c.652-.149 1.403.065 1.924-.146.796.249.521-.224 1.252 0l-.024-.035c2.401.042 4.948.173 7.192.052l-.005.051c3.618.086 7.141-.02 10.726.021.334-.046.133-.155.421-.212.125.005.408-.001.41.061-.243.033-.105.088-.188.111.402-.007.924.064 1.283-.011l-.301-.079c.141-.033.359-.011.486-.007l.021.146c.76-.195.593.084 1.231.008.127-.168.927-.307 1.454-.426l.277.043c-.368 0 .006.122-.449.114.38.049.732-.022 1.093.003-.07-.042-.052-.097.092-.115.223.022.241.106.493.115l-.249.053c.168.062.312-.021.468-.029.051.07.429.082.361.16.34-.096.46-.041.826-.103-.381-.073.098-.093.055-.151l-.429.028c.604.047-.197.013-.151.132-.284-.055.392-.197-.086-.179.569-.062.69-.007 1.271-.106-.352.022.066-.078-.122-.113.445-.006.11.042.249.119.242-.004.332.063.555-.024.394.036-.059.09.14.14-.146.082-1.095-.103-.986.161-.205.003-.456.104-.751.099.258.035.627.121.946.062l.017-.147.467-.092c-.093.043.075.104.27.094l-.111-.043.841-.141c-.355-.038-.428-.083-.76-.146.089-.104.233-.016.429-.027l-.013.037.208-.051c.441.046-.056.15.31.201.251.088.345-.049.538 0l-.038-.025.096.008-.003-.008c.235-.016.486-.007.554-.084.023.035.205.086.281.062.132-.031.444.1.64.1h-.016c.292 0 .521-.043.457 0l.473-.018-.051.075c.431-.026.388-.099.683-.202.308.06.846.006 1.049-.033l.171-.004-.179-.039c.335.004.294-.052.516-.052h.071l.127.007-.11.004.041.035c.269.106.411-.062.698-.023l-.103.01c.16.027.392.17.459.083l.148-.028.118.016-.117-.016.153-.044.412.02c.078.015.184.002.27-.013l.07.041c.149-.006.151.02.133.03.521.146.805-.073 1.368.052.106-.07-.125-.102-.144-.14.089-.054.41-.103.571-.14.25.097 1.02.182.896.32.464.012-.146-.086.088-.134l.053.005c-.16-.016-.286-.062-.375-.117-.035-.074.375-.098.5-.076l-.087.107c.428-.037.338-.197.604-.306.342.042-.038.14.033.235l.175-.026v.08c1-.021.471-.097.791-.064-.231.075.575.075.254.177.178.027.275-.129.366-.021.124-.086-.137-.043-.228-.069-.073-.123.404-.06.619-.092.018.064-.139.075.114.118.053-.049.216-.086.359-.026 0-.08.288-.017.431-.012-.16-.016-.393-.075-.287-.145.125-.032.232-.049.519-.039l-.196-.036c.25-.118.412.085.751.048l-.356.107c.161-.039.465-.098.715-.136l.286.118c.036-.061.321.005.321-.074.356.053-.286.096-.321.154.446.055.357-.134.787-.011l-.144.075c.144.004.43-.039.447 0l-.161-.018c.088-.16.66-.111.607-.279l-.197-.011c.302-.032.518-.146.75-.086.179.054-.125.112-.231.155.285.011.231-.184.571-.166-.179-.027-.145-.086-.038-.129-.196-.012-.606-.043-.535.027l.071.016-.179.081c-.27 0-.125-.075-.18-.107-.446-.026-.035.166-.445.161l-.054-.032c-.196.044-.501.05-.555.15-.179-.106-.464.043-.66-.021-.038-.236.696.016.929-.113-.215-.049.123-.113.213-.168l-.679.104c-.054-.031-.252-.15-.375-.064l.054.007c-.27.026-.197.122-.43.091l.054-.075c-.214-.021-.179.054-.322.075l-.072-.123c-.249.092-.393-.021-.608-.016.092.134-.856.183-.392.301l-.517.092c-.161-.07.355-.188.212-.301l.412.005c-.068-.167-.862.108-1.135-.077-.221-.008-.166.016-.583-.066l.07.148c-.216-.034-.286-.115-.296-.143l-.357-.002.15-.049c-.163-.082-.209-.053-.267-.009-.087.038-.222.033-.356.031l.122-.056-.193.056-.159.014c.036.025.125.112.318.151-.5-.059-.893-.026-1.321-.148l.142-.104c-.215-.021-.447.054-.428.117l-.119.008c-.041-.037-.091-.077-.193-.083l-.135-.03c-.072.118-.483.059-.572.112l.336.008c-.173.078-.327.169-.46.104.32-.074-.342-.123.142-.155-.339-.149-.178.106-.536.055l-.232-.06c.035-.086.376-.043.322-.075l-.161.011c.161-.064.771-.021 1.145-.117l-.751-.049c-.947.104-2.129-.016-2.932.174l.034-.003-.032.058-.036-.021-.158.064c-.182-.08-.52-.096-.808-.16.182.054.182.054.199.117-.036.086-.064.123-.333.092-.003-.062.163-.061-.035-.108.103.03.011.073-.105.081-.151-.04-.403-.048-.407-.109l.174.015c.07-.017-.284-.056-.077-.104l-.272.018c-.159-.053.105-.081.042-.113-.454.041-.688.182-1.099.225l.02-.131c-.316-.041-.679.148-1.038.16.053-.041.188-.023.296-.044-1.102-.052-2.002-.055-3.035-.185l-.269.14-.271-.093c-1.087-.09-1.921.001-2.954.043-.322.009-.192-.098-.344-.139-.707-.016-.879.144-1.552.174.093-.043.25-.162-.039-.168-.055.039-.089.104-.272.078l.093-.043c-.167-.062-.328-.004-.675-.029-.611.003-1.194.102-1.699.257-.541-.015.057-.151-.046-.183.382.053.266-.023.349-.072-.202.04-.446.064-.55-.036-.281.006-.409.002-.688.069.14-.034.26.02.129.064-.229-.035-.814.003-.783-.122-1.332.024-2.821-.002-4.248.005-.24.063.183.024.051.069-.351.084-.276-.043-.557.022l.115-.067c-.417-.01-.859.116-1.262.18.066-.077-.331-.063.004-.11-.197.014-.438-.334-.589-.264l.223.323-.26.034c-.172-.064-.384-.141-.503-.139-.059-.082.242-.064.405-.062.024-.137-.553-.088-.314-.213-.353.021.05.068-.16.12l-.307-.029.236.046c-.256.041-.344.146-.686.069l-.354.133c-.035-.106-.259-.021-.44-.045l.114-.067c-.243.002-.338-.017-.488-.056l.278-.067-.268-.031c.001.062-.168.109.022.146-.247.114-.383.209-1.002.199-.28-.104.301-.093.185-.195-.644-.045-.787.271-1.163.26-.479-.043-.452.054-.938.061.154-.071-.341-.076-.43-.145l.192-.073c-.147.021-.29-.007-.246-.058.028.096-.63.09-.965.135l.059.082c-.262.027-.625.08-.902.059-.413.025-.319.1-.639.188-.176-.074-.156-.16-.098-.25.111.041.298.018.479.043.522-.071.93-.244 1.449-.205.228-.198-.351.022-.604-.047l.045-.018-.063-.006c.188-.023.491-.057.542-.158-.312.021-.227.199-.614.113-.288.056-.522-.102-.696-.114-.192.074-.2.233-.671.203l.207-.111c-.534-.003-.25.163-.745.158.174.013-.168.108.162.112-.162.06-.522.07-.791.037l-.027.076c.297.078.47-.074.713.037l.207-.121c.276.043.306.141.135.188l.203-.001-.428.089.195-.013c.084.117-.456.104-.708.095-.285-.055-.545-.075-.564-.16l.382-.036c-.197-.067-.487.041-.71.036l-.062-.026.018.023-.125-.035c-.194-.004-.48.049-.664.021l.023.076.023-.043c.18.002.422.05.286.105-.402.053-.483-.094-.58-.158.094-.117.395 0 .599-.039-.123-.115-.41-.013-.826-.088.166-.128.482.002.574-.115-.335-.021-.423.067-.776.035.045-.059.389-.062.367-.139l-.228-.036c.557-.008-.098-.157.336-.188-.204-.051-.285.104-.576.023.081.055.313.155.034.204l-.314-.037c-.132-.061.329-.134.123-.186l-.33.043c.011.036.169.057.07.108-.19-.041-.312.146-.537.2-.18-.003-.321-.011-.384-.055l-1.437.213c.283-.075-.011-.129-.181-.187.326-.016.328-.133.306-.209-.198.013-.328.135-.228.174l-.521.003c-.188-.041.095-.117.029-.161-.358-.006-.098.145-.486.115l.026-.043c-.21-.024-.437.031-.481.09-.223-.154-.629.017-.585-.133-.508.039.076.082-.024.134-.208.065-.593.012-.713-.013.125-.002.24-.043.361-.021l-.106-.104-1.012.146c.314-.055.104-.079.261-.152-.095.026-.572-.002-.283.076-.229-.009-.389-.027-.546-.046-.204.04-.425.068-.543.138-.321-.012-.56-.086-.712-.131-.676.075-1.298-.054-2.009.026l.053.007c-.552-.02.243.139-.329.134.077-.127-.344-.086-.528-.153-.703-.064-1.215.095-1.863.009.005-.026.047-.06.172-.062-.493-.041-.893-.016-1.338-.021l.021-.016c-.714-.104-1.363.021-2.104.051l.122-.08c-.373-.029-.968-.049-1.229.068l-.862-.084.094-.025c-.279-.042-.478-.028-.761-.045-.624.082-.779.246-1.504.197-.037-.175.446-.043.462-.182-.145.03-.27.064-.47.023l.108-.104c-.152-.046-.616.181-.612.164-.009.033.044.052.188.047-.169.106-.713.009-1.063.052.113.004.473.036.339.118-.473-.036-.628.13-.958.199-.436-.078.319-.146.237-.269-.072-.043-.246-.141-.063-.188-.391-.025-.672.078-1.021.104l.011-.033c-.486.015-1.005.164-1.414.096l.216.039c-.08.021-.325.011-.46.08.015-.057-.303-.107-.173-.155-.216.183-1.106.111-1.349.284-.13-.046-.025-.12.014-.161.307.017.411.052.571-.021-.255.002-.441-.045-.402-.086-.255.113-.864.158-.992.271-.188-.058-.365-.088-.299-.183-.784.059.387.292-.498.29-.403-.092.394-.125-.163-.155l.103-.015c-.401-.244-.281.174-.736.166-.062-.133.316-.096.003-.19-.416.034-.6.229-1.016.188l.065-.058-1.049-.006.077-.03-.607-.022-.115.063c.202.047.593.11.849.035-.255.075.398.168.272.281l.051-.046c.667.194 1.525.22 2.371.293.533-.136.908.055 1.48-.039.089-.155.106-.031.599-.062-.26.02-.03.117.134.139.097-.04.213-.055.33-.068.1.053.72.178.945.072.299.05-.07.05-.135.082.122.08.244-.062.343-.01l-.036.024c.458-.006.731.034 1.208.054.039-.151.468-.057.681-.11-.068.049.268.057.402.086l.255-.113c.252-.097.352.067.679.017l-.079-.027c.238-.046.867.046 1.102.128 2.204-.298 3.409.167 5.731.086l.008-.146.504-.014-.135-.031-.329.043-.011-.039c-.11.016-.241.045-.383.037.204-.039.261-.151.539-.108l-.131.03.414-.017.188.039.654.062c.327-.135.73-.006.836.006l-.596.131.236.072.014-.08.337.021-.019.016c.04-.03.081-.062.167-.035l.01.039.24-.045.176.121c.784.049.997-.129 1.687.002-.111-.045.219-.151.432-.135.122.023.152.045.076.082l.277-.05c.349.149.688.054 1.198.104l-.026.043c.189-.051.394-.09.678-.074l-.053.085.649-.124c-.002-.092-.244-.139-.281-.225.09.092.502.105.406.039.382-.037.265.004.298.024l.226-.056c.269.005.086.119-.014.172.25-.098.523-.029.809-.014l-.116.041.375.017c.244-.071.586-.076.9-.039l-.218.12c.222.062.114-.041.172-.062.351-.059.426.022.609.092.556-.125 1.111.197 1.59.018zm38.607-.464l-.052-.02.052.02zm-3.075-.034c.371-.047.253.01.281.043l-.891-.034.079.076c-.128-.006-.257-.032-.301-.094.159-.12.992.078.832.009zm6.923-.595l-.043.026h-.002l.045-.026zm-1.832.107l-.127-.05.127.05zm-3.649-.148c-.084-.051-.277-.035-.417-.023l.417.023zm-23.017.055c.111-.02.318-.07.128-.105-.091.043-.267-.033-.344.033l-.019-.006.235.078zm-10.819.408c.02-.049.101-.104.049-.141l.031.004-.029-.041-.243-.009c-.03.162-.216.189.192.187zM42.316 53.702l-.101.004.101-.004zM38.528 54.179l.224.045c-.027-.02-.089-.037-.224-.045zM83.983 54.487l-.106.017.214.048c.358-.054.376-.123.464-.203-.321.074-.517.037-.929.06l.357.078zM83.802 53.951l-.179-.081-.054.049.233.032zM79.563 53.715l.34.043c.107-.043-.287-.118-.34-.043zM81.071 54.563l.18-.054c-.161-.043-.376-.038-.411.021l.231.033zM78.651 53.705l-.409.049c.088-.028.392.047.409-.049zM78.889 54.624c.108.092.287.011.501.032-.179 0-.429-.096-.501-.032zM76.829 53.979c.018-.069.161-.064.321-.049l-.16.064.501-.075c-.215-.049-.537-.08-.503-.166-.159.066-.356.163-.159.226zM78.372 54.635c.179.026.287.091.501.085-.037-.048-.108-.117-.359-.105l.09-.081c-.233-.06.091.106-.232.101zM75.845 53.792l.108.037c.25-.064.571-.032.713-.135-.303.007-.678.05-.821.098zM77.494 54.485l-.034.113c.25.016-.019-.039.071-.064.071.016.179.025.23.005l-.267-.054zM76.673 54.608l-.321.05.25.123c.376-.044.019-.071.071-.173zM76.279 54.534l-.035-.021-.481.168c.285-.073.303-.061.516-.147zM70.448 53.801c-.055.05.228.108.106.056.055-.042-.321-.104-.106-.056zM71.598 54.705c-.137-.037-.586.032-.782.065.234-.023.815.001.782-.065zM70.736 54.783l.08-.013-.08.013zM62.472 55.032l-.06.013.06-.013zM62.668 55.003c.133.016.397-.014.443-.064-.209.023-.396.039-.641.094.093-.007.207.029.198-.03zM60.771 54.978c.1-.029.234-.015.2-.062-.056-.02-.266.03-.2.062zM47.986 53.569c-.183-.025-.29-.006-.239.063l.239-.063zM47.511 53.649l-.025-.035-.119-.054zM46.252 53.545l.076-.03-.076.03zM46.364 53.51l-.035.005.035-.005zM46.447 53.533l.015-.037-.098.015.083.022zM45.875 53.533l.24.106c.25-.053-.284-.055-.038-.168l-.202.062zM45.039 53.563c-.229-.035-.561.134-.689.006-.648.066.15.213-.593.261.702.065.356-.244.979-.174-.301-.079.202-.063.303-.093zM45.149 53.776c.038-.063-.253-.069-.344-.026.084.006.23.095.344.026zM43.77 53.62l-.198-.049-.052.041zM43.018 53.594l.193-.073c-.064.028-.354.022-.193.073zM41.969 53.502c-.182-.024-.346.146.038.108l-.087-.008c.022-.024-.185-.083.049-.1zM39.544 53.771c.125.004.272-.02.247-.055l-.343.035.096.02zM39.595 54.183c.115.104.321-.008.549.026-.258-.021-.227-.034-.549-.026zM39.153 53.623c.093-.042.236-.015.322-.008-.042-.059-.279-.044-.322.008zM38.605 53.659l-.06-.087c-.241-.048-.493-.04-.63.017.062.044.149.164.051.217.384-.037.58-.229.767-.082l.321-.18c-.306-.029-.235.125-.449.115zM39.382 54l-.206-.06c.041.059-.115.067-.224.088.054.133.313-.02.43-.028zM36.477 53.737l-.436.032.142.007zM36.197 53.696l-.011-.038-.334.07zM35.74 53.651l.052.006.257-.033zM34.831 53.625l.081.056c.109-.016.332.047.31-.027-.097.024-.326.015-.391-.029zM31.818 55.037c.079-.036.032-.069-.016-.103l-.125.094.141.009zM31.292 54.883l-.324.107c.373.017.425-.068.75-.085l-.504.014.078-.036zM24.808 54.8c.029-.068-.044-.06.197-.104-.33.043-.613.027-.991.037l-.073.102.421-.041-.062.047.508-.041zM7.87 54.065c.039-.033-.012-.065-.062-.095-.252.038.112.088.062.095zM355.986 54.222c.127-.088-.043-.027-.197-.019l.197.019zM355.788 54.204l-.142-.014.142.014zM354.479 54.144c.301-.07.659.025.849-.082-.305-.064-.773-.038-.849.082zM354.932 54.212l.037-.059-.264.092zM355.12 54.267l-.038-.022-.413.059zM353.461 54.101l.302-.017c.283.08-.187.106.003.161.376-.001.129-.167.601-.141-.037-.076-.754 0-.679-.117-.396-.036-.019.071-.227.114zM335.3 54.739l-.043-.012.043.012zM330.325 54.822l-.203-.024.081.032.122-.008zM338.414 54.517l.195.028-.195-.028zM306.731 54.09l.025-.034-.009-.003-.056.031.04.006zM324.756 55.005l-.225.012.225-.012zM340.209 54.507l-.075-.001.093.013-.014-.012zM331.95 54.981l-.182-.015.182.015zM348.849 53.968l-.22.012c.055.017.124.02.22-.012zM347.069 53.778h.012-.012zM345.932 53.97l.021-.003-.021.003zM348.629 53.979c-.146-.047-.191-.196-.381-.032l.038.021c-.114-.038-.283.026-.415.032l.048.04.289.017c.161.036.266-.042.421-.078zM335.318 54.708zM336.852 54.584l-.149-.005.149.005zM342.631 54.627l-.027-.007.027.007zM336.562 54.778h.14-.14zM340.896 54.539l-.022-.005.022.005zM282.974 53.563c.116-.014.186.029.295.043l-.15-.1-.275.03.156.103-.026-.076zM305.287 53.876l.05.009c-.034-.047-.003-.062-.194-.086-.162.071.092.179-.191.257l.214.006c-.119-.064-.004-.131.121-.186zM305.164 54.062l.008.006.042.024.112.013-.162-.043zM286.831 53.61l.13.01-.13-.01zM325.113 53.698l.156-.032-.156.032zM308.033 53.978l.137.017.087-.005-.224-.012zM298.883 54.966l-.271-.059-.182.062c.167.02.321 0 .453-.003zM282.83 53.53l-.002.011.014-.003zM293.506 54.992l-.087-.017.087.017zM306.241 54.112l.69.007-.201-.028c-.095.056-.393-.049-.489.021zM301.834 55.035l.062.069c.688-.149 1.479.065 2.026-.146.839.249.55-.224 1.319 0l-.026-.035c2.529.042 5.211.173 7.574.052l-.005.051c3.81.086 7.52-.02 11.295.021.353-.046.141-.155.442-.212.132.005.432-.001.433.061-.255.033-.111.088-.198.111.424-.007.973.064 1.352-.011l-.316-.079c.146-.033.379-.011.512-.007l.022.146c.8-.195.624.084 1.297.008.134-.168.977-.307 1.53-.426l.291.043c-.387 0 .009.122-.473.114.4.049.772-.022 1.151.003-.073-.042-.056-.097.098-.115.233.022.253.106.521.115l-.264.053c.177.062.329-.021.493-.029.054.07.45.082.38.16.358-.096.485-.041.87-.103-.4-.073.104-.093.059-.151l-.451.028c.637.047-.207.013-.159.132-.3-.055.411-.197-.091-.179.6-.062.727-.007 1.34-.106-.37.022.069-.078-.129-.113.47-.006.117.042.262.119.256-.004.35.063.585-.024.414.036-.062.09.147.14-.153.082-1.153-.103-1.04.161-.217.003-.479.104-.791.099.271.035.659.121.997.062l.017-.147.491-.092c-.099.043.079.104.284.094l-.117-.043.885-.141c-.373-.038-.45-.083-.8-.146.094-.104.246-.016.452-.027l-.015.037.22-.051c.466.046-.059.15.325.201.266.088.363-.049.566 0l-.039-.025.101.008-.003-.008c.247-.016.513-.007.582-.084.026.035.218.086.297.062.139-.031.469.1.674.1h-.017c.31 0 .548-.043.481 0l.497-.018-.055.075c.453-.026.407-.099.719-.202.323.06.891.006 1.104-.033l.181-.004-.188-.039c.353.004.311-.052.543-.052h.075l.134.007-.116.004.043.035c.282.106.434-.062.734-.023l-.108.01c.17.027.413.17.483.083l.157-.028.125.016-.123-.016.161-.044.434.02c.082.015.193.002.284-.013l.073.041c.157-.006.158.02.141.03.549.146.848-.073 1.441.052.111-.07-.134-.102-.151-.14.093-.054.432-.103.602-.14.265.097 1.073.182.943.32.488.012-.152-.086.093-.134l.057.005c-.169-.016-.302-.062-.396-.117-.037-.074.396-.098.526-.076l-.093.107c.45-.037.355-.197.637-.306.358.042.198.14.273.235l.424-.026v.08c0-.021.256-.097.595-.064-.245.075.484.075.146.177.188.027.23-.129.327-.021.13-.086-.175-.043-.271-.069-.076-.123.411-.06.637-.092.019.064-.152.075.113.118.055-.049.224-.086.375-.026 0-.08.301-.017.45-.012-.17-.016-.414-.075-.304-.145.132-.032.245-.049.546-.039l-.207-.036c.264-.118.435.085.792.048l-.377.107c.169-.039.49-.098.753-.136l.303.118c.037-.061.34.005.34-.074.375.053-.303.096-.34.154.472.055.377-.134.828-.011l-.149.075c.149.004.452-.039.471 0l-.169-.018c.092-.16.695-.111.639-.279l-.208-.011c.318-.032.547-.146.79-.086.188.054-.132.112-.242.155.3.011.242-.184.602-.166-.188-.027-.152-.086-.04-.129-.207-.012-.639-.043-.562.027l.073.016c-.019.043-.132.06-.188.081-.283 0-.132-.075-.188-.107-.471-.026-.039.166-.47.161l-.057-.032c-.207.044-.527.05-.584.15-.188-.106-.488.043-.695-.021-.039-.236.733.016.979-.113-.227-.049.13-.113.225-.168l-.714.104c-.058-.031-.267-.15-.396-.064l.057.007c-.282.026-.206.122-.451.091l.056-.075c-.226-.021-.188.054-.339.075l-.075-.123c-.262.092-.414-.021-.642-.016.097.134-.901.183-.412.301l-.544.092c-.17-.07.374-.188.224-.301l.435.005c-.071-.167-.908.108-1.195-.077-.231-.008-.175.016-.613-.066l.075.148c-.228-.034-.301-.115-.312-.143l-.378-.002.159-.049c-.171-.082-.221-.053-.279-.009-.094.038-.233.033-.376.031l.129-.056c-.087.013-.194.028-.203.056l-.169.014c.038.025.132.112.336.151-.527-.059-.94-.026-1.394-.148l.148-.104c-.227-.021-.471.054-.45.117l-.125.008c-.043-.037-.096-.077-.203-.083l-.143-.03c-.075.118-.509.059-.604.112l.354.008c-.183.078-.346.169-.485.104.338-.074-.358-.123.148-.155-.357-.149-.188.106-.564.055l-.245-.06c.038-.086.396-.043.34-.075l-.17.011c.17-.064.812-.021 1.204-.117l-.791-.049c-.997.104-2.24-.016-3.087.174l.035-.003-.033.058-.038-.021-.168.064c-.189-.08-.546-.096-.85-.16.189.054.189.054.209.117-.037.086-.066.123-.35.092-.004-.062.172-.061-.037-.108.106.03.012.073-.111.081-.159-.04-.425-.048-.429-.109l.184.015c.073-.017-.3-.056-.081-.104l-.287.018c-.168-.053.111-.081.045-.113-.479.041-.724.182-1.155.225l.021-.131c-.333-.041-.715.148-1.094.16.056-.041.197-.023.312-.044-1.158-.052-2.108-.055-3.195-.185l-.283.14-.284-.093c-1.145-.09-2.021.001-3.11.043-.339.009-.202-.098-.362-.139-.743-.016-.925.144-1.634.174.098-.043.264-.162-.041-.168-.058.039-.095.104-.287.078l.098-.043c-.176-.062-.346-.004-.71-.029-.645.003-1.259.102-1.789.257-.569-.015.061-.151-.049-.183.401.053.279-.023.366-.072-.212.04-.47.064-.578-.036-.297.006-.432.002-.724.069.146-.034.273.02.136.064-.242-.035-.858.003-.824-.122-1.402.024-2.972-.002-4.474.005-.255.063.191.024.053.069-.368.084-.291-.043-.586.022l.122-.067c-.438-.01-.904.116-1.329.18.069-.077-.351-.063.003-.11-.207.014-.459-.334-.62-.264l.234.323-.273.034c-.182-.064-.404-.141-.53-.139-.061-.082.255-.064.429-.062.024-.137-.583-.088-.332-.213-.371.021.053.068-.169.12l-.323-.029.25.046c-.271.041-.362.146-.724.069l-.372.133c-.038-.106-.272-.021-.466-.045l.12-.067c-.255.002-.354-.017-.514-.056l.293-.067-.281-.031c.002.062-.177.109.024.146-.261.114-.403.209-1.057.199-.295-.104.317-.093.195-.195-.678-.045-.828.271-1.225.26-.505-.043-.477.054-.988.061.163-.071-.357-.076-.452-.145l.202-.073c-.155.021-.305-.007-.259-.058.028.096-.664.09-1.018.135l.062.082c-.276.027-.658.08-.951.059-.435.025-.336.1-.671.188-.187-.074-.165-.16-.104-.25.116.041.313.018.506.043.551-.071.979-.244 1.525-.205.238-.198-.37.022-.637-.047l.048-.018-.066-.006c.196-.023.518-.057.57-.158-.329.021-.238.199-.646.113-.305.056-.551-.102-.733-.114-.202.074-.211.233-.707.203l.218-.111c-.562-.003-.265.163-.784.158.184.013-.178.108.172.112-.172.06-.552.07-.833.037l-.029.076c.312.078.495-.074.752.037l.218-.121c.291.043.32.141.144.188l.214-.001-.451.089.206-.013c.089.117-.48.104-.745.095-.3-.055-.574-.075-.595-.16l.402-.036c-.209-.067-.515.041-.749.036l-.064-.026.02.023-.132-.035c-.206-.004-.508.049-.699.021l.024.076.025-.043c.188.002.442.05.301.105-.424.053-.51-.094-.61-.158.098-.117.414 0 .63-.039-.13-.115-.432-.013-.87-.088.176-.128.51.002.604-.115-.354-.021-.445.067-.817.035.048-.059.41-.062.387-.139l-.238-.036c.586-.008-.104-.157.354-.188-.216-.051-.301.104-.606.023.085.055.33.155.037.204l-.332-.037c-.14-.061.346-.134.13-.186l-.349.043c.013.036.18.057.074.108-.201-.041-.329.146-.564.2-.188-.003-.338-.011-.404-.055l-1.513.213c.298-.075-.013-.129-.19-.187.344-.016.346-.133.322-.209-.209.013-.346.135-.24.174l-.548.003c-.198-.041.1-.117.031-.161-.377-.006-.104.145-.514.115l.028-.043c-.222-.024-.46.031-.507.09-.235-.154-.663.017-.617-.133-.534.039.08.082-.025.134-.22.065-.623.012-.75-.013.133-.002.254-.043.381-.021l-.113-.104-1.063.146c.331-.055.109-.079.273-.152-.1.026-.604-.002-.298.076-.241-.009-.409-.027-.575-.046-.215.04-.447.068-.571.138-.338-.012-.589-.086-.75-.131-.711.075-1.366-.054-2.114.026l.056.007c-.581-.02.257.139-.347.134.08-.127-.361-.086-.558-.153-.74-.064-1.279.095-1.961.009.005-.026.049-.06.182-.062-.521-.041-.939-.016-1.409-.021l.021-.016c-.752-.104-1.436.021-2.214.051l.128-.08c-.392-.029-1.02-.049-1.295.068l-.908-.084.101-.025c-.295-.042-.504-.028-.803-.045-.656.082-.819.246-1.584.197-.039-.175.471-.043.486-.182-.152.03-.284.064-.495.023l.115-.104c-.161-.046-.649.181-.646.164-.009.033.047.052.197.047-.178.106-.75.009-1.12.052.12.004.498.036.356.118-.497-.036-.661.13-1.009.199-.457-.078.337-.146.251-.269-.076-.043-.261-.141-.068-.188-.411-.025-.707.078-1.073.104l.01-.033c-.513.015-1.059.164-1.487.096l.228.039c-.084.021-.342.011-.483.08.016-.057-.318-.107-.183-.155-.229.183-1.165.111-1.42.284-.138-.046-.027-.12.014-.161.323.017.434.052.604-.021-.27.002-.466-.045-.424-.086-.271.113-.91.158-1.046.271-.196-.058-.385-.088-.315-.183-.824.059.408.292-.523.29-.425-.092.414-.125-.172-.155l.108-.015c-.423-.244-.297.174-.775.166-.063-.133.333-.096.003-.19-.438.034-.631.229-1.068.188l.068-.058-1.104-.006.081-.03-.641-.022-.12.063c.213.047.624.11.893.035-.269.075.421.168.287.281l.054-.046c.702.194 1.606.22 2.497.293.562-.136.956.055 1.559-.039.095-.155.113-.031.632-.062-.274.02-.033.117.141.139.101-.04.224-.055.347-.068.104.053.759.178.996.072.314.05-.073.05-.143.082.128.08.257-.062.36-.01l-.037.024c.481-.006.77.034 1.271.054.041-.151.493-.057.716-.11-.071.049.282.057.425.086l.27-.113c.267-.097.37.067.714.017l-.083-.027c.252-.046.913.046 1.16.128 2.32-.298 3.59.167 6.036.086l.008-.146.531-.014-.144-.031-.347.043-.011-.039c-.117.016-.254.045-.403.037.215-.039.274-.151.567-.108l-.138.03.437-.017.195.039.69.062c.345-.135.77-.006.881.006l-.628.131.249.072.015-.08.354.021-.02.016c.042-.03.086-.062.176-.035l.011.039.253-.045.187.121c.824.049 1.05-.129 1.775.002-.118-.045.229-.151.453-.135.129.023.161.045.079.082l.293-.05c.367.149.725.054 1.263.104l-.027.043c.198-.051.414-.09.713-.074l-.056.085c.366.06.279-.179.685-.124-.002-.092-.257-.139-.296-.225.095.092.528.105.428.039.403-.037.279.004.312.024l.236-.056c.283.005.091.119-.014.172.264-.098.552-.029.852-.014l-.122.041.396.017c.257-.071.616-.076.948-.039l-.229.12c.232.062.119-.041.181-.062.368-.059.447.022.643.092.569-.125 1.154.197 1.659.018zm40.656-.464l-.056-.02.056.02zm-3.238-.034c.391-.047.267.01.296.043l-.938-.034.083.076c-.135-.006-.271-.032-.316-.094.167-.12 1.044.078.875.009zm7.291-.595l-.046.026h-.002l.048-.026zm-1.93.107l-.134-.05.134.05zm-3.842-.148c-.089-.051-.291-.035-.438-.023l.438.023zm-24.239.055c.115-.02.335-.07.136-.105-.097.043-.281-.033-.362.033l-.021-.006.247.078zm-11.394.408c.021-.049.106-.104.052-.141l.032.004-.03-.041-.256-.009c-.032.162-.228.189.202.187zM308.944 53.702l-.105.004.105-.004zM304.955 54.179l.233.045c-.026-.02-.091-.037-.233-.045zM352.824 54.487l-.113.017.227.048c.377-.054.396-.123.488-.203-.338.074-.545.037-.979.06l.377.078zM352.633 53.951l-.188-.081-.057.049.245.032zM348.169 53.715l.357.043c.114-.043-.301-.118-.357-.043zM349.757 54.563l.188-.054c-.17-.043-.396-.038-.434.021l.246.033zM347.208 53.705l-.433.049c.095-.028.415.047.433-.049zM347.459 54.624c.114.092.302.011.527.032-.187 0-.451-.096-.527-.032zM345.29 53.979c.019-.069.169-.064.339-.049l-.17.064.526-.075c-.226-.049-.564-.08-.528-.166-.167.066-.375.163-.167.226zM346.915 54.635c.188.026.302.091.526.085-.039-.048-.113-.117-.378-.105l.095-.081c-.245-.06.096.106-.243.101zM344.253 53.792l.113.037c.265-.064.603-.032.752-.135-.318.007-.715.05-.865.098zM345.99 54.485l-.036.113c.264.016-.02-.039.074-.064.075.016.188.025.243.005l-.281-.054zM345.125 54.608l-.338.05.265.123c.395-.044.018-.071.073-.173zM344.71 54.534l-.037-.021-.507.168c.302-.073.32-.061.544-.147zM338.57 53.801c-.057.05.239.108.112.056.058-.042-.338-.104-.112-.056zM339.781 54.705c-.146-.037-.617.032-.824.065.247-.023.858.001.824-.065zM338.873 54.783l.084-.013-.084.013zM330.17 55.032l-.063.013.063-.013zM330.377 55.003c.141.016.42-.014.468-.064-.221.023-.416.039-.675.094.097-.007.216.029.207-.03zM328.379 54.978c.104-.029.246-.015.21-.062-.059-.02-.279.03-.21.062zM314.915 53.569c-.192-.025-.306-.006-.253.063l.253-.063zM314.415 53.649l-.026-.035-.126-.054zM313.09 53.545l.08-.03-.08.03zM313.207 53.51l-.037.005.037-.005zM313.295 53.533l.015-.037-.103.015.088.022zM312.691 53.533l.253.106c.264-.053-.299-.055-.04-.168l-.213.062zM311.812 53.563c-.241-.035-.59.134-.727.006-.685.066.158.213-.624.261.739.065.376-.244 1.032-.174-.317-.079.212-.063.319-.093zM311.928 53.776c.039-.063-.268-.069-.362-.026.088.006.242.095.362.026zM310.476 53.62l-.209-.049-.055.041zM309.683 53.594l.204-.073c-.068.028-.372.022-.204.073zM308.579 53.502c-.191-.024-.365.146.039.108l-.093-.008c.025-.024-.192-.083.054-.1zM306.025 53.771c.133.004.287-.02.261-.055l-.36.035.099.02zM306.079 54.183c.121.104.339-.008.578.026-.272-.021-.239-.034-.578-.026zM305.613 53.623c.098-.042.248-.015.34-.008-.046-.059-.294-.044-.34.008zM305.037 53.659l-.063-.087c-.253-.048-.52-.04-.663.017.066.044.158.164.055.217.403-.037.609-.229.808-.082l.338-.18c-.325-.029-.25.125-.475.115zM305.854 54l-.217-.06c.043.059-.121.067-.236.088.057.133.329-.02.453-.028zM302.795 53.737l-.459.032.149.007zM302.501 53.696l-.013-.038-.351.07zM302.02 53.651l.053.006.271-.033zM301.062 53.625l.084.056c.116-.016.351.047.327-.027-.101.024-.343.015-.411-.029zM297.889 55.037c.083-.036.033-.069-.017-.103l-.132.094.149.009zM297.334 54.883l-.341.107c.393.017.446-.068.79-.085l-.531.014.082-.036zM290.507 54.8c.031-.068-.046-.06.207-.104-.348.043-.646.027-1.043.037l-.077.102.443-.041-.066.047.536-.041zM272.669 54.065c.041-.033-.012-.064-.065-.096-.265.039.119.089.065.096zM256.508 47.452c-.271.285-.559.424-.865.424l-.17.375h-.238l-.256.425-.408.067c-.102.137-.211.204-.321.204-.056 0-.148-.021-.273-.067l-.102.204c-.375.079-.724.231-1.054.459l-.577-.17-.119-.289-.236-.137c.566-.86.869-1.404.914-1.632.049-.228.109-.373.191-.442l.25-.222.491-.936.259-.306c.125-.146.196-.247.213-.298l.051-.153.053-.146.06-.109.067-.075.076-.051.092-.019.14.033.102-.238c.422-.168.73-.254.934-.254.07-.205.188-.307.359-.307l.203.066c.053 0 .176-.021.354-.066l.697.238c.158.486.238.826.238 1.02s-.023.354-.066.485c-.047.13-.211.433-.494.91l-.102.407c-.217.271-.369.412-.461.424l-.002.176zm2.451 7.906c-.125.589-.443.923-.953 1.002l-.104.222c-.135 0-.235.067-.305.204 0 .056-.022.115-.076.179-.049.062-.326.179-.826.349l-.032.17h-.322l-.271.412c-.161.053-.415.205-.768.455l-.865.103-1.295-.067-.897-.137v-.204c-.32-.09-.615-.25-.894-.476-.278-.228-.391-.42-.332-.578-.125-.057-.213-.26-.271-.612s-.086-.567-.086-.646l.035-.476-.035-.392.188-.172-.188-1.256.188-.104c.068-.17.125-.471.17-.899l.238-.289c0-.521.174-.947.529-1.274.395.044.631.09.713.135l.287.171.664-.306h.457l.766-.528.271.067c.104 0 .178-.067.223-.204.533-.248 1.215-.714 2.043-1.393l.029-.494.7-.866.39-1.038.17-.152-.103-.969.103-.393c0-.701-.197-1.147-.596-1.344l.155-.066c-.112-.079-.188-.199-.225-.357h-.103c-.34 0-.571-.188-.696-.561h-.205l-.168-.137-.322.066c-.102-.135-.203-.204-.309-.204-.021 0-.234.069-.625.204-.15.262-.24.393-.273.393-.147 0-.246-.013-.289-.033-.365.451-.674.719-.938.798-.191.194-.312.362-.355.512l-.203.084-.172.341h-.17c0 .295-.109.525-.322.697-.33.498-.584 1.031-.768 1.6-.178.125-.271.266-.271.424l.033.238c-.352.09-.572.135-.662.135-.17 0-.321-.103-.457-.307-.071.238-.102.485-.102.732l.168 1.035c0 .068-.08.233-.24.494l.31.34-.31.256c.049.373.092.662.139.865-.104.192-.172.367-.204.521-.035.152-.111.279-.236.381l.065.459-.186.631v.729l-.137.663-.07 1.174.393 1.648v.271c.203.182.328.329.375.443l.136.355.562.307v.425c.213.317.635.493 1.256.526l.205.17c.189 0 .345-.012.457-.033.16.113.371.174.631.174.148 0 .338-.061.576-.174l.224.174c.194-.23.414-.344.664-.344l.237.033.103-.17h.494l.305-.356.289.034.168-.373.938-.631.427-.066.37-.732.257-.033c.112-.328.276-.641.483-.936.213-.293.318-.486.318-.579 0-.123-.088-.313-.256-.577-.163.001-.298.046-.409.137m-12.822-.238l.139-.255-.307-.067-.172-.238.037-.103c-.24-.171-.396-.38-.461-.63l-.599-.391h-.662l-.303-.17-.035-.17c-.215-.035-.444-.121-.682-.256-.24-.137-.5-.203-.783-.203-.17 0-.254-.068-.254-.205l-1.5-.459-.236-.205-.795-.102-.428-.357h-.696l-.51-.51h-.221l-.937-.561v-.17c-.375-.272-.559-.603-.559-.986v-.104l-.17-.102.354-1.428c.015-.069.187-.211.511-.426l.325-.51.476-.459.188-.104.136-.169c.375-.103.6-.183.678-.238l.291-.223h.391c.172-.204.472-.345.902-.425.236-.203.549-.307.934-.307l.322-.238c0-.066.035-.102.105-.102.055 0 .264.137.625.408l.239-.068.938.068c.235.488.397.73.492.73.2 0 .303-.102.303-.306 0-.069.065-.372.188-.918l-.424-.308v-.307c-.115-.124-.27-.187-.461-.187h-.098l-.072-.203-1.562-.103-1 .306-1.023.187-2.022.868-.425.373c-.342.271-.557.55-.645.834l-.24-.034c-.01.238-.234.481-.664.73-.238.34-.354.736-.354 1.189l-.104.17.104 1.614.354.545.439 1.123.989.696.033.102 1.172.204.392.36 1.037.438.395.324h.236l.098.17.229-.137.438.271h.355c.307.239.653.357 1.037.357l.235-.034c.193 0 .326.091.396.272h.34l.149.203h.14l.338.322.154-.066c.043.066.157.135.34.203l.065.271.396.324-.07.306.168.236-.028.12-.257.203-.069.205-.103-.103c-.397.271-.86.462-1.391.562l-.103.137-.375.066-.09.17-1.524.289-4.459.272-.099.173-.342-.31-.885-.136v-.526l-.308-.035c.068-.136.105-.237.105-.306 0-.137-.096-.221-.277-.256l-.321.17v-.17h-.203l-.103-.203-.172.238.037.254-.729.104c0 .984.354 1.495 1.067 1.529l.103.203c.104 0 .188.047.254.138l.309-.204.066.135c.139-.044.326-.066.562-.066l.765.086c.25.021.45.072.596.152.137-.068.235-.103.309-.103.191 0 .435.084.73.255l.256-.152.135.152.271-.188.358.119c.183-.058.351-.086.51-.086h.222l.309-.102.164.102.074-.102.457.066.492-.066.633.066v-.192c.168-.067.313-.103.438-.103.158 0 .312.034.457.103.14-.138.261-.205.375-.205l.394-.203h.596l.439-.493h.461l-.035-.204.496-.355c.246-.625.397-.977.457-1.056l.235-.271c-.043-.168-.175-.353-.388-.533m-15.641 2.039l-.545.223-.375-.104-.459.033c-.238-.123-.515-.254-.832-.39l-.103-.307-.494-.12c0-.146-.188-.493-.562-1.036v-.526h-.103l.035-.271-.104-.204.139-1.888-.07-1.53.238-.238-.065-.561.254-.494v-.765l.442-.307.355-1.293.51-.765.291-1.293-.355-.662.064-.136-.611.066c-.315.84-.518 1.26-.596 1.26h-.033v.476h-.153l-.646 1.922.102.103c-.34 0-.54.276-.594.836l-.137.03v.222l-.256.103-.137.375c-.271.113-.55.246-.832.39l-.203.493-.322.171v.204h-.207l-.459.663-.303.135-.138.461c-.434.024-.676.256-.729.695l-.633.528-.031.34c-.512.112-.896.334-1.156.663l-.34.137-.068.424c-.112.057-.299.104-.561.137 0 .205-.189.391-.564.562l.138.033c-.291.206-.535.403-.73.596-.192.192-.412.306-.664.341-.293-.33-.537-.55-.729-.662l-.172-.494.102-.373c-.133-.217-.203-.393-.203-.528l.173-.834-.207-.237v-.664l-.1-.561.1-.459-.202-.309.34-.424-.236-.307c.088-.125.135-.255.135-.393l-.051-.229c-.033-.107-.004-.179.084-.214v-.459l.139-.526-.139-.34.24-.561-.07-1.105.07-1.752.154-.73-.257-.306-.512-.137c-.397 0-.596.185-.596.546l.137.594c.092.465.146.906.168 1.326l-.404 2.434.136 1.153.03.459c0 .296-.065.478-.2.546.112.237.17.424.17.561 0 .184-.099.402-.289.662l.289.203c-.115.287-.177.531-.188.732l-.016.596c-.082.032-.121.334-.121.901l.324.458-.254.204.254.663h.371l-.271.359.459.439c-.078.135-.119.255-.119.355l.357.205-.033.207c0 .123.068.185.205.185l.236-.035.526.341c.558-.273 1.033-.471 1.426-.596l.291-.441.648-.356.812-.97h.104l1.002-1.224c.08-.093.188-.159.322-.206.137-.044.334-.203.596-.482.262-.278.438-.545.529-.801.09-.25.303-.455.645-.604 0-.238.129-.471.392-.697l.309-.033c.111-.205.225-.34.338-.408l.324-.221.236-.373.393-.205-.104 1.566c.14.246.205.501.205.764 0 .081-.045.325-.137.729l-.031.834c.154.26.236.562.236.901v.168l.34.322.256 1.073 1.138 1.021c.082.066.262.146.547.237.28.091.451.136.51.136.621 0 1.002-.067 1.137-.205l.562-.168c.354-.192.551-.317.596-.373l.17-.188.254-.136c.25-.192.375-.369.375-.526 0-.183-.125-.272-.375-.272-.215 0-.404.012-.559.037-.307.249-.545.407-.715.475m-19.775-5.951c0 .046-.035.156-.102.324-.068.169-.103.328-.103.475l.049.207c.037.1.054.186.054.252 0 .081-.048.184-.138.307h.172c-.112.137-.237.302-.375.494l.066.17-.492.222.07.306c-.15.329-.252.651-.312.969l-.491.256c-.113.068-.216.168-.306.293l-.219.317-.594.527-.17.359h-.562c-.021.125-.158.279-.408.473l-.172.392-.321.034-.103.271-.492-.135c0 .236-.182.356-.543.356l-.356-.035-.104.239-.389.102-.834-.033-.41.168-.219-.066-.238.066-.102-.168c-.354-.158-.558-.283-.611-.375l-.512-.664-.035-.849.151-.579v-.814l-.151-.375.459-1.122-.068-.476.104-.223v-.307l.303-.491v-.341c.219-.172.326-.346.326-.527 0-.396.043-.617.137-.663l.424-.237c-.043-.158-.065-.369-.065-.63 0-.294.03-.459.1-.489l.34-.241.172-1.003.39-.256.104-.373 1.088-.664.695-.033-.051-1.156c-.013-.373.319-.561.985-.561l.408.084.988.408.34.322.457.238-.137.204.137.255.34.035.219.169c-.1.262-.147.407-.147.442v.033c0 .068.041.115.127.145.084.029.125.089.125.18v.102c0 .08.125.199.375.356l.324.545-.07.769.236.558-.064.103c.125.103.203.223.238.356h-.205l.121.163c.076.084.119.166.119.244 0 .113-.07.258-.209.427.092.035.137.093.137.169m.664-2.396v-.324l-.562-1.596-.544-.801-.323-.137-.17-.424c-.271-.172-.539-.461-.797-.868l-.07.034c-.103 0-.209-.113-.32-.342h-.477c-.353-.235-.648-.364-.886-.392v-.235l-.547.235c-.371 0-.647-.026-.823-.084l-.296-.085c-.071 0-.184.079-.34.238h-.223c-.25.793-.758 1.189-1.531 1.189.07.219.104.426.104.629 0 .342-.181.526-.543.562l.065.341-.178.118c-.098.058-.168.13-.215.222l-.338.594c.088.125.135.246.135.359 0 .169-.176.346-.527.526-.065.102-.102.237-.102.407l.102.562c0 .261-.102.517-.305.765v.34l-.104.528.104.237c0 .25-.084.47-.256.664h-.203c-.135.248-.207.503-.207.765v.187c-.236.15-.355.341-.355.578l.054.469.051.449-.205.545.205.953-.205.406.494 1.26-.139.459c.397.418.7.834.901 1.24l1.228.119.51.203.102-.203.459.271.273-.426c.27-.056.563-.227.881-.51l.273.067c.19 0 .356-.084.493-.255.589-.045.91-.248.97-.612.076-.056.239-.125.483-.203.244-.079.398-.16.459-.239l.418-.543.441-.171.051-.459.508-.237.291-.629.373-.237.138-.459.256-.104c.155-.51.27-.804.34-.885l.203-.306.256-.697v-.408c.158-.26.242-.441.254-.544l.119-.815-.137-.307.237-.73-.303-1.254zm-15.406 9.197v-.425l-.34-.426c-.045-.601-.111-.945-.203-1.036l.135-.866-.065-.731v-.866l.065-.459v-2.552l-.135-.34.068-1.429v-2.721c-.375-.623-.56-1.015-.56-1.173l-.309-.256c0-.183-.086-.283-.256-.306-.228-.306-.412-.461-.562-.461-.104 0-.391.132-.866.392l.067.138-.272.06c-.156.027-.289.09-.392.18l-.272.033-.101.288-.237.104c-.048.271-.154.505-.322.696l-.07-.137-.424.342c0 .441-.137.661-.408.661h-.102l-.037.308v-.067l-.031-.065c-.033 0-.129.055-.289.168v.221h-.238l.037.271h-.237l-.037.459-.289.067v.171l-.103.068c0 .373-.153.582-.459.628v.137c0 .192-.09.334-.271.426l-.562.695-.069-.103-.238.205.104.102-.036.461c-.183.227-.295.413-.339.561l-.153.44c-.271.521-.441.8-.51.834 0 .374-.187.619-.562.731l-.256.799-.547 1.123-.133.439-.324.255c0-.327-.053-.604-.168-.831l.27-.494c0-.099-.125-.3-.373-.596l.343-1.003.065-1.155.07-.205-.137-.424.168-.373.153-1.294.138-.169-.072-.32.072-2.129-.138-.237.238-.867-.102-.866.137-.562-.035-.664.135-.372-.203-.886-.032-1.733.032-.901-.323-.255.219-.306-.219-.628.086-.308c-.24-.261-.377-.453-.427-.578l-.137-.408-.492-.441c0-.283-.137-.425-.405-.425l.065.103-.393.562c.237.442.428.918.563 1.428l.168 1.104.138.324v.695l.321 1.43v.307h-.221l.221.596.033 1.325-.102.237.172.17-.104 1.156.104.205-.104.254.104.51-.172.494-.152 1.224.086.237-.188.104.032.426-.1.562-.238 2.956-.172.07.035 1.207-.103.697.103.561.065 1.922.31 1.173.1.188h.222l.172.066c.09-.182.356-.521.799-1.018l.559-1.006.238-.662h.137l.07-.97.73-.698.149-.899.344-.324c.088-.308.168-.499.236-.577l.527-.68.354-1.207c.082-.296.189-.518.324-.665l.375-.356.104-.306h.238v-.17l.865-1.429.389-.104.97-1.393.596-.256c.137-.068.25-.142.342-.223l.627-.576.564.237v.425l.305 1.325-.137.459.256 1.105-.035 1.665v1.294l-.15.323.15.543-.084.494v.561l-.137.408.137.834-.238.561c.238.342.357.646.357.918 0 .227-.015.419-.035.579v.322l.24 1.069c.123.58.356.868.696.868.511 0 .763-.266.763-.799 0-.181-.013-.326-.031-.442l-.282-.137zm-22.493-12.41h-.633l-.268-.867.203-.307-.138-.203.138-1.055-.203-.869.305-.49-.037-.375.037-.291c-.068-.066-.102-.156-.102-.271 0-.146.032-.312.102-.493v-.102c0-.183-.08-.438-.238-.766l.138-.341v-.032c0-.059-.347-.256-1.041-.596-.021.066-.127.227-.32.475l-.238.918c0 .138.113.228.338.273l-.065.307.287.424-.064 1.359c.178.104.271.229.271.375l-.07.255-.271.204.238.596v.799l-.067.799h-1.466l-.559-.169-.391.067-.513-.067-.135.306.24.171-.037.526c0 .306.139.459.406.459h.291l.559.408.547-.135.394.168c.055-.091.123-.137.203-.137.125 0 .221.153.289.459v1.26l-.154.102.065.341-.065.662.154.459-.089.407.156.324-.356.271.135.63-.135.392.289.34-.154.63.287 1.563.633 1.665.408.46.594.834 1.26.729h.371l.701.137c.428 0 .838-.103 1.223-.306l.406.236.393-.236 1.154-.137.545-.459.256.102c.293-.204.441-.393.441-.561 0-.138-.08-.285-.238-.442l-.459-.067-1.207.561-.492-.151-1.7.392-1.291-.238-.459-.493-.629-.138-.103-.287c-.467-.363-.701-.743-.701-1.141v-.152l-.403-.866v-.63l-.103-.697-.037-1.462.104-1.31-.066-1.021.103-1.701.34-.356.492-.066c.09.09.155.137.204.137.076 0 .136-.068.171-.203.485.031.825.078 1.018.135l.102-.307h.308l.596-.271v.203h.316l.342-.323.664.12c.428 0 .859-.12 1.289-.357l.938-.033.492.102c.133-.11.281-.169.439-.169.125 0 .223.021.289.067.375-.067.562-.222.562-.459 0-.205-.119-.307-.356-.307h-1.259l-.237.032-.562-.032-2.293.102-2.396-.102-.426.303zm-6.547 9.521l.136-.255-.306-.067-.17-.238.033-.103c-.236-.171-.391-.38-.459-.63l-.594-.391h-.666l-.304-.17-.034-.17c-.216-.035-.445-.121-.685-.256-.236-.137-.494-.203-.779-.203-.172 0-.254-.068-.254-.205l-1.498-.459-.239-.205-.797-.102-.427-.357h-.694l-.513-.51h-.221l-.934-.561v-.17c-.375-.272-.562-.603-.562-.986v-.104l-.172-.102.357-1.428c.012-.069.184-.211.512-.426l.322-.51.475-.459.189-.104.137-.169c.373-.103.6-.183.678-.238l.291-.223h.387c.172-.204.472-.345.904-.425.238-.203.547-.307.934-.307l.326-.238c0-.066.033-.102.103-.102.055 0 .264.137.627.408l.24-.068.936.068c.234.488.398.73.492.73.201 0 .305-.102.305-.306 0-.069.062-.372.188-.918l-.427-.308v-.307c-.112-.124-.268-.187-.459-.187h-.1l-.072-.203-1.562-.103-1.002.306-1.021.187-2.021.868-.429.373c-.338.271-.555.55-.643.834l-.238-.034c-.012.238-.235.481-.664.73-.237.34-.356.736-.356 1.189l-.103.17.103 1.614.356.545.439 1.123.988.696.032.102 1.175.204.391.36 1.037.438.391.324h.238l.102.17.224-.137.44.271h.355c.305.239.654.357 1.037.357l.238-.034c.192 0 .325.091.393.272h.338l.154.203h.137l.34.322.154-.066c.043.066.158.135.338.203l.07.271.389.324-.066.306.169.236-.031.12-.256.203-.068.205-.104-.103c-.396.271-.86.462-1.391.562l-.104.137-.373.066-.088.17-1.529.289-4.453.272-.102.173-.341-.31-.887-.136v-.526l-.309-.035c.071-.136.104-.237.104-.306 0-.137-.094-.221-.271-.256l-.324.17v-.17h-.205l-.102-.203-.173.238.037.254-.731.104c0 .984.356 1.495 1.069 1.529l.104.203c.104 0 .188.047.254.138l.309-.204.064.135c.139-.044.326-.066.563-.066l.763.086c.252.021.451.072.596.152.139-.068.238-.103.307-.103.193 0 .438.084.732.255l.258-.152.135.152.271-.188.354.119c.185-.058.354-.086.513-.086h.221l.309-.102.168.102.068-.102.459.066.492-.066.633.066v-.192c.166-.067.316-.103.439-.103.157 0 .311.034.459.103.137-.138.262-.205.375-.205l.391-.203h.596l.441-.493h.459l-.033-.204.492-.355c.25-.625.4-.977.459-1.056l.238-.271c-.042-.168-.173-.353-.386-.533m-17.275-7.668c-.273.285-.562.424-.867.424l-.168.375h-.238l-.258.425-.408.067c-.102.137-.209.204-.322.204-.059 0-.146-.021-.271-.067l-.104.204c-.373.079-.725.231-1.053.459l-.58-.17-.117-.289-.239-.137c.569-.86.875-1.404.92-1.632s.108-.373.188-.442l.256-.222.492-.936.256-.306c.125-.146.193-.247.211-.298l.054-.153.049-.146.061-.109.068-.075.078-.051.092-.019.137.033.103-.238c.418-.168.729-.254.936-.254.068-.205.188-.307.355-.307l.207.066c.055 0 .174-.021.354-.066l.695.238c.158.486.24.826.24 1.02s-.023.354-.07.485c-.045.13-.209.433-.49.91l-.104.407c-.213.271-.367.412-.457.424v.174h-.006zm2.447 7.906c-.123.589-.438.923-.948 1.002l-.104.222c-.135 0-.236.067-.307.204 0 .056-.027.115-.074.179-.053.062-.328.179-.826.349l-.033.17h-.321l-.273.412c-.16.053-.414.205-.766.455l-.867.103-1.293-.067-.902-.137v-.204c-.315-.09-.615-.25-.891-.476-.279-.228-.39-.42-.33-.578-.125-.057-.219-.26-.273-.612-.059-.353-.084-.567-.084-.646l.033-.476-.033-.392.187-.172-.187-1.256.187-.104c.065-.17.125-.471.172-.899l.238-.289c0-.521.174-.947.524-1.274.396.044.635.09.713.135l.291.171.66-.306h.463l.763-.528.272.067c.104 0 .178-.067.221-.204.533-.248 1.214-.714 2.039-1.393l.035-.494.695-.866.395-1.038.17-.152-.102-.969.102-.393c0-.701-.2-1.147-.596-1.344l.152-.066c-.113-.079-.187-.199-.222-.357h-.102c-.342 0-.57-.188-.697-.561h-.207l-.166-.137-.321.066c-.105-.135-.207-.204-.31-.204-.022 0-.231.069-.629.204-.147.262-.238.393-.271.393-.146 0-.246-.013-.289-.033-.363.451-.677.719-.935.798-.192.194-.312.362-.356.512l-.207.084-.168.341h-.17c0 .295-.107.525-.322.697-.332.498-.584 1.031-.767 1.6-.182.125-.274.266-.274.424l.037.238c-.353.09-.572.135-.662.135-.172 0-.324-.103-.461-.307-.068.238-.103.485-.103.732l.17 1.035c0 .068-.079.233-.235.494l.305.34-.305.256c.043.373.088.662.137.865-.104.192-.174.367-.207.521-.031.152-.113.279-.24.381l.072.459-.188.631v.729l-.138.663-.065 1.174.393 1.648v.271c.201.182.326.329.375.443l.135.355.562.307v.425c.215.317.637.493 1.256.526l.207.17c.19 0 .344-.012.457-.033.16.113.369.174.629.174.15 0 .34-.061.58-.174l.219.174c.195-.23.416-.344.666-.344l.238.033.1-.17h.494l.305-.356.291.034.166-.373.939-.631.424-.066.375-.732.254-.033c.113-.328.277-.641.484-.936.209-.293.313-.486.313-.579 0-.123-.084-.313-.254-.577-.164.001-.3.046-.414.137m-13.312 1.801l-.543.223-.373-.104-.461.033c-.24-.123-.514-.254-.834-.39l-.103-.307-.491-.12c0-.146-.188-.493-.562-1.036v-.526h-.1l.03-.271-.1-.204.135-1.888-.065-1.53.237-.238-.069-.561.256-.494v-.765l.443-.307.356-1.293.508-.765.289-1.293-.356-.662.067-.136-.61.066c-.318.84-.515 1.26-.597 1.26h-.03v.476h-.154l-.646 1.922.101.103c-.338 0-.537.276-.597.836l-.135.03v.222l-.254.103-.135.375c-.273.113-.551.246-.834.39l-.205.493-.322.171v.204h-.201l-.463.663-.305.135-.137.461c-.431.024-.672.256-.732.695l-.629.528-.031.34c-.512.112-.896.334-1.158.663l-.34.137-.065.424c-.117.057-.304.104-.562.137 0 .205-.186.391-.561.562l.137.033c-.297.206-.539.403-.729.596-.195.192-.416.306-.664.341-.293-.33-.539-.55-.732-.662l-.168-.494.1-.373c-.135-.217-.2-.393-.2-.528l.165-.834-.205-.237v-.664l-.101-.561.101-.459-.205-.309.344-.424-.238-.307c.088-.125.138-.255.138-.393l-.054-.229c-.034-.107-.006-.179.086-.214v-.459l.136-.526-.136-.34.236-.561-.068-1.105.068-1.752.152-.73-.254-.306-.513-.137c-.393 0-.594.185-.594.546l.137.594c.089.465.148.906.17 1.326l-.407 2.434.137 1.153c.023.192.035.347.035.459 0 .296-.07.478-.207.546.113.237.172.424.172.561 0 .184-.096.402-.293.662l.293.203c-.115.287-.178.531-.188.732l-.016.596c-.082.032-.121.334-.121.901l.324.458-.256.204.256.663h.373l-.271.359.457.439c-.078.135-.119.255-.119.355l.357.205-.031.207c0 .123.066.185.203.185l.238-.035.527.341c.555-.273 1.03-.471 1.428-.596l.287-.441.646-.356.816-.97h.102l1.006-1.224c.076-.093.188-.159.324-.206.133-.044.334-.203.594-.482.259-.278.437-.545.525-.801.09-.25.309-.455.646-.604 0-.238.131-.471.393-.697l.305-.033c.113-.205.228-.34.34-.408l.324-.221.238-.373.389-.205-.1 1.566c.135.246.203.501.203.764 0 .081-.045.325-.135.729l-.035.834c.16.26.237.562.237.901v.168l.341.322.256 1.073 1.139 1.021c.08.066.258.146.543.237.283.091.453.136.51.136.623 0 1.006-.067 1.142-.205l.561-.168c.353-.192.547-.317.596-.373l.171-.188.252-.136c.25-.192.375-.369.375-.526 0-.183-.125-.272-.375-.272-.214 0-.4.012-.56.037-.308.249-.546.407-.718.475m-19.586-5.492l-.529-.629h-.322l-.305-.271-1.072.033c.068.204.104.408.104.612 0 .203-.035.391-.104.562.011.045.095.104.238.17v.629l-.389.427.149.342-.526.151v.135h-.203l.067.273c-.284.066-.756.137-1.409.211-.658.076-1.105.225-1.345.451l-1.889.459v.103l-1.666.169.07.137c-1.058.034-1.879.164-2.467.393l-2.021.168-.291-.066-.203.035-1.396-.273-1.172.034-.988-.289-.935-.51-.426-.459.035-.204c0-.227-.107-.432-.322-.622-.215-.187-.326-.421-.326-.705v-.594l.613-1.599.188-.17v-.783l1.106-.9.56-.766.559-.442.871-.851c.088-.078.377-.229.857-.45.479-.22.858-.507 1.133-.858l.473-.084.359-.477h.272l.101-.321c.272.056 1.203-.37 2.789-1.276.137.045.243.069.321.069.203 0 .472-.133.8-.394.067-.103.168-.191.299-.271.131-.081.551-.211 1.266-.392l.408.221 1.021-.525.597.168.403-.237.597.237.309-.137 1.086.562c.738-.137 1.156-.465 1.26-.986-.373-.238-.668-.374-.885-.408l-.61-.527h-.527l-.562-.236-.067.135-.729.102-.426-.066-.137.271-.767.035-.168-.035-.174.103c-.021.08-.166.147-.438.207-.271.054-.488.14-.646.253l-.238-.068-.561.34-.307-.033c-.341.375-.607.561-.8.561h-.729c-.285 0-.529.211-.73.63-.149-.067-.244-.102-.289-.102-.067 0-.205.067-.407.204l.063.066-.32.256-.065-.067-.104.169c-.34.204-.696.332-1.071.375l-.562.561-.664.068-.168.323-.526.17c-.013.112-.259.414-.73.901l-.732.137c-.157.35-.274.561-.356.628l-.271.204h-.389v.255l-.174-.136-.064.476-.237.067.065-.135-.393.066v.104c0 .203-.101.355-.306.459l.138-.238h-.07c-.248 0-.492.312-.729.936l.272-.459c-.113.773-.416 1.19-.899 1.258l.032.17c0 .31-.149.611-.442.92l-.068-.154-.322.562v.42l-.459.066-.102.171.256.392-.188.203.289.34-.256.562.394.493.166 1.038 1.328 1.36.729.355.428.341h.867l.406.204.219-.137 1.107.355.428-.22.523.424.545-.321.188.051.137-.051c.046-.047.113-.069.205-.069.134 0 .246.051.341.153.18-.145.381-.222.594-.222.067 0 .194.022.383.067.186.046.355.068.5.068l.309-.306.459.136.476-.34.731.067.562-.29h.797l.561-.307 1.261-.271.303-.289c.217-.192.602-.291 1.16-.298.555-.005.953-.061 1.197-.161.243-.101.454-.271.639-.51l.322-.238c.135.159.227.332.272.511 0 .237.043.367.137.392l.103.169-.238.697.201 1.496c0 .217-.064.414-.201.597l.238.102-.238.306.137.459-.174.494.238.562c-.064-.079-.137-.119-.201-.119-.059 0-.104.062-.139.187h.274l-.137.307.238.102-.037.393.188.238v.562l.373.937v.459l.429.135.168 1.104c0 .034.065.12.196.255.132.137.24.204.332.204.189 0 .308-.153.339-.459l-.459-.8.12-.898-.426-.375.306-.852-.136-.832.256-.271-.256-.271.136-.494-.136-.765.136-.662-.306-.273v-.425l.527-.271-.459-.391.356-.9.103-1.225.236-.137c-.306-.42-.459-.651-.459-.697 0-.078.041-.17.12-.271l1.207-1.955-.485-.079zM81.976 17.484l.862.38.244.308.122.111 2.833 1.817c.12.077.264.1.398.062l.055-.014.339.353c.07.074.164.125.265.145l.93.183h.192l.247-.048.728.583c.129.104.302.135.458.088l.432-.131.218.264c.095.115.237.182.386.182l.196-.04.141.173c.079.096.19.16.312.178l.628.096.071.382c.018.031-.045.158-.045.502v.93l.15.816c.007.294.089.583.118.868.021.2.188.368.381.427l.208 1.95c.021.217.188.395.4.44l.433.092.106.011c.188 0 .367-.108.451-.284.069-.145.179-.266.331-.369.202-.136.276-.398.176-.62l-.281-.624-.177-2.092-.051-.18-.111-.227.292-.571c.058-.112.07-.242.037-.363l-.123-.439.627-.967c.08-.123.102-.273.06-.414l-.3-1.017.301-1.063.017-.196-.081-.665.346-1.595c.019-.088.014-.181-.015-.266l-.142-.417.384-1.979.005-.161-.071-.54.453-.937.076-.205v-2.273l.2-.523c.243-.575.339-.975.339-1.261 0-.165-.09-.32-.226-.413l-.077-.041-.01-.066.492-.776c.098-.154.103-.35.015-.51l-.48-.868.238-.67.029-.168c0-.189-.083-.388-.305-.734-.1-.155-.147-.331-.147-.537 0-.219.039-.461.115-.72.05-.168.007-.351-.112-.48-.119-.128-.296-.185-.469-.151l-.25.052c-.056-.106-.148-.188-.26-.232-.13-.051-.275-.045-.399.016l-.704.341c-.219.106-.33.355-.263.589l.021.072-.16.206c-.149.192-.14.463.023.643l.03.033-.541 1.627c-.057.172-.017.363.107.497l.385.417-.423 3.075v.134l.215 1.597-.495 1.711c-.039.135-.02.281.055.4.34.553.38.714.384.735l.044.336-.42.637c-.048.073-.076.157-.082.245l-.135 2.176c-.009.15.049.296.16.398l.072.067-.502 1.078-.046.175-.064.898-.423.109c-.241-.021-.728-.195-1.54-1.007-.061-.06-.133-.103-.214-.126l-1.194-.347-1.351-.759-.595-.196-1.104-.915-.165-.091-1.364-.437-.049-.109c-.12-.306-.374-.822-.777-1.157-.09-.075-.203-.32-.319-.32h-.229l-3.426-2.631-1.156-1.258-.1-.039-.995-.639c-.326-.327-.33-.467-.33-.563 0-.161-.077-.305-.208-.399l-1.523-1.095c-.139-.11-.236-.287-.303-.549l-.25-.953c-.032-.122-.108-.227-.215-.295l-.551-.349-.061-.45c-.017-.124-.079-.237-.174-.317l-.406-.342-.075-.863c-.021-.23-.194-.413-.415-.45l.012-.161c0-.417-.21-.792-.625-1.119-.108-.084-.246-.119-.38-.102-.135.02-.257.094-.337.206l-.035.049-.515-.111c-.15-.031-.307.006-.425.104-.375.312-.455.652-.455.883 0 .271.088.544.266.826-.104.09-.168.222-.171.366l-.047 2.243.045.218.167.367-.212 1.525.052 1.639-.319 2.223.012.2.242.904-.291 1.376-.004.184.205 1.256-.342.944c-.049.135-.037.286.032.412l.209.38-.078.049c-.146.113-.217.297-.187.479.07.411.106.726.106.935 0 .19-.035.454-.104.783-.028.14.004.286.09.4l.342.459-.23.476c-.087.181-.058.396.074.546l.129.148-.228.706c-.031.097-.033.201-.003.298l.181.601-.76 1.667-.26.15v.181c0 1.284 1.291 1.502 1.542 1.502h.317c.169 0 .326-.144.418-.286.375-.574.604-1.372.682-2.312l.153-.246c.095-.143.11-.333.039-.49l-.261-.361.108-1.208v-1.087l.354-.907c.071-.255-.02-.521-.27-.608l-.282-.025c.271-.319.198-.731.198-1.226v-.181c0-.06.235-.199-.024-1.544l.745-2.267c.024-.091.083-.188.056-.278l-.369-1.313.427-2.267c.151-.877.26-1.154.292-1.23l.211-.029.039.013c.117.226.246.43.386.611-.016.135.026.272.118.379.557.648 1.053 1.079 1.512 1.313l.264.403c.085.131.229.214.384.226l.413.028 1.356 1.729c.051.065.118.117.193.15l2.002.871.681.68.114.085.453.248.549.69c.05.062.116.113.19.145zM307.586 5.511c.127.016.245-.033.342-.11l.525-.424.124.085c.151.103.347.115.51.032.439-.225.784-.179 1.021-.234.276-.065.649-.082 1.123-.082h.778c.088 0 .174-.211.25-.255l.557-.415.854.225c.136.044.287.002.412-.073l.166-.113.227.112c.181.094.396.068.551-.061.529-.44.985-.646 1.467-.282.128.096.301.108.454.061.117-.037.219-.125.281-.231l.505.04c.296.034.526.049.692.049.258 0 .603-.091 1.083-.286.488-.197.684-.212.73-.212.101 0 .213.037.333.109.161.098.364.095.524-.006.168-.106.27-.047.319-.069.231.26.627.409 1.017.409h.013l.648-.148.538.138c.147.053.313.136.446.048l.212-.038h.348c.143 0 .278-.191.373-.298.165-.186.281-.505.344-.823.017-.076.014-.188-.008-.263-.096-.345-.411-.527-1.451-.762l-.16-.103c-.091-.054-.195-.085-.301-.073l-1.289.115-.109-.094c-.122-.103-.284-.141-.442-.103l-.389.097-.688-.279c-.172-.07-.373-.039-.517.085l-.067.059-.189-.112c-.122-.072-.271-.088-.405-.046l-.181.057c-.071-.169-.23-.288-.415-.305-.213-.025-.389.083-.483.256l-.097.174-.609-.257c-.077-.033-.161.095-.243.104l-4.369.57h-.108l-.822-.187c-.325 0-.616-.026-.872.063l-.029-.054c-.152-.089-.344-.109-.498-.022-.561.316-.674.229-.798.258l-.887.202-.293-.041c-.442 0-.877.105-1.299.317l-.024-.048c-.081-.157-.239-.259-.415-.27l-1.543-.091c-.19-.005-.371.087-.465.253-.086.153-.086.34 0 .491-.102.007-.303-.027-.561.137l-.25-.043c-.103 0-.206 0-1.112.351-.104.041-.261.154-.318.25-.07.028-.136.073-.188.13-.506.563-.741 1.022-.741 1.446 0 .303.125.581.362.806.228.215.503.329.796.329l.134-.002.751-.066.257.325c-.079.253-.171.585-.273.975l-.521 1.404c-.037.1-.223.21-.192.313l-.044.477v1.242c0 .077.199.152.233.221l.149.12.037.213c-.46.228-.421.642-.421.782v.006l-.154.059c-.445.221-.688.719-.688 1.479 0 .389.058.628.21.799l.6.75.367 2.161-.19.228c-.117.139-.149.331-.084.5l.283.743-.122.505-.015.117c0 .11 0 .277.694 2.304.454 1.34.92 2.342 1.387 2.98.475.648 1.021 1.139 1.636 1.464l1.952.997 1.111.431.181.034.207-.045 1.393-.633 1.084.236c.156.033.317-.008.437-.113l.172-.151c.193.023.386-.064.488-.231l.024-.038.379.115c.196.059.416-.009.544-.176l.418-.55 2.008-.832.17-.116.387-.404.062.009c.15.021.303-.026.413-.13l.69-.656 1.132-.779c.187-.113.472-.374 1.16-1.416l.374-.09c.111-.026.209-.09.278-.181l1.591-2.062c.102-.131.13-.426.078-.583-.263-.802-.849-1.011-1.088-1.011h-.137c-.252 0-.464.31-.496.559l-.038.359-.204.046c-.226.017-.411.198-.454.42l-.026.15-.134.041c-.145.062-.251.189-.289.341-.135.544-.568.917-1.329 1.136l-.19.106-1.032.91-.445.033c-.105.008-.207.049-.287.118-.305.259-.548.515-.74.78l-.562.442c-.113.082-.233.14-.362.173l-.498.136c-.085.022-.162.069-.225.131-.048.012-.163.033-.395.033-.097 0-.19.028-.271.08-.6.387-.774.225-.742.225-.107.005-.315-.217-.617-.217h-.408c-.16 0-.312.305-.405.435l-.07.212c-.485.112-.631.183-.604.189l-.917-.112c-.74 0-1.645-.391-2.687-1.19l-.794-1.215c-.052-.081-.125-.138-.207-.177l.02-.066c.048-.166.006-.343-.109-.471l-.306-.338c-.178-1.253-.241-1.334-.313-1.425l-.06-.085.037-.667-.034-.212-.19-.48.071-.091c.089-.112.125-.257.101-.397l-.404-2.261.203-.497c.516-.098.829-.186 1.032-.263l.133.075c.089.05.188.072.292.062l1.678-.157.112-.024.526-.178c.441-.132.685-.16.811-.16h.154l.092.032.75.18c.133.033.271.007.388-.065l.403-.259.632.292c.185.086.402.05.55-.087l.131-.122.31.096c.17.049.355.009.486-.114l.132-.122.36.104c.17.049.351.005.479-.114.1-.092.19-.139.285-.139l1.784-.043.432.116c.128.034.265.018.379-.05l.582-.335.242.052c.093.022.19.013.282-.022l.484-.185.904.08c.092.009.183-.008.264-.049l1.075-.526c.14.017.295.049.464.095.381.105.527.12.62.12.328 0 .782-.115 1.387-.352.153-.06.268-.19.306-.35l.135-.565c.04-.167-.009-.344-.13-.467-.121-.122-.296-.176-.465-.137l-.467.104-.445-.173c-.09-.035-.19-.043-.283-.023l-.351.073-1.044-.133c-.464 0-.724.162-.867.334l-.559.12-1.593-.088-.452.045c-.047 0-.278-.016-1.31-.218-.183-.036-.388.08-.515.23l-.787-.139-.193.004-.639.141c-.081.022-.28.064-.713.098-.274.021-.509-.015-.692-.108-.146-.074-.321-.072-.468.006-.43.234-.57.237-.576.237l-.39-.096c-.08-.022-.164-.024-.244-.006l-.625.141-.37-.036-.187.017-.325.093-.578-.199c-.116-.041-.243-.035-.356.012l-.603.253c-.161-.009-.335-.041-.524-.097-.354-.095-.697-.1-1.078.005-.311.094-.428.095-.434.095-.725 0-.725-.288-.725-.52 0-.292.099-.648.292-1.061.058-.122.062-.26.019-.383.188-.171.22-.458.068-.666l-.032-.044.035-.875-.042-.327c0-.555.101-.714.085-.72.264-.072.42-.342.354-.606l-.179-.692.364-.662.528.022zM270.904 22.762c-.227.004-.394.305-.475.493l-.144.523h-.372c-.181 0-.347-.094-.436.062l-.023-.053-.106-.03-1.606.418-2.141.356-.532-.14-.172-.016-1.489.149-.449-.133c-.136-.04-.277-.022-.396.049-.111-.154-.304-.235-.504-.195l-.3.062c-.076-.136-.212-.228-.365-.25l-.104-.004c-.108-.075-.243-.105-.374-.083l-.378.066-1.292-.505-.915-.277-1.019-.631-.665-.301-1.343-1.362c-.09-.091-.211-.144-.338-.148l-.921-.034c-.354-.844-.478-1.012-.552-1.086l-.262-.3-.387-.702-.134-.156-1.73-1.321-.266-.475-.11-.135-.909-.781.749.092c.104.017.215-.008.309-.061l.477-.271c.146.132.356.17.542.089l.414-.184.438.187c.184.077.396.041.542-.099.224-.214.341-.262.344-.27l.102.055c.146.097.334.108.49.032l.401-.193.509.34c.204.135.478.105.645-.076.509-.548 1.07-.814 1.72-.814l.144-.021.699-.21c.308-.104.491-.271.598-.373l.223-.266h1.125c.192 0 .369-.039.452-.213l.105-.189c.349-.162.447-.174.447-.176l.83-.035c.135-.006.262-.062.352-.164.563-.638 1.058-1.142 1.509-1.542.589-.519.887-1.139.887-1.847 0-.401-.163-.84-.488-1.309-.266-.373-.643-.942-1.137-1.706-.071-.11-.184-.187-.312-.215l-.238-.054-.212-.254c-.085-.103-.208-.167-.342-.178-.573-.049-.867-.162-1.013-.249-.104-.062-.223-.084-.336-.064l-.333-.262-.123-.071-1.859-.748c-.153-.063-.329-.044-.467.049l-.023.017c-.178-.181-.454-.42-.806-.42-.122 0-.235.025-.337.074l-.126-.109c-.092-.079-.208-.123-.328-.123l-1.229.008-1.775-.326-3.358-.091-2.401-.27-.129.002-1.72.256-1.064-.248c-.109-.026-.229-.014-.329.036l-.761.36c-.146 0-.278-.293-.354-.583-.058-.221-.257-.357-.483-.357h-.566c-1.275 0-1.521.67-1.558 1.07l-.1.068-1.773.081-1.412.156c-.08.01-.156.036-.224.081l-.632.423c-.227.169-.395.365-.498.579-.103.21-.153.431-.153.658 0 .299.146.633.465 1.052.077.102.188.17.314.191.186.031.404.149.653.35.104.083.238.125.369.108.133-.015.254-.082.337-.186l.536-.674.8.068c.136.013.281-.037.386-.135l.174-.164c.062.026.183.093.38.264-.033.079-.047.166-.035.253l.217 1.811-.205.793c-.02.076-.021.155-.004.232l.272 1.247c.03.138.114.25.228.319-.066.235-.101.431-.101.594l.034.324c-.136.117-.197.299-.163.475l.109.556-.261.63c-.055.13-.051.278.011.406.223.469.27.734.27.874 0 .093-.033.314-.26.742-.039.072-.059.152-.059.234l.009.271-.146.84c0 .349.076.658.229.924-.439.833-.479 1.084-.479 1.252 0 .181.097.369.295.47l.123.24c-.281.338-.418.672-.418 1.013 0 .19.07.418.372.843-.068.108-.095.242-.065.374l.424 1.95.189.598-.209 1.684c-.019.142.025.037.12.144.096.107.231-.08.375-.08h.179c1.145 0 1.385-.22 1.385-.614l-.006-.255.272-1.751.003-.097-.36-3.305.315-5.925c.007-.083.06-.458.502-1.874l.019-.216-.314-2.219.136-2.698c.004-.079-.012-.156-.042-.229l-.174-.387c.146-.205.282-.431.413-.678l.299.042c.12.015.234-.01.332-.071l.629-.39.176.068c.123.047.26.044.381-.008l.442-.193.589.073.114.001.729-.078.646.214c.078.026.163.032.246.018l1.309-.235 1.286.148.208-.02.353-.111.377.113c.131.039.274.022.394-.045l.022-.013.178.103c.066.038.141.061.217.066l2.454.173.354.251.196.141h.89l.453.127c.089.072.199-.127.312-.127h.46l.836.662c.062.028.132.338.2.338h.433c.022 0 .254-.278 1.123.255l.262-.255h.16l1.386 1.496c.238.24.354.543.354.753 0 .467-.462.866-1.37 1.102-.087.022-.161.086-.222.145l-.211.055c-.251.031-.369.254-.369.507v-.058h-.707l-.18.118-.597.272-.431-.014c-.17-.01-.338.072-.439.209l-.112.155-.472.169-.137-.042-.148-.021c-.931 0-1.827.208-2.666.618l-3.387.13c-.175.007-.327.104-.411.245-.483.124-1.13.187-1.925.187-.406 0-1.363-.044-1.466-.458-.049-.193-.212-.332-.407-.365-.104-.017-.204-.001-.295.043-.479-.24-.908-.185-1.352.113l-.493.114c-.193.045-.34.201-.377.391l-.227.073c-.188.06-.324.226-.345.423-.049.447-.148.597-.189.64-.162.172-.182.434-.047.628l.457.907c.094.135.247.464.411.464h.477l.104-.256c.342.149.67-.002 1.046-.17.481.167.548.153.549.15l.7.717c.059.062.132.093.214.119l.295.086 1.497 1.724 1.314 1.029.715.65c.095.118.236-.048.389-.048h.237c.487 1 1.155 1.82 1.975 2.215l1.387.855c.221.128.382.238.478.387.196.315.385.543.708.543h.309l.284.58c.095.114.235.42.384.42h.399l.19.161c.137.219.417.224.647.11l.223-.147.521.265c.099.054.216.064.327.043l.225-.046.249.362c.095.104.229.251.369.251h1.469c.125 0 .271-.023.43.11.141.117.336.102.507.035l.176-.057c.089.109.221-.088.36-.088h.025c.132 0 .259.196.354.103l.225-.099c.098.018.193.066.281.027l.428.334c.116.087.263.137.406.105.142-.03.264-.113.334-.24l.141-.252.439-.184 1.179.28c.118.028.242.012.351-.044.388-.206.799-.324 1.225-.35.157-.01.3-.093.387-.224l.397-.604.155.054c.167.058.349.023.483-.088.355-.297.672-.553.955-.774.283-.225.606-.533.606-.925 0-.134-.034-.315-.211-.804-.073-.194-.254-.325-.459-.332zM358.084 6.538l-.48-.868.24-.67.029-.168c0-.19-.08-.382-.308-.737-.098-.15-.145-.325-.145-.533 0-.215.039-.458.115-.722.049-.168.006-.35-.113-.479-.12-.128-.296-.185-.469-.15l-.249.052c-.058-.105-.148-.188-.262-.232-.13-.051-.274-.045-.398.016l-.703.341c-.22.106-.33.354-.263.588l.021.072-.16.206c-.149.192-.141.464.023.645l.029.032-.542 1.626c-.059.172-.018.363.105.497l.384.418-.419 3.076-.001.133.213 1.597-.493 1.712c-.039.135-.021.28.054.4.342.557.383.721.386.734l.045.337-.421.637c-.049.073-.076.157-.082.245l-.135 2.176c-.01.15.049.296.159.398l.071.066-.504 1.079-.046.177-.062.896-.421.11c-.242-.021-.73-.195-1.543-1.007-.061-.06-.134-.103-.215-.126l-1.19-.347-1.354-.759-.59-.196-1.104-.916-.166-.09-1.364-.437-.048-.107c-.118-.306-.374-.823-.782-1.16-.09-.074-.202-.319-.318-.319h-.229l-3.424-2.632-1.158-1.258-.101-.038-.99-.64c-.329-.33-.333-.467-.333-.563 0-.161-.077-.305-.207-.399l-1.521-1.095c-.137-.109-.239-.292-.305-.549l-.25-.953c-.032-.122-.108-.227-.215-.294l-.55-.349-.062-.452c-.017-.124-.078-.236-.174-.316l-.407-.341-.074-.862c-.02-.231-.194-.415-.418-.451l.013-.161c0-.418-.21-.795-.623-1.119-.108-.084-.245-.121-.383-.101-.136.02-.257.095-.336.208l-.031.046-.517-.111c-.149-.031-.303.005-.421.101-.379.308-.458.651-.458.886 0 .271.087.544.263.824-.104.091-.17.224-.173.369l-.043 2.243.045.216.166.367-.211 1.525.048 1.641-.315 2.223.012.2.243.903-.294 1.375-.004.185.205 1.257-.341.944c-.049.135-.037.284.031.41l.209.381-.074.048c-.146.112-.22.295-.188.477.07.429.104.736.104.938 0 .186-.033.443-.103.787-.027.138.005.282.088.395l.34.459-.229.477c-.088.181-.059.397.075.548l.13.146-.23.704c-.03.098-.031.202-.003.3l.183.601-.44 1.668.058.149v.181c0 1.284.656 1.502.906 1.502h.318c.169 0 .326-.145.419-.286.376-.577.605-1.374.684-2.312l.153-.245c.096-.144.11-.334.039-.492l.055-.361.426-1.208v-1.087l.033-.908c.07-.254-.178-.519-.426-.605l-.043-.025c.271-.321.436-.733.436-1.226v-.181c0-.068-.083-.181-.34-1.543l.582-2.269c.025-.091.003-.187-.023-.277l-.406-1.313.404-2.266c.148-.851.243-1.14.283-1.232l.206-.029.039.013c.117.229.243.432.381.612-.015.135.027.272.119.378.562.649 1.058 1.081 1.513 1.312l.265.403c.086.131.228.214.384.225l.412.028 1.355 1.729c.052.065.117.117.193.15l2.003.87.68.68.113.085.454.248.548.69c.052.063.116.114.19.146l.862.38.235.305.126.114 2.836 1.817c.117.076.265.098.398.062l.054-.014.337.352c.071.075.164.125.267.146l.932.183h.191l.248-.048.724.582c.129.104.302.137.459.089l.432-.131.221.265c.095.115.235.181.385.181l.196-.04.141.173c.078.096.189.16.312.178l.629.096.387.374c.018.032.273.164.273.51v.938c0 .263-.172.529-.168.812.013.294-.069.583-.037.868.022.197.109.362.3.42l.168 1.952c.021.217.168.395.381.44l.425.092.103.011c.19 0 .368-.11.451-.289.065-.141.173-.26.326-.364.202-.137.274-.398.174-.621l-.281-.623-.176-2.092-.051-.183-.113-.225.292-.569c.059-.112.071-.241.037-.362l-.121-.44.624-.968c.079-.122.102-.272.061-.411l-.297-1.019.299-1.064.015-.193-.078-.666.346-1.596c.019-.088.014-.179-.016-.264l-.141-.418.384-1.979.004-.162-.071-.54.27-.937-.104-.204v-2.273l.383-.523c.242-.575.43-.975.43-1.261 0-.166-.045-.32-.181-.413l-.055-.041.002-.066.497-.776c.094-.156.105-.352.016-.512zM31.056 19.839l-.081-.242.213-.584c.062-.168.028-.356-.086-.493-.107-.129-.302-.274-.89-.559-.351-.17-.616-.366-.812-.599-.084-.099-.203-.161-.332-.174-.338-.034-.625-.092-.875-.343-.094-.094-.221-.066-.354-.066h-.443l-1.398-.675c-.101-.043-.211-.091-.316-.066l-.328.062-.337-.243c-.083-.058-.183-.094-.284-.094-.774 0-1.363-.064-1.752-.187-.142-.044-.297-.025-.421.056-.313.204-.888.349-1.604.014l-.212.133h-.364c-.312 0-.562-.216-.733-.281-.373-.148-.477-.263-.672-.263-.095 0-.184-.012-.26.044l-.302-.266c-.147-.124-.352-.163-.525-.086l-.268.113-2.274-.407c-.092-.018-.187-.008-.275.027l-.39.157-2.404-.193c-.307-.021-.651-.037-1.033-.043l.119-.077c.006-.003.124-.079.622-.184.11-.023.209-.083.282-.17l.119-.143.741-.171c.251-.07.514-.407.787-.572l.424-.485h.333c.158 0 .306.146.4.019l.181-.131c.23-.08.437-.074.624-.094.308-.031.593-.071.848-.174.216-.086.413-.192.588-.343l.705-.145c.105-.023.201-.298.272-.38l.463-.751h.179c.123 0 .238.178.327.101l.037.137c.135.099.311.179.468.121s.274-.164.313-.327l.053-.147.15.053c.151.048.318.023.446-.073l.791-.586.185.043c.131.029.264.008.375-.062.338-.209.54-.286.645-.312.27-.064.538-.189.794-.365.241-.16.454-.346.632-.552.115-.132.323-.42.81-1.4.049-.1.063-.212.042-.321l-.181-.883c-.026-.133-.106-.249-.221-.322l-.782-.498-.078-.248c-.07-.2-.26-.359-.472-.359h-.597c-.396 0-.562-.452-.738-.521l-.385-.101-.142-.014c-.576 0-1.047-.215-1.437-.664-.089-.103-.215-.163-.351-.17l-1.155-.062c-.2-.374-.588-.522-.992-.43l-.042-.055c-.124-.165-.336-.221-.533-.165l-.591.18h-.16c-.562 0-1.136-.179-1.626-.443-.513-.434-.767-.562-1.03-.498l-.618.145c-.395-.111-.682-.166-.897-.166-.144 0-.327.024-.585.081l-2.729-.385-1.013-.409c-.101-.041-.213-.048-.32-.019l-.319.099-.145-.203c-.091-.081-.209-.201-.331-.201h-.315l-.188.112-.274.149-.236.107-.613-.11c-.515-.078-1.199-.112-2.092-.112l-.197.043-.108.048-.451-.218c-.082-.039-.168.061-.263.071-.42.037-.774-.09-1.058.91h-.011c-.425 0-.723.199-.723.655 0 .685.521 1.244 1.598 1.83.161.089.356.051.511-.048l.905-.6.166.033c.046.126.142.229.27.284.178.077.383.044.528-.083.158.138.388.162.571.059l.142-.08.087.058c.199.132.462.107.631-.062.085-.085.168-.151.248-.195l.428.44.38 1.298.211.436-.078.694c-.023.208.085.408.272.502l.021.01-.103.509c-.022.106-.01.215.037.312l.374.795c.069.13.102.257.104.436l.042.588c.009.124.063.239.152.324l-.147.308c-.06.125-.064.268-.016.396l.226.584-.051.083c-.072.116-.093.256-.06.388l.162.636c-.209.109-.315.353-.249.584l.158.539c-.069.059-.123.137-.152.225l-.03.09c-.216.01-.421.132-.876.517-.384.331-.646.728-.777 1.181-.045.156-.012.325.089.452.149.186.339.368.565.54.222.168.545.282.999.348l.096 1.063.021.104.222.706c.063.24.072.364.072.417 0 .146-.016.196-.039.296l-.091.656.003.16.111.604-.234.768-.019.213.122.912-.24.78-.017.216.128.923-.042.653c-.005.077.008.153.037.225l.593 1.179c.078.188.26.061.462.061h.202l.103.245c.037.159.149.418.307.479l.704.335.181.064c.142 0 .279-.044.375-.154l.466-.522c.318.059.599.093.834.093.153 0 .588.002.825-.292.337-.272.468-.295.458-.296l.167.034c.34.079.53.074.705.014l.61.272c.226.104.494.022.627-.187l.236-.37.86.103c.38 0 .741-.114 1.076-.338l.646.183c.146.042.304.014.427-.074l.184-.131.116.083c.187.136.444.125.621-.028l.648-.562.394-.03c.409-.026.832-.131 1.292-.319.373-.152.752-.361 1.13-.622.104.034.215.032.318-.003l.924-.32.475.213c.237.107.516.014.642-.212.319-.571.513-.771.558-.833l.965.355c.204.076.429.011.564-.157l.54-.677c.081-.1.155-.163.257-.203l1.017-.476.165-.124.378-.432.354-.096c.137-.037.251-.131.314-.257.187-.367.452-.785.793-1.241.1-.132.127-.304.075-.459zm-10.811 3.778l-.469-.097c-.113-.024-.229-.007-.33.045l-.823.424-2.079.477-.395-.119c-.148-.045-.312-.018-.438.074-.642.465-.943.516-1.035.516l-.462-.089-1.068-.046-.167.021-.687.209-1.514.081-.206-.099-.056-.433c-.013-.101-.055-.192-.119-.266.047-.131.038-.276-.026-.401l-.124-.239.289-.814.028-.167c0-.406-.056-.724-.173-.974l-.183-.38.035-.829-.032-.31.15-.518c.034-.118.024-.244-.027-.355l-.225-.47.087-.525.001-.155-.066-.403c0-.585.178-.975 1.045-.975.271 0 .512.094.738.288.078.067.174.108.275.118l.931.091c.249.021.464-.131.528-.359l.265-.029.457.338c.178.131.42.131.597-.001.274-.205.654-.35 1.131-.432.118.035.251.063.406.085l.17.037 1.069.5.188.127 2.989.216h.249c.107 0 .241.114.402.2.194.103.436.027.592-.13.127-.13.231-.166.3-.166.09 0 .292.028.636.279.1.072.223.097.344.088l.729-.074.249.194c.104.082.236.118.369.102l.587-.071.79.441c.129.071.282.083.42.031l.166-.062.12.184c.081.124.213.207.359.224l.523.062.362.541.014.237-.031.283-.264.076c-.137.04-.251.135-.312.264l-.18.375-1.474.479c-.138.044-.248.096-.306.228l-.113.215h-.062c-.092 0-.137.043-.13.051-.146-.068-.318-.097-.459-.015-.743.427-1.436.964-2.062.964h-1.155c-.091 0-.18.083-.257.13l-1.081.708zm-4.077-13.234l-.258-.021c-.143-.013-.283.038-.387.137-.254.243-.398.27-.449.27-.097 0-.169-.023-.235-.076-.127-.099-.293-.131-.448-.086-.154.045-.277.161-.332.312l-.094.266-.702.062c-.207.018-.381.162-.437.362l-.317.049c-.147.021-.274.107-.351.229l-.315.132c-.322.11-.708.197-1.068.264-.223.041-.789.136-.789.353v-.962l.237-.684c.027-.098.049-.202.015-.298l-.194-.584.147-.942c.012-.076.009-.154-.016-.228l-.33-1.035.215-.586c.039-.105.126-.221.091-.328l-.165-.763v-1.077c0-.133-.137-.26-.23-.354l-.143-.1.062.016c.104.018.198.006.293-.038l.478-.225.451.188c.196.081.424.029.565-.132l.05-.058.122.069c.112.063.242.082.369.05l.427-.108.388.388c.108.108.26.158.414.143l.668-.082.39.078c.633.108 1.096.113 1.428.076l.453.285c.16.1.363.104.523.005l.169-.102c.206.135.393.225.574.276l.377.085.382.327c.181.154.445.16.633.015l.021-.016c.237.143.572.233 1.005.271l.245.323c.072.038.153.25.234.25h.484c.428 0 .562.427.667.476l.548.38-.005.144h-.082c-.275 0-.5.031-.5.307l-.123.092-.743.061c-.168.024-.312.156-.382.312l-.093.229h-.245l-.178-.015-.939.337c-.075.039-.315.121-1.089.31-.642.158-1.14.477-1.486.971zM63.341 14.397l-.876.039c-.595-.34-.79-.402-.962-.402-.201 0-.395.102-.736.386-.209.173-.57.407-1.31.208l-.13.151h-1.063l-.1-.158-.826.084c-.432-.037-.801-.682-1.029-1.163.094-.19-.038-.396-.043-.615l-.28-.569v-.702c0-.122.132-.239.052-.33l-.189-.315.075-.062c.085-.169.089-.372-.024-.524l-.563-.771-.085-.92-.407-1.497-.047-.117-.578-1.007-.332-1.237-.091-1.02c-.019-.195-.147-.361-.332-.426l-.181-.064c-.146-.314-.303-.563-.478-.755l-.076-.993c-.014-.175-.118-.33-.274-.409l-.75-.374-.24-.145-.313-.468c-.096-.141-.218-.23-.425-.222-.169.002-.326.091-.416.235l-.131.21c-.479.07-.94.407-1.408 1.022-.109.145-.132.337-.059.503l.182.413-.279.28c-.072.072-.121.165-.14.266-.055.309-.179.544-.378.718-.306.265-.698.429-.762.496-.091.093-.351.218-.351.348v.9600000000000001c-.151.08-.228.231-.24.402-.033.403-.163.417-.287.429-.162.015-.299.108-.379.248-.043.074-.062.156-.064.239l-.036.064-.38.775-.102.029c-.179.051-.313.197-.352.379l-.064.315-.269.04c-.245.036-.427.337-.427.585 0 .385-.323.864-.935 1.388-.111.095-.176.234-.176.38l.041.482-.17.043c-.195.025-.358.164-.415.353l-.085.285-.202.016c-.212.017-.39.167-.442.373-.026.101-.021.204.014.298-.085.176-.156.346-.212.51l-.115.056c-.693.454-.884.661-.884.963 0 .089.016.174.045.251l-.065.088c-.101-.005-.199.02-.288.076l-.467.292-.895-.093c-.137-.01-.08.032-.185.126s.035.229.035.371v.116l-.92.646c-.153.138-.401.356-.329.549.108.284.249.525.249.722v.291l-1.231 2.053-.439.189c-.147.058-.236.183-.277.337-.226.843-.625 1.426-1.249 1.781-.127.073-.21.197-.238.341-.045.235-.167.524-.744.674-.184.048-.323.195-.362.38-.084.397-.284.651-.682.824l-.482.271-.743.101c-.159.021-.299.119-.374.26-.076.141-.079.312-.009.456l.014.027-.1.158c-.074.09-.083.203-.083.32v.553l-.17.312c-.059.134-.072.286-.01.417.062.131.172.229.313.267l.923.25c.133.036.273.015.392-.059l1.202-.749c.066-.041.121-.097.162-.164l.963-1.575c.144-.009.277-.079.365-.194l1.228-1.595.254-.141c.228-.073.498-.414 2.127-2.912l.556-.134c.123-.029.229-.104.299-.208.916-1.372 1.459-1.904 1.756-2.109l.438.167c.146.056.309.04.439-.042l.301.324c.145.154.369.111.562.03l.653-.368h.476l.274.303c.159.123.377.184.553.085l.321-.159.166.103c.156.086.345.091.497 0 .079-.046.143-.11.186-.188l.682-.051.769.166c.132.027.268.129.38.056l.668-.312h.604l.628-.079c.331 0 .647-.12.945-.234l.005-.034c.064.093.157.146.268.18.139.042.291.014.414-.064l.178-.118c.166.125.395.134.573.019l.462-.3.734.143c.131.026.122-.001.231-.075l.233-.251v.403c0 .096.171.328.223.408.437.683.582 1.003.585 1.003h.036l.177 1.018c.012.087.055.1.109.169l.28.321.952 2.256.098.141.579.611.035.544c.008.13.317.251.414.338l.513.237v.23c0 .136-.193.266-.096.36.398.383.646.917.981 1.587.048.096.064.175.161.223l.28.156.339.601c.088.161.24.208.425.208h.279l.477.633c.088.069.195.367.308.367h.284l.609.273c.09.071.199.004.31.004.104 0 .209-.084.297-.15l.612-.479c.128-.094.203-.257.203-.416 0-.158-.076-.314-.204-.408l-.23-.172-.264-.604c-.046-.105-.127-.191-.229-.244l-.677-.35c-.159-.32-.466-.738-.935-1.273l-1.062-1.814-.091-.114-.493-.458.093-.398c.032-.136.006-.28-.073-.395l-.953-1.399-.097-.722c-.011-.076-.038-.149-.081-.213l-.521-.775-.114-1.346.108-.39c.036-.129.019-.263-.043-.375.215.023.45.089.699.2.223.098.467.043.602-.163 0 0 .07-.046.307-.046.504 0 .975-.129 1.403-.385l.794.111c.135.022.271-.017.378-.102l.625-.492.495.165c.116.04.243.034.356-.015.393-.169.618-.509.618-.935 0-.136-.057-.267-.154-.361-.099-.095-.243-.157-.372-.146zm-18.549-1.948c.688-.298 1.165-.999 1.421-2.091l.762-.394c.128-.066.222-.185.256-.325l.149-.609c.866-.869 1.015-1.092 1.08-1.224l.239-.466 1.133-1.623.244-.419.172-.09c.256.126.445.234.567.323.194.141.246.206.246.206l.337.523.156.248.089.999c.011.123.066.232.148.313l.04.111.279.559.079.662.076.211.504.786.169 1.649c.019.168.119.316.27.394l.214.11-.091.242c-.089.233.009.497.228.616.131.071.258.221.375.438l-.202.165c-.103.084-.168.206-.181.338-.013.132.027.264.111.367.159.194.232.322.268.396-.084.025-.247.055-.538.055-.223 0-.81-.067-1.745-.199h-.139l-1.44.201-1.884.145-.553.121c-.105-.005-.215-.026-.329-.062-.307-.101-.426-.115-.509-.115-.062 0-.213 0-.362.07-.216.041-.373.065-.474.065l-.293-.076-.929-.229-.161-.013-.406.034c-.181-.1-.408-.198-.687-.297l.264-.145.241-.113v-.133l.384-.239c.143-.056.137-.174.182-.32l.24-1.165zM200.135 17.053l-.443-.062-.582-.863c-.095-.113-.234-.348-.383-.348h-.24l-.268-.066c-.096-.084-.187-.038-.347-.04l-1.429.087c-.156.004-.304.105-.395.234-.09.13-.114.305-.064.455.075.225.111.446.111.664 0 .206-.033.396-.1.56-.039.096-.194.202-.17.303l.158.413v.349l-.243.424c-.118.127-.088.306-.042.47l-.118.045c-.107.031-.18.095-.242.179-.104.028-.189.089-.257.176-.062.08-.095.176-.102.275-.346.058-.793.118-1.346.18-.911.103-1.557.313-1.969.641l-2.397.584c-.104.025-.19.082-.258.157l-1.897.192c-.142.015-.269.088-.352.201-1.193.067-2.168.237-2.903.508l-2.55.214-.31-.073-.198-.007-.182.031-1.771-.346-.11-.009-1.484.044-1.189-.348-1.125-.616-.338-.364.004-.12c0-.455-.083-.86-.48-1.205-.181-.156-.141-.331-.141-.565v-.701l.62-1.933.188-.146c.104-.095.191-.229.191-.371v-.806l1.203-1.052.043-.092.688-.965.724-.584 1.126-1.11c.017-.013.175-.137 1.027-.526.641-.296 1.165-.679 1.561-1.142l.452-.078c.125-.021.237-.338.313-.44l.328-.684h.11c.218 0 .41.107.478-.101l.036.01c.469-.105 1.368-.411 3.403-1.567.143.036.26.083.369.083.391 0 .84-.19 1.375-.614l.107-.109c.047-.072.128-.139.242-.209.059-.033.305-.137 1.36-.411l.37.202c.145.078.32.081.468.005l1.185-.611.603.173c.131.039.272.021.39-.049l.333-.194.568.227c.127.052.269.047.391-.008l.188-.084 1.236.638c.1.051.212.067.321.047 1.492-.281 1.952-1.084 2.075-1.709.04-.202-.048-.407-.22-.518-.482-.309-.883-.502-1.22-.586l-.72-.556c-.091-.078-.207-.059-.325-.059h-.604l-.65-.34c-.225-.096-.479-.047-.61.15l-.649.075-.491-.087c-.214-.038-.43.071-.526.268l-.049.096-.665.029-.166-.034c-.123-.024-.25-.002-.357.062l-.223.134-.146.132-.29.079c-.32.068-.599.165-.83.288l-.106-.029c-.135-.038-.28-.02-.401.054l-.599.367-.238-.027c-.157-.017-.317.062-.426.181-.493.543-.701.604-.694.604h-.976c-.47 0-.869.223-1.196.703-.305-.07-.519-.127-.986.188l-.192.109h-.018c-.152 0-.29.245-.37.377l-.07.186c-.354.196-.731.356-1.128.406-.11.014-.213.081-.291.16l-.623.631-.707.077c-.166.017-.312.118-.392.266l-.134.252-.509.165c-.19.061-.307.148-.326.347-.015.032-.118.222-.742.87l-.818.151c-.162.03-.298.137-.365.287-.251.559-.337.66-.317.648l-.23.177h-.354c-.156 0-.296.067-.388.18l-.029.008c-.166.067-.283.216-.308.393l-.021.14-.405.067c-.226.037-.395.221-.416.444-.646.129-1.026.934-1.262 1.551-.056.146-.039.302.035.429-.183.277-.385.306-.475.318-.138.019-.261.094-.34.208-.08.113-.109.255-.08.391l.036.168c-.01.151-.064.31-.164.473-.197-.006-.357.091-.449.251l-.608.75c-.043.076-.244.162-.244.249v.135l-.007.027c-.147.021-.189.109-.267.237l-.092.228c-.1.164-.073.371.032.531l.14.196c-.158.186-.153.459.006.646l.183.213-.207.46c-.077.17-.052.37.064.517l.44.557.207 1.253c.018.101.063.194.136.268l1.767 1.814.139.101.926.452.521.326c.088.071.199.018.312.018h1.042l.438.312c.156.078.339.115.488.024l.097-.037 1.252.417c.127.041.267.036.387-.026l.274-.141.449.362c.162.132.391.15.569.041l.542-.322.042.012c.104.028.212.024.312-.014l.183-.069.164-.103.015.084c.176.196.479.22.684.054.155-.125.309-.183.479-.183.073.002.206.032.398.078.468.11.88.212 1.135-.043l.198-.198.327.097c.146.043.306.017.432-.072l.484-.345.79.073c.095.01.19.182.275.137l.638-.138h.946c.084 0 .167-.212.239-.252l.683-.469 1.605-.395c.089-.02.171-.086.237-.148l.396-.387c.11-.097.414-.267 1.218-.278.812-.01 1.17-.095 1.561-.256.359-.152.724-.394.724-.713v.004c0 .351.322.607.482.767l-.116.678c-.024.073.024.151.035.228l.295 1.927c0 .178-.043.34-.158.494-.092.123-.113.28-.074.428l.066.144c-.08.122-.101.273-.059.414l.137.458-.174.507c-.04.117-.036.244.013.358l.045.107c-.078.09-.149.218-.201.397-.045.151-.015.314.08.439l.082.086.035.205c.046.119.138.215.252.269l-.014.162c-.011.125.04.25.118.35l.153.182v.576l-.214.186.214 1.158v.515c0 .217.378.409.582.477l.394.088.234 1.093c0 .231.17.42.426.684.273.288.553.429.82.429.194 0 .847-.076.956-1.057.013-.105-.007-.213-.06-.305l-.526-.919.141-1.034c.021-.166-.04-.332-.167-.442l-.312-.274.294-.812c.028-.08.036-.166.023-.249l-.142-.87.171-.183c.182-.192.182-.49.002-.683l-.148-.16.104-.388.011-.217-.162-.929.16-.792c.035-.174-.025-.354-.158-.473l-.241-.214.436-.261c.147-.077.247-.222.268-.387.019-.166-.046-.33-.173-.438l-.339-.289.344-.868.033-.143.113-1.372.09-.051c.123-.071.211-.191.239-.33.029-.139-.002-.284-.086-.399-.264-.36-.4-.563-.474-.674l.044-.06 1.606-2.607c.088-.144.099-.322.026-.474-.072-.152-.215-.259-.382-.283zM107.908 11.147l.116-.93-.141-2.35.138-1.021c.021-.157-.033-.308-.137-.415l.038-.05c.09-.117.172-.269.14-.414l-.077-.557v-.444c0-.205-.173-.388-.362-.464l-.033-.003.015-.668c.003-.082-.02-.164-.056-.238l-.251-.511.189-.339c.128-.225.062-.509-.148-.656-.188-.131-.277-.24-.293-.259l-.228-.477c-.061-.126-.254-.42-.741-.42-.898 0-1.485.491-1.652 1.392l-.576 2.427c-.039.235.139.462.139.548v.417l.32.156.68 1.171v2.051l-.107.126.427 1.88-.277 1.155c-.026.129-.018.264.054.375l.24.385-.271.488c-.054.099-.075.212-.056.323l.25 1.473-.257.914-.343 3.694.005.131.116.673-.061.722c-.056.172.279.36.279.492v.125l-.186.006c-.242.105-.446.379-.357.627l.108.422c-.11.092-.202.23-.202.384l-.009.183-.048 1.152c-.207.062-.307.252-.307.479v.914l-.336 1.143-.042.08c-.157.077-.342.226-.494.5-.056.099-.082.213-.063.324l.046.305-.27.299c-.144.159-.169.391-.066.577l.116.208-.092.062c-.134.089-.216.236-.223.396-.011.281-.027.445-.042.539l-.049.001c-.229 0-.43.157-.485.38l-.288 1.17-.511.279c-.124.068-.213.185-.246.321l-.142.592-.514.438c-.078.065-.134.155-.159.253-.094.02-.184.064-.254.137-.127.129-.262.215-.407.27l-.107.055-.35.234h-.165c-.162 0-.314-.113-.408.019l-.123-.019h-.398c-.199 0-.378.309-.458.49l-.104.332-.118.104-1.597.027-.812.102c-.599.059-1.185.094-1.742.094l-.122.018-.179.047c-.105.027-.196.087-.263.166l-.807-.208c-.096-.025-.196-.021-.288.012l-.247.085-.153-.085-.657-.228c-.077-.026-.16-.033-.24-.021l-1.2.187-.183-.078c-.095-.094-.222-.043-.354-.043h-.363c-.028 0-.208-.282-.881-.479-.556-.161-1.121-.521-1.68-.521h-.166l-.934-.245c-.761-.316-1.371-.386-1.868-.386-1.006 0-1.114.582-1.114.814 0 .422.199.684.546.841l.206-.024h.375l.456.328c.096.05.206.112.313.095l.097.006c.076.171.242.299.434.308l.712.039.381.45c.107.127.27.19.438.175l1.381-.154.118.463c.034.134.121.246.241.312.12.067.262.083.393.04l1.006-.315 1.145.361.184.022.417-.027.226.331c.08.119.209.197.351.215l.062.004c.121 0 .239-.043.331-.125l.381-.337.251.077.219.016.952-.144 1.272.396c.111.035.231.029.339-.016l1.467-.605 1.343.164c.138.021.269.072.373-.012l.203-.068h.234c.127 0 .249.078.343-.01l.174.01h.227c.125 0 .246-.254.344-.325l.888-.769c.077.002.153-.068.227-.103l.381-.214 1.949-1.42.145-.17.976-1.748.053-.143.044-.212.599-.252c.155-.089.408-.255.408-.435v-.365l.125-.242c.053-.099-.01-.21-.028-.317l.057-.103.538-.454c.059-.084.309-.185.309-.288v-.119l-.216-.012c.17-.1.147-.289.126-.484l-.081-.199.176-.247c.073-.09.1-.203.1-.319 0-.276.013-.561.053-.85l.198-.201c.174-.173.194-.448.05-.647l-.013-.017.343-.453c.066-.087.103-.193.103-.302l.043-1.867.313-.157c.208-.104.317-.336.264-.562-.038-.164-.154-.292-.305-.351l-.003-.756-.131-.956c0-.505.11-.882.336-1.153.125-.151.151-.361.066-.538l-.133-.274.104-.073c.145-.102.225-.272.211-.448l-.041-.455.041-.748c.005-.087-.013-.171-.05-.247.024-.124.002-.253-.065-.362l.358-.359c.107-.108.16-.259.143-.411l-.078-.672.096-.25c.028-.078.039-.162.027-.244l-.174-1.298.129-1.094.001-.104-.069-.741.148-.148c.17-.168.197-.433.064-.632l-.216-.322zM151.46 1.767l-.169.029-.384.138c-.134.048-.239.257-.294.387l-.145.458h-.118c-.275 0-.365.008-.365.284v.041c0 .059-.3.172-.343.312-.048.16-.048.333.06.463.083.102.166.251.166.386 0 .05-.062.147-.213.271-.062.052-.115.118-.146.194l-.229.545c-.055.132-.051.268.012.396l.082.108h-.042c-.16 0-.311.09-.404.219s-.121.302-.071.455c.057.174.192.432.519.576l-.122.573c-.036.167-.177.334-.066.45l-.198.065v.78l.073.506c-.04.166.105.34.222.461l-.061.306-.004.196.15 2.286-.315 2.476.046 2.968-.381.547c-.153.218-.107.519.104.682l.304.234-.022.052c-.049.109-.057.232-.021.347l.114.386-.232.35c-.097.146-.111.332-.037.49l.176.375.127.308-.119.848c-.017.119.011.239.075.34l.261.406-.1.129c-.147.19-.138.458.021.638l.574.646-.124.542c-.061.266.103.53.366.596l.194.049.413.537c.057.437.319.76.739.901l.159.026c.146 0 .285-.063.382-.177.31-.366.521-.814.627-1.334.053-.252-.096-.502-.341-.579l-.082-.025c.02-.146-.027-.297-.136-.409l-.167-.174.012-.033c.051-.159.019-.333-.087-.464-.341-.424-.367-.612-.367-.66l.057-.167c.112-.193.203-.471.275-.852.042-.224-.07-.448-.276-.545l-.127-.06.155-.823.01-.106-.042-1.611.205-.463c.05-.114.056-.243.017-.361l-.213-.639.055-.429c.026-.646.169-.841.206-.857.168-.076.28-.237.293-.421s-.076-.359-.23-.458c-.163-.103-.246-.199-.289-.282.15-.052.272-.175.318-.335l.093-.317c.036-.126.021-.262-.041-.378l-.298-.547.2-.346c.051-.089.073-.191.064-.292l.104-.116c.092-.143.105-.322.036-.477l-.312-.695.057-.025c.183-.08.3-.26.3-.458l-.004-.154-.086-.638c0-.163.019-.293.056-.388.055-.137.043-.284-.018-.406l.563-1.111c.047-.092.063-.196.05-.297l-.095-.66.288-.714c.06-.145.072-.306-.004-.438.043-.075.093-.162.093-.25v-.566l-.039-.109-.135-.546.046-.139.073-.206.136-1.02c.021-.16-.035-.316-.146-.425l.023-.065c.226-.093.354-.337.294-.58-.108-.422-.476-1.131-1.785-1.131zM233.709 14.397l-.876.039c-.597-.34-.791-.402-.964-.402-.203 0-.39.098-.734.386-.21.172-.568.407-1.312.208l-.131.151h-1.063l-.101-.158-.826.084c-.431-.037-.8-.681-1.026-1.162.095-.189.28-.395.274-.617l.035-.568v-.702c0-.122-.186-.239-.267-.33l-.347-.314-.005-.062c.086-.169.05-.373-.063-.524l-.584-.771-.096-.92-.412-1.498-.05-.118-.581-1.006-.33-1.234-.088-1.02c-.018-.196-.146-.363-.332-.429l-.185-.064c-.145-.313-.302-.563-.475-.754l-.075-.993c-.014-.175-.118-.331-.276-.41l-.674-.373c-.166-.093-.162-.148-.162-.148v.001l-.392-.467c-.091-.141-.297-.229-.459-.222-.17.003-.346.092-.437.236l-.14.208c-.478.071-.945.407-1.413 1.022-.108.145-.136.338-.062.504l.181.412-.28.279c-.072.073-.123.166-.141.268-.055.308-.178.542-.379.717-.305.265-.38.429-.444.495-.09.093-.032.218-.032.348v.191c0 .072-1 .254-1 .467v.283l.188.021c-.151.079-.138.23-.151.401-.035.406-.118.419-.242.431-.16.015-.274.107-.355.247-.043.074-.051.155-.053.238l-.031.067-.374.774-.101.029c-.18.051-.313.197-.352.379l-.063.315-.268.04c-.245.037-.427.338-.427.585 0 .383-.324.863-.938 1.388-.11.095-.175.234-.175.38l.04.481-.171.044c-.196.026-.358.164-.415.354l-.084.284-.201.016c-.212.017-.389.166-.442.371-.026.101-.021.204.013.298-.085.177-.157.348-.214.513l-.112.055c-.625.408-.886.632-.886.963 0 .089.016.174.046.251l-.066.088c-.103-.005-.197.02-.286.076l-.468.292-.893-.092c-.144-.017-.264.031-.369.125-.104.095-.148.23-.148.372v.116l-.735.646c-.152.137.008.352.078.543.104.285-.343.529.657.728v.29l-1.549 2.053-.596.189c-.148.058-.316.183-.357.337-.225.843-.664 1.426-1.288 1.781-.127.072-.229.196-.258.339-.045.235-.179.525-.755.676-.183.048-.325.194-.365.379-.085.399-.288.654-.687.825l-.482.271-.743.101c-.159.021-.299.118-.374.259-.076.141-.079.31-.011.455l.016.029-.283.16c-.074.09-.267.203-.267.319v.552l.013.31c-.061.133.02.286.082.417s.217.229.357.268l.947.25c.135.036.285.015.403-.059l1.207-.749c.064-.041.124-.097.165-.163l.965-1.576c.145-.008.277-.079.367-.194l1.229-1.595.254-.141c.228-.073.497-.413 2.127-2.912l.556-.134c.122-.029.229-.104.299-.208.916-1.372 1.459-1.905 1.754-2.109l.439.167c.146.055.309.039.44-.042l.301.323c.146.154.37.112.562.03l.652-.368h.477l.273.303c.161.124.38.184.554.085l.317-.158.163.102c.153.087.343.09.496 0 .08-.046.145-.111.187-.189l.684-.051.769.166c.132.027.269.129.381.056l.669-.313h.604l.631-.079c.333 0 .641-.119.941-.233l.007-.035c.064.093.158.146.268.18.141.041.29.014.414-.064l.178-.117c.166.125.394.132.57.019l.466-.3.732.143c.125.025.438-.002.547-.075l.553-.252v.403c0 .096-.146.189-.095.27.437.68.424.864.429.864l.115 1.156c.013.087.023.169.077.238l.266.356.944 2.273.094.15.576.617.037.547c.009.129.132.25.229.337l.327.238v.23c0 .136-.01.266.089.36.396.38.731.914 1.067 1.586.047.098.111.177.209.226l.307.156.351.6c.087.161.252.208.436.208h.281l.477.633c.088.069.195.367.308.367h.282l.608.273c.092.072.2.004.311.004.104 0 .209-.084.298-.15l.611-.479c.127-.095.201-.257.201-.415 0-.159-.074-.315-.202-.409l-.23-.172-.263-.604c-.046-.105-.127-.192-.229-.245l-.681-.35c-.158-.319-.463-.736-.93-1.274l-1.066-1.814-.09-.113-.493-.459.093-.398c.031-.136.005-.279-.073-.395l-.951-1.4-.103-.724-.079-.208-.517-.776-.118-1.345.109-.388c.037-.129.02-.266-.042-.379.215.023.449.09.697.2.224.099.469.042.603-.164 0 0 .068-.045.301-.045.504 0 .979-.129 1.41-.385l.79.111c.129.02.271-.018.378-.102l.628-.492.493.165c.115.039.243.034.357-.016.393-.17.616-.511.616-.934 0-.136-.056-.267-.153-.361-.099-.097-.228-.151-.369-.142zm-18.55-1.948c.688-.297 1.165-.999 1.418-2.091l.763-.394c.129-.066.223-.185.257-.326l.148-.608c.821-.821 1.009-1.079 1.08-1.223l.24-.467 1.128-1.62.248-.421.174-.09c.253.125.442.233.567.323.194.14.246.205.247.205l.335.524c.13.177.155.249.154.249l.092.999c.012.122.065.23.147.31l.039.111.275.561.082.664.075.209.504.785.168 1.649c.017.168.118.316.269.394l.216.11-.092.242c-.088.233.01.495.229.615.099.054.233.174.375.438l-.203.166c-.104.084-.169.207-.182.339-.014.133.027.266.113.368.159.191.232.319.268.395-.085.025-.248.056-.541.056-.219 0-.807-.067-1.745-.199h-.138l-1.439.201-1.882.145-.556.121c-.104-.005-.217-.026-.326-.062-.307-.102-.43-.115-.51-.115-.062 0-.212 0-.36.07-.217.041-.375.065-.477.065l-.293-.076-.928-.229-.161-.013-.405.034c-.183-.1-.408-.198-.686-.297l.079-.145.058-.113v-.134l.563-.239c.142-.056.228-.173.271-.318l.342-1.168zM296.438 15.961c0-.132-.072-.258-.166-.352-.235-.239-.285-.418-.285-.532v-.59c0-.179-.072-.343-.229-.433-.345-.2-.375-.329-.375-.329-.067-.314-.305-.713-.809-1.335-.423-.518-1.006-1.105-1.738-1.748l-.105-.577c-.023-.132-.101-.249-.212-.323l-.202-.137c-.178-.12-.411-.113-.581.016l-.122.09-.163-.103-1.231-1.139-1.066-.839c-.06-.047-.129-.079-.202-.095-.521-.114-.935-.32-1.226-.612-.094-.094-.222-.147-.354-.147h-.207c-.755-.827-1.434-1.277-2.063-1.368-.341-.263-.733-.404-1.147-.396l-.215.027-.524-.253-.132-.042-.43-.074-.734-.45-.126-.055-.361-.101-.219-.403c-.104-.188-.315-.29-.525-.254l-.825.144-.628-.411-.162-.069-1.404-.317c-.078-.018-.161-.016-.239.005l-.501.134-.4-.191c-.121-.06-.267-.065-.395-.016l-.477.182c-.117-.169-.333-.253-.536-.199-.249.064-.356.074-.398.074-.254 0-.529-.105-.82-.313-.085-.061-.187-.094-.291-.094-.648 0-1.231.066-1.732.197-.102.026-.189.083-.256.162l-.069.078-.25-.029c-.448 0-.938.203-1.503.62-.161.119-.235.323-.188.519.118.494.194.871.231 1.131.048.354.167.659.354.91.103.137.271.21.438.2l1.498-.113.154-.037.945-.357.759.073v.027c0 .093-.234.185-.187.264l.187.717v1.512l.205.179.463.981.047.816-.113 1.069.009.105.266 3.043-.487 1.081c-.064.141-.059.304.016.44l.433.813-.01.529.175.194v.966l-.402.451c-.029.071-.149.147-.146.224l.076 2.152-.07.12c-.092.216-.147.405-.147.578 0 .174.027.337.062.391l.146.496c-.113.019-.218.049-.312.089l-1.594.397c-.199.05-.351.218-.376.422l-.021.17-.287.286c-.122.122-.173.299-.134.467l.09.387c.027.114.093.216.187.287l.361.305c.087.065.192.134.301.134h.707c.079 0 .157-.053.229-.089l.747-.4.149.118.468.31.038.823-.09.792c-.016.141.029.283.124.389s.23.167.373.167l.056.013c.093.08.209.124.329.124l.056-.003c.139-.015.266-.088.349-.201.718-.979.785-1.173.812-1.253l.152-.406.5-.642c.054-.068.088-.149.102-.235l.078-.542.109-.016c.134.216.409.299.643.189l.27-.129.16.142c.115.102.27.143.423.117.152-.029.282-.125.354-.263l.141-.272c.105.011.21-.021.3-.081l.236-.154.508.201c.103.041.216.045.323.015l.567-.166c.526.125 1.123-.01 1.932-.259.562-.173.732-.287.762-.287h.316c.248 0 .531.055.896-.052.372-.113.484-.063.489-.063l.079.024c.165.077.354.074.503-.031l.358-.248.618.153c.12.028.244.015.354-.042.487-.26.688-.28.728-.28l.138.063c.088.053.189.076.291.072.324-.021.613-.171.864-.451l.059-.064.082.053c.182.029.35-.134.46-.134h.452c.193 0 .369-.153.452-.328l.078-.185.489-.037c.108 0 .215-.041.302-.106.324-.246.841-.472 1.535-.667.098-.027.185-.085.249-.164.235-.283.384-.384.443-.414l.565-.272c.104-.05.187-.133.234-.236l.186-.404.84-1.202c.047-.066.076-.144.087-.225l.044-.355c.033-.246.068-.332.098-.39l.139-.317c.027-.063.042-.177.042-.246 0-.276-.179-.519-.47-.824-.142-.138-.201-.279-.201-.451zm-12.112 5.534c-.085.008-.168.039-.238.088-.623.437-1.259.658-1.892.658-.184 0-.455-.035-.805-.104-.83-.167-1.146-.173-1.539.051l-.071.056-2.49.293-.219-.579.213-.494c.052-.121.055-.257.007-.379l-.157-.404.098-.804c.014-.103-.007-.207-.056-.298l-.36-.668.377-.845c.041-.093.055-.197.034-.297l-.177-.926.379-1.026c.069-.188.021-.399-.125-.537l-.041-.039.306-.49c.102-.162.102-.367 0-.528l-.107-.174-.005-1.716-.079-.576c.098-.051.177-.135.224-.237.057-.124.06-.265.009-.391l-.19-.484.055-.3c.061-.269.08-.4.08-.504 0-.295-.09-.628-.273-1.018l-.15-.331.35-.564c.131-.21.088-.484-.102-.645-.094-.08-.253-.235-.261-.405l.098-.174.225-.702c.026-.083.03-.172.014-.257.811.042 1.464.255 1.944.634.062.048.158.083.25.1.038.102.109.19.204.25.131.08.289.097.435.045.231.11.484.187.757.229l.327.05c.093.065.196.093.319.089l.339-.022.105.232c.057.124.205.202.335.247.126.044.314.016.437-.046.031 0 .091.049.148.124l.139.122c.417.247.747.34 1.129.365l.5-.036 3.424 2.071.296.54c.062.113.166.198.288.236.845.266 1.246.484 1.435.623l.141.508c.028.104.091.196.176.262l.61.475c.076.059.168.095.266.103l.241.021.405.737c.078.186.261.076.461.076h.062l1.633 2.437.118 1.192-.035.986-1.446 1.385h-.151c-.153 0-.3-.19-.395-.069l-.258.069h-.095l-.205.074-.308.153-.144-.049c-.139-.055-.292-.042-.423.029-.13.07-.224.197-.252.342l-.021.097-.453.052c-.112.013-.219.064-.299.146-.049.05-.119.105-.24.131-.174-.11-.371-.168-.581-.168-.193 0-.407.083-.821.318-.225.13-.453.205-.702.229-.101.01-.196.05-.273.115-.198.168-.406.246-.634.247l-1.13-.046c-.462-.003-.856.012-1.19.045zM143.344 14.397l-.874.039c-.603-.342-.79-.402-.961-.402-.203 0-.382.093-.743.389-.151.128-.407.155-.594.155-.181 0-.419.129-.708.05l-.131.151h-1.065l-.1-.158-.828.084c-.415-.034-.773-.624-1.028-1.161.097-.191-.037-.397-.042-.618l-.284-.567v-.702c0-.121.134-.238.054-.33l-.188-.316.075-.062c.083-.168.088-.37-.024-.521l-.562-.771-.088-.918-.402-1.497-.048-.12-.58-1.006-.333-1.236-.088-1.02c-.017-.195-.146-.363-.332-.428l-.183-.065c-.146-.314-.305-.563-.476-.754l-.079-.995c-.014-.175-.117-.329-.274-.408l-.751-.375-.24-.142-.309-.467c-.094-.142-.25-.203-.422-.225-.169.001-.326.089-.418.232l-.135.213c-.479.071-.94.408-1.406 1.023-.108.144-.131.335-.06.5l.18.413-.28.281c-.073.073-.122.166-.141.268-.054.31-.177.544-.379.718-.303.265-.697.428-.761.495-.091.093-.352.218-.352.348v.9380000000000001l.001.022c-.151.079-.227.231-.24.402-.033.403-.167.417-.284.429-.161.016-.298.108-.378.248-.042.073-.062.153-.063.234l-.039.069-.379.775-.102.028c-.179.051-.313.197-.352.379l-.064.315-.267.04c-.244.037-.427.338-.427.585 0 .384-.324.863-.937 1.388-.111.095-.176.234-.176.38l.04.482-.17.043c-.195.026-.358.165-.416.355l-.083.282-.203.016c-.212.017-.39.167-.443.372-.026.102-.021.206.015.299-.085.176-.156.346-.213.51l-.114.056c-.684.447-.881.664-.881.963l.044.248-.067.092c-.099-.007-.196.02-.284.075l-.468.292-.895-.092c-.144-.015-.082.031-.188.126-.105.095.033.229.033.371v.116l-.92.646c-.153.138-.402.356-.33.549.107.282.25.523.25.721v.291l-1.231 2.053-.438.189c-.147.058-.235.184-.276.338-.223.841-.621 1.423-1.247 1.78-.126.072-.209.196-.237.338-.046.236-.17.526-.743.677-.182.048-.318.193-.358.377-.087.399-.29.654-.688.827l-.481.271-.744.101c-.16.022-.3.12-.375.262-.075.143-.077.313-.004.458l.013.026-.1.155c-.075.09-.087.203-.087.32v.551l-.169.311c-.06.133-.071.287-.01.418.062.132.172.229.314.269l.924.25c.134.036.274.014.393-.059l1.199-.749c.066-.041.121-.097.161-.163l.967-1.576c.145-.009.277-.08.365-.194l1.228-1.596.254-.141c.227-.073.499-.416 2.131-2.912l.552-.134c.122-.029.229-.104.298-.208.914-1.37 1.459-1.903 1.757-2.108l.438.167c.147.056.312.04.441-.043l.302.324c.144.156.369.112.562.03l.651-.368h.476l.272.302c.158.124.377.186.552.087l.324-.16.164.103c.154.087.344.09.496 0 .079-.046.144-.111.186-.189l.684-.051.767.166c.133.027.268.129.379.056l.672-.314h.604l.626-.079c.331 0 .647-.12.942-.233l.008-.035c.063.092.157.146.267.179.14.042.292.014.416-.064l.178-.118c.167.126.394.134.571.021l.468-.301.729.143c.13.025.12-.002.23-.075l.232-.251v.403c0 .097.229.191.282.272.433.667.718.862.718.862v-.001l.101 1.156c.012.087.018.17.072.24l.262.355.941 2.273.094.149.577.615.03.545c.008.132.312.256.411.344l.512.238v.228c0 .136-.189.265-.093.359.394.38.642.914.979 1.588.048.096.065.175.162.223l.281.156.343.601c.088.161.24.207.424.207h.281l.478.633c.088.069.196.367.308.367h.279l.612.274c.091.071.2.003.309.003.104 0 .209-.084.297-.15l.612-.479c.128-.094.203-.257.203-.416 0-.158-.076-.314-.204-.408l-.231-.173-.266-.604c-.046-.105-.127-.191-.229-.244l-.679-.35c-.159-.322-.465-.739-.933-1.274l-1.065-1.814-.089-.112-.491-.459.093-.4c.03-.136.004-.278-.074-.393l-.953-1.4-.097-.722c-.011-.075-.037-.147-.079-.21l-.518-.777-.119-1.344.112-.386c.038-.13.021-.267-.042-.38.214.023.445.089.699.2.224.099.467.044.6-.165.001 0 .07-.044.304-.044.505 0 .977-.129 1.404-.385l.792.111c.138.022.271-.017.378-.102l.627-.492.493.165c.116.038.242.033.355-.014.394-.168.62-.509.62-.936 0-.136-.057-.267-.154-.361-.101-.095-.241-.151-.374-.14zm-18.549-1.948c.69-.297 1.168-.999 1.42-2.091l.765-.393c.129-.066.224-.186.257-.327l.148-.609c.868-.874 1.015-1.095 1.077-1.222l.24-.467 1.133-1.622.245-.42.172-.09c.252.124.444.232.571.321l.244.205.334.525.156.249.091.999c.012.122.065.23.147.311l.04.112.277.561.083.664.075.207.5.786.168 1.649c.019.168.119.317.27.394l.215.11-.091.241c-.089.234.009.497.229.617.132.072.26.221.376.437l-.204.166c-.103.084-.168.206-.181.338-.013.132.027.265.112.367.16.193.232.322.267.396-.084.025-.247.055-.538.055-.224 0-.811-.067-1.745-.199h-.139l-1.442.201-1.882.145-.554.121c-.104-.005-.216-.026-.329-.062-.307-.101-.426-.115-.509-.115-.062 0-.211 0-.36.07-.215.041-.373.065-.475.065l-.289-.077-.934-.229-.16-.012-.406.034c-.182-.1-.408-.198-.684-.296l.261-.146.238-.113v-.133l.384-.239c.143-.056.138-.173.183-.319l.244-1.165z"/></svg>