<svg xmlns="http://www.w3.org/2000/svg" width="228" height="59.667" viewBox="0 0 228 59.667"><path fill="#010101" d="M140.106 37.469c-.107-1.097-.365-2.188-.94-3.139-.749-1.237-2.038-2.042-3.394-2.468-1.466-.461-3.03-.548-4.557-.606l-2.274-.074c-.658-.025-1.352-.039-1.965-.309-.13-.06-.413-.335-.387-.741.024-.359.14-.708.277-1.039.264-.631.688-1.211 1.165-1.698l.347-.327.154-.131.221.052c.277.057.56.086.842.1.552.027 1.085.014 1.624-.11.553-.127 1.092-.322 1.6-.572.489-.24.967-.536 1.352-.926.448-.452.777-1.057 1-1.648.23-.612.35-1.263.375-1.915.025-.649-.029-1.306-.189-1.936-.064-.254-.146-.503-.238-.747l-.063-.167.021-.074.128-.051c.166-.06.339-.098.514-.118.284-.032.567-.041.827.094.243.126.432.316.659.463.485.312 1.146.354 1.637.029.426-.281.627-.772.584-1.272-.039-.449-.332-.831-.727-1.034-.557-.287-1.233-.228-1.817-.065-.679.189-1.306.534-1.894.916l-.406.275c-.05.035-.073-.026-.109-.068l-.24-.26c-.247-.252-.52-.479-.811-.68-.891-.612-1.947-.938-3.025-.972-2.095-.065-4.235.781-5.382 2.601-.432.686-.707 1.483-.73 2.297-.033 1.127.232 2.282.817 3.251.349.579.81 1.09 1.349 1.498.411.312.858.54 1.333.736-.533.423-1.051.868-1.528 1.354-.475.481-.949.992-1.294 1.577-.354.6-.527 1.303-.366 1.991.164.697.642 1.265 1.239 1.642 1.099.693 2.407.731 3.664.744 1.532.016 3.07.039 4.57.388.619.145 1.236.338 1.809.617.275.134.542.29.785.479.171.132.357.283.486.458l-.016-.024c.762 1.026 1.155 2.302 1.435 3.537-.934-.755-2.327-.665-3.157.198-.761.793-.863 2.049-.237 2.952.637.92 1.876 1.262 2.896.798.792-.36 1.542-1.39 1.843-2.699.236-1.04.287-2.121.193-3.177zm-13.37-15.207c0-1.168.12-2.386.735-3.407.346-.574.838-1.062 1.448-1.347.495-.231 1.092-.335 1.638-.288.567.049 1.197.365 1.572.796.309.354.531.77.669 1.219.179.583.227 1.2.229 1.808.002.496-.033.993-.109 1.483-.146.939-.436 1.924-1.051 2.669-.279.338-.632.615-1.042.775-.481.188-1.026.207-1.53.104-1.727-.351-2.559-2.201-2.559-3.812zm-24.407-1.488c0 1.798 0 7.019.035 8.09.034.588.173 1.072.898 1.072h1.556c.312 0 .38.104.38.311v.588c0 .207-.068.346-.207.346-.242 0-1.763-.104-3.906-.104-2.213 0-3.596.104-3.906.104-.173 0-.242-.139-.242-.346v-.588c0-.242.069-.311.449-.311h1.659c.381 0 .727-.242.761-.864.034-1.072.034-7.018.034-9.023v-2.178c0-2.454-.034-5.601-.104-6.499-.069-1.176-.622-1.729-1.729-2.074l-.691-.242c-.173-.069-.207-.104-.207-.173v-.277c0-.104.104-.173.311-.242 1.21-.553 2.766-1.176 4.045-2.005.312-.208.519-.276.727-.276.241 0 .311.173.276.622-.035 1.901-.139 9.092-.139 10.993v3.076zm6.153 8.332c-1.59-1.901-1.901-3.181-1.901-5.635 0-1.764.934-3.976 2.973-5.566 1.798-1.383 3.492-1.659 4.633-1.659 1.901 0 3.803.968 4.84 2.005 1.556 1.591 2.351 3.389 2.351 5.636 0 3.768-3.388 7.605-7.64 7.605-1.66 0-3.803-.657-5.256-2.386zm9.992-5.565c0-3.838-2.801-6.258-4.563-6.258-.934 0-1.832.208-2.662 1.106-1.349 1.383-1.832 2.8-1.832 5.428 0 1.936.207 3.249 1.313 4.84.795 1.141 1.798 1.798 3.423 1.798 2.626 0 4.321-3.216 4.321-6.914zm51.217 5.565c-1.59-1.901-1.901-3.181-1.901-5.635 0-1.764.934-3.976 2.974-5.566 1.798-1.383 3.491-1.659 4.632-1.659 1.901 0 3.803.968 4.84 2.005 1.556 1.591 2.352 3.389 2.352 5.636 0 3.768-3.389 7.605-7.641 7.605-1.66 0-3.803-.657-5.256-2.386zm9.992-5.565c0-3.838-2.801-6.258-4.563-6.258-.934 0-1.832.208-2.662 1.106-1.348 1.383-1.832 2.8-1.832 5.428 0 1.936.208 3.249 1.313 4.84.795 1.141 1.798 1.798 3.423 1.798 2.626 0 4.321-3.216 4.321-6.914zm7.189-2.247c0-.83-.242-1.314-1.244-1.867l-.795-.449c-.242-.104-.242-.208-.242-.312v-.276c0-.104.069-.173.242-.242l3.318-1.659c.276-.139.553-.276.795-.276.173 0 .242.173.242.691l.139 1.659h.104c.934-1.21 2.73-2.316 5.047-2.316 1.764 0 2.938.761 3.941 1.694 1.313 1.313 1.867 2.73 1.867 5.393 0 4.529-3.146 8.159-7.468 8.159-.934 0-2.386-.139-3.457-.588v7.294c0 .968.242 1.141.761 1.141h1.521c.276 0 .311.139.311.346v.588c0 .208-.069.312-.311.312-.174 0-1.349-.104-3.562-.104-2.005 0-3.215.104-3.491.104-.242 0-.312-.104-.312-.312v-.624c0-.173.069-.312.415-.312h1.349c.587 0 .656-.346.726-.864.104-.76.104-2.627.104-6.015v-11.165zm2.489 6.326c0 .761.069 1.383.726 1.832.969.691 2.04.934 3.457.934 1.971 0 4.011-1.486 4.011-5.773 0-4.84-2.178-6.775-4.494-6.775-1.452 0-2.869.829-3.699 2.212v7.57zm18.045-.864c0 2.593 1.176 3.042 1.798 3.042.795 0 1.798-.139 2.281-.449.173-.104.312-.069.415.069l.173.311c.104.139.035.276-.069.381-.346.346-1.763 1.383-3.837 1.383-1.694 0-3.354-1.625-3.354-2.938 0-1.418.104-4.46.104-4.944v-.76c0-.623.035-2.974.069-4.426h-2.108c-.312 0-.519-.138-.519-.414 0-.277.207-.381.622-.623.83-.483 3.491-3.146 3.941-4.321.104-.276.276-.346.483-.346.276 0 .346.242.346.519l-.173 3.389h4.806c.207 0 .311.173.241.311l-.346 1.21c-.034.173-.104.276-.311.276h-4.46c-.069 1.591-.104 3.284-.104 4.875v3.455zm9.16-4.875c-.069.312-.104.864-.104 1.66 0 3.388 2.144 5.945 4.909 5.945 2.108 0 3.596-1.21 4.183-2.351.069-.138.208-.207.312-.173l.449.242c.104.034.173.139 0 .519-.622 1.383-2.42 3.769-5.496 3.769-1.971 0-4.148-.588-5.428-2.455-1.21-1.763-1.521-3.042-1.521-5.462 0-1.349.346-3.664 2.178-5.497 1.486-1.521 3.215-1.832 4.943-1.832 3.977 0 5.082 3.733 5.082 5.082 0 .484-.414.553-.968.553h-8.539zm5.497-1.037c.656 0 .934-.173.934-.483 0-.796-.415-3.077-2.662-3.077-1.521 0-2.973 1.003-3.63 3.561h5.358zm-126.637 8.988h-1.659c-1.025 0-1.202-.455-.61-1.463.722-1.117 1.153-2.5 1.153-3.618 0-3.665-2.247-5.739-5.6-6.846l-.104-.068c2.696-1.418 4.218-2.282 4.218-5.704 0-2.04-.691-3.63-2.662-4.702-1.21-.691-3.422-.934-6.119-.934-1.209 0-3.283.104-4.39.104-2.489 0-4.045-.104-4.599-.104-.207 0-.276.069-.276.242v.864c0 .173.069.242.276.242h1.072c1.59 0 2.144.069 2.247 2.074.034.622.104 4.84.104 6.119v4.079c0 2.835-.069 7.398-.173 8.193-.139 1.106-.311 1.521-1.383 1.521h-1.659c-.242 0-.312.069-.312.242v.899c0 .138.069.207.484.207.656 0 2.696-.104 4.425-.104 1.452 0 2.8.104 5.186.104l.652-.006-.055.006c2.386 0 3.733-.104 5.186-.104 1.729 0 3.769.104 4.425.104.415 0 .484-.069.484-.207v-.899c0-.172-.069-.241-.311-.241zm-13.907-15.003c0-2.869.035-5.877.069-6.568 0-.312.208-.554.484-.622.276-.069.656-.035 1.141-.035 1.763 0 3.491.312 4.736 1.176 1.278.934 1.693 2.316 1.693 3.63 0 1.521-.519 3.076-1.936 4.148-.83.588-2.386.898-4.356.898-.587 0-1.175 0-1.832-.069v-2.558zm3.629 15.245c-2.869 0-3.63-1.417-3.63-4.598v-6.915h1.106c1.591 0 3.215.034 4.633.588 2.039.795 3.457 2.627 3.457 5.428.001 4.114-2.661 5.497-5.566 5.497zm76.18-15.723c-.829-3.568-3.155-5.819-4.484-6.448-1.095-.517-2.363-.789-3.573-.617-.721.104-6.357 1.479-7.32 9.94-1.051 9.246 5.219 13.116 9.658 12.6 4.32-.503 6.312-5.182 6.691-6.31l2.666 1.872.351.246c.013.01-.39.584-.425.633-.195.27-.398.535-.614.788-.936 1.094-2.058 2.009-3.31 2.716-2.366 1.335-5.203 1.968-7.912 1.771-1.358-.099-2.696-.466-3.927-1.046-.963-.454-1.834-1.051-2.652-1.728-.841-.696-1.556-1.574-2.141-2.493-.793-1.246-1.346-2.637-1.649-4.082-.292-1.386-.355-2.815-.283-4.228.073-1.42.351-2.807.848-4.14 1.024-2.744 3.069-5.173 5.673-6.535 2.634-1.378 5.873-1.679 8.72-.833 2.584.769 4.777 2.609 6.201 4.874.297.474.566.966.785 1.48.034.081.028.065-.045.098l-.266.118-1.989.88-1.003.444z"/><path fill="#41140F" d="M68.187 29.792c-.752-.035-1.521.203-2.021.786-.365.452-.631 1.099-.449 1.681.185.59.773.98 1.389.921.295-.028.576-.159.79-.365.105-.104.194-.224.261-.355.047-.093.051-.202.172-.151l-.027-.006c.876.185.545 1.486.066 1.946-.958.921-2.257.193-3.046-.583-1.651-1.624-1.753-4.229-1.794-6.403-.418.921-.922 1.803-1.504 2.631-.088.126-.152.153-.109.309l.096.336.199.669c.148.479.307.957.476 1.431.644 1.807 1.434 3.561 2.366 5.236 1.804 3.238 4.148 6.191 6.98 8.591 2.644 2.239 5.712 3.967 9.025 4.991.819.254 1.652.465 2.494.633.82.163 1.713.371 2.553.371.838 0 1.144-1.148.419-1.567-.372-.216-.94-.173-1.358-.232-.547-.078-1.092-.176-1.632-.292-.661-.144-1.316-.314-1.962-.514 1.925-.259 3.513-1.605 4.183-3.416.646-1.744.367-4.102-1.454-5.027-.658-.334-1.579-.568-2.311-.333-.715.23-1.172.963-1.068 1.705.104.74.743 1.318 1.491 1.345.214.008.562-.127.727.044.284.294.281.83.234 1.205-.186 1.513-1.444 2.521-2.926 2.593-1.544.075-3.078-.646-4.367-1.426.701-.097 1.388-.297 2.017-.623.448-.23 1.143-.586 1.347-1.084.221-.54-.175-1.153-.758-1.175-.201-.007-.409.058-.603.105-.33.079-.665.137-1.002.173-1.264.135-2.506-.073-3.66-.598-.593-.27-1.1-.708-1.565-1.153.946.067 1.984-.031 2.825-.508.604-.344 1.58-1.076.863-1.83-.246-.26-.609-.325-.94-.21-.363.125-.752.192-1.139.172-1.567-.082-3.169-.647-4.394-1.631-.331-.266-.647-.551-.959-.838-.256-.235-.502-.481-.738-.737 1.646.078 3.074-1.07 3.545-2.606.289-.945.233-2.028-.312-2.873-.521-.804-1.467-1.318-2.42-1.338zm29.188 17.724c-.237-1.439-1.033-2.846-2.16-3.774-.974-.803-2.394-1.315-3.663-1.091-1.567.276-2.889 1.921-3.294 3.452-.462 1.747.498 3.424 2.162 4.047.653.244 1.253.286 1.911.016.621-.255 1.138-.736 1.436-1.338.666-1.348.099-3.028-1.242-3.703 2.003-.628 3.351 1.848 3.352 3.504 0 1.308-.767 2.449-1.732 3.28-2.603 2.25-6.528 2.231-9.734 1.759-3.954-.582-7.941-2.065-11.285-4.261-1.934-1.269-3.65-2.837-5.216-4.531-3.504-3.789-5.757-8.537-7.07-13.489-.672.754-1.413 1.445-2.213 2.062-.116.09-.189.106-.208.257l-.038.342c-.022.228-.036.454-.042.682-.012.52.018 1.04.102 1.553.16.985.521 1.945 1.158 2.725.151.185.316.357.496.516-.137.146-.26.305-.356.479-.232.415-.368.897-.488 1.354-.887 3.369-.016 6.792 1.896 9.642.28.417.582.82.902 1.208.252.306.569.747 1.023.513.413-.213.314-.752.298-1.133-.02-.568-.068-1.136-.116-1.702-.136-1.6-.275-3.198-.088-4.797v.022c.069-.534.159-1.064.282-1.588.153-.649.324-1.418.779-1.934.844 1.312 1.798 2.616 2.847 3.771-.726-.151-1.728-.03-2.087.713-.182.376-.179.907-.193 1.317-.018.509.011 1.015.093 1.519.291 1.794 1.177 3.61 2.585 4.795.456.384 1.453 1.289 2.114.897.649-.386.124-1.318.026-1.86-.346-1.667-.562-3.398-.282-5.092 1.071.966 2.181 1.876 3.377 2.681-1.109.598-.986 2.14-.358 3.033.581.89 1.372 1.646 2.342 2.104.536.254 2.871 1.088 2.891-.151.003-.179-.08-.322-.178-.463-.171-.246-.29-.512-.442-.769-.349-.598-.642-1.245-.899-1.886 3.774 1.809 8.022 3.061 12.239 2.966 1.831-.042 3.689-.335 5.328-1.188 1.582-.825 2.955-2.132 3.565-3.834.294-.835.336-1.76.18-2.625zm20.103-4.246c.089.231-.071.386-.249.495l-.878.521c-.634.375-1.26.763-1.818 1.245 1.803 1.731 2.235 4.272 1.427 6.604-.354 1.023-1.034 2.131-2.025 2.656.449-2.344.083-5.787-2.875-6.067.612 1.04 1.15 2.212 1.206 3.437.044.958-.277 1.845-.901 2.566-.207.24-.439.454-.661.679-.095.096-.086-.31-.088-.357-.063-1.569-.106-4.423-2.123-4.771.095.314.135.645.146.972.026.806-.115 1.621-.344 2.392-.103.346-.225.687-.382 1.012-.069.146-.14.333-.275.432-.246.18-.601.231-.893.281-.491.084-.99.123-1.487.15-1.125.062-2.258.058-3.381-.019-.402-.026-.808-.058-1.204-.135-.141-.027-.4-.05-.438-.221-.062-.281-.021-.603-.003-.886.034-.51.093-1.017.16-1.522.152-1.148.344-2.301.641-3.422.102-.383.208-.781.396-1.132.178-.332.482-.39.843-.388 1.323.008 2.588.538 3.893.689-.064-1.534-2.265-1.905-3.427-2.061-1.083-.145-2.192-.185-3.283-.128.46-.621 1.205-1.054 1.913-1.321 2.113-.797 4.497-.276 6.518.541-.599-3.35-4.642-3.041-7.111-2.175.289-.383.691-.692 1.089-.953.938-.613 2.025-.974 3.124-1.16 1.57-.265 3.411-.362 4.867.372.628.316 1.221.738 1.709 1.245.227.234.676.648.358.948-.899.849-1.725 1.861-2.288 2.969l3.013-1.654c.656-.36 1.258-.79 1.938-1.113.63-.271 1.272-.502 1.917-.735.27-.1.81-.416.976.014zm-55.911-32.687c-.071-.295-.17-.583-.297-.858.695.031 1.339-.434 1.526-1.105.188-.676-.119-1.294-.657-1.695-1.324-.973-3.072-1.359-4.665-1.613 1.936-.391 4.158-.568 5.965.392.84.446 1.52 1.167 1.868 2.056.169.43.268.896.256 1.358-.005.164-.285.189-.428.273-.187.109-.35.259-.476.436-.45.635-.349 1.532.232 2.05.548.487 1.414.554 2.072.28 1.941-.805 1.63-3.574.962-5.123-.957-2.223-3.063-3.623-5.426-3.943s-4.764.279-6.956 1.129c.219-.338.551-.885.51-1.312-.056-.568-.807-.778-1.148-.32-.261.351-.452.711-.783 1.013-.487.444-1.039.805-1.623 1.109 3.582.859 6.813 2.961 9.068 5.873-.071-.297-2.232-2.883 0 0zm-7.555 34.684c-1.168.017-3.371.127-3.618 1.633.308.002.616-.024.923-.052.713-.064 1.425-.154 2.142-.183.438-.018 1.135-.09 1.5.223.207.178.264.546.316.796.104.483.16.977.205 1.468.108 1.153.149 2.316.131 3.474-.006.417-.016.838-.065 1.252-.018.146-.015.402-.182.459-.264.09-.58.069-.854.067-.487-.003-.974-.034-1.459-.076-1.125-.095-2.255-.239-3.358-.484-.408-.091-.825-.191-1.211-.359-.337-.147-.445-.311-.565-.661-.454-1.327-.626-3.105-.05-4.42-.781.04-1.366.564-1.744 1.214-.486.836-.699 1.815-.857 2.761-.045.269-.066.55-.141.812-.051.185-.272-.214-.327-.284-.516-.65-.901-1.379-.953-2.223-.093-1.523.771-2.967 1.66-4.131-2.97-.077-3.749 3.297-3.585 5.678-.545-.38-.956-.982-1.242-1.57-.663-1.361-.786-3.067-.415-4.526.198-.777.572-1.501 1.08-2.121.222-.271.467-.521.73-.751.106-.093-.135-.41-.188-.542-.078-.19-.146-.384-.195-.583-.35-1.384.289-2.737 1.318-3.663.518-.464 1.146-.771 1.65-1.255.176-.168.336-.351.461-.562l.098-.195.377.077c.508.098 1.021.171 1.535.22-.353 1.094-1.37 1.887-2.339 2.424-.997.553-2.043 1.536-1.471 2.767.121.259 3.531 2.604 3.838 2.824-.41-1.41-1.802-3.029-1.899-3.154-.094-.121-.152-.251-.085-.385.225-.445.766-.777 1.175-1.027.643-.393 1.359-.7 2.105-.823.834-.138 1.737-.005 2.563.132.729.12 1.449.303 2.14.565 1.188.453 2.547 1.217 3.208 2.362-2.348-1.158-6.324-1.95-7.321 1.304 2.112-.571 4.554-.801 6.559.259.662.35 1.34.865 1.717 1.529-1.089-.192-2.206-.287-3.307-.27zm-25.88-35.28c-1.322-.973-1.169-2.785-.006-3.815 2.543-2.25 6.325-.41 6.676-.229 1.099.565 2.014 1.411 2.737 2.404.138.199.143.19-.04.364l-.346.336-.335.347c-2.425-1.162-4.81-.6-5.268-.061-.061.2-.345.435-.493.56-.274.231-.602.397-.95.484-.679.169-1.412.025-1.975-.39zm4.266 10.559c0-.496.023-.993.068-1.488l.037-.366c.018-.153-.014-.157-.137-.24-.156-.104-.334-.174-.52-.205-.799-.132-1.544.51-1.534 1.318.004.342.144.636.359.894.198.237.383.422.385.754.003.823-.693 1.627-1.328 2.054-.706.473-1.524.753-2.363.868-.466.063-.943.086-1.414.081-.854-.008-1.73-.109-2.534-.413-.392-.148-.723-.317-1.003-.633-.22-.248-.424-.515-.574-.81l.01.016c-.485-1.072-1.582-8.413 7.131-7.143.663.097 1.514.389 2.152.059.678-.349.954-1.208.604-1.886-.324-.628-.934-.769-1.579-.75-.912.026-1.828.034-2.735.139-1.575.183-3.068.674-4.32 1.663l-.1.08c.37-.705.883-1.313 1.439-1.875.514-.519.689-1.275.342-1.94-.36-.689-1.19-1.025-1.929-.783-.646.212-1.042.871-1.351 1.438-.955 1.758-1.453 3.67-1.59 5.665-.122 1.789-.036 3.775.872 5.37l.037.065c-.213-.129-.396-.274-.573-.448l.016.013c-.972-1.141-1.255-2.812-1.513-4.245-.34-1.891-.609-3.815-1.49-5.547-.666-1.311-1.54-2.39-2.659-3.325-.498-.417-1.127-.63-1.813-.533-.766.107-1.39.716-1.513 1.479-.139.852.34 1.523 1.047 1.931.715.412 1.356 1.017 1.867 1.711.675.917 1.146 1.949 1.637 2.972.507 1.058.938 2.133 1.369 3.223-.87-.928-1.98-2.214-3.344-2.312-.609-.045-1.22.098-1.787.311-.216.081-.357.131-.582.137l-.538.029c-2.387.189-4.71 1.099-6.57 2.609.474-1.804 2.304-2.75 3.959-3.241 1.049-.312 2.157-.509 3.253-.553-.748-.444-1.656-.677-2.517-.738-1.83-.133-3.52.647-4.848 1.87-.991.912-1.767 2.052-2.296 3.289-.075.175-.582 1.185-.37 1.316.707.439 1.559.677 2.384.733 1.745.119 3.298-.647 4.616-1.731 1.062-.872 2.137-1.766 3.06-2.789.667-.36 1.53-.729 2.307-.579.914.176 1.655.983 2.254 1.643.989 1.09 3.41 4.723 5.928 5.592-1.021.04-2.066.135-3.034.484-.424.153-.834.355-1.201.617-.2.143-.354.309-.583.396-.725.274-1.424.617-2.101.995-2.733 1.526-5.101 3.69-6.948 6.213l-.354.496c1.031-2.654 3.156-4.853 5.243-6.72 1.197-1.071 2.46-2.093 3.794-2.99-1.639-.193-3.411.604-4.729 1.489-2.998 2.016-5.06 5.384-6.454 8.65-.438 1.024-.819 2.075-1.119 3.148l-.154.599c-.01.043.141.056.174.062 1.651.35 3.432-.173 4.847-1.021 1.475-.882 2.681-2.159 3.672-3.55 1.003-1.408 1.958-2.861 2.86-4.337.588-.96 1.03-2.083 1.947-2.779 1.603-1.218 3.902-1.025 5.794-.942 1.06.047 2.121.115 3.183.107.252-.002.505-.008.757-.021.14.159.271.327.392.502.276.397.52.834.676 1.294.154.456.214.935.21 1.415-.015.412-.018.951-.268 1.3-.302.421-.94.567-1.412.639-1.57.238-3.234.034-4.833.066-2.034.042-4.104.573-5.373 2.284-.904 1.164-2.393 4.832-.405 7.541.229.312.494.604.832.795 1.395.788 3.207-.089 3.458-1.669.259-1.628-1.274-3.043-2.878-2.64-.285.071-.557.198-.796.37 1.416-4.055 4.291-4.135 5.797-4.338.95-.127 1.91-.146 2.868-.119.633.018 1.281.079 1.914.021 1.729-.161 3.35-1.115 3.46-3.024.05-.873-.297-1.682-.794-2.381-.542-.763-1.172-1.486-1.84-2.142 1.306-.165 2.643-.574 3.589-1.536.168-.17.495-.446.443-.693-.077-.374-.143-.751-.193-1.129-.1-.73-.15-1.466-.15-2.201z"/><path fill="#AF1E23" d="M36.566 41.268l.078.375c.067.554-.07 1.122-.381 1.585-.154.229-.349.431-.573.593-.119.086-.246.161-.38.224l-.095.041-.105-.062-.218-.112c-.312-.146-.646-.237-.989-.271-.09-.009-.082-.01-.1-.099l-.029-.138-.07-.244c-.046-.14-.103-.275-.169-.407-.271-.536-.703-.984-1.224-1.283.396-.278.725-.652.95-1.082.109-.208.195-.429.254-.656.24-.088.492-.139.748-.145 1.048-.026 2.062.655 2.303 1.681zm-15.938 10.76c-.813.891-.806 2.294.018 3.173.772.825 2.065.978 3.007.35.306-.204.562-.481.743-.802l.118-.242-.278-.23c-.167-.156-.332-.328-.445-.52-.956.125-2.601-.54-3.163-1.729zm5.82-1.11c-.074 1.162-.83 2.205-1.908 2.643.82.963 2.314 1.091 3.284.277.204-.172.378-.378.513-.608.067-.114.125-.234.172-.358l.063-.189.025-.097-.045-.109c-.487-.371-.857-.885-1.052-1.465-.088.007-.708-.001-1.052-.094zm3.836-3.21c.116 1.385-.757 2.712-2.074 3.155.477 1.275 2.006 1.884 3.232 1.276.494-.245.89-.666 1.107-1.172.108-.251.172-.521.188-.795.007-.134.003-.269-.013-.402-.007-.059-.001-.16-.06-.18l-.23-.086c-.782-.327-1.41-.979-1.701-1.776-.006 0-.298-.027-.449-.02zm1.704-5.599c-.404-.236-.87-.351-1.338-.32.36 1.456-.429 3.007-1.818 3.569.284.176.541.396.756.653l.147.192.226.103c.155.06.317.103.482.128.593.093 1.209-.05 1.701-.395.924-.647 1.253-1.902.77-2.921-.103-.218-.239-.418-.404-.593l-.261-.239-.142-.104-.119-.073zm3.764 3.645c-.331-.769-1.069-1.309-1.9-1.396-.108 1.385-1.17 2.548-2.538 2.781.112.565.436 1.079.898 1.423l-.007-.008c.183.183.493.299.735.371.259.077.534.11.805.095.518-.031 1.02-.237 1.408-.579.756-.668.996-1.764.599-2.687zm-5.418-9.119l-.199.027-.118.027.026.124c.03.15.049.303.056.456.015.317-.021.637-.105.943-.167.604-.521 1.151-1.003 1.551.566.271 1.045.715 1.354 1.262l.083.061.141-.014.279-.009c.197.003.394.027.586.068.26-.104.501-.258.708-.448.871-.805 1-2.186.277-3.132-.486-.637-1.283-.993-2.085-.916zm-6.498 2.508c.258 0 .516.035.766.101-.833-1.099-.814-2.647.034-3.73-1.051-.719-2.528-.443-3.248.604-.653.95-.506 2.276.35 3.054.119.108.249.204.388.285.062.037.153.113.219.076l.267-.132c.383-.171.803-.258 1.224-.258zm-2.147 3.99c.108.252.261.485.45.684l.131.125.193-.149c.121-.087.249-.164.382-.232.572-.292 1.231-.398 1.866-.299-.158-.635-.105-1.312.146-1.916.124-.294.293-.568.5-.812l.02-.086-.086-.072-.213-.151c-.152-.095-.313-.174-.482-.232-1.14-.392-2.423.173-2.905 1.273-.259.591-.259 1.274-.002 1.867zm3.884.401c.568 1.192 2.069 1.675 3.229 1.044.979-.534 1.457-1.737 1.098-2.796-.428-1.262-1.859-1.929-3.1-1.427-1.027.416-1.632 1.539-1.414 2.626l.074.279c.019.057.061.245.113.274zm-2.178 4.129c.265 0 .529.035.785.103.074-1.159.827-2.203 1.903-2.638-.273-.169-.521-.381-.731-.626-.101-.118-.193-.244-.275-.376-.04-.066-.154-.081-.227-.101l-.3-.062c-.631-.086-1.287.1-1.781.501-.894.723-1.125 2.025-.538 3.014l.169.246.068.083.202-.057c.237-.058.48-.087.725-.087zm0 5.4c1.089 0 2.061-.783 2.288-1.849.027-.129.045-.26.05-.391l-.003-.203-.213-.133c-.248-.168-.471-.373-.66-.605-.191-.235-.348-.499-.461-.78-.059-.144-.104-.291-.14-.441l-.026-.122-.118-.041-.286-.074c-1.111-.212-2.244.438-2.63 1.5-.376 1.032.04 2.217.974 2.793.366.226.794.346 1.225.346zm6.029-5.918c-.472-1.251-1.942-1.865-3.162-1.31-1.01.46-1.564 1.609-1.3 2.686.33 1.341 1.801 2.115 3.091 1.636 1.039-.387 1.676-1.492 1.489-2.585-.025-.147-.066-.289-.118-.427zm-3.413-7.642c.141.068.285.122.436.162.157.043.352-.076.51-.114.372-.091.755-.109 1.134-.058 1.073-.537 1.566-1.842 1.124-2.955-.498-1.248-1.999-1.826-3.206-1.234-.997.488-1.519 1.654-1.223 2.724l.01.032c.103.367.629 1.16 1.215 1.443zm95.853 1.165c.256.006.508.058.747.146.06.227.146.447.255.656.226.429.553.803.95 1.082-.521.298-.952.747-1.224 1.283-.066.132-.123.268-.17.407l-.069.244-.03.137c-.017.09-.009.091-.1.1-.342.033-.678.126-.989.271l-.217.112-.105.062-.095-.042c-.134-.062-.262-.137-.381-.223-.224-.162-.419-.364-.572-.594-.311-.463-.448-1.03-.381-1.584l.077-.376c.243-1.024 1.257-1.705 2.304-1.681zm10.474 14.173c-.114.191-.278.363-.445.519l-.278.23.118.243c.181.32.437.597.743.802.94.628 2.234.476 3.006-.35.823-.88.831-2.282.019-3.173-.564 1.188-2.208 1.854-3.163 1.729zm-3.711-2.746c-.194.58-.565 1.094-1.052 1.464l-.045.109.025.097.062.189c.047.125.104.245.172.359.135.229.31.437.514.607.97.814 2.464.686 3.284-.277-1.078-.437-1.835-1.48-1.908-2.642-.343.094-.963.102-1.052.094zm-3.232-3.283c-.291.797-.919 1.448-1.701 1.776l-.23.086c-.06.02-.053.121-.06.18-.016.134-.021.269-.013.402.015.273.079.543.187.795.218.506.614.927 1.107 1.171 1.227.608 2.757 0 3.232-1.276-1.316-.442-2.189-1.77-2.073-3.154-.152-.008-.443.02-.449.02zm-1.255-5.619l-.119.074-.143.104-.261.238c-.164.176-.301.376-.404.593-.483 1.019-.153 2.274.771 2.922.492.345 1.107.487 1.701.395.164-.026.326-.068.482-.128l.226-.103.147-.192c.215-.257.471-.478.756-.653-1.391-.563-2.18-2.114-1.819-3.569-.468-.031-.934.083-1.337.319zm-3.765 3.645c-.397.923-.156 2.02.599 2.686.389.343.891.549 1.408.579.271.017.546-.017.806-.095.242-.071.552-.188.734-.37l-.006.007c.463-.343.786-.856.898-1.423-1.368-.233-2.431-1.396-2.538-2.781-.831.088-1.57.628-1.901 1.397zm5.419-9.119c-.802-.077-1.599.278-2.086.917-.723.946-.593 2.327.278 3.132.206.19.447.343.708.448.192-.041.389-.065.585-.069l.28.009.14.015.083-.061c.31-.547.788-.991 1.355-1.263-.483-.398-.836-.946-1.003-1.55-.085-.307-.12-.626-.106-.943.008-.153.026-.307.056-.457l.027-.123-.119-.027-.198-.028zm7.724 2.764l.266.132c.065.037.157-.039.219-.076.139-.082.27-.178.388-.285.855-.777 1.004-2.104.351-3.054-.721-1.047-2.197-1.322-3.248-.604.848 1.084.866 2.633.034 3.73.25-.065.508-.1.766-.1.418.001.838.088 1.224.257zm.92 3.734c.258-.593.258-1.275-.002-1.868-.482-1.101-1.766-1.666-2.905-1.273-.17.059-.331.138-.482.232l-.213.15-.087.073.021.086c.207.242.376.518.499.812.253.604.306 1.281.147 1.916.635-.101 1.294.006 1.865.299.134.067.262.146.383.232l.192.148.132-.124c.189-.198.342-.432.45-.683zm-3.883.401c.052-.029.094-.217.112-.273l.074-.279c.219-1.087-.387-2.21-1.414-2.626-1.239-.502-2.671.165-3.1 1.427-.359 1.059.118 2.262 1.099 2.795 1.158.631 2.659.149 3.229-1.044zm2.903 4.216l.202.058.068-.083.169-.247c.587-.987.354-2.29-.538-3.014-.494-.4-1.15-.587-1.782-.5l-.299.062c-.073.02-.187.034-.228.1-.082.133-.174.259-.275.377-.209.245-.457.457-.731.626 1.076.435 1.829 1.479 1.903 2.638.256-.068.521-.103.785-.103.245-.001.489.028.726.086zm.5 4.967c.935-.576 1.35-1.762.975-2.794-.387-1.061-1.52-1.711-2.63-1.499l-.286.073-.118.042-.026.121c-.035.15-.082.299-.14.442-.113.281-.27.545-.461.78-.189.232-.413.437-.66.605l-.213.133-.004.202c.006.132.022.263.05.392.229 1.065 1.199 1.848 2.288 1.848.431 0 .859-.12 1.225-.345zm-7.255-5.572c-.052.139-.092.279-.117.426-.188 1.093.45 2.199 1.489 2.585 1.29.479 2.761-.295 3.09-1.635.266-1.077-.29-2.226-1.299-2.686-1.22-.556-2.691.058-3.163 1.31zm4.63-9.085l.009-.033c.296-1.069-.226-2.234-1.222-2.723-1.207-.592-2.709-.014-3.207 1.234-.441 1.113.052 2.418 1.124 2.955.379-.052.763-.033 1.135.058.158.038.352.157.509.114.151-.041.295-.094.436-.162.585-.284 1.111-1.076 1.216-1.443zm-82.648-1.832c-9.244 0-16.766-7.521-16.766-16.767 0-9.244 7.521-16.766 16.766-16.766 9.245 0 16.767 7.521 16.767 16.766-.001 9.246-7.522 16.767-16.767 16.767zm0-32.572c-8.715 0-15.806 7.091-15.806 15.806 0 8.716 7.091 15.807 15.806 15.807 8.716 0 15.807-7.091 15.807-15.807-.001-8.715-7.092-15.806-15.807-15.806zm0 2.88c-7.139 0-12.926 5.787-12.926 12.926 0 7.14 5.787 12.927 12.926 12.927 7.14 0 12.927-5.787 12.927-12.927-.001-7.139-5.788-12.926-12.927-12.926zm7.885 13.939l-.512.295v2.545l-2.108-1.816h-3.229v3.203h-.023l1.84 2.135h-2.545l-.295.512-1.013 1.758-1.012-1.758-.295-.512h-2.545l1.84-2.135h-.023v-3.203h-3.23l-2.109 1.816v-2.545l-.512-.295-1.757-1.013 1.757-1.012.512-.295v-2.545l2.109 1.816h3.229v-3.229l-1.816-2.109h2.545l.295-.511 1.012-1.758 1.013 1.758.295.511h2.545l-1.816 2.109v3.229h3.229l2.108-1.816v2.545l.512.295 1.758 1.012-1.759 1.013z"/></svg>