<svg xmlns="http://www.w3.org/2000/svg" width="2171.565" height="800" viewBox="0 0 2171.565 800"><path fill="#1899C5" d="M293.565 211.486l-82.5 354.545 217.454 50.91 207.949-77.161 195.015 56.06-86.418-354.84-165.5-45-123.029 55.124z"/><path fill="#127696" d="M428.519 616.941l207.949-77.161-56.903-343.78-123.029 55.124z"/><path d="M636.466 539.781l-207.95 77.16 11.05-144.2v-.01c1.62-.83 3.3-1.561 4.84-2.521 6.27-3.899 12.28-3.38 18.05.98 7.69 5.81 15.43 11.64 22 18.7 5.05 5.439 11.31 7.159 18.17 7.939 7.48.851 13.7 3.99 18.91 9.54 5.36 5.73 13.58 5.65 20.51 1.74 7.229-4.07 10.75-10.96 15.369-17.08.971-1.27 1.66-2.94 1.931-4.52 1.96-11.771 9.31-20.021 17.89-27.37 3.87-3.311 8.3-5.94 12.21-9.2 8.771-7.29 20.13-7.99 30.11-12.19l.2.07 16.71 100.962z" fill-rule="evenodd" clip-rule="evenodd" fill="#C46F01"/><path d="M771.056 347.722c-.101.159-.221.319-.38.479-8.551 1.82-8.011 2.55-9.32 11.28-1.4 9.31 1.37 19.25-4.57 28.03-4.569 6.76-11.43 10.93-16.729 16.8-.19.2-.59.22-.9.319-11.25 3.511-25.29-3.21-30.859-13.619-3.7-6.9-7.051-13.83-9.681-21.19-2.729-7.63-9.229-11.5-16.1-14.65-11.09-5.09-17.561-13.399-20.11-25.439-1.6-7.561-4.93-14.73-7.12-22.181-1.26-4.27-1.7-8.77-2.67-13.14-2.46-11.149-10.59-18.63-17.68-26.72-5.04-5.74-10.54-11.05-15.47-16.91-7.11-8.44-7.851-15.63-1.36-24.9 4.19-5.97 4.11-12.17 2.979-18.59l123.98 33.71 25.99 106.721zm-332.471 126.46c-7.04 2.39-12.84 7.29-20.09 9.46-14.52 4.359-28.71.39-37.84-11.53-6.99-9.12-12.45-19.19-17.26-29.58-2.84-6.15-1.82-12.2 2.77-17.05 3.66-3.87 6.89-8.061 10.32-12.101 5.27-6.21 12.18-10.06 19.48-13.43 8.66-3.979 10.15-8.01 6.72-17.04-.71-1.85-1.47-3.71-2.5-5.39-3.85-6.26-5.53-7.03-12.65-5-4.09 1.17-7.79 1.16-11.44-1.17-1.39-.891-2.87-1.221-4.71-.88-18.43 3.319-29.7-8.511-29.68-25.5.02-13.891-5.47-25.79-12.15-36.66-3.98-6.49-12.89-10.891-21.5-10.811-7.5.07-20.68-6.939-31.77-11.76l-65.22 280.29 217.45 50.91 11.05-144.2c-.33.491-.649.961-.98 1.442zm339.24 91.79c-9.88-10.721-20.819-20.351-30.55-31.28-7.88-8.86-19.09-14.13-29.54-19.87-8.85-4.84-16.39-10.43-20.43-20.45-3.17-7.84-9.21-13.96-16.24-19.06-5.56-4.04-11.5-7.8-15.38-13.811-10.61-16.41-26.01-23.21-45.16-22.399l-.77-.28 16.71 100.96 154.199 44.33c-5.198-7.901-10.349-15.451-12.839-18.14z" fill-rule="evenodd" clip-rule="evenodd" fill="#FF9000"/><g fill="#2C1600"><path d="M1014.824 446.562c-18.889 19.468-41.55 29.198-67.983 29.198-25.569 0-47.651-9.295-66.24-27.891-18.596-18.589-27.891-40.672-27.891-66.24 0-26.146 9.295-48.372 27.891-66.676 18.589-18.303 40.671-27.455 66.24-27.455 26.433 0 49.094 9.738 67.983 29.199l26.147-24.404v178.237l-26.147-23.968zm-67.983-135.095c-19.76 0-36.389 6.755-49.898 20.265-13.51 13.509-20.264 30.144-20.264 49.897 0 19.761 6.754 36.389 20.264 49.898 13.509 13.509 30.138 20.264 49.898 20.264 19.46 0 36.021-6.822 49.68-20.481 13.653-13.652 20.482-30.213 20.482-49.681 0-19.461-6.83-36.021-20.482-49.68-13.659-13.652-30.219-20.482-49.68-20.482zM1095.003 537.206c13.945 18.882 33.264 28.326 57.96 28.326 19.754 0 36.675-6.755 50.77-20.264 14.089-13.51 21.136-30.724 21.136-51.642v-49.244c-18.889 20.918-42.271 31.377-70.162 31.377-25.568 0-47.65-9.295-66.239-27.891-18.596-18.589-27.891-40.672-27.891-66.24 0-26.146 9.295-48.372 27.891-66.676 18.589-18.303 40.671-27.455 66.239-27.455 26.434 0 49.095 9.738 67.983 29.199l26.147-24.404v201.334c0 26.727-9.444 49.388-28.326 67.983-18.889 18.589-41.4 27.891-67.548 27.891-31.376 0-56.802-12.495-76.263-37.479l18.303-14.815zm59.703-225.739c-19.76 0-36.388 6.755-49.897 20.265-13.51 13.509-20.265 30.144-20.265 49.897 0 19.761 6.755 36.389 20.265 49.898 13.51 13.509 30.138 20.264 49.897 20.264 19.461 0 36.021-6.822 49.681-20.481 13.652-13.652 20.481-30.213 20.481-49.681 0-19.461-6.829-36.021-20.481-49.68-13.659-13.652-30.22-20.482-49.681-20.482zM1430.555 446.562c-18.889 19.468-41.55 29.198-67.983 29.198-25.568 0-47.65-9.295-66.239-27.891-18.597-18.589-27.891-40.672-27.891-66.24 0-26.146 9.294-48.372 27.891-66.676 18.589-18.303 40.671-27.455 66.239-27.455 26.434 0 49.095 9.738 67.983 29.199l26.147-24.404v178.237l-26.147-23.968zm-67.984-135.095c-19.76 0-36.388 6.755-49.897 20.265-13.51 13.509-20.265 30.144-20.265 49.897 0 19.761 6.755 36.389 20.265 49.898 13.51 13.509 30.138 20.264 49.897 20.264 19.461 0 36.021-6.822 49.681-20.481 13.652-13.652 20.481-30.213 20.481-49.681 0-19.461-6.829-36.021-20.481-49.68-13.659-13.652-30.22-20.482-49.681-20.482zM1482.844 470.53v-178.237l20.482 16.56c13.652-14.231 30.506-21.354 50.552-21.354s36.893 6.83 50.552 20.482c13.652 13.66 20.481 30.506 20.481 50.552v111.997h-23.968v-111.998c0-13.652-4.576-24.907-13.728-33.773-9.151-8.858-20.265-13.292-33.338-13.292-13.074 0-24.187 4.576-33.338 13.728s-13.728 20.265-13.728 33.338v111.997h-23.967zM1676.769 316.261h-32.248v-23.968h32.248v-50.116l23.969-11.767v61.883h31.812v23.968h-31.812v154.27h-23.969v-154.27zM1752.155 222.566h23.969v26.146h-23.969v-26.146zm0 69.727h23.969v178.237h-23.969v-178.237zM1889.863 287.498c26.147 0 48.373 9.152 66.676 27.455 18.304 18.304 27.455 40.529 27.455 66.676 0 25.568-9.151 47.651-27.455 66.24-18.303 18.596-40.528 27.891-66.676 27.891-25.568 0-47.65-9.295-66.239-27.891-18.597-18.589-27.891-40.672-27.891-66.24 0-26.146 9.294-48.372 27.891-66.676 18.589-18.303 40.671-27.455 66.239-27.455zm0 23.969c-19.76 0-36.388 6.755-49.897 20.265-13.51 13.509-20.265 30.144-20.265 49.897 0 19.761 6.755 36.389 20.265 49.898 13.51 13.509 30.138 20.264 49.897 20.264 19.461 0 36.021-6.822 49.681-20.481 13.652-13.652 20.481-30.213 20.481-49.681 0-19.461-6.829-36.021-20.481-49.68-13.659-13.652-30.22-20.482-49.681-20.482z"/></g></svg>