<?xml version="1.0" encoding="UTF-8" standalone="no"?>
<!DOCTYPE svg PUBLIC "-//W3C//DTD SVG 1.1//EN" "http://www.w3.org/Graphics/SVG/1.1/DTD/svg11.dtd">
<svg width="100%" height="100%" viewBox="0 0 105 70" version="1.1" xmlns="http://www.w3.org/2000/svg" xmlns:xlink="http://www.w3.org/1999/xlink" xml:space="preserve" xmlns:serif="http://www.serif.com/" style="fill-rule:evenodd;clip-rule:evenodd;stroke-linejoin:round;stroke-miterlimit:2;">
    <g>
        <path d="M81.53,32.277L80.944,32.277C80.944,31.514 80.827,30.87 80.593,30.343C80.358,29.817 80.027,29.382 79.597,29.04C79.168,28.698 78.655,28.45 78.06,28.293C77.463,28.137 76.805,28.059 76.082,28.059C75.028,28.059 74.198,28.2 73.593,28.483C72.988,28.767 72.539,29.089 72.246,29.45C71.953,29.811 71.767,30.167 71.689,30.519C71.612,30.87 71.572,31.115 71.572,31.251C71.572,31.993 71.723,32.564 72.026,32.965C72.329,33.365 72.734,33.673 73.242,33.887C73.769,34.102 74.34,34.287 74.955,34.443C75.57,34.6 76.288,34.785 77.107,35C77.693,35.157 78.274,35.317 78.85,35.483C79.427,35.649 79.943,35.878 80.402,36.172C80.861,36.464 81.232,36.836 81.515,37.285C81.798,37.734 81.94,38.32 81.94,39.042C81.94,39.803 81.779,40.448 81.457,40.975C81.135,41.502 80.715,41.931 80.197,42.263C79.68,42.596 79.094,42.835 78.44,42.981C77.786,43.127 77.137,43.2 76.492,43.2C74.481,43.2 72.963,42.762 71.939,41.882C70.913,41.004 70.4,39.618 70.4,37.723L70.986,37.723C70.986,39.422 71.46,40.667 72.407,41.458C73.353,42.249 74.716,42.644 76.492,42.644C77.039,42.644 77.6,42.581 78.177,42.454C78.752,42.327 79.275,42.121 79.743,41.839C80.212,41.556 80.597,41.189 80.9,40.74C81.203,40.291 81.354,39.745 81.354,39.101C81.354,38.436 81.203,37.9 80.9,37.489C80.597,37.079 80.207,36.743 79.728,36.479C79.25,36.215 78.699,36.006 78.074,35.849C77.449,35.693 76.815,35.537 76.171,35.381C75.448,35.205 74.813,35.039 74.267,34.883C73.72,34.726 73.232,34.551 72.802,34.356C72.178,34.082 71.718,33.702 71.426,33.213C71.132,32.726 70.986,32.071 70.986,31.251C70.986,30.841 71.074,30.412 71.25,29.963C71.426,29.514 71.718,29.103 72.129,28.733C72.539,28.362 73.066,28.059 73.711,27.824C74.355,27.59 75.145,27.473 76.082,27.473C77.762,27.473 79.089,27.853 80.066,28.616C81.042,29.377 81.53,30.598 81.53,32.277Z"/>
        <path d="M95.09,32.277L94.504,32.277C94.504,31.514 94.387,30.87 94.153,30.343C93.918,29.817 93.587,29.382 93.157,29.04C92.728,28.698 92.215,28.45 91.62,28.293C91.024,28.137 90.365,28.059 89.642,28.059C88.588,28.059 87.758,28.2 87.153,28.483C86.548,28.767 86.099,29.089 85.806,29.45C85.513,29.811 85.327,30.167 85.249,30.519C85.172,30.87 85.132,31.115 85.132,31.251C85.132,31.993 85.284,32.564 85.586,32.965C85.889,33.365 86.294,33.673 86.802,33.887C87.329,34.102 87.9,34.287 88.515,34.443C89.13,34.6 89.848,34.785 90.667,35C91.253,35.157 91.834,35.317 92.41,35.483C92.987,35.649 93.503,35.878 93.962,36.172C94.421,36.464 94.792,36.836 95.075,37.285C95.358,37.734 95.5,38.32 95.5,39.042C95.5,39.803 95.339,40.448 95.017,40.975C94.695,41.502 94.275,41.931 93.757,42.263C93.24,42.596 92.655,42.835 92,42.981C91.346,43.127 90.697,43.2 90.052,43.2C88.041,43.2 86.523,42.762 85.499,41.882C84.473,41.004 83.961,39.618 83.961,37.723L84.546,37.723C84.546,39.422 85.02,40.667 85.967,41.458C86.914,42.249 88.276,42.644 90.052,42.644C90.6,42.644 91.16,42.581 91.737,42.454C92.312,42.327 92.835,42.121 93.303,41.839C93.772,41.556 94.157,41.189 94.46,40.74C94.763,40.291 94.914,39.745 94.914,39.101C94.914,38.436 94.763,37.9 94.46,37.489C94.157,37.079 93.767,36.743 93.288,36.479C92.81,36.215 92.259,36.006 91.634,35.849C91.009,35.693 90.375,35.537 89.731,35.381C89.008,35.205 88.373,35.039 87.827,34.883C87.28,34.726 86.792,34.551 86.362,34.356C85.738,34.082 85.278,33.702 84.986,33.213C84.693,32.726 84.546,32.071 84.546,31.251C84.546,30.841 84.634,30.412 84.81,29.963C84.986,29.514 85.278,29.103 85.689,28.733C86.099,28.362 86.626,28.059 87.271,27.824C87.915,27.59 88.705,27.473 89.642,27.473C91.322,27.473 92.649,27.853 93.626,28.616C94.602,29.377 95.09,30.598 95.09,32.277Z"/>
        <path d="M49.489,42.879L48.903,42.879L48.903,27.824L49.489,27.824L49.489,31.544L49.548,31.544C49.685,30.978 49.9,30.446 50.192,29.948C50.485,29.45 50.876,29.016 51.364,28.645C51.852,28.273 52.433,27.981 53.106,27.766C53.78,27.552 54.566,27.454 55.464,27.473L55.464,28.059C54.429,28.001 53.537,28.142 52.785,28.483C52.033,28.826 51.413,29.293 50.925,29.89C50.436,30.485 50.075,31.173 49.841,31.954C49.607,32.735 49.489,33.536 49.489,34.356L49.489,42.879Z"/>
        <path d="M19.382,22.553L6.086,22.553L6.086,31.691L18.591,31.691L18.591,32.277L6.086,32.277L6.086,42.293L19.5,42.293L19.5,42.537L25.24,35.088L19.763,27.824L20.524,27.824L25.592,34.648L30.775,27.824L31.478,27.824L25.972,35.088L32.005,42.879L31.273,42.879L25.592,35.527L19.938,42.879L5.5,42.879L5.5,21.967L19.382,21.967L19.382,22.553Z"/>
        <path d="M33.762,48.033L33.177,48.033L33.177,27.824L33.762,27.824L33.762,32.042L33.821,32.042C34.016,31.378 34.299,30.768 34.67,30.211C35.042,29.655 35.48,29.172 35.988,28.762C36.496,28.352 37.077,28.034 37.73,27.81C38.385,27.585 39.092,27.473 39.854,27.473C40.849,27.473 41.743,27.669 42.534,28.059C43.324,28.45 43.998,28.996 44.554,29.699C45.111,30.402 45.536,31.231 45.828,32.188C46.122,33.145 46.268,34.19 46.268,35.323C46.268,36.376 46.127,37.382 45.843,38.338C45.56,39.296 45.151,40.135 44.613,40.858C44.076,41.58 43.408,42.151 42.607,42.57C41.807,42.99 40.889,43.2 39.854,43.2C38.253,43.2 36.935,42.786 35.9,41.955C34.865,41.126 34.172,40.028 33.821,38.661L33.762,38.661L33.762,48.033ZM39.854,42.644C38.019,42.644 36.544,42.014 35.432,40.755C34.319,39.495 33.762,37.685 33.762,35.322C33.762,34.346 33.899,33.418 34.172,32.54C34.445,31.662 34.841,30.89 35.358,30.226C35.876,29.562 36.515,29.035 37.277,28.645C38.038,28.254 38.897,28.059 39.854,28.059C40.831,28.059 41.685,28.254 42.417,28.645C43.149,29.035 43.754,29.567 44.233,30.241C44.711,30.914 45.072,31.686 45.317,32.554C45.56,33.423 45.682,34.346 45.682,35.322C45.682,36.201 45.57,37.075 45.346,37.944C45.121,38.812 44.775,39.593 44.306,40.287C43.837,40.979 43.237,41.546 42.505,41.985C41.773,42.424 40.889,42.644 39.854,42.644Z"/>
        <path d="M56.196,35.469C56.216,36.484 56.338,37.426 56.563,38.294C56.787,39.163 57.134,39.92 57.602,40.565C58.07,41.209 58.676,41.716 59.418,42.088C60.16,42.459 61.067,42.644 62.142,42.644C63.723,42.644 65.036,42.229 66.081,41.399C67.126,40.57 67.774,39.325 68.028,37.665L68.614,37.665C68.4,39.422 67.706,40.784 66.535,41.751C65.363,42.718 63.918,43.2 62.2,43.2C61.029,43.22 60.028,43.034 59.198,42.644C58.368,42.253 57.69,41.702 57.163,40.99C56.636,40.276 56.245,39.437 55.991,38.471C55.738,37.504 55.61,36.464 55.61,35.352C55.61,34.102 55.796,32.989 56.167,32.013C56.538,31.036 57.026,30.211 57.632,29.538C58.237,28.864 58.939,28.352 59.74,28.001C60.541,27.649 61.361,27.473 62.2,27.473C63.372,27.473 64.382,27.698 65.232,28.147C66.081,28.596 66.774,29.191 67.311,29.934C67.847,30.675 68.238,31.525 68.482,32.481C68.727,33.438 68.829,34.434 68.79,35.469L56.196,35.469ZM68.204,34.883C68.204,33.965 68.077,33.091 67.823,32.262C67.57,31.432 67.194,30.704 66.696,30.08C66.198,29.455 65.578,28.962 64.836,28.601C64.094,28.24 63.235,28.059 62.259,28.059C61.439,28.059 60.673,28.215 59.959,28.528C59.247,28.84 58.622,29.293 58.085,29.89C57.548,30.485 57.114,31.202 56.782,32.042C56.45,32.881 56.255,33.828 56.196,34.883L68.204,34.883Z"/>
    </g>
</svg>
