<?xml version="1.0" encoding="UTF-8" standalone="no"?><!DOCTYPE svg PUBLIC "-//W3C//DTD SVG 1.1//EN" "http://www.w3.org/Graphics/SVG/1.1/DTD/svg11.dtd">
<svg width="100%" height="100%" viewBox="0 0 70 70" version="1.1"
  xmlns="http://www.w3.org/2000/svg"
  xmlns:xlink="http://www.w3.org/1999/xlink" xml:space="preserve"
  xmlns:serif="http://www.serif.com/" style="fill-rule:evenodd;clip-rule:evenodd;stroke-linejoin:round;stroke-miterlimit:1.41421;">
  <rect id="_-koa" serif:id="©koa" x="0" y="0" width="70" height="70" style="fill:#999;"/>
  <clipPath id="_clip1">
    <rect id="_-koa1" serif:id="©koa" x="0" y="0" width="70" height="70"/>
  </clipPath>
  <g clip-path="url(#_clip1)">
    <path d="M65.305,51.102l-1.331,0c-1.948,0 -3.279,-0.375 -3.995,-1.123c-0.659,-0.633 -0.988,-1.18 -0.988,-1.64l0,-0.907c-1.403,2.562 -3.651,3.843 -6.744,3.843c-3.609,0 -5.656,-1.641 -6.143,-4.922c-0.057,-0.345 -0.086,-0.698 -0.086,-1.058c0,-0.359 0.058,-0.755 0.172,-1.187c0.115,-0.432 0.444,-0.906 0.988,-1.424c1.088,-1.036 3.479,-1.669 7.174,-1.9c0.916,-0.086 1.761,-0.129 2.534,-0.129c0.773,0 1.475,0.029 2.105,0.086l0,-7.166c-0.058,-0.029 -0.058,-0.166 0,-0.41c0.057,-0.244 0.007,-0.561 -0.15,-0.949c-0.158,-0.389 -0.366,-0.77 -0.623,-1.145c-0.258,-0.374 -0.716,-0.698 -1.375,-0.971c-0.658,-0.273 -1.518,-0.41 -2.577,-0.41c-1.06,0 -2.298,0.194 -3.716,0.582c-1.418,0.39 -2.455,0.77 -3.114,1.145l-0.172,-0.302c2.549,-1.181 5.14,-1.77 7.775,-1.77c2.95,0 4.897,0.532 5.842,1.597c0.744,0.835 1.117,1.713 1.117,2.633l0,14.462c0,0.834 0.164,1.475 0.494,1.921c0.329,0.446 0.665,0.683 1.009,0.712l0.473,0.086l1.331,0l0,0.346Zm-32.947,0.173c-3.007,0 -5.455,-0.864 -7.345,-2.591c-1.89,-1.727 -2.835,-4.389 -2.835,-7.986c0,-3.597 0.981,-6.389 2.943,-8.375c1.961,-1.986 4.453,-2.978 7.474,-2.978c3.021,0 5.477,0.863 7.367,2.59c1.89,1.726 2.835,4.389 2.835,7.986c0,3.597 -0.981,6.389 -2.943,8.375c-1.962,1.985 -4.46,2.979 -7.496,2.979Zm-24.656,-32.55l0,21.498l9.45,-10.705l0.43,0l-7.002,7.942l9.235,13.642l-3.006,0l-7.947,-11.742l-1.16,1.338l0,10.404l-3.007,0l0,-32.377l3.007,0Zm45.232,32.204c1.518,0 2.886,-0.525 4.102,-1.575c1.217,-1.051 1.869,-2.066 1.955,-3.044l0,-5.223c-0.773,-0.058 -1.553,-0.087 -2.341,-0.087c-0.788,0 -1.568,0.043 -2.341,0.13c-2.177,0.259 -3.594,0.748 -4.253,1.467c-0.659,0.72 -0.988,1.713 -0.988,2.979c0,0.23 0.015,0.489 0.043,0.777c0.258,3.05 1.532,4.576 3.823,4.576Zm-20.275,-21.239c-2.176,0 -3.98,0.972 -5.412,2.914c-1.432,1.942 -2.148,4.648 -2.148,8.115c0,3.468 0.659,6.037 1.976,7.706c1.318,1.669 3.064,2.504 5.241,2.504c2.176,0 3.98,-0.971 5.412,-2.914c1.432,-1.942 2.147,-4.648 2.147,-8.116c0,-3.468 -0.658,-6.036 -1.975,-7.705c-1.318,-1.67 -3.064,-2.504 -5.241,-2.504Z" style="fill-rule:nonzero;"/>
  </g>
</svg>