<?xml version="1.0" encoding="UTF-8" standalone="no"?><!DOCTYPE svg PUBLIC "-//W3C//DTD SVG 1.1//EN" "http://www.w3.org/Graphics/SVG/1.1/DTD/svg11.dtd"><svg width="100%" height="100%" viewBox="0 0 105 70" version="1.1" xmlns="http://www.w3.org/2000/svg" xmlns:xlink="http://www.w3.org/1999/xlink" xml:space="preserve" xmlns:serif="http://www.serif.com/" style="fill-rule:evenodd;clip-rule:evenodd;stroke-linejoin:round;stroke-miterlimit:2;"><rect id="nuxt" x="0" y="0" width="105" height="70" style="fill:none;"/><rect x="0" y="0" width="105" height="70" style="fill:#999;"/><path d="M47.869,43.007l-3.038,-0l0,-16.877l2.926,0c0.391,0 0.815,0.213 1.012,0.563l4.051,6.863l2.025,3.6l-0,-10.576c-0,-0.282 0.248,-0.45 0.45,-0.45l3.038,0l-0,16.877l-3.038,-0c-0.367,-0 -0.812,-0.254 -1.013,-0.675l-4.388,-7.538c-1.012,-1.688 -1.575,-2.701 -1.575,-2.701l0,10.464c0,0.248 -0.207,0.45 -0.45,0.45Zm39.266,-12.151l1.463,-0c0.373,-0 0.675,-0.302 0.675,-0.675l0,-2.926l3.15,0l0,3.601l3.038,-0l0,2.7l-3.038,0l0,4.838c0,1.181 0.569,1.688 1.576,1.688l1.462,-0l0,2.925l-1.912,-0c-2.594,-0 -4.276,-1.68 -4.276,-4.5l0,-4.951l-2.138,0l0,-2.7Zm-15.189,-0l0,6.975c0,1.576 -0.591,2.904 -1.462,3.826c-0.871,0.921 -2.074,1.35 -3.713,1.35c-1.639,-0 -2.954,-0.429 -3.825,-1.35c-0.857,-0.922 -1.463,-2.25 -1.463,-3.826l-0,-6.975l1.8,-0c0.384,-0 0.762,0.07 1.013,0.337c0.251,0.253 0.337,0.401 0.337,0.788l0,5.85c0,0.907 0.052,1.467 0.45,1.913c0.399,0.431 0.891,0.563 1.688,0.563c0.812,-0 1.176,-0.132 1.575,-0.563c0.399,-0.446 0.45,-1.006 0.45,-1.913l0,-5.85c0,-0.387 0.087,-0.633 0.338,-0.9c0.22,-0.235 0.453,-0.23 0.787,-0.225c0.046,0 0.179,-0 0.225,-0l1.8,-0Zm9.564,5.85l4.163,6.301l-2.925,-0c-0.366,-0 -0.696,-0.249 -0.901,-0.563l-2.137,-3.15l-2.025,3.038c-0.205,0.313 -0.535,0.675 -0.901,0.675l-2.925,-0l4.163,-6.413l-3.825,-5.738l2.812,-0c0.369,-0 0.809,0.245 1.013,0.562l1.688,2.588l1.8,-2.7c0.204,-0.318 0.531,-0.45 0.9,-0.45l2.925,-0l-3.825,5.85Z"/><path d="M24.354,43.007l12.489,-0c0.398,-0 0.78,-0.14 1.125,-0.338c0.345,-0.197 0.701,-0.445 0.9,-0.787c0.199,-0.342 0.338,-0.73 0.338,-1.125c-0.001,-0.395 -0.138,-0.783 -0.338,-1.125l-8.438,-14.514c-0.199,-0.342 -0.443,-0.59 -0.788,-0.788c-0.345,-0.197 -0.839,-0.337 -1.237,-0.337c-0.399,-0 -0.78,0.14 -1.125,0.337c-0.346,0.198 -0.589,0.446 -0.788,0.788l-2.138,3.713l-4.275,-7.201c-0.2,-0.342 -0.443,-0.703 -0.788,-0.9c-0.345,-0.198 -0.726,-0.225 -1.125,-0.225c-0.398,-0 -0.78,0.027 -1.125,0.225c-0.345,0.197 -0.701,0.558 -0.9,0.9l-10.464,18.002c-0.199,0.342 -0.224,0.73 -0.225,1.125c0,0.395 0.026,0.783 0.225,1.125c0.2,0.342 0.555,0.59 0.9,0.787c0.346,0.198 0.727,0.338 1.126,0.338l7.875,-0c3.121,-0 5.392,-1.4 6.976,-4.05l3.825,-6.639l2.026,-3.487l6.188,10.576l-8.214,-0l-2.025,3.6Zm-8.888,-3.6l-5.513,-0l8.213,-14.177l4.163,7.088l-2.758,4.807c-1.051,1.72 -2.25,2.282 -4.105,2.282Z" style="fill:#ccc;fill-rule:nonzero;"/></svg>