<?xml version="1.0" encoding="UTF-8" standalone="no"?><!DOCTYPE svg PUBLIC "-//W3C//DTD SVG 1.1//EN" "http://www.w3.org/Graphics/SVG/1.1/DTD/svg11.dtd"><svg width="100%" height="100%" viewBox="0 0 70 70" version="1.1" xmlns="http://www.w3.org/2000/svg" xmlns:xlink="http://www.w3.org/1999/xlink" xml:space="preserve" xmlns:serif="http://www.serif.com/" style="fill-rule:evenodd;clip-rule:evenodd;stroke-linejoin:round;stroke-miterlimit:2;"><rect id="vite" x="0" y="0" width="70" height="70" style="fill:none;"/><rect id="vite1" serif:id="vite" x="0" y="0" width="70" height="70" style="fill:#999;"/><path d="M62.562,15.303l-26.415,47.234c-0.545,0.975 -1.946,0.981 -2.5,0.01l-26.938,-47.239c-0.603,-1.058 0.302,-2.339 1.5,-2.125l26.443,4.727c0.168,0.03 0.341,0.03 0.51,-0.001l25.889,-4.719c1.195,-0.218 2.103,1.053 1.511,2.113Z" style="fill-rule:nonzero;"/><path d="M47.248,6.984l-19.548,3.83c-0.321,0.063 -0.559,0.335 -0.578,0.662l-1.203,20.308c-0.028,0.479 0.411,0.85 0.878,0.742l5.442,-1.256c0.51,-0.117 0.97,0.331 0.865,0.843l-1.617,7.918c-0.109,0.533 0.392,0.989 0.912,0.83l3.361,-1.021c0.522,-0.158 1.022,0.299 0.912,0.832l-2.57,12.437c-0.16,0.778 0.874,1.202 1.306,0.535l0.288,-0.445l15.929,-31.788c0.266,-0.532 -0.194,-1.139 -0.778,-1.026l-5.602,1.081c-0.527,0.101 -0.974,-0.389 -0.826,-0.904l3.656,-12.675c0.149,-0.516 -0.3,-1.006 -0.827,-0.903Z" style="fill:#ccc;fill-rule:nonzero;"/></svg>