<?xml version="1.0" encoding="UTF-8" standalone="no"?><!DOCTYPE svg PUBLIC "-//W3C//DTD SVG 1.1//EN" "http://www.w3.org/Graphics/SVG/1.1/DTD/svg11.dtd"><svg width="100%" height="100%" viewBox="0 0 70 70" version="1.1" xmlns="http://www.w3.org/2000/svg" xmlns:xlink="http://www.w3.org/1999/xlink" xml:space="preserve" xmlns:serif="http://www.serif.com/" style="fill-rule:evenodd;clip-rule:evenodd;stroke-linejoin:round;stroke-miterlimit:2;"><rect id="vitest" x="0" y="0" width="70" height="70" style="fill:none;"/><rect x="0" y="0" width="70" height="70" style="fill:#999;"/><path d="M48.715,24.473l-13.442,19.437c-0.143,0.206 -0.349,0.36 -0.587,0.44c-0.239,0.079 -0.497,0.078 -0.735,-0.002c-0.237,-0.08 -0.443,-0.235 -0.584,-0.441c-0.141,-0.207 -0.211,-0.454 -0.198,-0.704l0.538,-10.73l-8.686,-1.842c-0.185,-0.04 -0.358,-0.124 -0.503,-0.246c-0.145,-0.122 -0.258,-0.277 -0.328,-0.453c-0.07,-0.175 -0.095,-0.365 -0.074,-0.553c0.021,-0.188 0.089,-0.368 0.197,-0.524l13.442,-19.436c0.143,-0.206 0.349,-0.361 0.588,-0.44c0.238,-0.079 0.496,-0.078 0.734,0.002c0.238,0.079 0.443,0.235 0.584,0.441c0.141,0.207 0.211,0.454 0.198,0.704l-0.538,10.731l8.686,1.842c0.185,0.039 0.358,0.123 0.504,0.245c0.145,0.122 0.257,0.277 0.327,0.453c0.07,0.175 0.095,0.365 0.074,0.553c-0.021,0.188 -0.089,0.368 -0.197,0.524l0,-0.001Z" style="fill:#ccc;fill-rule:nonzero;"/><path d="M34.627,60.217c0.358,0 0.712,-0.07 1.042,-0.206c0.33,-0.137 0.63,-0.338 0.883,-0.591l12.702,-12.701c0.508,-0.511 0.793,-1.203 0.792,-1.923c-0.001,-0.721 -0.288,-1.412 -0.797,-1.921c-0.51,-0.51 -1.201,-0.796 -1.921,-0.797c-0.721,-0.001 -1.412,0.283 -1.924,0.791l-10.777,10.777l-23.479,-23.478c-0.512,-0.504 -1.202,-0.785 -1.92,-0.782c-0.718,0.003 -1.406,0.29 -1.914,0.797c-0.507,0.508 -0.794,1.196 -0.797,1.914c-0.003,0.718 0.278,1.408 0.782,1.92l25.404,25.403c0.252,0.253 0.552,0.454 0.882,0.591c0.331,0.136 0.685,0.206 1.042,0.206Z" style="fill:#ccc;fill-rule:nonzero;"/><path d="M34.638,60.217c-0.358,0 -0.712,-0.07 -1.042,-0.206c-0.33,-0.137 -0.63,-0.338 -0.883,-0.591l-12.702,-12.701c-0.508,-0.511 -0.793,-1.203 -0.792,-1.923c0.001,-0.721 0.288,-1.412 0.797,-1.921c0.51,-0.51 1.201,-0.796 1.921,-0.797c0.721,-0.001 1.412,0.283 1.923,0.791l10.778,10.777l23.479,-23.478c0.512,-0.504 1.202,-0.785 1.92,-0.782c0.718,0.003 1.406,0.29 1.913,0.797c0.508,0.508 0.795,1.196 0.798,1.914c0.002,0.718 -0.278,1.408 -0.782,1.92l-25.404,25.403c-0.252,0.253 -0.552,0.454 -0.882,0.591c-0.331,0.136 -0.685,0.206 -1.042,0.206Z" style="fill-rule:nonzero;"/></svg>