<?xml version="1.0" encoding="UTF-8" standalone="no"?><!DOCTYPE svg PUBLIC "-//W3C//DTD SVG 1.1//EN" "http://www.w3.org/Graphics/SVG/1.1/DTD/svg11.dtd">
<svg width="100%" height="100%" viewBox="0 0 105 70" version="1.1"
  xmlns="http://www.w3.org/2000/svg"
  xmlns:xlink="http://www.w3.org/1999/xlink" xml:space="preserve"
  xmlns:serif="http://www.serif.com/" style="fill-rule:evenodd;clip-rule:evenodd;stroke-linejoin:round;stroke-miterlimit:1.41421;">
  <rect id="_-webpack" serif:id="©webpack" x="0" y="0" width="105" height="70" style="fill:#999;"/>
  <clipPath id="_clip1">
    <rect id="_-webpack1" serif:id="©webpack" x="0" y="0" width="105" height="70"/>
  </clipPath>
  <g clip-path="url(#_clip1)">
    <path d="M26.947,62.357l2.615,0l2.665,-8.879l-2.548,0l-1.578,6.3l-1.683,-6.3l-2.206,0l-1.698,6.3l-1.562,-6.3l-2.548,0l2.65,8.879l2.613,0l1.648,-5.688l1.632,5.688Zm5.416,-4.414c0,2.665 1.816,4.636 4.67,4.636c2.209,0 3.397,-1.325 3.737,-1.952l-1.547,-1.173c-0.253,0.375 -0.951,1.087 -2.158,1.087c-1.309,0 -2.259,-0.849 -2.31,-2.037l6.252,0c0.016,-0.171 0.016,-0.339 0.016,-0.511c0,-2.902 -1.562,-4.737 -4.313,-4.737c-2.531,0 -4.347,2.003 -4.347,4.687Zm2.462,-0.97c0.101,-1.017 0.814,-1.799 1.92,-1.799c1.071,0 1.85,0.712 1.901,1.799l-3.821,0Zm7.082,5.384l2.208,0l0,-0.915c0.238,0.288 1.122,1.137 2.634,1.137c2.547,0 4.347,-1.917 4.347,-4.652c0,-2.751 -1.663,-4.667 -4.211,-4.667c-1.527,0 -2.412,0.849 -2.633,1.153l0,-4.331l-2.342,0l0,12.275l-0.003,0Zm2.275,-4.414c0,-1.663 0.986,-2.614 2.275,-2.614c1.359,0 2.275,1.071 2.275,2.614c0,1.578 -0.95,2.564 -2.275,2.564c-1.426,0 -2.275,-1.157 -2.275,-2.564Zm7.827,7.59l2.342,0l0,-4.095c0.222,0.288 1.102,1.138 2.633,1.138c2.548,0 4.211,-1.917 4.211,-4.668c0,-2.715 -1.799,-4.652 -4.347,-4.652c-1.512,0 -2.396,0.85 -2.633,1.154l0,-0.935l-2.209,0l0,12.058l0.003,0Zm2.275,-7.641c0,-1.41 0.849,-2.563 2.275,-2.563c1.325,0 2.275,0.985 2.275,2.563c0,1.547 -0.915,2.615 -2.275,2.615c-1.29,0 -2.275,-0.951 -2.275,-2.615Zm7.336,1.714c0,1.867 1.527,2.973 3.327,2.973c1.02,0 1.698,-0.304 2.158,-0.798l0.152,0.576l2.072,0l0,-5.621c0,-1.987 -0.849,-3.48 -3.701,-3.48c-1.359,0 -2.7,0.511 -3.498,1.053l0.884,1.596c0.662,-0.339 1.476,-0.627 2.361,-0.627c1.036,0 1.612,0.526 1.612,1.309l0,0.577c-0.322,-0.222 -1.02,-0.491 -1.92,-0.491c-2.072,-0.004 -3.447,1.184 -3.447,2.933Zm2.342,-0.069c0,-0.729 0.627,-1.239 1.527,-1.239c0.9,0 1.546,0.46 1.546,1.239c0,0.748 -0.646,1.223 -1.528,1.223c-0.88,0 -1.545,-0.491 -1.545,-1.223Zm11.055,0.97c-1.476,0 -2.529,-1.071 -2.529,-2.58c0,-1.426 0.935,-2.598 2.447,-2.598c1.001,0 1.682,0.491 2.072,0.849l0.662,-1.971c-0.577,-0.44 -1.495,-0.951 -2.801,-0.951c-2.7,0 -4.721,1.988 -4.721,4.687c0,2.7 1.971,4.636 4.737,4.636c1.29,0 2.259,-0.542 2.767,-0.951l-0.628,-1.917c-0.393,0.32 -1.106,0.796 -2.006,0.796Zm3.514,1.85l2.342,0l0,-4.585l2.972,4.585l2.751,0l-3.362,-4.858l3.124,-4.024l-2.633,0l-2.852,3.736l0,-7.129l-2.342,0l0,12.275Z" style="fill-rule:nonzero;"/>
    <path d="M52.5,7.468l18.833,10.652l0,21.309l-18.833,10.653l-18.833,-10.653l0,-21.309l18.833,-10.652Zm-15.528,31.226l14.847,8.4l0,-6.541l-9.256,-5.09l-5.591,3.231Zm16.151,8.4l14.847,-8.4l-5.596,-3.231l-9.251,5.09l0,6.541Zm15.864,-9.319l0,-17.563l-5.431,3.139l0,11.29l5.431,3.134Zm-27.601,-3.134l0,-11.29l-5.431,-3.139l0,17.563l5.431,-3.134Zm0.676,-12.492l9.757,-5.367l0,-6.321l-15.227,8.613l5.392,3.119l0.078,-0.044Zm26.287,-3.075l-15.226,-8.613l0,6.321l9.757,5.363l0.078,0.043l5.391,-3.114Z" style="fill:#ccc;fill-rule:nonzero;"/>
    <path d="M51.819,39.064l-9.129,-5.021l0,-9.943l9.129,5.271l0,9.693Zm1.304,0l9.129,-5.017l0,-9.947l-9.129,5.271l0,9.693Zm-9.815,-16.112l9.163,-5.037l9.163,5.037l-9.163,5.29l-9.163,-5.29Z" style="fill-rule:nonzero;"/>
  </g>
</svg>