<?xml version="1.0" encoding="UTF-8" standalone="no"?><!DOCTYPE svg PUBLIC "-//W3C//DTD SVG 1.1//EN" "http://www.w3.org/Graphics/SVG/1.1/DTD/svg11.dtd"><svg width="100%" height="100%" viewBox="0 0 105 70" version="1.1" xmlns="http://www.w3.org/2000/svg" xmlns:xlink="http://www.w3.org/1999/xlink" xml:space="preserve" xmlns:serif="http://www.serif.com/" style="fill-rule:evenodd;clip-rule:evenodd;stroke-linejoin:round;stroke-miterlimit:1.41421;"><rect id="_-parcel" serif:id="©parcel" x="0" y="0" width="105" height="70" style="fill:#999;"/><clipPath id="_clip1"><rect id="_-parcel1" serif:id="©parcel" x="0" y="0" width="105" height="70"/></clipPath><g clip-path="url(#_clip1)"><path d="M63.717,26.218c2.017,0 3.41,1.399 3.41,3.426l0,2.799l-3.458,0l0,-2.123c0,-0.531 -0.289,-0.821 -0.817,-0.821l-3.748,0c-0.527,0 -0.816,0.29 -0.816,0.821l0,9.361c0,0.53 0.289,0.82 0.816,0.82l3.748,0c0.528,0 0.817,-0.29 0.817,-0.82l0,-2.123l3.458,0l0,2.798c0,2.027 -1.393,3.426 -3.41,3.426l-5.477,0c-2.018,0 -3.41,-1.399 -3.41,-3.426l0,-10.712c0,-2.027 1.392,-3.426 3.41,-3.426l5.477,0Zm-45.153,0.096c2.017,0.001 3.41,1.4 3.41,3.427l0,4.39c0,2.027 -1.393,3.426 -3.41,3.427l-5.38,0l0,6.128l-3.459,0l0,-17.372l8.839,0Zm69.457,0l0,14.091l7.254,0l0,3.281l-10.712,0l0,-17.372l3.458,0Zm-39.58,0c2.018,0.001 3.411,1.4 3.411,3.427l0,4.077c0,1.64 -0.913,2.871 -2.354,3.281l2.882,6.587l-3.723,0l-2.785,-6.442l-2.787,0l0,6.442l-3.459,0l0,-17.372l8.815,0Zm-16.668,0l5.573,17.372l-3.724,0l-1.128,-3.909l-5.597,0l-1.153,3.909l-3.578,0l5.572,-17.372l4.035,0Zm49.741,0l0,3.281l-7.855,0l0,3.571l6.365,0l0,3.281l-6.365,0l0,3.958l7.855,0l0,3.281l-11.314,0l0,-17.372l11.314,0Zm-15.876,4.778l0,-1.111c0,-1.495 -0.865,-2.364 -2.354,-2.364l-4.612,0c-1.489,0 -2.353,0.869 -2.353,2.364l0,10.038c0,1.495 0.864,2.364 2.353,2.364l4.612,0c1.489,0 2.354,-0.869 2.354,-2.364l0,-1.062l-0.481,0l0,1.062c0,1.205 -0.672,1.881 -1.873,1.881l-4.612,0c-1.201,0 -1.873,-0.676 -1.873,-1.881l0,-10.038c0,-1.205 0.672,-1.881 1.873,-1.881l4.612,0c1.201,0 1.873,0.676 1.873,1.881l0,1.111l0.481,0Zm-47.507,5.066c1.49,0 2.353,-0.869 2.353,-2.365l0,-3.715c0,-1.496 -0.864,-2.365 -2.353,-2.365l-6.917,0l0,14.574l0.48,0l0,-6.129l6.437,0Zm68.402,5.646l0,-14.091l-0.481,0l0,14.574l7.734,0l0,-0.483l-7.253,0Zm-6.509,-13.608l0,-0.483l-8.334,0l0,14.574l8.334,0l0,-0.483l-7.854,0l0,-6.756l6.365,0l0,-0.482l-6.365,0l0,-6.37l7.854,0Zm-32.015,7.673c1.489,0 2.354,-0.869 2.354,-2.365l0,-3.426c0,-1.496 -0.865,-2.365 -2.354,-2.365l-6.893,0l0,14.574l0.48,0l0,-6.418l5.284,0l2.786,6.418l0.504,0l-2.786,-6.418l0.625,0Zm-12.705,6.418l-4.444,-14.574l-2.209,0l-4.516,14.574l0.457,0l1.201,-3.91l7.877,0l1.178,3.91l0.456,0Zm-4.731,-14.091l2.954,9.699l-7.59,0l3.002,-9.699l1.634,0Zm0.984,8.3l-1.825,-6.37l-1.874,6.37l3.699,0Zm-13.426,-8.3c1.201,0.001 1.874,0.676 1.874,1.882l0,3.715c0,1.207 -0.673,1.882 -1.874,1.882l-6.437,0l0,-7.479l6.437,0Zm29.878,0c1.201,0.001 1.873,0.676 1.873,1.882l0,3.426c0,1.206 -0.672,1.882 -1.873,1.882l-6.413,0l0,-7.19l6.413,0Zm-30.31,6.08c0.528,0 0.816,-0.289 0.816,-0.82l0,-3.04c0,-0.531 -0.288,-0.821 -0.816,-0.821l-4.515,0l0,4.681l4.515,0Zm29.878,-0.265c0.528,0 0.816,-0.29 0.816,-0.821l0,-2.774c0,-0.531 -0.288,-0.821 -0.816,-0.821l-4.492,0l0,4.416l4.492,0Z"/></g></svg>