<svg viewBox="0 0 100 100" xmlns="http://www.w3.org/2000/svg" fill-rule="evenodd" clip-rule="evenodd" stroke-linejoin="round" stroke-miterlimit="1.414">
    <path d="M32.146 63.902h-.624V42.346h.624v4.499h.063a7.11 7.11 0 0 1 .906-1.953 6.875 6.875 0 0 1 1.406-1.546 6.057 6.057 0 0 1 1.858-1.015 6.921 6.921 0 0 1 2.265-.36c1.062 0 2.015.209 2.859.625.843.417 1.562 1 2.155 1.75.594.749 1.047 1.634 1.359 2.655.313 1.02.469 2.135.469 3.343 0 1.124-.151 2.197-.453 3.217-.302 1.021-.739 1.916-1.312 2.687a6.234 6.234 0 0 1-2.14 1.827c-.854.448-1.833.672-2.937.672-1.707 0-3.113-.442-4.217-1.328-1.104-.885-1.843-2.056-2.218-3.514h-.063v9.997zM56.076 50.5c.021 1.083.151 2.088.391 3.014.239.927.609 1.734 1.109 2.422a5.255 5.255 0 0 0 1.937 1.624c.791.396 1.759.594 2.905.594 1.687 0 3.087-.443 4.202-1.328 1.114-.885 1.806-2.213 2.077-3.983h.625c-.229 1.874-.969 3.327-2.218 4.358-1.25 1.031-2.791 1.546-4.624 1.546-1.249.021-2.317-.177-3.202-.593a5.641 5.641 0 0 1-2.171-1.765c-.562-.761-.979-1.656-1.25-2.687a13.096 13.096 0 0 1-.406-3.327c0-1.333.198-2.52.594-3.561.396-1.042.916-1.922 1.562-2.64a6.523 6.523 0 0 1 2.249-1.64 6.467 6.467 0 0 1 2.624-.563c1.25 0 2.328.24 3.234.719a6.358 6.358 0 0 1 2.218 1.906 7.93 7.93 0 0 1 1.249 2.717c.261 1.021.37 2.083.328 3.187H56.076zm27.023-3.405h-.625c0-.813-.125-1.5-.375-2.062a3.626 3.626 0 0 0-1.062-1.39 4.383 4.383 0 0 0-1.64-.797 8.294 8.294 0 0 0-2.109-.25c-1.125 0-2.01.151-2.655.453-.646.302-1.125.646-1.437 1.031-.313.385-.511.765-.594 1.14-.083.375-.125.636-.125.781 0 .792.161 1.401.484 1.828.323.427.755.755 1.297.984.562.229 1.171.427 1.827.593.656.167 1.422.365 2.296.594.625.167 1.245.338 1.859.515a6.281 6.281 0 0 1 1.656.735 3.8 3.8 0 0 1 1.187 1.187c.302.479.453 1.104.453 1.874 0 .812-.172 1.5-.515 2.062a4.242 4.242 0 0 1-1.344 1.374 5.757 5.757 0 0 1-1.874.766 9.499 9.499 0 0 1-2.078.234c-2.145 0-3.764-.468-4.857-1.406-1.094-.937-1.641-2.415-1.641-4.436h.625c0 1.812.505 3.14 1.515 3.983 1.01.844 2.463 1.266 4.358 1.266.583 0 1.182-.068 1.797-.203a5.536 5.536 0 0 0 1.671-.656c.5-.302.911-.693 1.234-1.172.323-.479.484-1.062.484-1.749 0-.709-.161-1.281-.484-1.719a3.811 3.811 0 0 0-1.25-1.077 7.297 7.297 0 0 0-1.765-.672c-.666-.167-1.343-.333-2.03-.5a51.857 51.857 0 0 1-2.031-.531 11.345 11.345 0 0 1-1.562-.562c-.666-.292-1.156-.698-1.468-1.219-.313-.52-.469-1.218-.469-2.093 0-.437.094-.895.281-1.374.188-.479.5-.917.938-1.312.437-.396.999-.719 1.687-.969.687-.25 1.53-.375 2.53-.375 1.791 0 3.207.406 4.249 1.219 1.041.812 1.562 2.114 1.562 3.905zm14.464 0h-.625c0-.813-.125-1.5-.375-2.062a3.626 3.626 0 0 0-1.062-1.39 4.383 4.383 0 0 0-1.64-.797 8.288 8.288 0 0 0-2.109-.25c-1.125 0-2.01.151-2.655.453-.646.302-1.125.646-1.437 1.031-.313.385-.511.765-.594 1.14-.083.375-.125.636-.125.781 0 .792.162 1.401.484 1.828.323.427.755.755 1.297.984.562.229 1.171.427 1.827.593.656.167 1.422.365 2.296.594.625.167 1.245.338 1.859.515a6.281 6.281 0 0 1 1.656.735 3.8 3.8 0 0 1 1.187 1.187c.302.479.453 1.104.453 1.874 0 .812-.172 1.5-.515 2.062a4.242 4.242 0 0 1-1.344 1.374 5.748 5.748 0 0 1-1.874.766 9.499 9.499 0 0 1-2.078.234c-2.145 0-3.764-.468-4.857-1.406-1.094-.937-1.64-2.415-1.64-4.436h.624c0 1.812.505 3.14 1.515 3.983 1.011.844 2.463 1.266 4.358 1.266.584 0 1.182-.068 1.797-.203a5.536 5.536 0 0 0 1.671-.656c.5-.302.911-.693 1.234-1.172.323-.479.484-1.062.484-1.749 0-.709-.161-1.281-.484-1.719a3.811 3.811 0 0 0-1.25-1.077 7.297 7.297 0 0 0-1.765-.672c-.666-.167-1.343-.333-2.03-.5a51.857 51.857 0 0 1-2.031-.531 11.345 11.345 0 0 1-1.562-.562c-.666-.292-1.156-.698-1.468-1.219-.312-.52-.469-1.218-.469-2.093 0-.437.094-.895.281-1.374.188-.479.5-.917.938-1.312.437-.396.999-.719 1.687-.969.687-.25 1.53-.375 2.53-.375 1.791 0 3.207.406 4.249 1.219 1.041.812 1.562 2.114 1.562 3.905zM48.922 58.404h-.625V42.346h.625v3.968h.063a6.235 6.235 0 0 1 .687-1.703 4.786 4.786 0 0 1 1.25-1.39c.52-.396 1.14-.708 1.858-.937.719-.229 1.557-.333 2.515-.313v.625c-1.104-.062-2.056.089-2.858.453a5.418 5.418 0 0 0-1.984 1.5 6.271 6.271 0 0 0-1.156 2.202 8.865 8.865 0 0 0-.375 2.562v9.091zM16.808 36.723H2.625v9.747h13.339v.625H2.625v10.684h14.308v.26l6.123-7.945-5.842-7.748h.812l5.405 7.279 5.529-7.279h.75l-5.873 7.748 6.435 8.31h-.781l-6.06-7.842-6.03 7.842H2V36.098h14.808v.625zm21.836 21.431c-1.957 0-3.53-.672-4.717-2.015-1.187-1.344-1.781-3.275-1.781-5.795 0-1.042.146-2.031.438-2.968a7.673 7.673 0 0 1 1.265-2.468 6.073 6.073 0 0 1 2.046-1.687c.812-.417 1.729-.625 2.749-.625 1.042 0 1.953.208 2.734.625a5.54 5.54 0 0 1 1.937 1.703c.51.718.895 1.541 1.156 2.467.26.927.39 1.911.39 2.953 0 .937-.12 1.869-.359 2.796a8.014 8.014 0 0 1-1.109 2.499 6.045 6.045 0 0 1-1.921 1.812c-.781.468-1.724.703-2.828.703zm30.24-8.279c0-.979-.135-1.911-.406-2.796a6.938 6.938 0 0 0-1.202-2.327 5.67 5.67 0 0 0-1.984-1.578c-.792-.385-1.708-.578-2.749-.578a6.05 6.05 0 0 0-2.453.5 5.8 5.8 0 0 0-1.999 1.453c-.573.635-1.036 1.4-1.39 2.296-.354.895-.562 1.905-.625 3.03h12.808z"/>
</svg>
