<svg viewBox="0 0 34 10" xmlns="http://www.w3.org/2000/svg" fill-rule="evenodd" clip-rule="evenodd" stroke-linejoin="round" stroke-miterlimit="1.414">
    <defs>
        <clipPath id="a">
            <path d="M0 0h33.6v9.6H0z"/>
        </clipPath>
    </defs>
    <g clip-path="url(#a)">
        <path d="M2.8 3.358L0 1.963v6.109l3.055 1.527V3.775L5.824 5.16 3.055 6.545l3.054 1.527V1.963L2.8.303v3.055zm15.527-1.395L15.273.436l-3.055 1.527v3.054l3.055 1.528-3.055 1.527 3.055 1.527 3.054-1.527V5.017L15.273 3.49l3.054-1.527zm4.582 1.466l-3.054-1.497v6.14l3.054 1.527 1.222-2.443 1.833.916V1.963L22.909.436v2.993zm4.836-1.313l2.8-1.395 2.485 1.242-2.485 1.242v.285L33.6 1.963 30.545.436l-3.054 1.527v6.109l3.054 1.527L33.6 8.072l-3.055-1.527v2.769l-2.8-1.395V2.116zM10.691 9.528V4.183L7.636 2.655v5.346l3.055 1.527zm9.418-1.609V2.38l2.8 1.395v5.549l-2.8-1.405zm-7.321.153l2.77-1.385 2.484 1.242-2.769 1.385-2.485-1.242zM.255 7.919V2.37L2.8 3.643v5.549L.255 7.919zm10.181-3.584v4.786L7.891 7.848V3.073l2.545 1.262zm12.728 1.864l.926.468-.926 1.863V6.199zm0-.286V.853l2.545 1.273v5.691l-1.273-1.272-1.272-.632zm7.381.632L33.6 5.017 30.545 3.49v3.055zM17.757 5.017L15.273 6.26V3.775l2.484 1.242zm-5.284-2.901l2.8-1.395 2.484 1.242-2.739 1.374v2.8l-2.545-1.272V2.116zM3.055 3.49V.721l2.8 1.395v2.769l-2.8-1.395zm4.581-1.598l3.055 1.527V1.892L7.636.364v1.528zm.255-.153V.782l2.545 1.273v.957L7.891 1.739z" fill-rule="nonzero"/>
    </g>
</svg>
