<svg viewBox="0 0 100 55" xmlns="http://www.w3.org/2000/svg" fill-rule="evenodd" clip-rule="evenodd" stroke-linejoin="round" stroke-miterlimit="1.414">
    <g fill="#445" fill-rule="nonzero">
        <path d="M8.2 2.553v33.202l14.596-16.534h.663L12.645 31.488l14.264 21.069h-4.644L9.992 34.422 8.2 36.489v16.068H3.556V2.553H8.2zM46.281 52.824c-4.644 0-8.425-1.334-11.344-4.001-2.919-2.667-4.379-6.778-4.379-12.334s1.515-9.868 4.545-12.935c3.029-3.067 6.877-4.6 11.543-4.6 4.666 0 8.459 1.333 11.378 4 2.919 2.667 4.379 6.779 4.379 12.335 0 5.556-1.515 9.867-4.545 12.934-3.03 3.067-6.888 4.601-11.577 4.601zm.465-33.337c-3.362 0-6.148 1.501-8.36 4.501-2.211 3-3.317 7.178-3.317 12.534 0 5.356 1.018 9.323 3.052 11.901 2.035 2.578 4.733 3.867 8.094 3.867 3.361 0 6.148-1.5 8.359-4.5 2.212-3 3.317-7.179 3.317-12.535s-1.017-9.323-3.051-11.901c-2.035-2.578-4.733-3.867-8.094-3.867zM95.11 52.557c-3.008 0-5.064-.578-6.17-1.734-1.017-.977-1.526-1.822-1.526-2.533v-1.4c-2.167 3.956-5.639 5.934-10.416 5.934-5.573 0-8.735-2.534-9.487-7.601a10.018 10.018 0 0 1-.133-1.634c0-.555.089-1.166.266-1.833.177-.667.685-1.4 1.526-2.2 1.68-1.6 5.373-2.578 11.079-2.934 1.415-.133 2.72-.2 3.914-.2s2.278.045 3.251.133V25.488c-.089-.045-.089-.256 0-.633.088-.378.011-.867-.232-1.467a9.28 9.28 0 0 0-.962-1.767c-.398-.578-1.106-1.078-2.123-1.5-1.017-.422-2.344-.634-3.981-.634-1.636 0-3.549.3-5.738.9-2.19.601-3.793 1.189-4.81 1.767l-.266-.466c3.937-1.823 7.939-2.734 12.008-2.734 4.556 0 7.563.822 9.023 2.467 1.15 1.289 1.725 2.645 1.725 4.067v22.335c0 1.289.254 2.278.763 2.967.508.689 1.028 1.056 1.559 1.1l.73.133h2.056v.534H95.11zm-17.05-.267c2.344 0 4.456-.811 6.335-2.433 1.88-1.623 2.886-3.19 3.019-4.701v-8.067a48.625 48.625 0 0 0-3.616-.133c-1.216 0-2.421.066-3.615.2-3.362.4-5.551 1.155-6.568 2.266-1.018 1.112-1.526 2.645-1.526 4.601 0 .355.022.755.066 1.2.398 4.711 2.366 7.067 5.905 7.067z"/>
    </g>
</svg>
