<svg viewBox="0 0 100 100" xmlns="http://www.w3.org/2000/svg" fill-rule="evenodd" clip-rule="evenodd" stroke-linejoin="round" stroke-miterlimit="1.414">
    <path d="M100 17.544C100 7.861 92.139 0 82.456 0H17.544C7.861 0 0 7.861 0 17.544v64.912C0 92.139 7.861 100 17.544 100h64.912C92.139 100 100 92.139 100 82.456V17.544z" fill="#54009d"/>
    <path d="M30.363 52.927c2.276 0 3.415-1.138 3.415-3.415s-1.139-3.415-3.415-3.415c-2.277 0-3.416 1.138-3.416 3.415s1.139 3.415 3.416 3.415zm55.496-2.805c-1.626.894-3.293 1.341-5.001 1.341-2.683 0-5.041-1.016-7.074-3.049-.488 3.903-1.626 6.139-3.415 6.709-.732 0-1.545-1.342-2.44-4.025-1.138-3.416-1.992-5.408-2.561-5.977 0 7.481-1.098 11.221-3.293 11.221-.488 0-1.179-1.463-2.074-4.391-.975-3.252-1.829-5.326-2.561-6.22-.488 7.969-2.033 11.953-4.635 11.953-.488 0-1.179-1.586-2.073-4.757-1.139-4.066-1.993-6.464-2.562-7.196 0 15.531-6.058 23.296-18.173 23.296-5.042 0-9.026-1.748-11.953-5.245-2.928-3.496-4.391-8.212-4.391-14.148 0-6.099 1.26-10.815 3.781-14.149 2.52-3.334 6.058-5 10.611-5 3.659 0 6.546 1.118 8.66 3.354 2.114 2.236 3.171 5.305 3.171 9.208 0 3.497-.691 6.424-2.073 8.782-1.708 2.928-4.188 4.391-7.44 4.391-1.789 0-3.334-.671-4.635-2.012-1.301-1.342-1.952-2.907-1.952-4.696 0-1.87.63-3.456 1.891-4.757 1.26-1.301 2.825-1.951 4.696-1.951 2.114 0 3.862.813 5.244 2.439v-.244l.244-2.927c.407-5.204-2.073-7.806-7.44-7.806-3.334 0-5.895 1.423-7.684 4.269-1.789 2.846-2.683 6.749-2.683 11.709 0 4.472 1.118 8.05 3.354 10.733 2.236 2.683 5.102 4.025 8.599 4.025 4.797 0 8.477-1.748 11.038-5.245 2.561-3.496 3.842-8.456 3.842-14.88 0-2.521-.122-4.431-.366-5.733 4.554.895 7.603 5.205 9.148 12.929.732-2.358 1.098-4.635 1.098-6.83 0-1.545-.326-3.497-.976-5.855 3.415.976 6.383 4.513 8.904 10.612.406-2.033.61-3.537.61-4.513 0-.732-.204-2.236-.61-4.513 3.496.976 6.098 4.391 7.806 10.246.813-1.058 1.219-2.481 1.219-4.269 0-.976-.122-2.074-.365-3.294.406.082 2.154 1.22 5.244 3.416 2.765 2.032 5.652 3.049 8.66 3.049h.61z" fill="#fff" fill-rule="nonzero"/>
</svg>
