<svg viewBox="0 0 110 95" xmlns="http://www.w3.org/2000/svg" fill-rule="evenodd" clip-rule="evenodd" stroke-linejoin="round" stroke-miterlimit="1.414">
    <path d="M55.701 3.486l28.887 16.34v32.686L55.701 68.851 26.814 52.512V19.826l28.887-16.34z" fill="#fff" fill-rule="nonzero"/>
    <path d="M79.43 51.384L56.657 64.268V54.236l14.189-7.808 8.584 4.956zm1.56-1.41V23.035l-8.33 4.815v17.317l8.33 4.807zm-49.107 1.41l22.773 12.884V54.236l-14.197-7.808-8.576 4.956zm-1.56-1.41V23.035l8.33 4.815v17.317l-8.33 4.807zm.977-28.685L54.656 8.077v9.696L39.69 26.006l-.119.067-8.271-4.784zm48.712 0L56.657 8.077v9.696l14.965 8.226.12.067 8.27-4.777z" fill="#8ed6fb" fill-rule="nonzero"/>
    <path d="M54.656 51.952l-14.003-7.703v-15.25l14.003 8.084v14.869zm2.001 0l14.002-7.696V28.999l-14.002 8.084v14.869zM41.601 27.238l14.055-7.726 14.055 7.726-14.055 8.113-14.055-8.113zM16.506 87.68h4.01l4.088-13.619h-3.908l-2.421 9.663-2.581-9.663h-3.383l-2.605 9.663-2.396-9.663H3.402L7.466 87.68h4.009l2.528-8.724 2.503 8.724zm8.307-6.77c0 4.087 2.785 7.111 7.164 7.111 3.388 0 5.21-2.032 5.731-2.994l-2.372-1.799c-.389.574-1.459 1.667-3.31 1.667-2.008 0-3.466-1.302-3.544-3.125h9.59c.024-.262.024-.52.024-.783 0-4.452-2.396-7.266-6.615-7.266-3.883 0-6.668 3.072-6.668 7.189zm3.776-1.488c.156-1.56 1.249-2.76 2.946-2.76 1.643 0 2.838 1.093 2.916 2.76h-5.862zm10.863 8.258h3.388v-1.404c.365.442 1.721 1.745 4.039 1.745 3.908 0 6.669-2.941 6.669-7.136 0-4.219-2.552-7.159-6.46-7.159-2.342 0-3.699 1.302-4.039 1.769v-6.644h-3.592V87.68h-.005zm3.49-6.77c0-2.552 1.512-4.01 3.49-4.01 2.085 0 3.49 1.643 3.49 4.01 0 2.42-1.458 3.932-3.49 3.932-2.187 0-3.49-1.774-3.49-3.932zm12.006 11.641h3.592v-6.28c.34.442 1.691 1.745 4.039 1.745 3.908 0 6.459-2.941 6.459-7.16 0-4.165-2.76-7.135-6.668-7.135-2.319 0-3.675 1.303-4.039 1.769v-1.434h-3.388v18.495h.005zm3.49-11.719c0-2.163 1.302-3.932 3.489-3.932 2.032 0 3.49 1.511 3.49 3.932 0 2.372-1.404 4.01-3.49 4.01-1.978 0-3.489-1.458-3.489-4.01zm11.252 2.629c0 2.863 2.342 4.56 5.103 4.56 1.565 0 2.605-.467 3.31-1.225l.233.884h3.179v-8.622c0-3.048-1.302-5.337-5.677-5.337-2.085 0-4.141.783-5.366 1.614l1.356 2.449c1.016-.52 2.265-.962 3.621-.962 1.59 0 2.474.807 2.474 2.007v.885c-.495-.34-1.565-.753-2.945-.753-3.179-.005-5.288 1.817-5.288 4.5zm3.592-.106c0-1.118.962-1.901 2.342-1.901 1.381 0 2.372.705 2.372 1.901 0 1.147-.991 1.876-2.343 1.876-1.351 0-2.371-.754-2.371-1.876zm16.958 1.487c-2.265 0-3.879-1.643-3.879-3.957 0-2.187 1.434-3.985 3.752-3.985 1.536 0 2.581.753 3.179 1.302l1.016-3.023a6.935 6.935 0 0 0-4.297-1.458c-4.141 0-7.242 3.048-7.242 7.189s3.023 7.111 7.267 7.111c1.978 0 3.465-.832 4.243-1.459l-.963-2.94c-.602.491-1.696 1.22-3.076 1.22zm5.39 2.838h3.592v-7.033l4.559 7.033H108l-5.157-7.451 4.792-6.173h-4.039l-4.374 5.731V68.851H95.63V87.68z" fill="#1c78c0" fill-rule="nonzero"/>
</svg>
