<?xml version="1.0" encoding="UTF-8" standalone="no"?><!DOCTYPE svg PUBLIC "-//W3C//DTD SVG 1.1//EN" "http://www.w3.org/Graphics/SVG/1.1/DTD/svg11.dtd"><svg width="100%" height="100%" viewBox="0 0 100 100" version="1.1" xmlns="http://www.w3.org/2000/svg" xmlns:xlink="http://www.w3.org/1999/xlink" xml:space="preserve" xmlns:serif="http://www.serif.com/" style="fill-rule:evenodd;clip-rule:evenodd;stroke-linecap:round;stroke-linejoin:round;stroke-miterlimit:1.5;"><rect id="thaime-logo" x="0" y="0" width="100" height="100" style="fill:none;"/><g><path d="M100,17.544c0,-9.683 -7.861,-17.544 -17.544,-17.544l-64.912,0c-9.683,0 -17.544,7.861 -17.544,17.544l0,64.912c0,9.683 7.861,17.544 17.544,17.544l64.912,0c9.683,0 17.544,-7.861 17.544,-17.544l0,-64.912Z" style="fill:#5a4c30;"/><circle cx="50" cy="50" r="40.576" style="fill:#f9f6f1;stroke:#ae8b61;stroke-width:4.39px;"/><path d="M50,84.229l0,6.347" style="fill:#5a4c30;stroke:#ae8b61;stroke-width:2.44px;"/><path d="M50,9.424l0,6.347" style="fill:#5a4c30;stroke:#ae8b61;stroke-width:2.44px;"/><path d="M15.771,50l-6.347,0" style="fill:#5a4c30;stroke:#ae8b61;stroke-width:2.44px;"/><path d="M90.576,50l-6.347,0" style="fill:#5a4c30;stroke:#ae8b61;stroke-width:2.44px;"/><path d="M50.953,51.746c1.291,-0.742 1.61,-1.68 0.958,-2.817c-0.653,-1.136 -1.625,-1.333 -2.916,-0.592c-1.291,0.742 -1.61,1.681 -0.957,2.817c0.652,1.137 1.624,1.334 2.915,0.592Zm30.665,-19.478c-0.666,0.976 -1.483,1.742 -2.451,2.299c-1.522,0.874 -3.15,1.135 -4.886,0.782c0.843,2.107 0.838,3.594 -0.013,4.461c-0.415,0.238 -1.261,-0.167 -2.537,-1.214c-1.625,-1.334 -2.68,-2.05 -3.166,-2.149c2.145,3.734 2.595,5.958 1.35,6.673c-0.277,0.159 -1.089,-0.346 -2.435,-1.516c-1.486,-1.305 -2.564,-2.062 -3.236,-2.27c2.008,4.136 2.274,6.628 0.799,7.475c-0.277,0.159 -1.123,-0.407 -2.54,-1.698c-1.811,-1.658 -2.983,-2.577 -3.515,-2.757c4.453,7.751 3.244,13.599 -3.626,17.546c-2.859,1.642 -5.62,2.068 -8.282,1.277c-2.662,-0.792 -4.844,-2.669 -6.546,-5.631c-1.749,-3.043 -2.386,-5.808 -1.912,-8.293c0.473,-2.484 2.001,-4.469 4.583,-5.952c2.075,-1.192 4.032,-1.574 5.872,-1.147c1.84,0.427 3.32,1.615 4.439,3.563c1.002,1.745 1.449,3.431 1.341,5.058c-0.129,2.017 -1.115,3.555 -2.96,4.615c-1.014,0.582 -2.082,0.751 -3.205,0.505c-1.122,-0.246 -1.94,-0.815 -2.453,-1.708c-0.536,-0.933 -0.633,-1.93 -0.291,-2.989c0.341,-1.06 1.042,-1.895 2.103,-2.504c1.199,-0.689 2.423,-0.852 3.673,-0.491l-0.07,-0.122l-0.701,-1.54c-1.261,-2.73 -3.413,-3.22 -6.457,-1.472c-1.89,1.086 -2.934,2.63 -3.133,4.633c-0.198,2.003 0.413,4.243 1.836,6.718c1.282,2.232 2.941,3.653 4.979,4.264c2.037,0.611 4.047,0.346 6.03,-0.792c2.72,-1.563 4.305,-3.634 4.755,-6.214c0.45,-2.579 -0.246,-5.472 -2.087,-8.677c-0.723,-1.258 -1.34,-2.172 -1.851,-2.742c2.838,-1.037 5.803,0.12 8.894,3.472c-0.262,-1.415 -0.707,-2.67 -1.336,-3.766c-0.443,-0.771 -1.187,-1.639 -2.232,-2.604c2.216,-0.625 4.913,0.173 8.091,2.395c-0.352,-1.147 -0.668,-1.964 -0.948,-2.451c-0.21,-0.365 -0.756,-1.049 -1.64,-2.053c2.263,-0.652 4.717,0.205 7.364,2.57c0.158,-0.792 -0.019,-1.635 -0.532,-2.528c-0.28,-0.487 -0.664,-0.995 -1.152,-1.524c0.254,-0.092 1.572,-0.093 3.953,-0.004c2.151,0.114 4.079,-0.319 5.785,-1.299l0.346,-0.199Z" style="fill:#79d2d2;fill-rule:nonzero;"/><circle cx="31.445" cy="28.418" r="6.348" style="fill:#fff;"/><circle cx="69.853" cy="73.318" r="3.174" style="fill:#fff;"/><circle cx="37.493" cy="30.671" r="3.174" style="fill:#fff;"/></g></svg>