<svg viewBox="0 0 100 100" xmlns="http://www.w3.org/2000/svg" fill-rule="evenodd" clip-rule="evenodd" stroke-linejoin="round" stroke-miterlimit="1.414">
    <path d="M100 17.544C100 7.861 92.139 0 82.456 0H17.544C7.861 0 0 7.861 0 17.544v64.912C0 92.139 7.861 100 17.544 100h64.912C92.139 100 100 92.139 100 82.456V17.544z" fill="#4d419b"/>
    <path d="M29.772 68.243c0-14.875 9.646-18.27 18.415-18.27 7.19 0 12.452 1.455 18.415 3.88v17.139c-3.859 7.437-12.452 12.934-20.169 12.934-8.944 0-16.661-3.557-16.661-15.683zm62.786 18.109v-2.749l-3.508-.162c-6.489-.323-7.892-.485-7.892-21.504V37.2c0-17.462-16.836-25.385-34.024-25.385-17.537 0-27.183 6.629-27.183 14.714 0 4.688 3.683 8.084 9.295 8.084 4.735 0 8.769-3.396 8.769-8.084 0-4.528-2.982-6.306-2.982-8.085 0-2.102 3.333-3.719 12.277-3.719 12.802 0 19.292 6.306 19.292 17.301v18.755c-6.84-2.748-12.628-3.88-21.397-3.88-20.87 0-31.743 6.629-31.743 20.534 0 13.258 12.276 20.695 28.236 20.695 14.205 0 21.221-6.79 25.254-12.934v11.156h25.606z" fill="#fff" fill-rule="nonzero"/>
</svg>
