<svg xmlns="http://www.w3.org/2000/svg" width="24" height="24" viewBox="0 0 24 24">
    <path d="M23.982 8.164c-.006-.028-.011-.058-.019-.086l-.016-.051c-.009-.025-.017-.05-.027-.074l-.022-.051c-.011-.023-.022-.046-.035-.068-.009-.017-.02-.032-.029-.048-.014-.021-.028-.042-.044-.062a1.381 1.381 0 0 0-.086-.101l-.042-.04a.697.697 0 0 0-.059-.049c-.015-.012-.03-.024-.047-.035a.192.192 0 0 0-.017-.013L12.572.173a1.036 1.036 0 0 0-1.145 0L.459 7.485l-.017.014a.398.398 0 0 0-.046.035c-.021.016-.041.031-.059.048-.015.014-.028.026-.041.041a.69.69 0 0 0-.052.056c-.013.014-.023.029-.035.045l-.044.062c-.01.017-.02.031-.029.049a.61.61 0 0 0-.035.067c-.008.017-.016.033-.022.05a.954.954 0 0 0-.027.075l-.017.049a.817.817 0 0 0-.017.086l-.009.045A1.01 1.01 0 0 0 0 8.342v7.314c0 .045.003.09.01.135.002.016.006.028.01.044.005.029.01.059.02.088.004.016.01.032.016.05l.025.075c.007.016.017.032.023.048.011.023.022.046.035.069.009.017.02.032.029.047a.494.494 0 0 0 .045.062.696.696 0 0 0 .036.044c.017.02.032.039.052.056.013.013.025.029.042.039l.058.049c.016.014.032.023.046.035.006.004.009.01.016.013l10.966 7.316c.173.116.371.175.571.174s.398-.058.572-.174l10.969-7.312a.192.192 0 0 0 .017-.013c.017-.011.032-.023.047-.035a.958.958 0 0 0 .152-.146c.013-.014.023-.028.035-.044l.044-.062.029-.047c.013-.023.024-.046.035-.069.008-.017.016-.033.022-.05.011-.025.019-.05.027-.075l.016-.05c.008-.028.013-.058.019-.087l.008-.045c.005-.044.008-.089.008-.135V8.344c0-.046-.003-.09-.009-.135l-.011-.045h.002zM12 14.439L8.353 12 12 9.561 15.647 12 12 14.439zm-1.031-6.67L6.497 10.76 2.889 8.345l8.08-5.387v4.811zM4.643 12l-2.58 1.725v-3.45L4.643 12zm1.854 1.241l4.472 2.99v4.812l-8.08-5.388 3.608-2.414zm6.534 2.99l4.471-2.99 3.609 2.414-8.08 5.387v-4.811zM19.357 12l2.58-1.726v3.451L19.357 12zm-1.855-1.24l-4.471-2.99V2.958l8.08 5.387-3.609 2.415z"/>
</svg>
