<svg viewBox="0 0 100 100" xmlns="http://www.w3.org/2000/svg" fill-rule="evenodd" clip-rule="evenodd" stroke-miterlimit="10">
    <path fill="#cf4647" d="M0 0h100v100H0z"/>
    <path d="M54.462 55.856c.192-.713.392-1.377.636-1.974.532-1.363 1.031-2.693 1.563-4.023l1.462-3.656 6.612-16.651c.249-.664.598-1.137 1.047-1.429.452-.266.897-.399 1.353-.399.465 0 .864.133 1.243.432.366.286.565.765.565 1.42 0 .309-.066.638-.183.984-.133.332-.266.711-.465 1.106-.366.805-.798 1.795-1.296 2.972l-1.662 3.856c-.566 1.38-1.164 2.826-1.762 4.322l-1.795 4.387a165.649 165.649 0 0 0-1.629 4.036l-1.297 3.301-.103.109a14.72 14.72 0 0 0-.465 1.39c-.156.525-.233.997-.233 1.413 0 .259.044.465.133.621.087.156.253.233.499.233.309 0 .691-.106 1.153-.322.459-.217.954-.499 1.486-.858a22.334 22.334 0 0 0 1.662-1.217c.579-.465 1.154-.964 1.722-1.429a51.289 51.289 0 0 0 1.629-1.496c.519-.499.984-.964 1.396-1.363.113-.133.25-.199.412-.266.079-.032.152-.057.22-.074.197-.602.378-1.195.545-1.777l.465-1.317c.2-.565.432-1.13.698-1.662.266-.532.565-1.03.898-1.429.332-.399.698-.608 1.064-.608.598 0 1.02.133 1.283.398.266.293.399.665.399 1.197 0 .1-.014.266-.044.499-.033.232-.066.465-.119.714l-.143.699c-.033.232-.1.398-.133.498a30.16 30.16 0 0 1 1.755-1.745 19.67 19.67 0 0 1 1.961-1.562 10.517 10.517 0 0 1 2.061-1.147 5.282 5.282 0 0 1 2.094-.449c.499 0 .964.067 1.45.2.465.139.897.342 1.263.611.389.266.691.599.924.997.233.399.349.875.349 1.41 0 .708-.186 1.462-.532 2.26a15.321 15.321 0 0 1-1.349 2.427 27.162 27.162 0 0 1-1.749 2.377c-.632.764-1.197 1.462-1.762 2.094l-1.396 1.629c-.366.432-.565.731-.572.897 0 .2.067.366.2.499s.365.199.665.199c.259 0 .625-.149 1.097-.432.492-.299 1.163-.765 2.027-1.449.865-.698 1.981-1.596 3.314-2.759a339.16 339.16 0 0 0 4.943-4.345l-.256-.243c.21-.143.399-.256.576-.342.172-.086.342-.133.498-.133.323 0 .565.146.725.432.166.286.266.632.266 1.051 0 .448-.1.907-.299 1.372-.2.466-.466.858-.865 1.164a163.706 163.706 0 0 0-4.155 3.789c-1.23 1.141-2.36 2.121-3.457 2.942-1.097.831-2.161 1.463-3.191 1.928a7.939 7.939 0 0 1-3.324.698c-1.097 0-1.961-.232-2.56-.731-.598-.465-.897-1.13-.897-1.994v-.2c0-.033.033-.133.033-.199.066-.499.299-1.097.698-1.795.399-.665.864-1.363 1.429-2.095a52.42 52.42 0 0 1 1.795-2.193c.632-.732 1.197-1.43 1.762-2.095.532-.665.964-1.263 1.33-1.828.365-.532.532-.997.532-1.33a.659.659 0 0 0-.206-.498c-.157-.1-.399-.166-.732-.166-.598 0-1.196.166-1.815.465-.631.299-1.25.731-1.861 1.23a18.355 18.355 0 0 0-1.769 1.762c-.571.664-1.097 1.363-1.628 2.061a39.807 39.807 0 0 0-1.397 2.16c-.398.732-.764 1.396-1.063 1.995l-.366.798-.499 1.196-.598 1.33-.565 1.296-.465 1.097a7.666 7.666 0 0 1-.3.665c-.066.166-.166.465-.332.898l-.598 1.522-.698 1.828-.665 1.795-.565 1.523c-.166.432-.266.724-.299.881-.167.432-.333.864-.532 1.263-.2.399-.416.741-.672 1.044a3.153 3.153 0 0 1-.874.731 2.43 2.43 0 0 1-1.097.266c-.532 0-.964-.133-1.296-.372-.333-.233-.532-.732-.532-1.43 0-.332.033-.698.133-1.064.066-.365.199-.704.332-1.063.1-.366.266-.698.399-1.031.133-.332.266-.665.366-.984.764-1.728 1.579-3.457 2.393-5.205a457.747 457.747 0 0 0 2.36-5.153c.283-.638.558-1.272.825-1.902-.212.211-.426.421-.642.629a30.617 30.617 0 0 1-2.825 2.427 15.431 15.431 0 0 1-2.793 1.662c-.931.399-1.828.598-2.692.598-.599 0-1.097-.1-1.496-.299a2.811 2.811 0 0 1-.964-.798 3.331 3.331 0 0 1-.499-1.163 5.55 5.55 0 0 1-.067-.382c-.289.227-.58.444-.873.651a15.783 15.783 0 0 1-2.67 1.542c-.877.389-1.662.582-2.36.582s-1.273-.233-1.712-.698c-.439-.465-.658-1.263-.658-2.393 0-.798.12-1.729.352-2.793a13.23 13.23 0 0 1-1.422 2.028c-.565.698-1.22 1.33-1.948 1.895a9.22 9.22 0 0 1-2.453 1.363 8.525 8.525 0 0 1-2.959.532c-.475 0-.941-.067-1.386-.2-.465-.133-.864-.332-1.197-.631-.332-.3-.598-.698-.831-1.197-.199-.499-.299-1.13-.299-1.862l.067-.797c.066-.499.232-1.33.565-2.427a67.026 67.026 0 0 1 1.462-4.288c.665-1.762 1.563-3.856 2.759-6.349.299-.665.632-1.13 1.064-1.429.399-.3.831-.433 1.296-.433.2 0 .399.034.632.1.199.033.399.133.598.266.2.133.333.299.466.499.099.166.166.399.166.665 0 .166-.033.332-.067.465a8.076 8.076 0 0 1-.465 1.13l-.864 1.642c-.333.599-.665 1.263-1.031 1.968a26.858 26.858 0 0 0-.997 2.201 29.56 29.56 0 0 0-.798 2.327 9.851 9.851 0 0 0-.399 2.293c0 .333.067.598.2.864s.399.399.731.399c.931 0 1.862-.299 2.726-.93a12.024 12.024 0 0 0 2.393-2.321 23.393 23.393 0 0 0 1.995-2.991 37.343 37.343 0 0 0 1.462-2.906c.266-.588.532-1.22.732-1.894.199-.665.432-1.297.698-1.862.232-.565.532-1.05.864-1.429.299-.379.698-.565 1.197-.565.498 0 .93.199 1.23.598.299.399.465.864.465 1.429 0 .3-.1.732-.299 1.264-.2.531-.432 1.163-.732 1.861l-.964 2.25a31.329 31.329 0 0 0-.964 2.427 25.187 25.187 0 0 0-.764 2.407c-.2.797-.299 1.529-.299 2.194 0 .631.332.93.964.93.465 0 1.03-.133 1.695-.465.665-.299 1.363-.731 2.094-1.296.311-.241.622-.499.933-.775zm-23.989-4.989c-.056.086-.166.359-.316.814-.153.459-.339 1.03-.558 1.729-.219.688-.459 1.462-.711 2.316l-.788 2.62c-.299.891-.532 1.762-.798 2.619l-.665 2.32-.498 1.736-.233.831c-.1.276-.2.581-.366.92a9.268 9.268 0 0 1-.565.958c-.233.299-.465.555-.731.754-.266.2-.532.3-.831.3-.466 0-.798-.16-1.031-.466-.232-.316-.332-.884-.332-1.715v-.751c0-.276.133-.798.332-1.556.2-.765.432-1.622.732-2.58.266-.964.598-1.954.897-2.981l.898-2.793a45.39 45.39 0 0 1-2.527 2.56 24.58 24.58 0 0 1-2.759 2.294c-.964.665-1.928 1.23-2.892 1.662-.964.432-1.894.631-2.792.631-1.03 0-1.895-.232-2.626-.698-.731-.465-1.363-1.03-1.828-1.761a8.622 8.622 0 0 1-1.064-2.46c-.13-.861-.263-1.792-.263-2.69v-.332c0-.1.014-.209.034-.312.079-1.662.315-3.358.698-5.1a42.67 42.67 0 0 1 1.529-5.218 47.332 47.332 0 0 1 2.194-5.073c.864-1.582 1.761-3.145 2.725-4.607a35.945 35.945 0 0 1 3.092-4.056c1.097-1.236 2.217-2.3 3.371-3.191 1.15-.897 2.313-1.595 3.49-2.094 1.163-.499 2.327-.765 3.477-.765 1.33 0 2.613.366 3.856 1.087 1.23.742 2.393 1.905 3.484 3.534.246.366.398.731.465 1.103.066.366.1.722.1 1.048 0 .777-.183 1.396-.555 1.841-.366.466-.798.665-1.33.665-.465 0-.898-.233-1.297-.731a12.92 12.92 0 0 1-1.329-2.095c-.466-.831-.964-1.429-1.529-1.795a3.266 3.266 0 0 0-1.829-.531c-1.03 0-2.094.432-3.257 1.296-1.164.864-2.294 1.961-3.424 3.357a36.496 36.496 0 0 0-3.258 4.787 50.346 50.346 0 0 0-2.759 5.518c-.797 1.895-1.429 3.723-1.894 5.551-.466 1.829-.698 3.457-.698 4.92 0 .499.033.997.099 1.496.067.532.2.964.366 1.396.166.432.432.765.764 1.031.333.265.732.398 1.197.398.532 0 1.164-.166 1.828-.531a12.528 12.528 0 0 0 2.128-1.43 30.064 30.064 0 0 0 2.227-1.994c.731-.732 1.463-1.496 2.094-2.261.632-.764 1.23-1.496 1.695-2.194.499-.698.865-1.296 1.131-1.828l1.924-6.186c.246-.655.565-1.124.974-1.396.399-.279.808-.419 1.23-.419.2 0 .409.033.615.1.2.066.392.173.555.319.167.133.29.332.386.565.1.233.166.499.166.831 0 .831-.066 1.616-.199 2.34-.133.731-.333 1.43-.565 2.128-.2.681-.466 1.376-.732 2.077-.266.698-.532 1.43-.797 2.194l-.127-.056z" fill="#fff" fill-rule="nonzero" stroke="#fff" stroke-width=".46"/>
</svg>
