<svg viewBox="0 0 24 24" xmlns="http://www.w3.org/2000/svg" fill-rule="evenodd" clip-rule="evenodd" stroke-linejoin="round" stroke-miterlimit="1.414">
    <path d="M24 0v24H0V0h24zm-4.092 18.215v-.271l-1.257-1.234a.375.375 0 0 1-.143-.361V7.282a.377.377 0 0 1 .143-.362l1.287-1.234v-.271h-4.456l-3.176 7.924-3.613-7.924H4.019v.271L5.524 7.5a.624.624 0 0 1 .203.527v7.126a.82.82 0 0 1-.218.707l-1.694 2.054v.271h4.803v-.271L6.924 15.86a.85.85 0 0 1-.233-.707V8.99l4.215 9.195h.489l3.621-9.195v7.329c0 .196 0 .233-.128.361l-1.302 1.264v.271h6.322z"/>
</svg>
