<svg viewBox="0 0 100 100" xmlns="http://www.w3.org/2000/svg" fill-rule="evenodd" clip-rule="evenodd" stroke-linejoin="round" stroke-miterlimit="1.414">
    <path d="M52.234 98.748l-2.615-.866s.333-13.235-4.44-14.162c-3.148-3.647.484-155.791 11.919-.521 0 0-3.914 1.965-4.654 5.302-.741 3.34-.21 10.247-.21 10.247" fill="url(#a)" fill-rule="nonzero"/>
    <path d="M53.644 85.967S76.367 71 71.044 39.918C65.917 17.337 53.812 9.913 52.512 7.079c-1.432-2.006-2.875-5.561-2.875-5.561l.967 62.919s-1.999 19.212 3.04 21.53" fill="url(#b)" fill-rule="nonzero"/>
    <path d="M48.288 86.803S26.973 72.262 28.199 46.606C29.426 20.948 44.481 8.333 47.413 6.045c1.896-2.021 1.974-2.799 2.121-4.793 1.328 2.854 1.108 42.631 1.248 47.28.547 18.098-1.002 34.855-2.494 38.271" fill="url(#c)" fill-rule="nonzero"/>
    <defs>
        <linearGradient id="a" x2="1" gradientUnits="userSpaceOnUse" gradientTransform="scale(31.7244 -31.7244) rotate(-18.644 -4.344 -4.158)">
            <stop offset="0" stop-color="#929669"/>
            <stop offset=".23" stop-color="#929669"/>
            <stop offset="1" stop-color="#fdfcf1"/>
        </linearGradient>
        <linearGradient id="b" x2="1" gradientUnits="userSpaceOnUse" gradientTransform="scale(84.3828 -84.3828) rotate(-75.555 .256 -.364)">
            <stop offset="0" stop-color="#45aa3a"/>
            <stop offset="1" stop-color="#3d9439"/>
        </linearGradient>
        <linearGradient id="c" x2="1" gradientUnits="userSpaceOnUse" gradientTransform="scale(37.7807 -37.7807) rotate(12.801 6.153 2.41)">
            <stop offset="0" stop-color="#41a83b"/>
            <stop offset="1" stop-color="#5ebc44"/>
        </linearGradient>
    </defs>
</svg>
