<svg viewBox="0 0 100 100" xmlns="http://www.w3.org/2000/svg" fill-rule="evenodd" clip-rule="evenodd" stroke-linejoin="round" stroke-miterlimit="1.414">
    <path d="M87.557 55.876c2.151.062 4.269 1.51 4.609 3.715.358 2.32-1.389 4.514-3.293 5.987-3.811 2.947-8.862 4.259-13.791 4.095l-.315-.012-.697-.062-.132 1.131s-.034 1.124-.082 2.101c-.184 3.805-.561 7.633-1.733 11.278-.995 3.096-2.75 6.055-5.43 7.909-2.201 1.523-4.853 2.289-7.517 2.744-2.658.454-5.511.199-7.781-1.243-2.399-1.524-3.72-4.263-4.641-7.009-1.557-4.593-1.446-9.543-1.595-14.285l-.006-.178c-3.413 1.486-7.46 1.571-11.083.478-1.571-.474-3.081-1.25-4.141-2.506 0 0-.626.476-1.156.805-2.275 1.409-5.19 1.628-7.722.312-2.897-1.506-4.825-4.359-6.355-7.153-2.571-4.692-4.272-9.822-5.755-14.997C7.338 43.388 5.969 37.73 5.22 31.952c-.346-2.675-.33-5.397-.029-8.067.65-5.772 3.205-11.574 8.462-14.778 5.673-3.458 13.044-3.366 19.652-1.995 2.045.424 4.065.973 6.045 1.638 0 0 .624-.331 1.128-.586 5.016-2.542 11.074-2.546 16.505-1.626 0 0 .522-.073.939-.188 7.681-2.114 16.125-2.009 23.357 1.744 3.239 1.681 6.075 4.091 8.338 6.971 0 0 .348.454.607.899 1.292 2.224 1.583 4.903 1.564 7.519-.043 5.743-1.511 11.434-3.394 16.937a87.528 87.528 0 0 1-7.506 16.261l-.009.015c2.266-.07 4.538-.817 6.533-.822.073 0 .073 0 .145.002z" fill="#000001" fill-rule="nonzero"/>
    <path d="M86.157 59.801c-10.161 2.096-10.859-1.344-10.859-1.344C86.026 42.538 90.51 22.332 86.64 17.387c-10.558-13.49-28.834-7.11-29.14-6.945l-.098.018c-2.007-.417-4.254-.665-6.778-.706-4.598-.076-8.085 1.205-10.732 3.212 0 0-32.603-13.432-31.087 16.892.323 6.451 9.247 48.813 19.89 36.018 3.891-4.679 7.65-8.635 7.65-8.635 1.867 1.24 4.102 1.873 6.445 1.646l.182-.155c-.057.581-.031 1.149.073 1.822-2.742 3.063-1.937 3.601-7.418 4.73-5.547 1.143-2.288 3.178-.161 3.71 2.579.645 8.546 1.558 12.577-4.085l-.16.643c1.074.861 1.828 5.598 1.702 9.892-.127 4.294-.211 7.242.636 9.545.846 2.302 1.69 7.483 8.896 5.939 6.021-1.29 9.141-4.634 9.575-10.211.308-3.966 1.005-3.379 1.049-6.925l.559-1.678c.645-5.375.103-7.109 3.812-6.303l.902.08c2.73.124 6.303-.44 8.401-1.414 4.516-2.096 7.194-5.595 2.741-4.676h.001z" fill="#336791" fill-rule="nonzero"/>
    <path d="M56.87 9.208c.233-.096.711-.286 1.206-.431 3.096-.908 6.318-1.35 9.545-1.369l.222-.001c7.307.023 14.569 2.828 19.308 8.569 1.472 1.782 1.717 3.198 1.906 4.708.621 4.937-.509 9.98-1.866 14.79A82.525 82.525 0 0 1 76.73 58.345c.698.61 2.097.722 3.396.746 2.015.037 4.04-.349 5.991-.704 1.56-.276 3.897-.114 3.475 2.12-.269 1.422-1.514 2.384-2.793 3.296-3.582 2.556-8.26 3.6-12.696 3.163-.623-.061-1.268-.158-1.863-.341-.463 4.892-1.135 9.791-1.905 14.612-.547 3.426-1.615 6.836-4.606 8.872-1.924 1.31-4.245 1.982-6.459 2.341-2.948.478-6.128-.094-8.274-2.239-1.202-1.201-1.997-2.749-2.637-4.343-.338-.857-.339-1.145-.414-1.539-.819-4.297-.776-8.749-.811-13.153-.009-1.18-.009-2.36.001-3.54-2.109 1.844-4.946 2.932-7.826 2.973-2.422.033-4.959-.329-6.828-1.694-.892-.651-1.597-1.862-1.032-2.967.77-1.508 2.94-1.819 4.566-2.175 1.521-.336 3.11-.682 4.096-1.848.476-.563.926-1.192 1.405-1.777-.018-.053-.062-.087-.162-.091 0 0-.547-.028-.94-.077a10.752 10.752 0 0 1-3.877-1.283c-2.422 2.578-4.709 5.202-7.014 7.94-1.638 1.929-4.036 3.383-6.619 2.472-2.196-.775-3.733-2.707-4.963-4.596-3.019-4.636-4.781-9.993-6.368-15.371-1.79-6.062-3.383-12.266-4.026-18.471-.271-2.612-.165-5.29.232-7.816.699-4.443 2.788-8.853 6.601-11.417 3.099-2.085 6.978-2.85 10.734-2.874h.194c4.938.017 9.897 1.054 14.435 2.789 3.008-2.018 6.707-2.967 10.347-2.988l.24.001a27.84 27.84 0 0 1 6.54.842zm13.059 54.967c-.055-.494-.019-1.014.022-1.499.156-1.839 1.155-3.7 3.002-4.424.292-.114.728-.241.728-.241-1.161-1.665-2.526-3.196-3.363-5.156-.932-2.186-2.3-4.197-3.384-6.365-1.682-3.368-3.3-6.858-3.424-10.723-.067-2.065.548-4.264 2.177-5.631 2.18-1.828 5.412-1.974 8.491-1.662-1.124-3.34-3.05-6.411-5.396-9.087-4.821-5.5-12.069-8.771-19.422-8.489-4.164.16-8.263 1.826-11.085 5.136-3.554 4.169-5.018 9.712-5.396 15.072 2.411-1.376 5.129-2.303 7.853-2.332h.137c1.994.014 4.017.723 5.275 2.261 1.144 1.398 1.501 3.263 1.827 5.093.887 4.988.921 10.155-1.048 14.919-.957 2.315-2.105 4.579-2.711 7.096a3.523 3.523 0 0 1 .853-.099c2.675.054 4.984 2.913 4.653 5.606-.166 6.181-.267 12.46.46 18.594.358 3.018 1.331 6.176 4.463 7.422 2.421.964 5.237.256 7.409-.524 1.617-.58 3.165-1.538 4.11-2.994 1.078-1.662 1.441-3.703 1.743-5.65.841-5.432 1.586-10.84 2.026-16.323zm-24.918-3.613c-.445.007-.808.38-1.101.706-1.046 1.17-1.873 2.584-3.123 3.45-1.954 1.354-4.667 1.233-6.76 2.204 0 0 1.12.607 2.094.824 3.07.685 6.533.347 9.032-1.739 1.439-1.201 2.724-2.939 1.409-4.597-.378-.477-.968-.851-1.551-.848zm-7.547-47.351c-5.051-1.729-10.4-2.616-15.432-1.919-3.155.438-6.264 1.727-8.37 4.083-3.245 3.629-3.93 9.011-3.672 14.293.149 2.846.797 5.641 1.393 8.447 1.542 7.25 3.444 14.497 6.579 21.191 1.196 2.552 2.454 5.21 4.761 6.876.748.54 1.737.885 2.66.56 1.571-.554 2.543-2.137 3.719-3.512a171.632 171.632 0 0 1 5.355-5.997c-3.051-2.666-4.913-6.897-4.452-11.285.105-1.005.253-2.003.33-3.008.23-2.992-.025-5.962-.068-9.014a1.744 1.744 0 0 1 .013-.23c-.058-.693.008-1.417.054-2.132.431-6.728 2.35-13.722 7.13-18.353zm37.595 47.018c-.7.233-1.464.328-1.964.862-.706.755-.69 1.896-.65 2.846 0 0 .607.317 1.158.42 3.65.677 7.737-.234 10.477-1.801.825-.472 1.619-1.008 2.314-1.657 0 0-.37.074-.772.151-3.105.584-6.455 1.087-9.3-.115a5.18 5.18 0 0 1-1.207-.706s.017-.025-.056 0zM40.788 31.292c-2.667.016-5.33 1.026-7.523 2.535-.199.136-.47.357-.47.357.173 3.924.28 7.833-.249 11.713-.71 5.493 3.059 11.619 9.207 11.65 0 0 .062-.201.121-.416.995-3.602 3.084-6.89 3.824-10.605.756-3.795.288-7.736-.511-11.525-.261-1.237-.78-2.492-1.888-3.137-.745-.433-1.638-.574-2.511-.572zm34.501 24.646c5.234-8.204 9.101-17.326 10.792-26.791.531-2.974.93-6.049.348-8.958-.461-2.307-2.499-4.28-4.626-5.904-5.723-4.371-13.621-5.184-20.754-3.661a25.899 25.899 0 0 1 5.671 3.352c4.21 3.29 7.517 7.762 9.462 12.656.345.868.673 1.746.812 2.678.039.263.039.545-.02.81.005.053.008.108.01.163.106 3.488-1.026 6.88-.776 10.351.267 3.707 1.084 7.47.196 11.051a13.57 13.57 0 0 1-1.55 3.722c.146.177.292.353.435.531zm-.821-24.899c-1.886-.247-3.805-.337-5.569.204-.941.288-1.828.828-2.323 1.694-.838 1.465-.606 3.267-.289 4.792.989 4.763 3.77 9.141 5.948 13.293.349.664.676 1.341 1.036 2.007 1.42-3.132 1.014-6.878.612-10.317-.331-2.874-.143-5.751.305-8.724.146-.978.259-1.959.28-2.949zm-33.342 1.654c1.393.018 3.292.644 2.769 1.791-.409.896-1.517 1.365-2.447 1.222-1.132-.173-2.218-1.261-2.143-2.103l.047-.385s.866-.509 1.675-.525h.099zm31.007.072l.001.007c.008.064.005.068.004.098-.022.451-.369.854-.724 1.171-.928.826-2.554.777-3.328-.251l-.052-.072c-.387-.582.368-1.235 1.161-1.463a5.01 5.01 0 0 1 1.423-.192c.638.013 1.425.126 1.515.702z" fill="#fff" fill-rule="nonzero"/>
</svg>
