<svg viewBox="0 0 110 110" xmlns="http://www.w3.org/2000/svg" xmlns:serif="http://www.serif.com/" fill-rule="evenodd" clip-rule="evenodd">
    <defs>
        <clipPath id="a">
            <path d="M0 0h110v110H0z"/>
        </clipPath>
    </defs>
    <g serif:id="©react" clip-path="url(#a)">
        <circle cx="55" cy="55" r="9.124" fill="#61dafb"/>
        <ellipse cx="55" cy="55" rx="48.96" ry="18.694" fill="none" stroke="#61dafb" stroke-width="4.45"/>
        <path d="M71.189 45.653C84.7 69.055 88.415 92.242 79.48 97.401c-8.935 5.158-27.158-9.653-40.669-33.054C25.3 40.945 21.585 17.758 30.52 12.599c8.935-5.158 27.158 9.653 40.669 33.054z" fill="none" stroke="#61dafb" stroke-width="4.45"/>
        <path d="M71.189 64.347C57.678 87.748 39.455 102.559 30.52 97.401c-8.935-5.159-5.22-28.346 8.291-51.748C52.322 22.252 70.545 7.441 79.48 12.599c8.935 5.159 5.22 28.346-8.291 51.748z" fill="none" stroke="#61dafb" stroke-width="4.45"/>
    </g>
</svg>
