<svg viewBox="0 0 100 100" xmlns="http://www.w3.org/2000/svg" fill-rule="evenodd" clip-rule="evenodd" stroke-linecap="round" stroke-linejoin="round" stroke-miterlimit="1.5">
    <path d="M100 17.544C100 7.861 92.139 0 82.456 0H17.544C7.861 0 0 7.861 0 17.544v64.912C0 92.139 7.861 100 17.544 100h64.912C92.139 100 100 92.139 100 82.456V17.544z" fill="#5a4c30"/>
    <circle cx="50" cy="50" r="40.576" fill="#f9f6f1" stroke="#ae8b61" stroke-width="4.39"/>
    <path d="M50 84.229v6.347M50 9.424v6.347M15.771 50H9.424M90.576 50h-6.347" fill="#5a4c30" stroke="#ae8b61" stroke-width="2.44"/>
    <path d="M50.953 51.746c1.291-.742 1.61-1.68.958-2.817-.653-1.136-1.625-1.333-2.916-.592-1.291.742-1.61 1.681-.957 2.817.652 1.137 1.624 1.334 2.915.592zm30.665-19.478c-.666.976-1.483 1.742-2.451 2.299-1.522.874-3.15 1.135-4.886.782.843 2.107.838 3.594-.013 4.461-.415.238-1.261-.167-2.537-1.214-1.625-1.334-2.68-2.05-3.166-2.149 2.145 3.734 2.595 5.958 1.35 6.673-.277.159-1.089-.346-2.435-1.516-1.486-1.305-2.564-2.062-3.236-2.27 2.008 4.136 2.274 6.628.799 7.475-.277.159-1.123-.407-2.54-1.698-1.811-1.658-2.983-2.577-3.515-2.757 4.453 7.751 3.244 13.599-3.626 17.546-2.859 1.642-5.62 2.068-8.282 1.277-2.662-.792-4.844-2.669-6.546-5.631-1.749-3.043-2.386-5.808-1.912-8.293.473-2.484 2.001-4.469 4.583-5.952 2.075-1.192 4.032-1.574 5.872-1.147 1.84.427 3.32 1.615 4.439 3.563 1.002 1.745 1.449 3.431 1.341 5.058-.129 2.017-1.115 3.555-2.96 4.615-1.014.582-2.082.751-3.205.505-1.122-.246-1.94-.815-2.453-1.708-.536-.933-.633-1.93-.291-2.989.341-1.06 1.042-1.895 2.103-2.504 1.199-.689 2.423-.852 3.673-.491l-.07-.122-.701-1.54c-1.261-2.73-3.413-3.22-6.457-1.472-1.89 1.086-2.934 2.63-3.133 4.633-.198 2.003.413 4.243 1.836 6.718 1.282 2.232 2.941 3.653 4.979 4.264 2.037.611 4.047.346 6.03-.792 2.72-1.563 4.305-3.634 4.755-6.214.45-2.579-.246-5.472-2.087-8.677-.723-1.258-1.34-2.172-1.851-2.742 2.838-1.037 5.803.12 8.894 3.472-.262-1.415-.707-2.67-1.336-3.766-.443-.771-1.187-1.639-2.232-2.604 2.216-.625 4.913.173 8.091 2.395-.352-1.147-.668-1.964-.948-2.451-.21-.365-.756-1.049-1.64-2.053 2.263-.652 4.717.205 7.364 2.57.158-.792-.019-1.635-.532-2.528-.28-.487-.664-.995-1.152-1.524.254-.092 1.572-.093 3.953-.004 2.151.114 4.079-.319 5.785-1.299l.346-.199z" fill="#79d2d2" fill-rule="nonzero"/>
    <circle cx="31.445" cy="28.418" r="6.348" fill="#fff"/>
    <circle cx="69.853" cy="73.318" r="3.174" fill="#fff"/>
    <circle cx="37.493" cy="30.671" r="3.174" fill="#fff"/>
</svg>
