<svg width="25" height="25" viewBox="0 0 25 25" xmlns="http://www.w3.org/2000/svg">
    <path d="M24 5.213a9.433 9.433 0 0 1-2.71.743 4.732 4.732 0 0 0 2.075-2.611 9.446 9.446 0 0 1-2.997 1.145 4.719 4.719 0 0 0-8.04 4.304A13.396 13.396 0 0 1 2.6 3.864a4.696 4.696 0 0 0-.639 2.372c0 1.637.833 3.081 2.1 3.927a4.7 4.7 0 0 1-2.138-.59v.06a4.722 4.722 0 0 0 3.785 4.627 4.724 4.724 0 0 1-2.131.08 4.723 4.723 0 0 0 4.408 3.277 9.467 9.467 0 0 1-5.86 2.02c-.381 0-.757-.022-1.126-.066a13.356 13.356 0 0 0 7.233 2.12c8.68 0 13.426-7.19 13.426-13.425 0-.205-.004-.408-.014-.61A9.587 9.587 0 0 0 24 5.212z"/>
</svg>
