<?xml version="1.0" encoding="iso-8859-1"?>
<!DOCTYPE svg PUBLIC "-//W3C//DTD SVG 1.1//EN" "http://www.w3.org/Graphics/SVG/1.1/DTD/svg11.dtd">
<svg version="1.1" id="Layer_1" xmlns="http://www.w3.org/2000/svg" xmlns:xlink="http://www.w3.org/1999/xlink" x="0px" y="0px"
	 width="313px" height="480" viewBox="0 0 313 480" style="enable-background:new 0 0 313 480;" xml:space="preserve"
	>
   <defs>
    <style type="text/css">
      .background { fill: #FFFFFF }
      .grey1      { fill: #6E6E6E }
      .grey2      { fill: #E5E5E5 }
      .grey3      { fill: #BFBFBF }
      .grey4      { fill: #474747 }
      .grey5      { fill: #9C9C9C }
      .stroke, .bigStroke {
        fill:none;  stroke:#000000; stroke-miterlimit:10;
      }
      .bigStroke  { stroke-width:1.5 }
      @media screen and (min-width: 315px) {
        .background { fill: none }
        .grey1, .grey2, .grey3, .grey4, .grey5 { fill: #7a0037 }
        .stroke, .bigStroke { stroke: rgba(0,0,0,0.75) }
      }
    </style>
  </defs>
<path class="background" d="M275,490.188c-2.423-3.97-1.95-8.632-2.658-13.407c-1.492-10.075-3.744-19.753-4.939-29.866
	c-0.812-6.881-3.325-13.9-5.127-20.577c-1.959-7.267-1.166-15.019-3.131-22.333c-2.556-9.514-6.785-19.085-11.629-27.744
	c-4.582-8.189-7.964-17.145-12.396-25.447c-2.492-4.672-4.985-9.342-7.478-14.013l-5.399-10.235
	c-1.104-2.056-2.267-4.104-3.252-6.22c-1.423-3.053-0.021-7.559,0.997-10.607c1.389-4.173,2.545-9.087,6.016-12.152
	c2.326-2.058,5.119-4.246,8.457-4.246c0.248-0.202,0.499-0.354,0.751-0.481c1.896-0.062,3.757-0.229,5.603-0.61l-0.428,0.66
	c0.665-0.127,1.317-0.271,1.943-0.455c1.939-0.57,3.927-1.187,5.929-1.797c3.587-0.679,7.313-1.793,10.802-3.084
	c0.146-0.046,0.285-0.099,0.443-0.15c0.071-0.024,0.146-0.057,0.219-0.082c0.238-0.086,0.479-0.168,0.719-0.268
	c1.219-0.47,2.569-0.863,3.625-1.636c0.986-0.724,1.662-1.694,2.438-2.619c0.851-1.012,1.806-2.017,2.585-3.127
	c0.771-1.099,1.348-2.381,2.123-3.521c0.803-1.185,0.959-2.642,1.15-4.019c0.207-1.473,0.839-2.789,1.08-4.204
	c0.014-0.031,0.021-0.056,0.018-0.056c0,0,0.009-0.076,0.023-0.199c0.769-4.726,0.641-9.559-0.267-13.677
	c-0.598-2.72-1.616-1.913-0.351-4.599c1.641-3.475,5.533-3.862,7.586-6.514c1.017-1.315,0.804-4.185,0.098-6.565
	c-0.068-0.731-0.337-1.387-0.748-1.952c-0.221-0.447-0.453-0.84-0.693-1.138l-0.164,0.251c-1.078-0.835-2.617-1.291-4.399-1.21
	c-3.001,0.134-5.808,0.824-8.711,1.392c0.058-0.104,0.149-0.2,0.16-0.295c3.903-0.712,7.821-1.603,10.901-2.955
	c3.391-1.488,9.59-4.031,9.219-8.379c-0.318-3.736-1.146-7.312-3.038-10.62c-0.49-0.855-0.839-1.63-1.067-2.341
	c0.021-1.186,0.26-2.401,0.986-3.7c0.539-0.959,3.088-2.666,5.486-4.632c0.66-0.296,1.342-0.596,2.039-0.909
	c4.978-2.237,8.258-6.945,6.1-12.278c-2.113-5.221-6.35-8.986-10.088-12.935c-4.809-5.08-10.229-12.563-12.258-19.572
	c0.627-5.121,0.938-11.773-2.938-14.942c0.044-0.6,0.324-1,0.254-1.621c-0.61-5.385-3.284-9.117-6.194-13.477
	c-2.119-3.17-4.069-6.457-5.533-9.984c-3.228-7.778-8.229-15.187-12.049-22.718c-2.479-4.885-7.41-11.18-12.385-13.675
	c-0.521-0.263-1.078-0.479-1.654-0.657c-2.168-0.67-4.645-0.812-6.879-0.913c-10.164-0.459-20.726,2.471-30.897,3.073
	c-10.265,0.607-21.024-0.757-31.203,0.623c-4.351,0.59-8.252,3.036-12.487,4.121c-3.315,0.849-6.577,1.112-9.983,1.129
	c-4.62,0.023-8.746,1.374-12.632,3.821c-4.021,2.532-3.498,4.343-2.024,8.762c1.853,5.558,1.119,11.85,2.067,17.755
	c1.274,7.934,2.776,16.614,1.563,24.573c-2.042,13.399-10.539,25.646-11.059,39.339c-0.647,17.021,1.029,34.112-0.485,51.114
	c-1.062,11.897-0.785,24.468-2.081,36.485c-0.346,3.199-0.803,6.361-1.427,9.463c-0.202,1.008-0.078,1.922-0.497,2.881
	c-1.01,2.314-2.754,3.57-3.013,6.219c-0.167,1.715-1.042,3.947-2.375,5.115c-0.352,0.307-0.847,0.205-1.317,0.205
	c-0.97,0-1.945-0.027-2.909,0.08c-0.497,0.059-0.974,0.227-1.472,0.281c-0.447,0.051-0.925-0.045-1.361,0.074
	c-5.292,1.451-9.892,4.789-13.337,9.006c-3.282,4.02-3.549,9.32-5.825,13.836c-2.132,4.225-4.513,3.582-8.321,5.375
	c-2.874,1.352-5.387,3.562-6.842,6.414c-1.493,2.922-0.758,6.188-1.006,9.385c-2.739-2.221-5.06,6.059-5.659,7.18
	c-2.962,5.543-6.117,10.607-8.922,16.031c-0.018,0.027-0.035,0.055-0.053,0.08c-3.24,4.84-6.58,9.608-9.5,14.68
	c-2.41,4.191-4.77,8.431-6.69,12.871c-0.97,2.25-1.92,4.521-2.86,6.789c-3.9,8.062-7.42,16.23-10.54,24.062
	c-1.01,2.539-2.03,5.108-3.01,7.709c-3.01,6.25-6.22,12.739-7.97,19.33c-0.23,0.884-0.46,1.771-0.64,2.649
	c-1.17,5.781-1.13,10.891-2.13,16.291c-1,1.57-1.93,3.16-2.38,4.969c-0.72,2.861-1.1,5.92-1.3,9.021c-0.18,1.08-0.33,2.16-0.45,3.25
	l0.32-0.16l-0.32,9.132H275"/>
<path class="grey2" d="M209.96,62.104c1.517,0.196,3.022,0.528,4.237,1.443c1.261,0.951,2.674,1.443,4.117,2.085
	c1.879,0.837,3.398,2.242,5.104,3.371c0.723,0.479,1.473,0.914,2.248,1.303c0.402,0.218,0.827,0.35,1.275,0.396
	c0.721,0.56,1.117,1.76,1.709,2.502c0.65,0.818,1.783,1.874,2.687,2.437c0.663,0.414,1.14,0.527,1.696,1.151
	c0.463,0.519,0.896,1.048,1.383,1.521c1.432,1.396,2.904,3.105,4.034,4.759l-3.29-0.82c3.439,2.04,8.59,11.07,10.14,13.71
	c2.55,4.35,4.32,8.97,6.13,13.66c1.92,4.97,4.11,9.59,6.762,14.1c1.529,2.58,4.279,5.5,4.529,8.57c-2.66-0.67-5.359,1.85-5.681,4.57
	c-0.03,0.18-0.04,0.36-0.04,0.56c0,0.18-0.1,0.35-0.141,0.5c-0.01,0.06-0.021,0.12-0.01,0.17c0.061,0.37,0.067,0.65,0.17,0.91
	c0.01,0.03,0.021,0.05,0.027,0.07c0.11,0.26,0.16,0.49,0.24,0.75c0,0.01,0.01,0.02,0.01,0.03c0.12,0.37,0.001,0.78-0.102,1.39
	c-0.352,2.26-1.198,4.67-2.198,7.13c0,0.32-0.062,0.65-0.147,0.97c0,0.01,0.062,0.02,0.062,0.03c-0.857,2.87-1.382,5.75-0.521,8.45
	c0.17,0.53,0.39,1.04,0.6,1.55c0.369,0.9,0.799,1.79,1.162,2.73c0.229,0.58,0.435,1.18,0.595,1.81c0.239,0.96,0.506,2.24,0.876,3.37
	c0.09,0.25,0.376,0.49,0.376,0.72c0,0.54,0.483,1.01,0.915,1.36c0.391,0.31,0.816,0.575,1.327,0.685
	c0.461,0.11,0.918,0.285,1.418,0.285c0.55,0,1.08,0.025,1.562,0.135c1.778,0.391,3.43,0.643,5.028,0.694
	c3.01,0.11,5.79-0.549,8.75-2.669c1.92,2.33,2.79,6.125,4.42,8.806c1.521,2.47,4.261,5.238,3.67,8.377
	c-1.989,0.03-5.739-0.481-6.897,1.649c-1.853,3.41,2.181,3.939,4.539,4.049c2.229,0.09,5.17-1.15,7.25-0.32
	c4.602,1.83,3.711,4.509,1.312,7.109c-0.812,0.88-1.79,1.75-2.8,2.58c-2.4,1.97-4.955,3.68-5.495,4.64
	c-0.763,1.36-0.995,2.63-0.995,3.88c0,0.32,0.075,0.64,0.115,0.95c0.107,0.71,0.316,1.41,0.564,2.11
	c1.148,3.54,3.254,6.88,0.323,10.76c-1.051,1.39-2.606,2.44-4.387,3.36c-2.46,1.26-5.396,2.24-7.875,3.45
	c-1.92,0.94-3.744,2.01-4.744,3.47c0,0.1-0.104,0.2-0.166,0.31c-0.43,0.64-0.711,1.34-0.894,2.141
	c-0.129,0.579,10.334,0.875,10.936,3.024c0.271,0.98-0.404,2.495-1.346,2.495c-1.07,1-2.61,1.945-3.12,2.565
	c-1.49,1.8-2.312,3.467-3.25,5.487c-0.052,0.12-0.103,0.348-0.16,0.478c0,0.83-0.198,1.75-0.25,2.79
	c-0.069,1.029,0.12,2.04,0.33,3.029c0.01,0.061,0.021,0.11,0.04,0.17c0.771,3.471,2.898,6.73,3.979,10.131
	c0.01,0.039,0.021,0.066,0.028,0.107c0.229,0.709,0.552,1.438,0.649,2.171c0.238,1.729,0.104,2.569-0.867,4.095
	c-0.682,1.059-1.162,2.321-1.727,3.467c-0.569,1.156-1.343,2.264-1.642,3.533c-0.144,0.607-0.086,1.027-0.399,1.537
	c-0.318,0.512-0.936,0.934-1.313,1.416c-0.783,0.995-1.667,2.1-2.58,2.975c-0.968,0.928-2.583,1.307-3.812,1.779
	c-0.021,0.02-0.062,0.027-0.08,0.027c-0.09,0.039-0.187,0.07-0.273,0.102c-0.189,0.08-0.393,0.148-0.582,0.221
	c-0.02,0.021-0.042,0.021-0.072,0.021c-3.6,1.351-7.479,2.521-11.199,3.221c-0.01,0-0.028,0.011-0.041,0.011
	c-1.051,0.198-2.09,0.358-3.107,0.469c-0.2,0.031-0.398,0.104-0.602,0.128c-0.062,0.01-0.131,0.073-0.198,0.073
	c-2.11,0-4.103,0-5.96,1c-1.354,0-2.633,0-3.87,1c-6.5,1-11.521,4.903-16.25,12.347c-4.38,6.868-3.99,14.86-6.83,22.271
	c-0.062,0.139-0.37,0.162-0.37,0.311c0,2.15-1.893,4.25-2.857,6.32c-0.562,1.191-0.94,2.371-1.24,3.541
	c-0.239,0.949-0.319,1.889-0.26,2.84c0.027,0.719,0.192,1.439,0.475,2.17c1.79,4.73,3.503,9.689,5.443,14.511
	c1.22,3.069,2.547,6.079,4.047,8.948c1.369,2.621,3.072,5.17,4.724,7.771l-2.169,1.121c0,0-0.159,0.02-0.159,0.025l0.132,0.07
	l-3.146,1.729c-6.521-5.353-12.831-10.843-20.611-14.603c-1.92-0.93-3.852-1.869-5.802-2.809
	c-14.261-6.921-29.142-14.361-42.031-23.184c-0.78-0.541-1.565-1.061-2.365-1.59c-6.46-4.211-13.308-7.979-20.016-11.971
	c-2.5-1.48-4.979-2.99-7.41-4.57l-0.18-0.119c-4.72-3.041-18.879-11.84-16.329-17.488c0.93-2.051,4.19-4.312,5.85-5.83
	c2.25-2.062,3.43-4.051,4.53-6.471c0.38-0.857,0.84-1.771,1.27-2.762c0.01-0.01,0.02-0.02,0.02-0.039
	c0.04-0.1,0.09-0.199,0.13-0.311c0.29-0.689,0.96-1.369,0.96-2.062c0-1.131,0.82-2.27,1.34-3.391c0.03-0.061,0.05-0.109,0.08-0.17
	c-0.01-0.012-0.05-0.012-0.05-0.012c1.088,0,1.622-7.604,1.854-8.318c1.115-3.447,2.725-6.662,4.25-9.924
	c1.487-3.178,3.009-6.132,3.221-9.721c0.139-2.365-0.896-4.407-1.102-6.701c-0.269-2.995,2.063-3.174,3.601-5.115
	c1.934-2.442,0.51-6.859-0.384-9.41c-0.55-1.57-1.25-3.16-2.03-4.73c-0.3-0.65-0.63-1.28-0.96-1.91c-0.47-0.89-0.94-1.74-1.41-2.56
	s-0.92-1.6-1.34-2.3c-0.49-0.81-0.93-1.53-1.3-2.13c-0.21-0.35-0.42-0.69-0.62-1.04c-3.69-6.22-6.16-12.24-6.88-19.37
	c-0.01-0.01-0.01-0.03,0-0.04c-0.15-1.33-0.035-2.68-0.045-4.09c-0.039-5.06-0.225-10.19,0.775-15.12c0-1.51,0-3,0-4.48
	c1-0.14,0.315-0.07,0.355-0.209c1.05-3.841,6.045-10.44,10.165-12.44c0.16,0,0.32-0.35,0.48-0.42c0.16-0.061,0.32-0.21,0.47-0.26
	c0.11-0.03,0.22-0.121,0.33-0.141c0.7-0.2,1.44-0.395,2.22-0.535c0.97-0.18,1.99-0.333,3.02-0.412c1.11-0.1,2.24-0.146,3.34-0.126
	c0.64,0,1.26,0.017,1.87,0.066c0.9,0.05,1.75,0.148,2.55,0.279c0.4,0.07,0.79,0.149,1.17,0.259c1.23,0.31,2.39,0.79,3.52,1.359
	c0.48,0.23,0.95,0.479,1.42,0.75c1.27,0.7,2.5,1.48,3.76,2.22c1.14,0.68,2.31,1.33,3.52,1.86c0.72,0.33,1.46,0.61,2.23,0.83
	c0.811,0.24,1.71,0.44,2.66,0.61c1.479,0.27,3.08,0.44,4.71,0.47c1.351,0.03,2.72-0.03,4.05-0.22c1.551-0.22,3.03-0.61,4.353-1.2
	c0.601-0.27,1.171-0.58,1.688-0.95c0.1-0.06,0.189-0.13,0.289-0.2c0.83-0.62,1.62-1.4,2.391-2.29c0.683-0.78,1.342-1.64,1.979-2.55
	c0.931-1.3,1.83-2.69,2.71-4.04c0.78-1.2,1.551-2.37,2.311-3.41c0.209-0.29,0.459-0.56,0.671-0.83c0.909-1.17,1.771-2.44,2.771-3.8
	c1-1.23,1.569-2.51,2.33-3.86c0.391-0.67,0.732-1.36,1.098-2.05c0.601-1.15,1.155-2.33,1.688-3.54c0.989-2.25,1.823-4.57,2.452-6.91
	c0.399-1.44,0.696-2.89,0.907-4.34c0.289-1.9,0.283-3.78,0.175-5.62c-0.062-1.32,0.354-2.61-0.646-3.89c0-0.52,0-1.04,0-1.56
	c-1-1.67-1.392-3.28-2.4-4.79c-0.299-0.41-0.659-0.82-0.959-1.23c-0.608-0.77-1.323-1.5-2.084-2.2
	c-3.439-3.17-7.414-4.75-10.631-7.83c-0.51-0.48-1.002-1-1.463-1.59c-0.391-0.47-0.75-0.98-1.102-1.53
	c-0.88-1.4-1.671-2.91-2.332-4.51c-0.939-2.23-1.63-4.6-1.96-7c-0.2-1.33-0.28-2.66-0.24-3.98c0.029-1.229,0.181-2.44,0.431-3.63
	c0.26-1.16,0.621-2.29,1.121-3.38c0.129-0.3,0.271-0.59,0.43-0.88c0.142-0.28,0.302-0.561,0.459-0.83
	c0.212-0.34,0.433-0.67,0.673-0.97c0.448-0.6,0.948-1.13,1.487-1.61c0.371-0.34,0.75-0.64,1.16-0.93
	c1.229-0.87,2.609-1.55,4.062-2.11c1.08-0.42,2.198-0.78,3.319-1.1c1.188-0.34,2.398-0.65,3.568-0.95
	c0.74-0.19,1.471-0.39,2.182-0.59c0.062-0.021,0.108-0.03,0.17-0.05c1.062-0.3,2.16-0.58,3.289-0.84
	c0.729-0.17,1.472-0.32,2.222-0.46c1.461-0.29,2.961-0.52,4.471-0.7c1.181-0.15,2.38-0.25,3.562-0.32
	c0.438-0.03,0.868-0.05,1.301-0.06c1.14-0.05,2.278-0.05,3.39-0.01c0.62,0.01,1.24,0.05,1.842,0.1
	C208.641,61.954,209.3,62.014,209.96,62.104z"/>
<path class="grey3" d="M142.494,192.981c-2.798-3.714-14.403,9.822-10.239,15.727c2.373,3.366,15.948,7.789,19.808,7.823
	c1.942-5.444-0.577-9.869-2.469-14.842c-2.062-5.423-1.721-8.285-1.195-13.54c1.345-13.453-4.06-25.34-19.337-25.766
	c-24.639-0.688-20.436,43.074-10.606,56.902c1.315,1.851,2.181,3.486,4.201,4.652c0.036-4.037-2.443-7.126-1.005-11.012
	c1.186,0.506,2.931,0.51,4.123,1.472c0.983-7.437-4.765-18.764,2.764-24.23c3.66-2.657,14.255-0.241,12.883,5.498L142.494,192.981z"
	/>
<path class="grey3" d="M5.868,490.087c-3.031-10.697,7.156-35.686,11.552-44.664c3.84-7.855,6.52-16.188,11.26-23.629
	c7.4-11.621,15.43-22.281,25.21-32.051c2.22-2.209,4.42-4.459,6.61-6.719c1.75-1.805,3.49-3.621,5.22-5.434
	c5.73-5.961,11.45-11.961,17.35-17.711c4.64-4.529,9.39-8.896,14.33-12.979c0.59-0.48,1.16-1.021,1.74-1.459
	c0.01-0.014,0.03-0.021,0.04-0.031c1.52-1.14,3.02-2.039,4.52-3.021c0.03-0.02,0.06-0.039,0.1-0.059
	c23.57-13,45.05,9.959,62.83,25.709c1.021,0.9,2.011,1.82,2.99,2.67l0.01,0.031c0.021,0.02,0.05,0.039,0.07,0.059
	c5.731,5.456,15.435,14.691,24.309,14.951c5.507,0.161,9.339-2.416,14.833-0.423c4.125,1.496,8.784,6.646,13.105,7.038
	c10.506,0.938,3.978-22.51,3.446-27.521c15.8,9.229,23.062,35.255,29.604,51.335c9.346,22.977,17.653,48.721,19.657,73.547
	C274.654,489.727,14.782,490.087,5.868,490.087z"/>
<path class="grey3" d="M166.871,202.802c0.156,0.36,0.307,0.74,0.447,1.143c2.731,7.747,5.248,15.971,5.968,24.186
	c0.743,8.481-0.524,13.587,3.87,21.491c1.361,2.45,2.746,4.912,3.085,7.771c0.362,3.048-2.324,7.707-1.165,10.212
	c0.938,2.025,6.188,3.283,8.093,4.26c5.562,2.85,10.543,6.422,15.324,10.387c7.935,6.58,13.95,10.596,24.423,10.574
	c6.87-0.016,13.127,0.707,19.357-2.49c8.365-4.289,18.674-8.396,22.648-17.867c2.098-4.988-0.695-7.783-1.234-12.602
	c-0.396-3.525,2.852-9.063-0.646-11.659c-4.271,3.327-0.268,9.225-3.088,12.476c-3.323,3.821-9.789-1.895-11.529-4.99
	c-3.027-5.388-1.677-13.856,1.729-18.698c5.875-8.36,17.787-4.507,24.856-10.867c3.201-2.879,5.078-9.754,0.332-12.677
	c-3.522-2.171-8.51,1.954-11.782,3.152c-3.898,1.426-5.512,1.567-8.436,4.936c-3.938,4.537-4.391,11.967-9.941,15.114
	c-6.894,3.903-14.229-4.565-18.685-9.197c-4.272-4.446-20.453-14.248-26.907-9.241c-1.062,0.826-2.234,6.383-2.133,6.356
	c-4.032,1.033-8.371-5.229-10.652-7.958c-5.664-6.769-8.578-12.102-10.896-20.931c-0.521-1.984-0.488-9.511-2.082-10.801
	c-1.672-1.353-5.071,0.542-6.766,1.241c-2.521,1.038-11.504,3.604-11.938,6.308c-0.396,2.438,2.44,3.073,3.634,4.442
	C164.447,198.812,165.818,200.374,166.871,202.802z"/>
<path class="grey1" d="M167,489.188c-1.049-2.168-1.443-5.52-1.822-7.872c3.359,1.06,7.718,2.257,11.694,1.721
	c-3.684-13.649-17.826-29.95-26.927-40.845c-13.989-16.748-36.746-23.328-52.842-36.805c15.039-0.938,32.661,2.918,46.595,8.698
	c-8.021-12.239-21.281-23.685-34.344-29.949c10.078-0.98,22.357,10.091,30.747-0.193c2.27-2.782,0.52-18.014-3.761-18.014
	c9.98-1.107,19.86,8.83,27.74,13.361c10.913,6.241,22.381,11.229,33.445,17.293c4.476,2.452,12.233,8.065,17.476,7.236
	c6.82-1.078-1.837-6.271-5.013-9.637c-2.549-2.701-7.403-6.021-7.408-9.938c2.607,0.604,5.798,1.312,8.247,1.85
	c-2.388-1.745-5.438-3.255-8.326-3.912l-23.712,4.486c3.256,1.422,6.544,2.73,9.881,3.951c0.01,0,0.021,0.01,0.03,0.01
	c0.028,0.008,0.05,0.021,0.079,0.029l4.891-2.33c0.012,0,0.2-0.1,0.2-0.1l9.5-4.789l0.101-0.055l6.603-3.316l0.038-0.021
	c-0.01-0.01-0.028-0.018-0.041-0.025c-0.629-0.521-1.271-1.041-1.898-1.531c-3.359-2.619-7.14-4.178-10.5-6.74
	c-16.75-12.799-35.602-21.52-53.57-32.35c-9.79-5.9-18.28-12.838-28.78-17.689c-5.98-2.75-12.67-4.85-17.54-9.531
	c-0.58-0.559-5.2-7.469-5.05-10.407c-4.633,1.127-4.753,6.235-5.95,9.993c-1.636,5.133-7.404,6.445-11.748,8.799
	c-1.925,1.043-4.264,2.803-5.286,4.891c-1.632,3.332-1.185,6.637-1.391,10.234c-0.876-0.07-1.466,0.75-2.025,1.281
	c-0.452,0.434-1.46,0.854-1.775,1.207c-0.695,0.785-0.894,2.684-1.256,3.688c-0.465,1.295-0.989,2.564-1.609,3.795
	c-2.45,4.861-5.36,9.371-8.35,13.83c-3.24,4.84-6.58,9.607-9.5,14.68c-2.41,4.191-4.77,8.43-6.69,12.871
	c-0.97,2.25-1.92,4.521-2.86,6.789c-3.63,8.83-7.08,17.781-11.02,26.42c-0.79,1.76-1.65,3.541-2.53,5.351
	c-3.01,6.25-6.22,12.739-7.97,19.329c-0.23,0.883-0.46,1.771-0.64,2.65c-1.17,5.781-1.13,10.889-2.13,16.281
	c-0.873,4.709-7.468,21.538-4.131,26.223"/>
<path class="grey1" d="M230.391,365.664c-1.147-1.41-2.871-2.562-4.301-2.98c1.444,5.066,2.301,8.239,2.451,13.541
	c0.07,2.458,0.521,4.877,0.107,7.338c-0.31,1.827-2.158,4.335-2.174,5.946c0.027-3.033-0.188-5.395-0.852-8.312
	c-1.126-4.961-4.74-8.979-6.955-13.42c-2.766-5.541-4.002-11.731-6.749-17.305c-0.76-1.549-1.591-3.188-2.33-4.906
	c-0.011-0.053-0.04-0.094-0.062-0.133c-0.237-0.541-0.476-1.09-0.687-1.646c0-0.01,0.14-0.021,0.14-0.031
	c-0.062-0.16,0.019-0.309,0.019-0.479c-0.99-1.691-1.979-3.4-2-5.15v-3.49c0-0.641,0.04-1.277,0.13-1.92
	c0,0.062,0.29,0.299,0.66,0.68c0.029,0.021,0.05,0.053,0.08,0.08l0.13,0.014v0.789c0.108,0.1,0.222,0.197,0.34,0.311
	c4.132,3.74,12.479,11.939,13.49,13.529c2.351,3.66,7.479,9.58,8.438,14.688c0.021,0.07,0.028,0.129,0.039,0.199
	C230.471,363.923,230.55,364.814,230.391,365.664z"/>
<path class="grey1" d="M126.712,249.473c-0.778,2.592-1.683,5.17-2.619,7.79c-0.864,2.422-2.835,13.047-5.504,14.014
	c-1.964,0.713-4.528-3.422-7.808-4.158c-6.573-1.477-12.11-1.318-17.491-6.309c-2.281-2.117-3.757-5.543-5.167-8.277
	c-1.371-2.659-4.229-3.93-5.677-6.588c-0.901-1.653-1.779-2.296-3.328-3.399c-1.647-1.173-3.334-2.302-4.88-3.609
	c-3.251-2.751-5.365-6.219-5.711-10.525c-0.569-7.086,0.961-10.571-4.722-15.731c-6.577-5.973-13.779-6.275-17.129-15.471
	c-2.703-7.417-2.42-15.767-2.418-23.541c0-5.182,1.467-12.103,0.04-16.8c-0.689-2.268-3.022-6.763-4.202-9.504
	c-1.76-4.091-3.727-7.347-4.964-11.39c-1.088-3.561-3.405-6.669-3.768-10.604c-0.793-8.625,3.369-18.749,8.533-25.375
	c-5.037-6.427,3.404-17.694,7.191-22.974c1.798-2.507,4.658-6.627,7.37-8.091c2.358-1.274,5.401-1.112,8.054-2.609
	c6.191-3.492,14.011-5.352,19.877-9.021c6.614-4.142,8.609-11.95,15.71-16.037c7.371-4.242,10.78-12.633,18.066-17.53
	c6.442-4.33,15.039-4.824,20.961-9.386c9.353-7.206,15.658-10.231,27.733-9.886c8.058,0.229,15.271,1.094,22.764,4.117
	c17.254,6.962,38.076,12.354,46.796,30.737c4.038,8.513,6.229,21.333,4.306,30.62c-2.748,13.245-9.193,6.218-17.637,3.51
	c-6.051-1.942-16.449-1.548-22.706-0.521c-8.196,1.35-18.084,4.946-19.116,14.483c-1.127,10.431,6.7,18.401,12.125,26.353
	c2.897,4.247,3.985,8.698,6.211,13.071c2.366,4.653,7.371,8.021,6.102,14.068c-1.227,5.802-6.225,9.889-9.854,14.022
	c-9.318,10.61-1.713,24.676-16.342,32.733c-6.617,3.644-13.049,9.776-21.043,6.006c-3.409-1.608-5.662-6.813-9.061-7.576
	c-2.224,9.887-11.637,16.497-19.818,7.402c-3.543-3.938-2.468-6.36-2.256-10.694c0.305-6.229-2.479-14.351-9.804-8.211
	c-4.77,3.998-2.774,10.491-3.004,15.969c-0.206,4.867-0.781,10.333,0.796,14.999c1.896,5.613,5.195,12.025,8.542,16.914
	c2.832,4.137,7.204,6.756,7.24,12.283C129.135,239.928,128.139,244.722,126.712,249.473z"/>
<path class="grey5" d="M261.17,238.553c3.671,2.575,8.242,3.051,12.721,3.176c2.379,0.066,4.029,0.663,5.49-1.524
	c3.001-4.494-0.048-8.139-4.836-7.923c-3.259,0.146-6.286,0.948-9.471,1.556c-2.41,0.46-9.042-0.064-5.583,3.32
	C260.025,237.681,260.586,238.143,261.17,238.553z"/>
<path class="grey3" d="M247.169,163.457c-0.226,0.63-0.283,1.431-0.481,2.076c1.607-0.171,2.684,0.663,4.16,0.688
	c1.023,6.091-4.551,14.041-7.353,19.108c5.892,4.891,9.793-1.349,13.187-5.753c1.928-2.5,2.174-3.769,4.864-4.724
	c2.312-0.821,4.778,1.437,7.172-1.209c-4.083-2.047-6.723-1.742-10.438-5.22c-3.155-2.955-4.363-4.447-9.501-2.818L247.169,163.457z
	"/>
<path class="grey4" d="M256.01,163.514c-0.449-1.41-0.96-2.78-1-4.14c-0.01-0.07-0.01-0.14-0.01-0.21c0-0.01,0-0.01,0-0.02
	c0-1.74-0.38-3.48-0.109-5.31c0.08-0.55,0.109-1.22,0.109-1.93c0,0,0-0.01,0-0.02c0-0.3,0.061-0.62,0.13-0.94
	c0.19-0.84,0.5-1.72,0.16-2.59c-0.06-0.19-0.16-0.37-0.29-0.56v-3.22c0-0.19-0.13-0.35-0.21-0.52c-0.62-1.28-0.54-0.96-2.05-0.98
	c-0.432-0.01-0.852,0.26-1.28,0.26h-1.3c-1.21,0-2.38,0.68-3.53,1.08c-0.04,0.02-0.09,0.01-0.13,0.02
	c-2.45,0.86-4.859,0.95-7.359,0.91c-0.011,0.01-0.021,0-0.041-0.01h-0.01c-1.31-0.01-2.64-0.06-4.02-0.06
	c-0.86,0-1.69,0.06-2.5,0.16c-0.11,0.01-0.23-0.09-0.33-0.14c-0.051-0.03-0.102-0.05-0.141-0.04c-0.461,0.07-0.899,0.08-1.343,0.08
	h-0.39c-0.15,0.7-0.29,0.44-0.438,0.28c0,0,0-0.01-0.013-0.01c-0.021-0.03-0.04-0.05-0.067-0.06c-0.013-0.01-0.021-0.21-0.029-0.21
	c-0.012,0-0.012,0-0.012,0c-0.021,0-0.039,0.18-0.062,0.19c-0.08,0.01-0.16,0.25-0.229,0.27c-0.34,0.09-0.66,0.16-0.988,0.23
	c-0.012,0-0.03,0.01-0.04,0.01c-0.011,0-0.03,0.03-0.04,0.03c-0.04,0-0.08,0.06-0.12,0.07c-2.29,0.67-4.49,2.2-6.729,2.2h-0.011
	c-0.33,0.2-0.647,0.37-0.979,0.51c-1.301,0.59-2.619,0.79-3.979,1.05c-0.021,0-0.028,0.01-0.05,0.01
	c-0.359,0.08-0.729,0.21-1.09,0.27c-0.11,0.02-0.223,0.07-0.33,0.08l-0.012,0.01c-0.028,0-0.051-0.02-0.078-0.02
	c-0.342,0.04-0.69,0.09-1.03,0.09h-0.05c-1.42,0.01-2.83,0.56-4.24,0.76c-0.08,0.01-0.17,0.13-0.26,0.19
	c-0.04,0.03-0.07,0.05-0.11,0.05c-0.01,0-0.01,0-0.021,0c-0.092,0-0.189-0.15-0.279-0.13l-0.03-0.17l-0.02-0.08
	c-4.271,0.47-8.53,1.33-12.78,1.38h-0.34c-1.229,1-2.45,1-3.682,1h-0.021c-1,0-1.97,0-2.97,1h-0.172c-0.488,0-0.971,0-1.471,0.12
	c-0.029,0.01-0.051,0.01-0.08,0.01c-0.391,0.08-0.801,0.32-1.188,0.41c-0.012,0-0.051,0.01-0.09,0c-0.062,0.01-0.133,0.01-0.15,0.01
	c-0.289-0.02-0.13-0.34-0.818,0.12c-0.078,0.06-0.158,0.12-0.26,0.19l-0.012,0.01v0.01c0,0,0,0.01,0.012,0.01
	c0.051,0.04,0.26,0.07,0.238,0.11h-0.29c-0.29,0-0.567-0.08-0.853-0.02c-0.061,0.02-0.129-0.04-0.188-0.02
	c-0.021,0.01-0.027,0.04-0.04,0.04h-0.01c-0.011,0-0.011,0-0.021,0c-0.66,0.01-0.852,0-1.852,0.83c0,0.01,0,0.01,0,0.01
	c0,0.01,0,0.02,0,0.03v0.01c0,0.04-0.13,0.08-0.148,0.12h-0.012c-0.01,0-0.01-0.07-0.021-0.13c0.012-0.04,0-0.08,0-0.08
	c-0.229,0.08-0.448-0.06-0.658,0.04c-0.301,0.13-0.592,0.17-0.86,0.17h-0.01c-0.101,0-0.2,0.14-0.29,0.21
	c-0.021,0.02-0.029,0.03-0.05,0.04c0,0-0.011,0-0.011,0.01c-0.239,0.12-0.461,0.29-0.683,0.43c-2.229,1.4-3.448,3.41-3.3,6.61
	c0.029,0.26,0.05,0.52,0.07,0.78c0.119,1.11,0.397,2.36,0.84,3.77c0.01,0.06,0.029,0.25,0.05,0.31c0.75-0.1,1.5-0.16,2.25-0.16
	h0.021c0.369-0.12,0.738,0,1.108,0h0.011c0.41-0.15,0.812-0.28,1.221-0.38c2.318-0.62,4.648-0.62,7-0.62h0.068
	c0.621,0,1.23,0,1.86-0.93c0.021-0.02,0.03-0.05,0.05-0.07h1.84c0.012,0,0.012,0,0.021,0h0.84c0.35,0,0.71,0.01,1.061,0.02
	c0.359,0,0.723-0.02,1.08-0.02h2.551c0.012,0,0.012,0,0.021,0h2.45c0.021,0,0.028-0.1,0.05-0.15c0-0.01,0-0.01,0.012-0.02
	c0-0.07,0-0.13,0.012-0.2c1.34-0.1,2.68-0.34,4.02-0.49c0.34-0.04,0.689-0.08,1.04-0.1c0.31-0.02,0.63-0.04,0.95-0.04h12.83
	c0.01,0,0.01,0,0.02,0h1.4c0.01,0,0.01,0,0.02,0c0.012,0,0.012,0,0.021,0h2.08c0.5-0.01,0.988,0,1.488,0h2.121
	c0.01,0,0.01,0,0.021,0h4.63c0.061,0,0.12,0.02,0.18,0.02c0.07,0.01,0.144-0.02,0.211-0.02h1.489c0.12,0,0.24,0,0.36,0h0.05
	c1.61,0,3.22,0.275,4.819,0.275c2.479,0,5-0.275,7.521-0.275h0.011c0.01,0,0.01,0,0.021,0h4.43c1,0,2,0.05,2.98,0.27
	c0.8,0.19,1.5,0.73,2.197,0.73h0.092c0.5,0,0.561,0.62,1.561,0.91v-0.04c0-0.01-0.01-0.02,0-0.05c0-0.01,0-0.01,0-0.01v-0.01
	C257,165.954,256.38,164.704,256.01,163.514z M212.35,155.954c-0.106-0.02-0.18-0.08-0.209-0.15c-0.121-0.32-0.131-0.61-0.041-0.87
	c0.012-0.01,0.012-0.01,0-0.01c0.291-0.76,1.42-1.25,2.75-1.57c1.271-0.3,2.721-0.45,3.83-0.53c0.791-0.06,1.41-0.09,1.641-0.11
	c2.32-0.24,4.562-0.28,6.91-0.39c2.853-0.13,7.17-0.59,9.553-2.19c0.31,0.63,0.34,1.4,0.22,2.15c-4.858,1.43-10.92,1.86-16.028,1.85
	c-1-0.01-5.988,1.72-8,1.86C212.71,156.014,212.5,156.003,212.35,155.954z M231.73,162.204c-0.014,0-0.021,0-0.03,0.01
	c-0.091,0.04-0.181,0.08-0.271,0.12h-1.49c-0.01,0-0.01,0-0.021,0h-0.061c-0.041-0.01-0.069-0.02-0.109,0c-0.01,0-0.01,0-0.021,0
	c-2.688,0-5.41,0.43-8.141,0.43c-1.58,0-3.148-0.06-4.68-0.29c-0.48-0.07-0.93-0.26-1.301-0.46c-0.01,0-0.01-0.01-0.021-0.01
	c-0.25-0.13-0.47-0.3-0.62-0.48l-0.01-0.01c-0.229-0.26-0.33-0.57-0.25-0.87c0,0,0.01,0,0-0.01c0.101-0.32,0.399-0.64,0.97-0.96
	c0.012,0,0.012-0.01,0.021-0.01c0.09-0.05,0.18-0.1,0.279-0.13c0.431-0.2,0.938-0.14,1.487-0.24c0.392-0.07,0.802,0.04,1.222,0.04
	h4.08c0.062,0,0.118,0,0.17-0.01c0.278,0,0.551-0.03,0.801-0.19c0.181-0.13,0.341-0.31,0.511-0.6c0.028-0.06,0.069-0.13,0.101-0.2
	h0.029c0.109,0,0.221,0.11,0.33,0.1c0.318-0.02,0.63-0.09,0.95-0.1h1.5c0.01,0,0.01,0,0.02,0h1.23c0.5,0,1-0.08,1.489-0.1
	c0.369-0.05,0.737-0.03,1.101-0.03c0.13,0,0.278,0.13,0.438,0.13h3.028c0.013,0,0.013,0,0.021,0h1.039
	c0.188,0.01,0.371,0.04,0.541,0.08c0.141,0.02,0.271-0.08,0.397-0.08h0.013c0.987,0,1.607,1.18,1.327,2.25
	c-2,0.61-4.02,0.74-6.067,1.61L231.73,162.204z"/>
<path class="bigStroke" d="M231.869,77.569
	c6.622,2.208,12.878,8.702,15.943,14.746c3.817,7.531,8.822,14.94,12.049,22.718c1.465,3.527,3.416,6.813,5.533,9.984
	c2.912,4.36,5.586,8.092,6.194,13.477c0.079,0.702-0.308,1.105-0.271,1.856c0.123,2.545,1.49,4.576,1.992,6.985
	c0.438,2.097,0.127,4.279,0.625,6.44c1.693,7.365,7.491,15.462,12.597,20.853c3.737,3.949,7.974,7.714,10.087,12.935
	c2.158,5.333-1.122,10.041-6.102,12.278c-6.193,2.785-11.471,4.56-7.442,11.583c1.896,3.306,2.72,6.884,3.038,10.62
	c0.369,4.348-5.828,6.891-9.221,8.379c-5.482,2.407-13.623,3.354-19.606,4.428"/>
<path class="bigStroke" d="M279.107,233.24
	c1.578,1.945,2.908,7.636,1.348,9.656c-2.051,2.651-5.945,3.039-7.586,6.514c-1.268,2.686-0.247,1.879,0.352,4.599
	c2.657,12.114-1.367,30.417-15.304,33.886c-5.294,1.317-10.565,3.071-15.588,4.551c-4.448,1.312-10.13,0.777-14.068,3.457
	c-4.896,3.33-6.841,7.479-7.92,13.026c-1.373,7.062-3.373,11.318-7.5,17.3c-4.771,6.913-11.965,15.063-9.69,24.034"/>
<path class="bigStroke" d="M122.362,168.288
	c-3.792-0.61-7.723,5.977-9.399,8.603c-3.768,5.901-3.384,12.274-1.887,18.977c3.068,13.735,10.076,28.004,22.773,34.956
	c5.091,2.787,12.184,7.113,18.305,6.115c5.1-0.832,11.855-10.754,9.125-15.775"/>
<path class="bigStroke" d="M150.276,195.128
	c-0.855,2.855-0.775,7.903,0.243,10.707c0.875,2.409,3.773,3.772,4.541,6.014c1.725,5.034-6.616,1.467-8.882,1.055
	c-4.475-0.814-9.857,3.949-12.891-0.258c-3.708-5.143-1.409-12.847,3.837-15.907"/>
<path class="bigStroke" d="M124.51,175.535
	c-2.066,0.876-2.584,4.359-3.16,6.266c-1.586,5.256-2.136,10.558-1.898,16.042c0.31,7.147,2.938,14.566,7.278,20.338
	c3.175,4.222,9.018,7.464,13.346,2.712"/>
<path class="bigStroke" d="M205,339.188
	c5.312,6.129,8.82,14.104,11.009,21.847c1.074,3.803,1.546,7.543,1.989,11.447c0.452,3.971,1.873,8.111,1.902,12.167
	c-7.86-8.383-14.812-15.396-24.801-21.563c-1.812-1.121-3.648-2.17-5.512-3.18c-4.771-2.621-9.646-5.021-14.39-7.725
	c-6.183-3.52-11.91-7.406-18.25-10.736c-3.891-2.039-7.84-4.143-11.77-6.312c-6.83-3.75-13.61-7.711-20.02-11.971
	c-0.25-0.16-0.49-0.33-0.74-0.49c-2.19-1.479-4.51-2.84-6.85-4.199c-6.29-3.631-12.79-7.18-17.72-12.43
	c-6.75-7.181,1.02-8.92,5.87-13.75"/>
<path class="bigStroke" d="M16.01,476.083
	c1.02-9.541,3.87-18.801,8.68-27.07c1.36-2.35,2.21-4.561,2.77-6.721"/>
<path class="bigStroke" d="M103.812,292.833
	c-0.105-0.299,0.188-0.41-0.175-0.59c-5.475,1.176-10.172,4.666-13.67,8.948c-3.282,4.019-3.549,9.319-5.825,13.835
	c-2.132,4.227-4.513,3.584-8.321,5.375c-6.1,2.873-9.634,9.066-7.536,15.411c-3.751-0.651-4.666,5.128-5.971,7.565
	c-4.244,7.941-8.898,14.883-12.326,23.336"/>
<path class="bigStroke" d="M275,490.087c-3.521-2.797-2.309-8.888-2.48-12.742
	c-0.219-4.903-1.83-9.384-2.713-14.276c-2.279-12.631-4.341-25.309-7.182-37.828c-2.896-12.764-3.555-27.331-9.641-39.087
	c-6.015-11.62-10.737-22.993-19.485-32.69c-3.399-3.77-6.89-7.628-10.519-11.239c-3.75-3.719-8.842-8.066-10.9-13.09
	c2.92,0,5.49,3.771,7.16,5.82c3.318,4.08,6.688,8.17,10.17,12.121c1.029,1.17,1.97,2.646,3.04,3.889
	c0.021,0.031,0.05,0.051,0.069,0.08c0.438,0.51,0.92,0.971,1.42,1.361c-1.41-1.791-1.779-3.861-2.33-5.961
	c-0.17-0.67-0.369-1.33-0.603-1.99c-0.05-0.15-0.101-0.312-0.147-0.459c-0.909-2.562-2.109-5.07-3.289-7.541
	c-0.012-0.021-0.021-0.049-0.03-0.07c-0.011-0.01-0.021-0.049-0.021-0.049h0.42H228v0.039c-0.02-0.021-0.04-0.029-0.061-0.039
	c-0.939-0.711-0.869-1.4-1.189-2.1c-2.58-5.555-7.01-10.48-9.16-16.184c-0.08-0.17-0.14-0.34-0.21-0.541"/>
<path class="bigStroke" d="M115.116,367.708
	c-4.372-7.154-10.348-13.281-14.784-20.455c-2.585-4.182-8.811-11.545-8.335-16.924c3.147-0.055,7.865,7.299,9.626,9.463
	c4.759,5.848,9.314,11.959,13.477,18.248c2.953,4.461,5.772,9.014,9.864,12.545c3.695,3.189,7.781,5.928,11.625,8.932"/>
<path class="bigStroke" d="M160.207,370.392
	c-3.068-0.314-5.813-2.262-8.376-3.779c-5.018-2.977-9.908-6.16-14.769-9.387c-2.24-1.482-18.541-10.74-17-14.236
	c4.682,0.895,9.026,3.955,13.045,6.295c5.799,3.377,11.56,6.801,17.414,10.08c7.993,4.479,15.62,9.596,23.643,13.98"/>
<path class="bigStroke" d="M139.81,339.792
	c7.4,6.371,14.15,13.26,22.09,19.051c10.84,7.91,22.879,14.039,34.5,20.699c7.17,4.109,15.072,6.674,22.1,11.145"/>
<path class="bigStroke" d="M118.874,264.914
	c-2.282,10.461-6.401,27.5-14.494,34.893"/>
<path class="bigStroke" d="M271.861,187.075
	c-8.418-0.302-8.506,15.731-0.027,16.678c5.256,0.588,11.376-10.413,16.49-5.366c-2.217,0.041-4.27,0.271-6.264-0.04"/>
<path class="bigStroke" d="M257.368,168.287
	c2.36,5.774-6.677,15.253-10.2,19.325"/>
<path class="stroke" d="M182.752,212.036c-3.791-4.033-6.796-9.985-8.318-15.299"/>
<path class="stroke" d="M172.285,203.984c3.033,4.447,5.619,9.091,8.855,13.421"/>
<path class="stroke" d="M177.385,199.153c2.137,4.549,4.694,9.612,8.32,13.152"/>
<path class="stroke" d="M172.555,202.643c2.994,4.099,5.52,8.48,8.856,12.347"/>
<path class="stroke" d="M170.943,191.906c1.746,5.028,3.75,9.745,6.173,14.494"/>
<path class="stroke" d="M174.434,191.37c1.658,4.558,4.035,8.686,6.44,12.883"/>
<path class="stroke" d="M177.652,216.6c1.929,4.154,3.727,8.183,6.174,12.078"/>
<path class="stroke" d="M181.411,214.99c2.862,5.667,5.207,11.388,8.856,16.64"/>
<path class="stroke" d="M185.168,219.283c-0.314-0.949-0.688-1.874-1.123-2.773
	c2.005,5.94,5.748,12.868,10.249,17.267"/>
<path class="stroke" d="M180.337,216.6c1.675,4.579,4.103,8.954,6.979,12.883"/>
<path class="stroke" d="M184.898,214.185c2.035,4.024,3.564,8.195,5.906,12.078"/>
<path class="stroke" d="M187.047,216.331c2.583,4.632,5.152,9.155,8.32,13.419"/>
<path class="stroke" d="M191.342,219.821c2.668,4.215,5.809,8.136,8.856,12.078"/>
<path class="stroke" d="M196.979,223.578c2.117,2.646,4.166,5.323,6.174,8.052"/>
<path class="stroke" d="M200.467,224.919c1.895,2.539,3.652,5.122,5.368,7.785"/>
<path class="stroke" d="M198.051,230.556c1.592,2.155,3.061,4.64,3.758,7.247"/>
<path class="stroke" d="M198.051,232.167c0.568,1.69,1.105,3.391,1.61,5.1"/>
<path class="stroke" d="M175.773,225.458c2.906,4.808,7.295,8.961,11.004,13.15"/>
<path class="stroke" d="M177.652,232.167c-0.33-0.488-0.596-0.61-0.797-0.368
	c3.463,3.645,7.117,7.073,10.728,10.568"/>
<path class="stroke" d="M181.947,236.192c2.988,2.391,5.377,5.373,7.783,8.321"/>
<path class="stroke" d="M187.047,236.461c2.33,2.79,4.243,6.052,6.174,9.126"/>
<path class="stroke" d="M188.657,236.998c2.749,1.662,4.431,6.577,5.637,9.395"/>
<path class="stroke" d="M189.999,236.998c2.619,2.997,4.507,6.633,6.711,9.932"/>
<path class="stroke" d="M192.146,235.12c3.668,5.046,6.449,10.627,8.854,16.371"/>
<path class="stroke" d="M192.146,229.75c2.752,3.878,4.672,8.342,6.709,12.616"/>
<path class="stroke" d="M195.1,230.825c2.694,4.48,4.715,9.131,6.709,13.957"/>
<path class="stroke" d="M199.125,232.435c4.309,3.821,5.23,12.767,6.71,17.983"/>
<path class="stroke" d="M205.566,234.314c1.313,3.917,2.568,7.849,3.758,11.809"/>
<path class="stroke" d="M208.251,234.851c1.118,4.308,2.188,8.626,3.488,12.883"/>
<path class="stroke" d="M211.203,237.536c1.133,4.393,2.436,8.737,3.488,13.15"/>
<path class="stroke" d="M212.812,239.146c1.252,3.195,2.375,6.416,3.487,9.662"/>
<path class="stroke" d="M207.714,220.357c2.478,4.631,3.604,10.098,5.368,15.03"/>
<path class="stroke" d="M209.057,219.552c2.123,4.624,3.983,9.363,6.174,13.957"/>
<path class="stroke" d="M210.398,216.6c2.305,5.61,4.396,11.302,6.709,16.909"/>
<path class="stroke" d="M212.545,220.088c2.451,4.402,4.08,9.277,5.905,13.957"/>
<path class="stroke" d="M214.424,220.894c2.954,6.412,5.775,12.838,9.126,19.057"/>
<path class="stroke" d="M173.627,245.855c-0.217-0.132-0.327-0.321-0.331-0.568
	c4.386-1.766,10.853,5.667,13.214,8.62"/>
<path class="stroke" d="M180.605,245.049c3.068,3.087,6.143,6.805,8.052,10.736"/>
<path class="stroke" d="M184.898,247.734c2.652,1.942,3.951,5.764,5.369,8.588"/>
<path class="stroke" d="M186.777,248.003c3.041,1.348,5.087,7.552,6.175,10.467"/>
<path class="stroke" d="M189.193,248.54c3.137,1.954,4.476,7.206,5.637,10.467"/>
<path class="stroke" d="M191.879,247.734c2.007,3.361,3.311,7.046,4.562,10.736"/>
<path class="stroke" d="M194.294,249.344c2.149,3.663,4.095,8.582,4.026,12.885"/>
<path class="stroke" d="M180.605,238.34c2.842,2.707,5.312,5.777,8.052,8.589"/>
<path class="stroke" d="M185.438,241.561c3.022,2.417,5.763,5.688,8.319,8.589"/>
<path class="stroke" d="M189.999,244.782c2.261,1.249,3.567,3.655,5.101,5.637"/>
<path class="stroke" d="M193.221,245.855c1.865,1.805,2.645,4.553,4.025,6.71"/>
<path class="stroke" d="M197.246,249.344c0.977,2.396,1.878,4.787,2.686,7.247"/>
<path class="stroke" d="M198.588,244.513c2.148,3.994,2.873,8.545,4.026,12.883"/>
<path class="stroke" d="M201.541,246.929c1.764,3.444,2.13,7.536,2.952,11.272"/>
<path class="stroke" d="M202.346,247.198c2.779,0.982,3.401,8.24,4.295,10.735"/>
<path class="stroke" d="M205.029,247.734c2.605,1.889,2.869,8.316,2.953,11.272"/>
<path class="stroke" d="M206.372,242.634c2.007,4.424,2.948,9.691,3.489,14.493"/>
<path class="stroke" d="M210.398,246.392c1.033,3.135,1.06,6.409,1.341,9.663"/>
<path class="stroke" d="M213.082,248.54c0.798,2.619,0.552,5.356,0.537,8.052"/>
<line class="stroke" x1="215.5" y1="250.333" x2="215.5" y2="255.333"/>
<path class="stroke" d="M218.45,248.27c0.917,2.095,0.6,4.573,0,6.711"/>
<path class="stroke" d="M221.134,249.344c0.116,1.963,0.101,4.024-0.536,5.905"/>
<path class="stroke" d="M222.744,249.614c1.085,1.958,0.279,4.557,0,6.708"/>
<path class="stroke" d="M216.57,235.656c1.893,3.717,3.688,7.611,5.101,11.542"/>
<path class="stroke" d="M221.134,240.218c0.813,2.638,1.761,5.276,1.88,8.052"/>
<path class="stroke" d="M223.281,240.218c0.595,2.403,1.093,4.827,1.609,7.247"/>
<path class="stroke" d="M225.697,239.413c1.037,1.688,1.447,3.687,1.609,5.637"/>
<path class="stroke" d="M225.428,224.383c0.524,3.807-0.559,7.487-0.535,11.272"/>
<path class="stroke" d="M227.038,225.994c0.63,2.847,0.448,6.571-0.269,9.394"/>
<path class="stroke" d="M228.918,229.214c0.541,2.607-0.273,5.411-0.27,8.052"/>
<path class="stroke" d="M230.527,232.704c0.089,3.355-0.406,6.653-1.073,9.93"/>
<path class="stroke" d="M229.991,240.218c0.461,1.568-0.511,3.723-1.073,5.101"/>
<path class="stroke" d="M224.893,250.15c0.479,2.019,0.365,4.139,0,6.172"/>
<path class="stroke" d="M227.575,247.465c0.401,2.397,0.274,4.828,0.269,7.246"/>
<path class="stroke" d="M231.602,239.682c0.594,3.888-0.373,7.948-0.806,11.809"/>
<path class="stroke" d="M233.479,238.34c0.158,4.459-0.761,8.719-0.805,13.15"/>
<path class="stroke" d="M235.359,238.072c0.56,4.044-0.172,8.038,0,12.078"/>
<path class="stroke" d="M236.434,238.876c1.131,2.342-0.133,5.271,0.807,7.783"/>
<path class="stroke" d="M238.58,237.536c1.141,2.443,0.635,5.745,0.27,8.319"/>
<path class="stroke" d="M254.684,228.945c0.077,2.695-0.019,5.401-0.537,8.052"/>
<path class="stroke" d="M257.1,225.188c-0.037,2.872-0.521,5.735-0.806,8.588"/>
<path class="stroke" d="M258.441,224.652c0.386,2.31,0.279,4.647,0.269,6.978"/>
<path class="stroke" d="M260.052,223.847c0.535,2.028,0.099,4.119,0,6.172"/>
<path class="stroke" d="M260.589,225.458c0.222,1.34,0.222,2.683,0,4.026"/>
<path class="stroke" d="M263.811,222.504c-0.303,2.215-0.793,4.469-0.807,6.71"/>
<path class="stroke" d="M264.614,220.894c0.071,2.499-0.189,5.259-1.343,7.516"/>
<path class="stroke" d="M265.957,220.088c1.104,1.87,0.135,4.42-0.537,6.441"/>
<path class="stroke" d="M267.298,219.552c0.816,2.247-0.075,5.093-0.805,7.247"/>
<path class="stroke" d="M268.641,218.747c0.592,2.723-0.271,5.728-1.072,8.321"/>
<path class="stroke" d="M269.714,218.747c0.259-0.038,0.517-0.075,0.774-0.112
	c0.596,2.294-0.25,6.476-1.312,8.165"/>
<path class="stroke" d="M272.667,214.99c0.237,0.095,0.476,0.191,0.714,0.286
	c0.395,3.249-0.884,6.496-1.52,9.644"/>
<path class="stroke" d="M274.277,214.99c0.394,3.289,0.101,6.689-0.537,9.93"/>
<path class="stroke" d="M275.619,213.646c1.072,2.348,0.396,5.451,0.27,8.052"/>
<path class="stroke" d="M276.691,210.426c0.455,3.801,0.24,7.877,1.344,11.542"/>
<path class="stroke" d="M278.303,210.426c1.449,3.281,0.553,7.085,1.61,10.468"/>
<path class="stroke" d="M278.57,211.5c0.676,2.546,0.916,6.78,2.686,8.857"/>
<path class="stroke" d="M280.182,213.11c0.285,0.945,1.207,5.002,1.879,4.562"/>
<path class="stroke" d="M281.523,213.379c0.447,1.734,1.082,3.392,1.607,5.099"/>
<path class="stroke" d="M282.598,216.062c0.258,1.513,0.561,3.021,0.536,4.563"/>
<path class="stroke" d="M218.986,280.479c4.906-0.694,8.611-6.037,12.615-8.588"/>
<path class="stroke" d="M226.771,277.257c2.914-1.022,5.504-2.771,8.316-4.024"/>
<path class="stroke" d="M228.381,278.332c1.755-1.604,3.733-3.189,6.174-3.488"/>
<path class="stroke" d="M225.965,282.357c2.412-2.262,5.557-3.83,8.59-5.102"/>
<path class="stroke" d="M229.723,282.626c2.43-1.733,4.9-3.387,7.518-4.832"/>
<path class="stroke" d="M228.918,289.335c3.382-1.67,6.184-5.637,9.125-8.051"/>
<path class="stroke" d="M231.064,291.484c4.556-3.787,7.92-8.859,12.615-12.615"/>
<path class="stroke" d="M236.164,290.141c4.936-2.685,9.17-8.207,12.884-12.347"/>
<path class="stroke" d="M238.312,292.02c5.188-3.509,8.791-8.972,13.957-12.612"/>
<path class="stroke" d="M244.484,291.484c5.289-2.875,8.99-9.166,12.347-13.957"/>
<path class="stroke" d="M251.999,287.189c2.847-3.4,5.761-7.029,7.784-11.004"/>
<path class="stroke" d="M256.294,286.652c2.632-3.021,5.049-7.271,5.638-11.271"/>
<path class="stroke" d="M260.32,281.285c2.215-3.508,3.498-7.682,3.757-11.811"/>
<path class="stroke" d="M260.052,284.773c2.759-2.449,3.48-8.957,4.025-12.613"/>
<path class="stroke" d="M262.467,282.895c1.578-3.396,2.031-7.056,2.416-10.733"/>
<path class="stroke" d="M264.348,281.822c1.852-4.564,2.322-9.629,2.686-14.494"/>
<path class="stroke" d="M266.762,276.453c2.18-1.771,1.613-7.896,1.61-10.467"/>
<path class="stroke" d="M268.908,273.232c1.464-2.383,0.812-5.916,0.806-8.59"/>
<path class="stroke" d="M270.251,271.083c0.912-2.51,0.669-5.521,0-8.051"/>
<path class="stroke" d="M237.506,248.27c-0.023,3.673-2.877,7.821-4.025,11.272"/>
<path class="stroke" d="M239.385,248.27c-0.509,3.613-2.296,7.046-3.488,10.468"/>
<path class="stroke" d="M241.801,247.465c1.549-0.176-1.761,7.309-2.416,8.856"/>
<path class="stroke" d="M243.143,246.124c0.131-1.158,0.59-1.655,1.381-1.491
	c-0.588,3.896-2.121,7.663-3.26,11.423"/>
<path class="stroke" d="M248.511,242.903c-0.54,3.788-1.556,7.354-2.684,11.004"/>
<path class="stroke" d="M250.926,241.292c0.928,4.611-2.949,11.464-4.294,15.835"/>
<path class="stroke" d="M250.389,248.003c0.326-0.095,0.652-0.189,0.979-0.283
	c0.489,4.958-2.521,11.471-4.198,16.117"/>
<path class="stroke" d="M251.999,256.591c-0.808,5.125-2.781,10.032-2.685,15.3"/>
<path class="stroke" d="M251.463,262.229c-0.044,4.416-0.66,8.75-0.805,13.149"/>
<path class="stroke" d="M253.073,266.253c0.145,2.529,0.114,4.985,0,7.517"/>
<path class="stroke" d="M254.684,265.449c0.4,2.848,0.275,5.723,0.271,8.588"/>
<path class="stroke" d="M256.294,265.984c0.397,2.031,0.572,4.104,0.537,6.176"/>
<path class="stroke" d="M257.904,266.791c0.195,1.16,0.375,2.324,0.537,3.488"/>
<path class="stroke" d="M261.395,261.421c0.289,2.399,0.433,4.832,0.537,7.248"/>
<path class="stroke" d="M264.077,261.691c0.019,2.24,0.114,4.49-0.269,6.709"/>
<path class="stroke" d="M266.762,258.47c0.344,1.867,0.106,3.792-0.269,5.637"/>
<path class="stroke" d="M268.641,258.738c0.812,1.592,0.643,3.48,0,5.102"/>
<path class="stroke" d="M200.467,259.542c2.172,2.373-1.436,10.774-5.16,11.36
	c-0.066-0.297-0.139-0.596-0.207-0.896"/>
<path class="stroke" d="M203.419,261.154c1.116,1.391-2.022,5.225-3.221,6.979"/>
<path class="stroke" d="M203.956,259.542c1.651,1.744-1.692,9.847-4.295,10.735"/>
<path class="stroke" d="M205.298,261.958c1.046,3.674-2.541,7.998-4.831,10.467"/>
<path class="stroke" d="M205.298,262.229c0.341-0.047,0.681-0.092,1.021-0.14
	c1.168,2.763-2.562,8.291-3.973,10.604"/>
<path class="stroke" d="M207.177,263.837c2.587,1.856-1.612,8.779-2.684,10.736"/>
<path class="stroke" d="M208.788,264.375c2.864,2.734-1.265,9.912-2.685,12.615"/>
<path class="stroke" d="M209.861,266.791c0.402,0.004,0.809,0.006,1.214,0.01
	c1.45,3.293-0.679,7.131-2.287,9.922"/>
<path class="stroke" d="M211.739,267.328c2.103,2.371-0.22,7.613-1.61,10.199"/>
<path class="stroke" d="M214.96,260.886c0.242-0.592,0.438-0.68,0.588-0.262
	c0.065,3.867-0.42,7.858-1.661,11.533"/>
<path class="stroke" d="M217.107,259.542c1.595,4.522-0.041,9.781-1.073,14.228"/>
<path class="stroke" d="M218.718,261.958c3.423,3.629-0.473,12.313-1.878,16.104"/>
<path class="stroke" d="M220.328,263.3c0.412,0.078,0.822,0.156,1.234,0.234
	c1.604,4.918-1.81,11.678-4.188,15.87"/>
<path class="stroke" d="M223.014,263.033c3.898,2.588-1.908,12.988-3.223,15.836"/>
<path class="stroke" d="M224.893,263.033c0.469-0.295,0.94-0.59,1.41-0.885
	c2.896,2.193-0.841,9.652-1.68,12.156"/>
<path class="stroke" d="M229.991,262.229c2.155,2.821-0.55,7.75-1.61,10.467"/>
<path class="stroke" d="M230.796,265.984c0.396-0.15,0.79-0.303,1.185-0.455
	c2.354,1.748-0.125,6.613-1.185,8.508"/>
<path class="stroke" d="M239.652,267.328c0.668,2.812-0.422,5.803-1.609,8.318"/>
<path class="stroke" d="M240.459,268.4c0.466-0.742,1.027-0.977,1.688-0.695
	c-0.099,2.666-0.68,5.469-1.688,7.941"/>
<path class="stroke" d="M245.29,266.523c0.776,3.191-1.448,7.479-2.953,10.197"/>
<path class="stroke" d="M246.363,269.475c1.203,2.45-1.229,5.599-2.416,7.782"/>
<path class="stroke" d="M246.9,271.083c0.229,0.047,0.461,0.092,0.688,0.138
	c0.296,2.086-0.503,4.204-1.497,6.036"/>
<path class="stroke" d="M248.511,273.232c0.263-0.061,0.525-0.117,0.788-0.176
	c1.155,2.102-2.178,5.875-3.203,7.422"/>
<path class="stroke" d="M180.874,260.619c-0.474,0.084-0.578,0.244-0.313,0.48
	c3.556,0.557,7.197,0.312,10.781,0.32"/>
<path class="stroke" d="M185.168,263.568c0.788,0.467,4.507-0.469,6.174-0.805"/>
<path class="stroke" d="M186.777,267.596c2.514-0.38,4.438-3.253,6.712-4.562"/>
<path class="stroke" d="M190.536,266.791c2.622-0.537,4.248-3.328,5.637-5.367"/>
<path class="stroke" d="M192.146,271.083c2.371-1.437,3.648-4.315,4.83-6.709"/>
<path class="stroke" d="M194.83,268.132c0.984-1.682,1.699-3.471,2.146-5.368"/>
<path class="stroke" d="M209.057,258.202c1.209,1.687,0.357,5.118,0.271,6.711"/>
<path class="stroke" d="M211.202,257.396c1.045,1.684,0.688,4.727,0.271,6.711"/>
<path class="stroke" d="M212.275,258.47c0.312,2.102,0.563,4.396,0,6.441"/>
<path class="stroke" d="M213.618,256.591c0.925,2.266,0.546,4.862,0.536,7.247"/>
<path class="stroke" d="M215.229,256.055c1.246,2.092,0.539,5.464,0.537,7.782"/>
<path class="stroke" d="M218.718,254.712c0.417,2.483,0.274,5.011,0.269,7.517"/>
<path class="stroke" d="M220.061,254.175c0.903,1.685,0.938,3.771,0.808,5.638"/>
<path class="stroke" d="M221.938,254.712c0.766,2.269,0.554,4.631,0.537,6.979"/>
<path class="stroke" d="M223.279,256.86c1.214,1.193,0.865,3.371,0.807,5.101"/>
<path class="stroke" d="M225.965,254.981c1.646,1.507,1.219,4.07,0.807,6.173"/>
<path class="stroke" d="M228.111,254.712c0.248-0.025,0.496-0.051,0.746-0.076
	c0.978,2.286,0.031,5.28-0.479,7.593"/>
<path class="stroke" d="M231.602,253.371c1.979,0.959,0.443,6.419,0.271,8.052"/>
<path class="stroke" d="M245.021,257.396c0.11,2.566-0.758,5.135-1.61,7.518"/>
<path class="stroke" d="M244.753,261.421c0.446,2.396-0.071,4.636-0.537,6.979"/>
<path class="stroke" d="M257.636,271.623c0.427,1.768-0.538,3.602-0.805,5.367"/>
<path class="stroke" d="M260.318,270.548c0.349,1.834-0.185,3.566-0.535,5.367"/>
<path class="stroke" d="M261.395,270.548c0.607,0.914,0.701,1.943,0.271,2.951"/>
<line class="bigStroke" x1="178.592" y1="156.814" x2="256.294" y2="142.078"/>
<line class="bigStroke" x1="175.773" y1="168.248" x2="254.707" y2="164.262"/>
<path class="bigStroke" d="M268.971,138.822
	c-4.305-1.454-10.662-0.862-12.789,2.087c-2.615,3.626-0.508,12.948-0.211,17.139c0.283,4.043-0.312,9.164,3.934,11.372
	c3.147,1.638,9.83,3.259,12.213-0.459c1.57-2.455,1.376-8.165,1.775-11.05C274.713,152.012,276.398,141.333,268.971,138.822z"/>
<path class="stroke" d="M183.825,155.405c0.108-0.253,0.198-0.511,0.271-0.775
	c0.106,2.721-0.338,9.245,1.34,11.243"/>
<path class="stroke" d="M185.168,154.331c0.6,3.116-0.111,10.274,1.073,11.81"/>
<path class="stroke" d="M186.241,154.868c0.636,2.72,0.675,5.532,0.757,8.31
	c-0.059-1.987,0.169,5.002,0.049,2.426"/>
<path class="stroke" d="M186.777,155.405c0.933,1.998,0.527,4.52,0.605,6.637
	c-0.083-2.203,0.067,5.456,0.197,2.757"/>
<path class="stroke" d="M187.583,156.21c0.556,3.197,0.453,6.514,1.074,9.663"/>
<path class="stroke" d="M188.12,156.478c0.976,2.951,0.364,6.141,1.073,9.125"/>
<path class="stroke" d="M188.657,156.478c0.589,3.01,0.67,6.138,1.094,9.139
	c-0.007-0.631-0.015-1.261-0.021-1.892"/>
<path class="stroke" d="M189.462,155.941c1.062,3.395,0.489,7.463,1.074,11.004"/>
<path class="stroke" d="M189.999,156.747c1.155,3.104,0.669,6.526,1.61,9.662"/>
<path class="stroke" d="M191.072,156.478c0.419,3.491,0.496,7.042,1.343,10.468"/>
<path class="stroke" d="M191.609,156.747c0.894,3.52,0.679,7.339,1.879,10.736"/>
<path class="stroke" d="M192.415,156.21c0.89,3.292,0.694,7.144,1.878,10.199"/>
<path class="stroke" d="M193.488,155.941c1.093,3.326,1.027,7.051,1.879,10.467"/>
<path class="stroke" d="M195.1,155.136c0.395,3.6,1.094,7.153,1.609,10.736"/>
<path class="stroke" d="M195.636,154.6c1.456,3.078,0.123,9.325,2.345,12.344
	c-0.063-0.626-0.131-1.251-0.194-1.876"/>
<path class="stroke" d="M196.709,155.673c0.438,2.84,0.792,5.743,1.342,8.589"/>
<path class="stroke" d="M196.709,154.062c1.253,3.288,0.941,7.005,2.121,10.313
	c0.009-0.307,0.018-0.612,0.025-0.919"/>
<path class="stroke" d="M197.514,154.6c1.148,3.313,0.836,6.938,1.881,10.199"/>
<path class="stroke" d="M198.318,154.868c0.938,3.621,1.039,7.76,2.113,11.356
	c0.012-0.564,0.021-1.129,0.032-1.694"/>
<path class="stroke" d="M199.661,156.478c0.903,2.503,1.413,5.134,1.61,7.784"/>
<path class="stroke" d="M200.467,155.405c0.524,2.794,0.65,8.36,2.147,10.199"/>
<path class="stroke" d="M201.809,155.405c0.291,2.333,0.719,7.788,1.342,8.857"/>
<path class="stroke" d="M202.077,153.257c0.985,4.088,1.53,8.239,2.416,12.346"/>
<path class="stroke" d="M203.419,153.794c1.22,3.848,0.979,7.962,2.147,11.809"/>
<path class="stroke" d="M204.225,154.062c1.256,3.819,0.955,8.083,2.416,11.81"/>
<path class="stroke" d="M205.029,155.405c0.847,3.103,1.104,6.344,2.146,9.394"/>
<path class="stroke" d="M206.104,154.062c0.834,3.409,0.604,7.68,2.416,10.736"/>
<path class="stroke" d="M207.177,154.331c0.854,3.359,1.04,6.909,2.147,10.2"/>
<path class="stroke" d="M207.714,153.525c1.152,3.387,1.197,7.323,2.685,10.468"/>
<path class="stroke" d="M209.324,155.405c0.584,2.705,0.785,5.762,1.878,8.32"/>
<path class="stroke" d="M209.324,150.842c1.461,3.442,1.508,10.756,2.951,12.615"/>
<path class="stroke" d="M210.936,154.062c0.604,2.375,1.4,9.858,2.686,10.468"/>
<path class="stroke" d="M211.739,153.525c1.079,3.9,1.624,7.906,2.684,11.81"/>
<path class="stroke" d="M212.812,155.405c0.938,3.224,0.963,7.127,2.599,10.076
	c0.028-0.227,0.058-0.455,0.086-0.683"/>
<path class="stroke" d="M214.154,159.162c1.031,2.261,1.22,4.626,1.879,6.979"/>
<path class="stroke" d="M215.229,161.042c0.744,1.832,1.401,3.714,1.879,5.636"/>
<path class="stroke" d="M238.312,145.743c0.707,4.172-0.637,13.943,1.877,16.64"/>
<path class="stroke" d="M239.116,145.206c0.944,6.254,1.188,12.585,2.146,18.84
	c-0.016-1.363-0.104-2.723-0.268-4.079"/>
<path class="stroke" d="M240.189,147.889c0.625,4.702,0.147,10.311,1.645,14.8
	c-0.011-0.639-0.021-1.278-0.034-1.917"/>
<path class="stroke" d="M240.459,148.694c-0.018-0.37-0.031-0.737-0.047-1.107
	c0.386,4.691,1.354,13.364,2.193,16.138"/>
<path class="stroke" d="M240.995,148.426c0.897,5.176,1.556,10.386,2.415,15.567"/>
<path class="stroke" d="M241.532,148.963c1.069,4.76,1.96,9.63,2.415,14.494"/>
<path class="stroke" d="M242.337,148.426c0.911,4.376,1.503,9.839,2.147,13.688"/>
<path class="stroke" d="M243.143,148.963c0.743,4.286,1.342,8.566,1.879,12.883"/>
<path class="stroke" d="M246.631,143.863c-0.017,2.455-0.025,4.902,0.041,7.358
	c0.077,2.845-0.671,9.396,1.033,11.966"/>
<path class="stroke" d="M247.168,144.938c0.253,6,0.439,11.989,0.807,17.982"/>
<path class="stroke" d="M247.438,147.084c0.097-0.555,0.188-1.109,0.283-1.664
	c1.271,4.327-1.529,12.544,1.061,16.158"/>
<path class="stroke" d="M247.705,145.743c1.369,6.355,0.702,13.14,1.609,19.593"/>
<path class="stroke" d="M248.241,146.816c1.653,5.716,1.415,12.666,1.61,18.52"/>
<path class="stroke" d="M248.511,148.158c0.087-0.257,0.175-0.514,0.263-0.771
	c0.953,5.374,0.746,10.91,1.576,16.306c0.017-0.348,0.026-0.695,0.039-1.042"/>
<path class="stroke" d="M249.314,144.938c0.55,6.025,0.703,14.111,1.608,19.056"/>
<path class="stroke" d="M249.584,147.889c1.753,2.428,1.164,12.579,1.646,17.075
	c-0.016-0.502-0.023-1.006-0.035-1.507"/>
<path class="stroke" d="M250.121,146.011c0.66,6.163,1.066,12.345,1.609,18.521"/>
<path class="stroke" d="M250.657,148.426c2.101,1.471,1.597,12.678,1.879,15.441
	c-0.058-1.124-0.147-2.245-0.269-3.363"/>
<path class="stroke" d="M251.73,147.621c0.914-2.056,1.22,9.136,1.02,6.579
	c0.262,3.341,0.402,6.68,0.609,10.022c-0.006-0.613-0.012-1.226-0.021-1.839"/>
<path class="stroke" d="M251.999,146.279c0.841,4.997,0.769,10.107,1.571,15.107
	c0.014-0.294,0.023-0.588,0.039-0.881"/>
<path class="stroke" d="M252.268,147.353c0.442,5.123,1.252,10.246,1.883,15.352
	c0.035-2.567-0.547-5.927-0.809-8.374"/>
<path class="stroke" d="M252.805,146.548c1.611,4.12,0.516,10.063,1.61,14.762"/>
<path class="stroke" d="M256.831,144.938c0.017-0.294,0.03-0.588,0.046-0.882
	c0.662,4.825,0.645,9.719,1.281,14.553c0.246,1.873,0.359,6.495,1.374,8.311c0.532,0.954-0.089,1.333,1.323,1.637"/>
<path class="stroke" d="M261.125,143.595c-1.064,4.515-2.464,8.823-3.221,13.42"/>
<path class="stroke" d="M261.93,146.548c0.645,6.393-1.65,13.435-2.146,19.861"/>
<path class="stroke" d="M263.004,153.257c0.201,5.101-1.163,11.459,0.27,16.372"/>
<path class="stroke" d="M264.614,157.015c0.226,3.663-0.587,11.146,2.415,13.957"/>
<path class="stroke" d="M183.289,157.284c-0.287-0.144,0.917,5.871,1.072,7.515"/>
<path class="stroke" d="M182.215,156.747c0.271,2.793,0.838,5.704,1.881,8.321"/>
<path class="stroke" d="M181.143,155.673c0.062,3.506,0.955,7.098,1.879,10.468"/>
<path class="stroke" d="M179.8,155.941c0.716,3.292,1.296,6.613,1.88,9.931"/>
<path class="stroke" d="M179.264,157.015c0.041,2.876,0.598,6.08,1.342,8.857"/>
<path class="stroke" d="M178.189,158.089c-0.031,2.416,1.24,6.677,0.537,8.32"/>
<path class="stroke" d="M175.506,158.626c-0.027,2.604,0.721,5.183,0.537,7.783"/>
<path class="stroke" d="M173.09,158.626c0.406,2.295,0.527,4.655,0.807,6.978"/>
<path class="stroke" d="M171.479,159.967c-0.326,1.961-0.35,3.961-0.806,5.905"/>
<line class="stroke" x1="214.423" y1="156.478" x2="238.312" y2="153.499"/>
<line class="stroke" x1="215.229" y1="159.699" x2="239.116" y2="158.089"/>
<line class="stroke" x1="212.143" y1="153.392" x2="238.177" y2="149.634"/>
<line class="stroke" x1="216.033" y1="163.322" x2="240.459" y2="161.578"/>
<path class="stroke" d="M244.484,146.01c1.084,2.781,0.371,7.272,0.531,10.189
	c0.176,3.234,0.199,6.489,0.812,9.673"/>
<path class="stroke" d="M186.107,110.85c5.795,2.974,22.377,24.479,14.896,30.598"/>
<path class="stroke" d="M187.718,113.668c7.2,3.406,19.419,25.702,13.286,33.013"/>
<path class="stroke" d="M186.51,117.292c8.688,0.019,15.127,22.846,11.676,29.39"/>
<path class="stroke" d="M186.913,119.305c5.558,3.418,14.272,25.864,7.246,30.195"/>
<path class="stroke" d="M186.913,122.123c6.022,7.375,8.383,22.533,5.233,31.402"/>
<path class="stroke" d="M181.68,119.707c5.18,8.694,11.764,26.363,6.844,35.832"/>
<path class="stroke" d="M178.057,122.525c6.547,4.179,13.551,27.444,8.453,33.818"/>
<path class="stroke" d="M155.912,92.197c1.097,1.481,1.361,4.268,1.566,5.962
	c0.399,3.346,0.059,6.866-1.258,9.994c-0.876,2.082-2.313,4.165-4.5,5c-0.847,0.323-3.019,0.972-3.324-0.29"/>
<path class="stroke" d="M154.57,93.807c1.318,4.954,0.537,19.834-6.979,19.056"/>
<path class="stroke" d="M151.484,93.136c1.578,5.185-0.135,12.411-2.165,17.314
	c-0.675,1.628-1.797,3.591-3.579,4.212c-1.394,0.485-2.794-0.061-2.98-1.666"/>
<path class="stroke" d="M147.86,91.392c0.572,3.988,0.286,8.108-0.336,12.072
	c-0.444,2.828-0.875,6.301-2.683,8.685c-0.977,1.287-3.459,3.592-5.167,2.191"/>
<path class="stroke" d="M145.445,90.586c2.119,3.316,1.235,9.209,0.507,12.769
	c-0.465,2.271-3.115,13.105-7.352,11.387"/>
<path class="stroke" d="M142.09,90.586c0.857,0.629,0.818,1.909,0.976,2.908
	c0.445,2.826,0.553,5.787,0.336,8.643c-0.221,2.932-1.205,5.714-2.544,8.314c-0.729,1.415-2.032,4.502-4.001,4.425"/>
<path class="stroke" d="M138.601,88.438c1.854,3.933,2.507,8.438,2.457,12.76
	c-0.039,3.363-0.649,13.69-5.812,13.678"/>
<path class="stroke" d="M136.856,89.646c0.738,0.907,0.848,2.61,1.072,3.759
	c0.628,3.214,0.894,6.577,0.371,9.827c-0.49,3.048-1.487,6.118-3.42,8.571c-0.735,0.934-2.855,3.365-3.794,1.193"/>
<path class="stroke" d="M134.038,88.036c0.762,0.41,0.931,1.911,1.105,2.729
	c0.744,3.49,0.824,7.081,0.364,10.615c-0.178,1.366-2.648,13.268-5.764,10.812"/>
<path class="stroke" d="M130.28,86.963c-0.143-0.227-0.329-0.344-0.364-0.607
	c2.065,3.874,2.404,8.892,2.509,13.187c0.07,2.831-0.438,5.798-1.331,8.486c-0.237,0.715-1.558,4.447-2.693,2.285"/>
<path class="stroke" d="M127.193,86.694c1.418,2.87,2.071,6.124,2.407,9.288
	c0.445,4.205,0.825,11.991-2.542,15.271"/>
<path class="stroke" d="M100.89,108.032c-0.239,0.113-0.358,0.268-0.631,0.255
	c4.811-2.114,11.839-1.96,16.297,0.687c3.408,2.024,5.835,5.493,7.797,8.838c1.74,2.964,3.139,6.14,4.197,9.41
	c0.351,1.084,1.739,4.16,0.657,5.502"/>
<path class="stroke" d="M98.609,110.984c0.933-1,2.47-1.037,3.738-1.085
	c3.9-0.152,7.927,1.525,10.645,4.323c3.469,3.572,6.052,8.166,7.526,12.895c1.356,4.345,2.414,8.953,0.099,13.124"/>
<path class="stroke" d="M99.012,113.668c4.361,0.21,8.151,0.585,11.645,4.421
	c3.842,4.219,6.23,9.416,7.693,14.889c0.899,3.367,2.266,9.438-0.416,12.361"/>
<path class="stroke" d="M98.206,116.755c1.829-0.205,3.591,1.233,4.945,2.26
	c2.754,2.092,5.056,4.726,6.863,7.667c2.409,3.92,3.997,8.157,4.775,12.696c0.326,1.9,1.785,8.451-1.687,9.047"/>
<path class="stroke" d="M108.137,107.763c1.941-0.122,3.42,0.757,4.932,1.922
	c3.499,2.699,6.667,6.317,8.886,10.139c2.332,4.015,3.903,8.572,4.698,13.142c0.498,2.858,1.752,8.819-2.01,10.093"/>
<path class="stroke" d="M97.267,118.633c5.696,2.214,9.938,8.286,12.095,13.827
	c1.354,3.479,3.446,10.323-1.225,12.342"/>
<path class="stroke" d="M73.916,133.262c-0.232-0.248,1.425-1.738,1.894-2.132
	c3.321-2.803,8-4.411,12.313-3.488c10.351,2.216,25.073,14.833,18.94,26.421"/>
<path class="stroke" d="M84.92,124.405c1.51-0.579,2.423-1.507,4.179-1.315
	c3.391,0.371,7.44,3.716,10.026,5.721c6.369,4.94,11.702,12.539,9.414,20.958"/>
<path class="stroke" d="M92.973,121.586c3.203,0.411,6.378,2.436,8.872,5.36
	c2.675,3.135,4.371,7.061,5.47,11.013c0.686,2.466,1.404,5.742-0.117,8.05"/>
<path class="stroke" d="M72.977,141.582c0.053,0.167,0.008,0.259-0.134,0.276
	c-0.578-1.314,0.127-2.828,0.904-3.917c2.714-3.805,6.978-5.214,11.469-4.417c7.267,1.29,16.814,4.467,16.613,13.56"/>
<path class="stroke" d="M73.111,149.902c-0.256-5.363,3.334-9.643,8.283-11.182
	c3.177-0.987,6.706-1.515,9.975-0.654c2.868,0.755,7.033,2.535,8.583,5.261"/>
<path class="stroke" d="M74.05,155.673c-0.542-4.722,2.132-9.353,6.42-11.312
	c3.905-1.785,11.194-3.688,15.186-1.168"/>
<path class="stroke" d="M79.687,163.054c-1.112-1.013-0.881-3.972-0.854-5.163
	c0.105-4.803,1.623-7.83,6.067-9.694c4.364-1.83,12.358-6,16.662-2.052"/>
<path class="stroke" d="M83.847,167.483c-3.028,1.121-0.922-7.771-0.542-8.819
	c1.337-3.703,3.068-6.67,6.32-9.034c3.391-2.465,7.67-5.225,11.667-2.814"/>
<path class="stroke" d="M85.86,169.629c-0.524-0.848-0.584-2.18-0.61-3.103
	c-0.143-4.996,2.539-9.125,6.905-11.276c3.137-1.544,9.25-4.778,12.358-1.457"/>
<path class="stroke" d="M87.873,174.863c-0.338-0.75-0.13-2.268-0.047-3.152
	c0.453-4.875,4.118-10.101,7.891-13.066c1.937-1.521,10.336-6.616,11.614-1.764"/>
<path class="stroke" d="M177.52,170.435c0.03-0.117-0.013-0.269,0-0.392
	c4.885,4.763,2.653,13.801-2.291,17.544c-2.998,2.269-7.393,1.016-10.75,0.459c-1.598-0.264-5.764-0.515-5.881-2.85"/>
<path class="stroke" d="M174.164,171.643c1.023,0.914,1.426,3.152,1.727,4.426
	c0.623,2.635,0.235,5.076-1.195,7.398c-2.25,3.652-6.34,4.55-10.316,3.485c-2.203-0.59-6.513-1.603-7.793-3.767"/>
<path class="stroke" d="M171.613,172.985c1.799,2.628,1.082,6.141-0.539,8.702
	c-1.092,1.726-2.617,3.172-4.45,4.087c-2.864,1.431-4.542,0.574-6.819-1.517"/>
<path class="stroke" d="M168.796,172.985c0.869,1.339,0.563,4.152,0.052,5.58
	c-0.841,2.349-3.668,4.967-6.271,5.054c-1.586,0.052-2.593-0.771-3.712-1.776"/>
<path class="stroke" d="M163.965,170.569c1.656,0.469,1.737,3.19,1.659,4.517
	c-0.198,3.343-2.326,7.41-5.551,8.769"/>
<path class="stroke" d="M181.545,169.361c1.492,1.858-1.189,9.873-2.014,9.26"/>
<path class="stroke" d="M183.691,170.032c0.106,1.139,0.192,2.211,0.002,3.374
	c-0.279,1.687-1.49,6.454-3.625,6.691"/>
<path class="stroke" d="M185.168,170.569c0.624,1.23,0.458,2.608,0.172,3.915
	c-0.305,1.396-2.552,8.313-4.466,7.895"/>
<path class="stroke" d="M186.777,170.167c0.914,1.328,0.177,4.241-0.139,5.633
	c-0.746,3.28-1.75,7.928-5.229,9.398"/>
<path class="stroke" d="M220.598,71.932c-3.16,1.262-3.462-9.983-3.49-11.26
	c-0.112-5.001,0.76-11.208,6.848-11.151"/>
<path class="stroke" d="M220.598,70.993c-1.648-2.158-1.522-5.484-1.312-8.021
	c0.2-2.414,1.799-11.639,6.009-10.499"/>
<path class="stroke" d="M224.221,73.005c-2.367-2.393-2.046-6.88-1.484-9.881
	c0.496-2.644,3.328-11.012,6.986-6.625"/>
<path class="stroke" d="M224.354,70.322c-1.053-1.992-0.729-5.386,0.025-7.402
	c0.653-1.746,3.11-5.384,5.477-4.676"/>
<path class="stroke" d="M227.173,71.932c-1.255-1.175-0.305-4.833,0.134-6.214
	c0.76-2.396,2.656-6.792,5.637-7.071"/>
<path class="stroke" d="M230.527,72.067c-0.334-1.006,0.261-2.211,0.623-3.154
	c1.242-3.21,2.854-5.019,5.815-6.508"/>
<path class="stroke" d="M230.259,28.989c0.048-0.134-0.034-0.241,0.029-0.379
	c2.474,1.015,3.901,5.775,4.437,8.047c1.215,5.163,0.768,10.864-3.258,14.743"/>
<path class="stroke" d="M222.207,26.036c3.3,1.761,4.523,7.081,5.404,10.318
	c0.645,2.367,0.955,4.656,0.74,7.11c-0.356,4.067-1.742,6.206-5.34,8.205"/>
<path class="stroke" d="M211.068,19.862c0.244-1.78,5.236,3.626,5.662,4.312
	c2.867,4.636,4.982,15.66-2.039,17.294"/>
<path class="stroke" d="M205.298,22.01c0.618-0.476,2.209,0.567,2.683,0.888
	c3.765,2.551,5.67,7.862,5.812,12.185c0.12,3.709-0.688,7.327-2.165,10.718c-0.933,2.129-3.875,5.748-6.462,3.452"/>
<path class="stroke" d="M210.264,22.01c2.5,1.672,4.021,5.907,4.622,8.643
	c0.827,3.743,0.505,7.385-0.334,11.08c-0.53,2.339-1.132,6.649-3.214,8.24c-1.643,1.256-4.174,0.71-4.697-1.525"/>
<path class="stroke" d="M219.255,25.633c0.029,0.774,1.484,2.292,1.858,3.226
	c1.457,3.635,1.798,8.025,1.47,11.896c-0.315,3.733-2.187,7.316-5.228,9.568c-2.717,2.011-5.117,1.818-6.153-1.607"/>
<path class="stroke" d="M85.055,93.538c-0.772,0.22-1.939-0.761-2.732-1.094
	c-4.084-1.713-8.709-2.202-13.119-1.973c-7.735,0.402-15.917,2.822-22.53,6.85c-3.825,2.33-7.122,5.462-9.722,9.102
	c-1.041,1.457-3.675,4.637-2.625,6.708"/>
<path class="stroke" d="M78.211,96.491c-2.486-3.204-9.472-2.39-12.727-2.136
	c-5.273,0.412-10.294,2.881-14.798,5.489c-7.591,4.394-13.42,9.774-16.358,18.253"/>
<path class="stroke" d="M77.406,98.638c-2.081-0.947-4.418-0.936-6.66-0.797
	c-6.722,0.417-13.57,3.145-19.367,6.458c-4.973,2.842-9.14,6.593-12.646,11.1c-1.993,2.562-5.511,6.916-4.673,10.483"/>
<path class="stroke" d="M76.063,102.262c-0.47-0.204-0.98-0.362-1.489-0.447
	c-6.084-1.031-13.509,2.21-18.663,4.95c-9.69,5.151-18.152,13.671-22.524,23.813"/>
<path class="stroke" d="M74.453,106.153c-0.781-0.419-1.538-0.617-2.438-0.638
	c-4.709-0.106-10.265,2.82-14.229,4.92c-5.485,2.906-10.135,7.018-14.596,11.287c-1.616,1.546-3.265,3.131-4.689,4.863
	c-2.766,3.362-3.864,7.795-4.979,11.91"/>
<path class="stroke" d="M73.782,109.374c-0.666-0.219-1.236-0.122-1.932-0.028
	c-4.827,0.647-10.206,3.289-14.329,5.692c-8.625,5.024-18.646,14.452-20.107,24.934"/>
<path class="stroke" d="M78.076,113.803c-0.653-1.569-4.193-0.674-5.39-0.408
	c-4.854,1.081-9.505,3.354-13.833,5.744c-5.344,2.949-10.023,6.984-13.875,11.721c-2.348,2.887-5.531,6.748-5.282,10.723"/>
<path class="stroke" d="M74.185,115.95c-10.79,2.744-21.21,11.669-25.364,22.143"/>
<path class="stroke" d="M83.042,121.452c-2.928-2.234-8.511-0.683-11.75,0.152
	c-6.062,1.564-11.27,5.247-15.908,9.335c-2.87,2.53-6.754,6.003-7.906,9.837"/>
<path class="stroke" d="M46.808,78.508c3.213-4.354,11.693-3.246,16.132-1.889
	c4.271,1.305,7.682,4.062,10.586,7.382c1.418,1.62,7.441,8.318,4.416,10.611"/>
<path class="stroke" d="M59.422,71.798c4.233-2.132,11.876,1.213,15.444,3.353
	c3.583,2.15,6.392,5.41,8.871,8.719c1.417,1.893,3.369,4.319,3.197,6.85"/>
<path class="stroke" d="M67.34,68.309c-0.435-0.834,0.418-1.533,1.065-2.013
	c3.771-2.802,10.727-1.973,14.912-1.089c5.389,1.138,10.52,3.068,15.062,6.221c3.075,2.135,9.37,6.288,8.55,10.837"/>
<path class="stroke" d="M79.149,61.062c4.261-4.728,10.919-3.91,16.612-2.339
	c5.287,1.46,10.073,4.412,13.997,8.221c2.216,2.152,5.215,4.911,5.492,8.209"/>
<path class="stroke" d="M87.739,53.278c-0.132,0.082-0.256,0.194-0.377,0.259
	c-0.096-0.714,0.278-1.083,0.753-1.618c2.669-3.01,8.731-2.409,12.105-1.904c9.788,1.464,16.596,9.987,21.068,18.159"/>
<path class="stroke" d="M99.817,46.031c-0.131,0.024-0.294,0.304-0.234,0.01
	c2.988-1.332,7.344,0.494,10.039,1.69c6.705,2.98,10.792,9,14.217,15.209"/>
<path class="stroke" d="M69.219,106.958c0.702,0.308,1.534-0.051,2.258-0.141
	c2.242-0.281,4.657-0.281,6.889,0.053c2.737,0.409,5.307,1.419,7.767,2.65c1.103,0.553,3.375,1.305,3.888,2.537"/>
<path class="stroke" d="M72.037,103.738c-0.028-0.153,7.357,0.723,8.1,0.898
	c2.828,0.67,5.416,1.695,8.01,2.983c1.347,0.668,3.116,1.28,4.02,2.56"/>
<path class="stroke" d="M73.379,100.249c1.744,0.548,3.795,0.625,5.599,1.066
	c4.49,1.099,8.622,2.916,12.519,5.375"/>
<path class="stroke" d="M75.795,98.236c2.089-0.939,5.686,1.153,7.515,1.866
	c4.354,1.696,10.12,3.879,13.286,7.528"/>
<path class="stroke" d="M78.613,95.686c5.905,1.841,11.745,6.546,15.97,11.005"/>
<path class="stroke" d="M80.895,95.954c1.136-0.914,5.114,2.209,6.036,2.785
	c3.643,2.276,8.23,4.457,11.276,7.549"/>
<path class="stroke" d="M83.847,94.746c-0.105-0.162-0.238-0.189-0.283-0.39
	c1.957-0.241,4.961,2.26,6.462,3.204c3.492,2.195,7.13,4.497,10.328,7.117"/>
<path class="stroke" d="M86.531,92.599c2.198-0.11,5.543,3.116,7.134,4.424
	c2.436,2.004,7.056,5.329,7.897,8.593"/>
<path class="stroke" d="M92.57,92.599c2.254-0.682,5.396,3.572,6.565,4.943
	c1.628,1.91,4.507,5.111,4.574,7.806"/>
<path class="stroke" d="M95.925,90.854c4.896,1.881,7.78,8.524,9.26,13.151"/>
<path class="stroke" d="M99.146,89.512c1.684,0.058,3.208,3.267,3.92,4.478
	c1.66,2.819,2.92,5.813,3.863,8.942"/>
<path class="stroke" d="M101.562,88.841c3.218,2.87,4.526,7.841,5.636,11.81"/>
<path class="stroke" d="M72.709,110.045c1.946-0.72,4.255-0.115,6.178,0.371
	c4.019,1.018,7.591,2.441,10.865,4.997"/>
<path class="stroke" d="M75.393,114.608c1.518,0.46,3.41,0.085,4.962,0.143
	c4.085,0.151,9.035,1.027,12.35,3.615"/>
<path class="stroke" d="M76.735,117.426c4.462-0.097,10.127,0.397,13.419,3.758"/>
<path class="stroke" d="M77.674,122.257c0.933,0.4,2.378,0.141,3.401,0.276
	c2.329,0.308,4.732,0.849,6.798,2.005"/>
<path class="stroke" d="M78.748,123.6c1.948,0.949,3.828,2.024,5.636,3.221"/>
<path class="stroke" d="M114.445,45.226c5.198-1.354,10.092-2.23,15.335-0.236
	c6.567,2.497,12.896,7.463,17.812,12.449"/>
<path class="stroke" d="M119.947,40.664c-0.126-0.115-0.136-0.304-0.376-0.376
	c4.399-0.436,9.921,2.265,13.664,4.267c5.411,2.894,11.705,7.613,14.491,13.287"/>
<path class="stroke" d="M121.154,35.966c11.092,1.859,19.534,11.989,28.048,18.52"/>
<path class="stroke" d="M127.06,35.161c4.892,0.849,9.793,5.846,13.286,9.032
	c3.945,3.598,9.188,7.921,11.541,12.843"/>
<path class="stroke" d="M132.562,33.954c1.637-1.04,6.872,4.136,7.909,5.097
	c4.473,4.146,8.035,8.934,11.953,13.557"/>
<path class="stroke" d="M140.077,34.625c6.24,3.21,10.897,10.011,15.031,15.433"/>
<path class="stroke" d="M154.839,9.261c-0.113,0.069-0.178,0.176-0.016-0.016
	c1.492-0.123,2.987,1.116,4.042,1.996c3.873,3.231,6.507,8.187,8.611,12.671c2.903,6.192,5.229,12.639,7.221,19.178
	c1.541,5.06,3.312,10.457,0.404,15.288"/>
<path class="stroke" d="M154.437,5.369c0.374-1.572,2.543-1.856,3.883-1.87
	c6.301-0.063,12.289,5.666,16.128,10.017c6.452,7.315,10.885,16.591,12.45,26.241c0.646,3.969,0.799,8.282-0.234,12.206
	c-0.346,1.314-1.117,4.72-3.105,4.536"/>
<path class="stroke" d="M175.236,10.872c5.268,0.692,9.834,5.984,11.936,10.43
	c2.619,5.542,4.109,12.117,4.957,18.163c0.549,3.907,0.9,7.753-0.787,11.399"/>
<path class="stroke" d="M186.376,14.092c5.206,0.92,7.175,10.274,8.164,14.253
	c1.326,5.333,2.217,10.754,3.006,16.189c0.308,2.126,1.616,6.803-0.3,8.61"/>
<path class="stroke" d="M193.086,11.945c5.868,1.709,8.828,11.376,9.807,16.521
	c0.95,5.001,1.312,10.349,1.067,15.435c-0.093,1.958-0.394,5.717-2.688,6.559"/>
<path class="stroke" d="M203.15,21.473c1.822,7.978,6.688,15.991,4.43,24.425"/>
<path class="stroke" d="M119.813,50.058c-0.098-0.079-0.188-0.166-0.272-0.26
	c3.226-5.145,17.928,2.092,18.12,7.238"/>
<path class="stroke" d="M123.302,59.452c0.228-1.058,1.7-1.296,2.662-1.479
	c3.001-0.574,5.722,0.548,7.94,2.552"/>
<path class="stroke" d="M133.77,64.82c0.217-0.234,0.42-0.338,0.245-0.796
	c-2.261-0.504-4.412,3.383-5.347,4.816c-2.251,3.449-4.775,7.785-4.561,12.084"/>
<path class="stroke" d="M129.073,63.478c-2.534-0.468-5.277,4.13-6.31,5.781
	c-2.707,4.326-4.81,8.956-4.829,14.081"/>
<path class="stroke" d="M127.596,66.967c-4.389,3.947-8.396,11.593-8.186,17.581"/>
<path class="stroke" d="M118.874,71.395c-2.948,3.899-5.817,10.482-5.637,15.434"/>
<path class="stroke" d="M216.438,68.846c0.047,0.262,0.244,0.31,0.021,0.533
	c-1.396-0.361-2.295-3.828-2.73-4.938c-1.527-3.888-3.088-9.008-1.719-13.176"/>
<path class="stroke" d="M210.666,70.859c-1.379-1.851-1.854-4.54-2.296-6.734
	c-0.802-3.985-1.22-7.879-0.656-11.92"/>
<path class="stroke" d="M208.52,69.114c-0.045,0.241-0.176,0.328-0.394,0.258
	c-1.178-1.895-1.492-4.562-1.86-6.714c-0.707-4.129-1.562-8.814-0.968-13.003"/>
<path class="stroke" d="M205.029,67.369c-3.156-5.567-4.314-13.591-3.354-19.861"/>
<path class="stroke" d="M202.882,70.725c-1.354-7.379-2.338-14.764-2.999-22.235
	c0.15-0.059,0.301-0.118,0.45-0.176"/>
<path class="stroke" d="M200.198,68.846c-1.972-5.81-5.069-12.391-3.222-18.654"/>
<path class="stroke" d="M197.917,69.249c-2.83-0.599-4.36-5.616-4.969-7.933
	c-0.978-3.728-1.185-7.793-0.132-11.526"/>
<path class="stroke" d="M194.695,69.919c-1.4-0.279-2.081-2.333-2.512-3.474
	c-1.679-4.439-2.383-9.253-2.453-13.972"/>
<path class="stroke" d="M191.342,70.59c-2.016-1.444-2.865-4.331-3.501-6.58
	c-1.247-4.415-2.347-9.839-0.928-14.355"/>
<path class="stroke" d="M189.999,70.725c0.062,0.254-0.015,0.433-0.229,0.54
	c-2.223-0.92-3.664-4.694-4.334-6.738c-1.42-4.332-1.627-9.026-1.205-13.53"/>
<path class="stroke" d="M186.242,71.932c-1.699-0.658-2.903-3.206-3.631-4.701
	c-2.391-4.922-3.115-10.958-3.215-16.368"/>
<path class="stroke" d="M183.691,72.469c-1.815,1.28-4.164-3.711-4.672-4.779
	c-2.203-4.631-4.058-10.569-3.246-15.753"/>
<path class="stroke" d="M179.801,75.556c-1.26,1.365-3.701-3.357-4.057-4.023
	c-2.878-5.42-3.404-11.703-3.729-17.717"/>
<path class="stroke" d="M114.848,147.62c2.153,2.807-0.561,10.037-2.147,12.883"/>
<path class="stroke" d="M115.921,148.158c1.021,2.799-0.05,6.529-0.537,9.394"/>
<path class="stroke" d="M117.8,144.938c1.712,3.713,0.845,12.292-1.073,15.835"/>
<path class="stroke" d="M119.142,146.548c0.002,4.263,0.349,8.739-0.805,12.883"/>
<path class="stroke" d="M121.29,142.522c1.599,1.81,0.865,5.979,0.817,8.307
	c-0.069,3.363-0.476,6.633-0.817,9.943"/>
<path class="stroke" d="M123.168,142.253c3.097,2.722,1.226,14.284,0.269,17.983"/>
<path class="stroke" d="M124.242,141.716c2.897,1.906,1.375,15.626,0.269,18.787"/>
<path class="stroke" d="M126.121,141.448c1.708,1.411,1.064,4.814,1.078,6.762
	c0.03,4.613,0.168,9.33-0.542,13.904"/>
<path class="stroke" d="M128.805,139.568c0.164-0.231,0.327-0.463,0.49-0.695
	c2.014,2.274,0.896,8.989,0.864,11.915c-0.041,3.865,0.227,8.377-0.817,12.131"/>
<path class="stroke" d="M130.952,137.421c2.237,3.099,1.702,9.579,1.837,13.195
	c0.138,3.652,1.676,12.408-0.764,15.523"/>
<path class="stroke" d="M132.831,140.643c0.331-0.362,0.721-0.626,1.173-0.794
	c2.019,3.888,1.312,9.867,1.267,14.124c-0.033,3.063,0.334,7.736-1.367,10.29"/>
<path class="stroke" d="M136.051,139.837c0.371-0.459,0.829-0.632,1.375-0.522
	c2.009,3.972,1.702,9.13,1.614,13.453c-0.069,3.479,0.492,12.603-2.721,14.983"/>
<path class="stroke" d="M140.614,137.958c2.576,4.46,2.177,10.913,2.188,15.844
	c0.016,6.479-0.79,13.104-3.531,19.048"/>
<path class="stroke" d="M144.104,141.984c2.676,9.225,0.11,20.277-3.221,28.987"/>
<path class="stroke" d="M146.787,143.594c5.1,0.068,0.284,27.133-2.146,30.867"/>
<path class="stroke" d="M151.35,146.815c1.208,2.288,0.88,5.775,0.776,8.336
	c-0.285,6.995-1.23,14.611-3.729,21.189"/>
<path class="stroke" d="M156.986,150.036c1.237,3.208,0.104,8.654-0.242,12.001
	c-0.546,5.264-1.806,10.946-4.32,15.645"/>
<path class="stroke" d="M160.744,151.915c2.543,1.351,1.376,8.076,0.997,10.406
	c-0.759,4.66-2.446,12.498-5.828,15.896"/>
<path class="stroke" d="M164.771,154.062c4.646,4.658-1.774,17.355-3.489,22.009"/>
<path class="stroke" d="M169.064,156.747c1.146,4.211,0.062,9.466-0.635,13.644
	c-0.955,5.701-2.23,14.247-6.883,18.295"/>
<path class="stroke" d="M130.952,127.49c-3.317-3.954-3.354-14.995-1.61-19.592"/>
<path class="stroke" d="M132.293,129.37c-2.339-3.095-2.179-10.565-1.073-14.225"/>
<path class="stroke" d="M132.562,131.516c-2.676-3.146-3.166-17.782,0.254-20.323
	c0.184,0.154,0.368,0.308,0.551,0.462"/>
<path class="stroke" d="M134.173,130.175c-2.551-4.374-1.832-12.004-0.537-16.64"/>
<path class="stroke" d="M134.978,130.444c-0.421-5.8-2.14-12.166,0.537-17.714"/>
<path class="stroke" d="M137.394,129.101c-2.218-2.749-1.241-11.59,0-14.761"/>
<path class="stroke" d="M138.199,131.249c-1.242-2.435-2.623-19.551,1.61-19.325"/>
<path class="stroke" d="M139.809,133.126c-3.119-2.975-2.016-15.772,1.074-19.056"/>
<path class="stroke" d="M141.688,135.275c-1.806-1.107-1.146-8.054-1.116-10.026
	c0.056-3.785,0.071-9.805,3.263-12.52"/>
<path class="stroke" d="M142.493,137.69c-0.785-7.71-1.805-20.775,3.489-27.109"/>
<path class="stroke" d="M144.104,135.275c-0.006-4.609,0.053-9.17,0.513-13.764
	c0.253-2.526,0.202-6.74,2.708-8.246"/>
<path class="stroke" d="M145.446,137.421c-0.694-6.655-1.982-19.483,3.489-24.425"/>
<path class="stroke" d="M147.592,136.08c-0.388-4.011-0.368-8.041-0.056-12.058
	c0.265-3.416,0.491-11.51,4.351-13.172"/>
<path class="stroke" d="M149.203,138.227c-0.624-2.207-0.263-5.147,0.017-7.53
	c0.63-5.371,1.164-12.688,4.546-17.162"/>
<path class="stroke" d="M151.35,140.643c-0.012-3.797-0.777-22.445,4.294-22.815"/>
<path class="stroke" d="M152.961,138.227c1.227-6.987,1.402-14.653,5.1-20.936"/>
<path class="stroke" d="M158.329,146.548c-2.32-2.931-1.437-7.859-1.062-11.232
	c0.647-5.855,1.975-15.343,7.504-18.83"/>
<path class="stroke" d="M162.623,147.353c-0.17-6.321,1.529-12.48,4.025-18.252"/>
<path class="stroke" d="M110.822,103.067c-0.448-0.292-0.877-0.705-1.303-1.024
	c6.145-1.346,13.316,9.06,14.991,13.908"/>
<path class="stroke" d="M109.48,94.746c3.279,0.176,6.642,4.841,8.588,7.036
	c3.106,3.504,6.663,8.156,7.784,12.825"/>
<path class="stroke" d="M110.822,88.036c6.499,5.338,10.78,12.127,14.494,19.594"/>
<path class="stroke" d="M114.848,87.768c2.061,0.348,3.729,3.789,4.733,5.341
	c2.762,4.273,5.23,8.705,7.076,13.446"/>
<path class="stroke" d="M118.874,86.963c4.389,1.383,7.886,10.727,9.125,14.761"/>
<path class="stroke" d="M122.363,87.23c3.507,1.983,5.421,7.719,6.71,11.272"/>
<path class="stroke" d="M109.212,87.768c-0.111-4.714-0.095-10.252,3.221-13.957"/>
<path class="stroke" d="M80.761,70.859c6.179,2.326,15.031,9.37,16.104,16.372"/>
<path class="stroke" d="M87.739,68.71c5.303,3.762,11.73,9.221,13.957,15.568"/>
<path class="stroke" d="M97.939,64.148c6.123-0.08,11.893,6.742,14.225,11.809"/>
<path class="stroke" d="M105.454,55.56c4.901,2.807,7.736,7.661,11.005,12.078"/>
<path class="stroke" d="M125.316,52.875c4.339-0.628,11.528,3.926,13.419,7.783"/>
<path class="stroke" d="M166.111,31.135c1.652,5.064,3.211,10.159,4.672,15.282
	c1.367,2.676,2.048,5.455,2.039,8.337"/>
<path class="stroke" d="M176.312,27.915c2.75,6.463,4.244,13.136,4.83,20.13"/>
<path class="stroke" d="M158.329,94.477c1.718,4.061,4.337,22.245-1.074,23.889"/>
<path class="stroke" d="M160.477,92.062c2.291,3.712,1.944,8.747,2.101,12.918
	c0.091,2.472,1.153,12.229-1.83,13.386"/>
<path class="stroke" d="M162.893,91.256c2.482,1.248,2.244,5.214,2.366,7.561
	c0.272,5.229,0.599,10.6-0.22,15.79"/>
<path class="stroke" d="M165.307,93.405c2.082,1.822,1.834,6.596,1.973,9.158
	c0.298,5.449,1.822,14.186-0.629,19.291"/>
<path class="stroke" d="M169.333,93.405c1.979,0.95,1.481,5.553,1.562,7.467
	c0.237,5.839-0.147,11.559-1.562,17.225"/>
<path class="stroke" d="M171.748,95.282c3.475,7.859,1.996,19.95,0.537,28.182"/>
<path class="stroke" d="M174.434,98.236c4.729,0.939,0.655,24.763,0,28.449"/>
<path class="stroke" d="M177.385,101.457c2.09,0.922,1.596,5.172,1.629,6.986
	c0.109,6.12,0.334,12.516-1.092,18.511"/>
<path class="stroke" d="M165.307,123.464c-0.795,4.167-2.354,8.149-3.242,12.304
	c-1.412,6.609-1.438,13.484-0.515,20.173"/>
<path class="stroke" d="M169.87,131.249c-2.667,2.838-2.748,8.247-2.923,11.85
	c-0.178,3.672-1.04,11.278,1.85,14.184"/>
<path class="stroke" d="M170.675,132.59c0.124-0.539,0.394-0.97,0.804-1.292
	c-0.563,7.421-3.428,17.905,0.271,24.912"/>
<path class="stroke" d="M173.091,132.59c0,7.684-1.298,16.799,1.343,24.156"/>
<path class="stroke" d="M176.312,133.126c-0.002,7.674-0.996,15.887,2.146,23.083"/>
<path class="stroke" d="M178.995,133.665c-1.517,6.645,0.563,18.117,3.758,24.156"/>
<path class="stroke" d="M181.948,133.932c0.768,7.478,2.329,15.03,3.221,22.545"/>
<path class="stroke" d="M183.559,133.932c2.577,5.812,3.084,12.581,4.025,18.788"/>
<path class="stroke" d="M159.939,85.889c-0.477-0.27-0.907-0.121-0.773-0.781
	c5.701-0.047,12.555,7.123,15.268,11.518"/>
<path class="stroke" d="M161.281,81.058c6.798,0.855,13.104,9.671,16.371,15.03"/>
<path class="stroke" d="M163.965,78.911c5.566,0.879,10.85,8.399,13.957,12.614"/>
<path class="stroke" d="M164.771,74.08c5.541,3.066,8.787,9.158,12.611,13.956"/>
<path class="stroke" d="M166.648,70.321c4.648,4.163,7.68,9.407,11.541,14.226"/>
<path class="stroke" d="M166.917,65.759c5.127,4.572,7.839,10.637,11.81,16.104"/>
<path class="stroke" d="M166.111,60.123c5.476,5.193,8.287,12.081,12.348,18.25"/>
<path class="stroke" d="M129.342,83.204c-0.121,0.301-0.305,0.373-0.554,0.214
	c-1.268-4.32,2.247-22.1,9.143-20.344"/>
<path class="stroke" d="M132.025,84.278c-0.234-3.186,6.317-23.809,9.663-19.594"/>
<path class="stroke" d="M134.173,81.594c4.924-0.443,6.079-16.946,7.515-20.935"/>
<path class="stroke" d="M138.735,83.473c1.727-0.951,1.912-5.144,2.206-6.808
	c0.845-4.79,1.153-9.563,1.552-14.396"/>
<path class="stroke" d="M143.03,84.547c1.926-0.79,1.548-6.009,1.614-8.129
	c0.11-3.524,1.412-9.611-0.541-12.806"/>
<path class="stroke" d="M145.982,84.547c2.588-0.415-0.295-20.132-1.073-22.814"/>
<path class="stroke" d="M148.935,84.547c1.624-1.132,0.703-4.495,0.56-6.127
	c-0.482-5.468-1.439-10.948-3.244-16.151"/>
<path class="stroke" d="M152.424,84.815c0.983-2.701-0.249-6.549-0.834-9.17
	c-0.754-3.378-1.286-11.793-3.729-14.181"/>
<path class="stroke" d="M154.571,83.742c0.869-1.606,0.096-4.59-0.226-6.422
	c-0.94-5.353-2.583-11.036-5.143-15.856"/>
<path class="stroke" d="M155.913,79.716c3.967-2.126-0.961-20.279-4.607-21.842
	c-0.634,0.664-0.992,1.569-1.029,2.517"/>
<path class="stroke" d="M158.061,78.642c3.105-1.592,1.119-10.933,0.58-13.659
	c-0.305-1.546-1.138-7.432-2.807-8.324c-1.455-0.778-2.34-0.143-2.336,1.853"/>
<path class="stroke" d="M161.014,74.885c2.854-4.419-0.517-16.384-4.192-19.568
	c-0.752,0.495-1.168,1.409-1.177,2.39"/>
<path class="stroke" d="M70.293,154.062c-0.353-1.972-4.095,1.456-4.854,2.128
	c-3.842,3.399-8.554,8.468-8.565,13.976"/>
<path class="stroke" d="M71.635,156.478c-4.799-2.214-12.406,10.674-12.883,14.494"/>
<path class="stroke" d="M72.44,158.357c0.454-0.19,0.496-0.283,0.125-0.278
	c-5.777,2.084-10.726,9.504-11.934,15.308"/>
<path class="stroke" d="M72.978,161.578c-1.009-2.919-10.641,12.3-11.542,14.494"/>
<path class="stroke" d="M73.246,163.188c-4.362,0.461-9.426,11.083-9.394,15.03"/>
<path class="stroke" d="M72.709,165.873c-3.387,2.983-5.527,8.146-5.368,12.614"/>
<path class="stroke" d="M118.605,165.334c-1.875,0.496-2.299,3.125-2.933,4.806
	c-1.539,4.085-3.536,8.717-3.24,13.178"/>
<path class="stroke" d="M114.311,164.262c-3.971,2.709-5.083,14.082-4.831,18.52"/>
<path class="stroke" d="M111.896,162.919c-4.488,0.771-4.963,18.735-4.831,22.814"/>
<path class="stroke" d="M108.406,162.652c-1.723,5.623-3.204,11.311-4.443,17.065
	c-2.065,2.901-2.463,5.624-1.193,8.164"/>
<path class="stroke" d="M104.917,163.724c-2.84,0.747-3.983,6.229-4.541,8.588
	c-1.292,5.455-2.085,12.352-0.021,17.716"/>
<path class="stroke" d="M102.233,164.529c-2.462-2.985-5.013,8.187-5.15,9.046
	c-0.721,4.495-2.673,14.681,0.587,18.6"/>
<path class="stroke" d="M98.207,166.14c-2.844-2.909-3.847,6.165-4.037,7.249
	c-0.821,4.676-1.098,9.214-1.072,13.953c0.011,1.98-0.862,5.959,0.815,7.519"/>
<path class="stroke" d="M94.181,167.75c-2.48,0.888-2.774,4.733-3.166,6.928
	c-1.187,6.635-2.797,15.091-1.397,21.792"/>
<path class="stroke" d="M90.155,171.24c-2.765,2.283-3.06,9.365-3.467,12.586
	c-0.791,6.247-0.489,12.672,0.784,18.816"/>
<path class="stroke" d="M83.981,181.171c-2.788,6.003-4.393,15.544-2.684,22.008"/>
<path class="stroke" d="M79.15,189.491c-2.273,5.745-1.443,12.01,0.537,17.714"/>
<path class="stroke" d="M81.566,243.708c-0.14-0.463-0.318-0.911-0.536-1.342"/>
<path class="stroke" d="M79.956,240.487c0.095-1.532,1.121,2.498,1.346,2.951
	c3.056,6.155,8.318,11.621,13.704,15.804c3.68,2.855,8.38,5.787,13.152,6.188c1.519,0.127,3.757,0.519,2.933-1.59"/>
<path class="stroke" d="M89.082,248.54c1.52,5.69,10.798,10.373,15.617,12.573
	c0.663,0.305,13.934,4.621,10.15,0.041"/>
<path class="stroke" d="M87.203,243.171c2.547,5.266,9.791,9.533,14.748,12.111
	c2.715,1.413,10.301,5.437,13.187,3.204c-0.241-0.774-0.694-1.405-1.363-1.896"/>
<path class="stroke" d="M93.108,242.903c-0.78-0.607-1.344-0.858-1.889-0.06
	c-0.969,1.42,5.447,5.349,5.944,5.717c3.937,2.912,16.257,11.917,21.711,8.3"/>
<path class="stroke" d="M93.108,242.097c6.898,7.407,20.402,11.644,30.329,11.273"/>
<path class="stroke" d="M95.523,241.561c7.866,5.099,17.739,7.773,27.108,7.515"/>
<path class="stroke" d="M97.939,238.34c3.143,2.784,8.696,4.013,12.564,5.32
	c5.203,1.758,10.881,3.311,16.423,3.269"/>
<path class="stroke" d="M101.965,236.192c-0.461,3.583,25.928,7.501,29.792,7.247"/>
<path class="stroke" d="M101.16,235.925c2.708,1.99,7.85,1.796,11.021,2.227
	c5.016,0.681,10.21,1.144,15.282,0.994"/>
<path class="stroke" d="M103.307,232.704c0.584,1.028,5.846,0.91,7.435,1.015
	c4.899,0.322,9.931,0.732,14.843,0.596"/>
<path class="stroke" d="M103.307,229.483c7.801,1.44,16.218,0.3,24.156,1.341"/>
<path class="stroke" d="M103.843,224.919c7.331,1.118,15.059-0.108,22.278,1.343"/>
<path class="stroke" d="M106.796,222.504c5.542,1.309,11.501,1.462,17.178,1.61"/>
<path class="stroke" d="M74.588,212.841c0.161-0.625,0.254-1.267,0.44-1.889
	c-1.954,2.334-2.136,6.688-2.612,9.614c-0.875,5.388-2.306,13.701,0.292,18.846"/>
<path class="stroke" d="M77.272,209.621c-0.012,0.009,0.48-0.794,0.238-0.313
	c-3.139,9.157-3.782,19.573-1.849,29.033"/>
<path class="stroke" d="M78.882,209.621c0.287-0.418,0.186-0.564,0.232-0.29
	c0.336,1.977-1.028,5.529-1.259,7.493c-0.782,6.648-0.912,13.567,0.222,20.174"/>
<path class="stroke" d="M80.225,208.815c0.175-0.215,0.273-0.459,0.293-0.733
	c-0.278,10.356-3.307,22.25-0.293,32.404"/>
<path class="stroke" d="M81.835,208.01c0.14-0.259,0.235-0.533,0.287-0.82
	c0.097,10.646-1.038,20.811,0.786,31.418"/>
<path class="stroke" d="M83.981,209.084c-0.374,0.096-0.307,10.754-0.299,12.257
	c0.029,5.533-0.01,12.237,2.715,17.266"/>
<path class="stroke" d="M86.129,210.426c0.258-1.344,0.005,0.094,0.006,0.196
	c0.005,3.376-0.41,6.711-0.264,10.102c0.229,5.359,1.216,15.277,6.163,18.689"/>
<path class="stroke" d="M88.276,213.379c-1.71,7.137,1.152,18.167,5.1,24.156"/>
<path class="stroke" d="M90.692,207.743c0.928,3.049,0.179,6.869,0.505,10.055
	c0.642,6.271,1.972,12.99,5.4,18.394"/>
<path class="stroke" d="M92.571,208.279c0.82,3.362,0.574,6.972,1.366,10.416
	c1.19,5.171,2.754,10.166,5.344,14.814"/>
<path class="stroke" d="M95.254,206.4c-1.4,8.258,1.703,18.538,6.979,24.961"/>
<path class="stroke" d="M97.402,207.205c-2.25,5.444,2.572,16.75,6.173,20.935"/>
<path class="stroke" d="M98.207,207.205c-0.409,6.403,3.354,15.168,7.247,20.13"/>
<path class="stroke" d="M100.623,207.205c-0.31,4.679,3.353,13.498,7.515,15.836"/>
<path class="stroke" d="M103.843,212.305c1.489,2.411,3.103,6.177,5.905,7.247"/>
<path class="stroke" d="M90.692,198.348c0.438,2.334,1.15,5.316,2.952,6.979"/>
<path class="stroke" d="M93.376,195.127c-0.314,3.004,0.992,6.414,2.684,8.857"/>
<path class="stroke" d="M95.523,193.786c-0.095,3.628,0.987,11.796,5.367,12.883"/>
<path class="stroke" d="M99.28,193.786c-0.276,4.657,0.74,12.038,4.026,15.568"/>
<path class="stroke" d="M101.16,193.25c-4.03,3.129,3.748,15.86,6.441,18.52"/>
<path class="stroke" d="M102.501,195.127c-2.059,4.904,4.483,13.341,6.711,17.447"/>
<path class="stroke" d="M103.307,193.517c-0.667,6.533,4.693,13.038,7.516,18.52"/>
<path class="stroke" d="M104.112,194.591c0.309,5.108,4.649,11.893,7.784,15.835"/>
<path class="stroke" d="M44.796,176.876c-1.937,6.395-0.856,14.022,1.427,20.121
	c1.568,4.189,6.504,13.695,12.261,12.624"/>
<path class="stroke" d="M46.674,184.66c-0.088-0.113-0.29-0.673-0.297-0.336
	c0.887,8.866,4.845,21.314,13.449,25.566"/>
<path class="stroke" d="M49.09,187.613c-0.838,2.316,2.185,6.785,3.219,8.828
	c2.605,5.142,6.623,11.109,11.812,13.985"/>
<path class="stroke" d="M52.042,190.296c-0.447,6.938,10.696,17.159,16.372,20.13"/>
<path class="stroke" d="M57.142,194.591c1.142,3.787,4.731,6.769,7.515,9.357
	c2.176,2.023,4.855,5.144,7.784,5.941"/>
<path class="stroke" d="M60.9,196.737c1.963,2.853,4.541,5.376,6.979,7.812
	c1.81,1.807,4.598,5.523,7.246,5.877"/>
<path class="stroke" d="M64.926,199.153c2.556,3.551,7.216,6.819,10.736,9.396"/>
<path class="stroke" d="M78.882,170.971c-8.062,4.6-18.249,11.338-20.13,21.204"/>
<path class="stroke" d="M75.93,174.461c0.301-0.076,0.498-0.247,0.59-0.517
	c-3.641,0.031-7.361,4.583-9.679,6.862c-2.642,2.597-7.137,6.413-7.015,10.563"/>
<path class="stroke" d="M79.688,174.192c-2.742-0.789-6.676,3.433-8.597,5.165
	c-3.847,3.469-8.027,8.127-9.117,13.355"/>
<path class="stroke" d="M76.735,177.146c-6.057-0.288-15.259,11.999-15.835,17.445"/>
<path class="stroke" d="M78.882,177.146c-3.267,0.374-6.965,5.555-8.882,7.804
	c-2.738,3.21-6.099,7.061-7.222,11.251"/>
<path class="stroke" d="M79.688,176.607c-3.476,3.518-6.984,6.698-9.994,10.684
	c-2.084,2.76-5.723,6.813-5.842,10.52"/>
<path class="stroke" d="M79.15,178.487c-3.16,1.772-5.4,5.245-7.521,8.07
	c-3.083,4.107-6.466,8.716-7.241,13.939"/>
<path class="stroke" d="M78.882,180.633c-2.363,3.792-15.104,16.185-12.615,20.13"/>
<path class="stroke" d="M79.15,181.438c-4.142,6.891-10.635,13.082-12.883,20.936"/>
<path class="stroke" d="M78.882,181.977c-0.02,3.082-4.192,7.125-5.661,9.689
	c-2.014,3.515-4.207,7.658-4.539,11.783"/>
<path class="stroke" d="M78.882,182.782c-1.453,3.701-3.378,7.195-4.796,10.924
	c-0.729,1.918-4.193,9.407-2.183,11.084"/>
<path class="stroke" d="M77.809,187.613c-2.16,3.082-8.338,13.409-5.369,16.909"/>
<path class="stroke" d="M78.345,189.76c-0.27,2.846-6.953,14.97-2.952,16.373"/>
<path class="stroke" d="M78.077,196.201c0.089,2.348-0.393,4.68-0.241,7.011
	c0.625-0.06,0.66-0.421,1.046-0.838"/>
<path class="stroke" d="M59.826,208.548c-0.242,5.132,2.673,11.785,6.979,14.761"/>
<path class="stroke" d="M62.241,211.5c-0.484,2.65,4.083,7.438,5.905,9.663"/>
<path class="stroke" d="M62.241,210.159c-0.167,4.935,6.117,10.783,9.663,13.688"/>
<path class="stroke" d="M64.389,211.5c0.522,2.829,4.846,8.324,7.515,9.394"/>
<path class="stroke" d="M64.926,211.769c1.331,2.637,3.638,5.688,6.173,7.247"/>
<path class="stroke" d="M65.462,210.964c1.934,2.784,4.347,5.456,7.247,7.247"/>
<path class="stroke" d="M67.609,210.964c0.617,2.255,3.2,4,4.831,5.636"/>
<path class="stroke" d="M68.415,210.159c1.168,2.518,3.633,4.88,5.905,6.441"/>
<path class="stroke" d="M71.099,209.621c0.91,1.139,1.889,2.224,2.952,3.221"/>
<path class="stroke" d="M65.999,151.11c-4.034,1.274-7.003,6.442-9.312,9.623
	c-1.809,2.49-5.158,6.041-4.645,9.433"/>
<path class="stroke" d="M63.852,178.487c-3.141,2.764-5.392,6.055-6.441,10.199"/>
<path class="stroke" d="M59.826,177.146c-3.099,1.744-4.394,5.622-5.368,8.857"/>
<path class="stroke" d="M58.215,176.876c-2.439,2.337-5.579,5.397-6.173,8.857"/>
<path class="stroke" d="M232.811,141.581c-1.146,1.11-4.274,3.738-4.91,5.621
	c2.312-1.233,3.775-3.996,5.852-5.621"/>
<path class="stroke" d="M235.762,140.509c-1.58,1.601-5.896,3.7-6.172,6.054
	c0.811-0.587,1.42-1.599,2.014-2.43"/>
<path class="stroke" d="M238.85,138.898c-0.5,1.327-2.729,2.596-3.729,3.585
	c-1.09,1.08-2.803,2.248-3.387,3.675c0.586-0.406,1.037-0.921,1.479-1.491"/>
<path class="stroke" d="M240.729,138.36c-0.396,1.095-1.871,1.928-2.67,2.726
	c-1.216,1.215-2.705,2.467-3.679,3.892c-0.094,0.228-0.036,0.214,0.175-0.041"/>
<path class="stroke" d="M242.875,137.019c-1.411,3.049-4.88,5.024-6.868,7.71
	c0.125,0.043,0.222-0.021,0.292-0.194"/>
<path class="stroke" d="M243.948,137.555c-1.562,2.664-4.556,4.285-6.308,6.844"/>
<path class="stroke" d="M245.559,136.75c0.256,1.127-1.574,2.262-2.244,2.972
	c-0.924,0.98-1.758,2.009-2.586,3.067"/>
<path class="stroke" d="M248.779,137.153c-1.771,2.396-7.026,3.481-7.783,6.441"/>
<path class="stroke" d="M250.792,136.483c-2.574,1.993-7.08,4.108-8.187,7.38"/>
<path class="stroke" d="M252.135,136.483c-2.638,2.297-5.539,4.554-7.783,7.247"/>
<path class="stroke" d="M252.939,136.75c0.33,0.417-2.364,2.435-3.08,3.078
	c-1.156,1.04-2.84,2.235-3.495,3.633"/>
<path class="stroke" d="M255.489,136.214c-1.952,2.069-5.994,4.131-7.112,6.441"/>
<path class="stroke" d="M257.502,135.945c-0.352,1.865-4.672,3.869-6.039,5.503"/>
<path class="stroke" d="M259.111,135.811c-1.699,2.254-4.715,3.339-6.44,5.637"/>
<path class="stroke" d="M259.247,136.483c-0.942,2.083-3.72,3.213-4.966,5.233"/>
<path class="stroke" d="M255.221,166.141c1.497,1.394-4.216,7.913-5.099,9.395"/>
<path class="stroke" d="M255.758,168.019c0.271,0.923-0.922,2.555-1.354,3.34
	c-0.922,1.678-1.982,3.374-3.209,4.846"/>
<path class="stroke" d="M256.562,168.824c0.299,2.881-2.53,6.884-4.025,9.126"/>
<path class="stroke" d="M136.386,168.221c1.011,3.2-7.128,17.141-11.272,13.487"/>
<path class="stroke" d="M137.795,170.636c0.439,3.703-5.333,16.329-10.266,14.494"/>
<path class="stroke" d="M140.614,173.052c2.309,3.142-1.603,7.921-3.626,10.093
	c-0.809,0.867-10.806,8.809-10.464,3.998"/>
<path class="stroke" d="M143.23,175.065c1.103,4.92-0.621,11.507-3.776,15.352
	c-3.385,4.124-9.937,6.567-11.321-0.456"/>
<path class="stroke" d="M145.445,178.688c3.579,1.643,0.11,9.132-1.265,11.284
	c-1.59,2.488-6.942,7.404-9.404,3.008"/>
<path class="stroke" d="M141.62,175.065c0.736,2.567-1.266,6.083-2.428,8.26
	c-2.089,3.912-3.821,6.537-8.241,4.824"/>
<path class="stroke" d="M132.562,167.818c1.288,3.877-7.157,12.292-9.863,7.649"/>
<path class="stroke" d="M131.153,165.402c-0.23,3.263-5.51,7.723-8.857,6.441"/>
<path class="stroke" d="M127.932,163.591c0.455,1.73-5.589,6.059-7.247,4.831"/>
<path class="stroke" d="M105.386,41.401c-0.351,0.063-0.524,0.314-0.93,0.176
	c3.537-2.432,11.542-0.181,15.223,1.233"/>
<path class="stroke" d="M102.568,36.771c-0.216-0.807,3.967-0.424,4.848-0.375
	c5.042,0.281,10.079,1.749,14.679,3.798"/>
<path class="stroke" d="M108.607,32.947c4.393-1.31,9.273,1.139,13.084,3.221"/>
<path class="stroke" d="M114.646,30.732c4.099,0.948,9.538,1.134,13.084,3.624"/>
<path class="stroke" d="M116.256,25.901c0.057-1.552,4.206-1.483,5.645-1.206
	c4.74,0.911,8.445,4.729,11.667,8.05"/>
<path class="stroke" d="M120.685,21.07c3.6-1.905,8.898,1.282,11.892,3.057
	c5.115,3.032,8.919,7.673,12.063,12.644"/>
<path class="stroke" d="M125.516,18.453c-0.129-0.999,0.754-0.853,1.772-1.015
	c5.175-0.823,11.039,3.668,14.749,6.641C148.3,29.095,153,35.25,157.557,41.792c2.448,3.517,8.248,9.019,8.219,13.701"/>
<path class="stroke" d="M135.38,13.823c3.466-3.134,13.114,9.087,14.669,11.124
	c6.379,8.351,12.682,18.414,16.331,28.332"/>
<path class="stroke" d="M141.62,11.408c-0.186-0.396-0.303-0.76-0.171-1.197
	c1.959-0.048,4.072,2.081,5.427,3.231c4.525,3.839,8.281,8.738,11.618,13.608c4.039,5.896,7.291,12.144,10.363,18.581
	c1.459,3.054,4.102,6.883,3.764,10.466"/>
<path class="stroke" d="M151.887,11.811c3.367,1.11,6.158,5.352,8.062,8.061
	c4.562,6.495,7.085,14.466,8.847,22.134"/>
<path class="stroke" d="M148.867,36.973c-0.108-0.156-0.218-0.306-0.353-0.438
	c2.523,1.119,4.339,4.032,5.788,6.24c2.847,4.337,5.089,8.994,6.659,13.932c-0.012,0.246-0.152,0.31-0.42,0.194"/>
<path class="stroke" d="M40.366,91.928c0.843-4.561,6.601-7.574,10.687-8.068
	c3.983-0.482,8.234-0.783,12.244-0.987c3.333-0.17,6.419,0.258,9.076,2.412"/>
<path class="stroke" d="M42.178,97.967c2.688-9.53,17.884-14.562,26.773-11.675"/>
<path class="stroke" d="M49.626,171.643c-1.719,1.582-2.78,3.689-3.623,5.838"/>
<path class="stroke" d="M52.847,172.045c-2.869,1.104-4.606,5.498-5.838,8.052"/>
<path class="stroke" d="M54.86,173.253c-2.515-0.023-5.158,4.196-6.441,6.039"/>
<path class="stroke" d="M56.269,174.461c-2.365,3.354-6.499,5.117-8.052,9.26"/>
<path class="stroke" d="M73.983,124.337c-4.277,0.154-10.203,4.54-13.469,6.884
	c-9.507,6.827-15.705,16.358-17.732,27.941"/>
<path class="stroke" d="M70.562,128.564c-5.964,2.239-10.983,7.377-15.076,12.037
	c-6.482,7.377-11.947,17.15-11.899,27.216"/>
<path class="stroke" d="M67.542,135.006c-10.648,7.568-18.682,18.888-21.137,31.806"/>
<path class="stroke" d="M68.75,138.629c-3.26,0.549-6.589,5.327-8.478,7.627
	c-4.635,5.646-10.85,13.78-11.652,21.36"/>
<path class="stroke" d="M68.146,142.253c-4.733,3.41-10.09,10.579-11.876,16.104"/>
<path class="stroke" d="M68.75,144.266c-1.963,1.695-3.161,4.732-4.227,7.046"/>
<path class="stroke" d="M68.548,146.078c-0.276,1.364-0.894,2.714-1.409,4.026"/>
<path class="stroke" d="M216.906,163.389c0.404,0.837,0.479,1.772,0.806,2.617"/>
<path class="stroke" d="M217.913,163.188c0.271,0.823,0.349,1.752,0.604,2.617"/>
<path class="stroke" d="M218.314,162.987c0.893,0.832,0.844,2.122,1.209,3.221"/>
<path class="stroke" d="M219.926,162.987c0.295,1.028,0.75,1.999,1.008,3.02"/>
<path class="stroke" d="M221.134,163.591c0.13,0.662,0.401,1.282,0.806,1.812"/>
<path class="stroke" d="M221.938,163.591c0.498,0.726,0.629,1.55,1.209,2.214"/>
<path class="stroke" d="M223.348,163.389c0.709,0.446,0.938,1.329,1.008,2.214"/>
<path class="stroke" d="M224.958,162.786c0.808,0.589,1.224,1.846,1.61,2.818"/>
<path class="stroke" d="M227.173,162.584c0.574,0.783,0.974,1.68,1.208,2.617"/>
<path class="stroke" d="M228.381,162.383c0.518,0.73,0.776,1.604,1.207,2.416"/>
<path class="stroke" d="M229.387,161.376c0.658,1.077,1.256,2.208,1.61,3.422"/>
<path class="stroke" d="M231.4,161.779c0.678,0.881,1.05,1.991,1.408,3.02"/>
<path class="stroke" d="M233.212,161.779c0.415,0.98,0.763,1.99,1.006,3.02"/>
<path class="stroke" d="M235.225,162.182c0.5,0.744,0.851,1.631,1.209,2.416"/>
<path class="stroke" d="M236.634,161.779c0.415,0.708,0.745,1.436,1.007,2.214"/>
<path class="stroke" d="M238.043,162.786c0.301,0.564,0.506,1.178,0.604,1.812"/>
<path class="stroke" d="M239.05,161.98c0.375,1.062,0.683,2.144,1.007,3.221"/>
<path class="stroke" d="M213.686,156.344c0.891,0.827,0.858,2.122,1.209,3.221"/>
<path class="stroke" d="M215.296,156.948c0.322,0.997,0.491,2.024,0.806,3.02"/>
<path class="stroke" d="M216.504,156.545c0.328,0.864,0.564,1.95,1.007,2.617"/>
<path class="stroke" d="M217.511,155.941c0.325,1.045,0.663,2.103,1.207,3.02"/>
<path class="stroke" d="M219.121,155.74c0.395,0.988,0.666,2.022,1.006,3.02"/>
<path class="stroke" d="M220.328,156.143c0.537,0.881,0.826,1.875,1.208,2.818"/>
<path class="stroke" d="M221.736,155.337c0.436,1.484,0.697,3.052,1.41,4.429"/>
<path class="stroke" d="M222.945,155.337c0.65,1.233,0.926,2.604,1.609,3.825"/>
<path class="stroke" d="M224.557,155.337c0.5,1.261,0.942,2.563,1.408,3.825"/>
<path class="stroke" d="M226.367,156.143c0.436,0.98,0.559,2.268,1.208,3.02"/>
<path class="stroke" d="M227.374,155.539c0.672,1.394,0.824,2.999,1.812,4.228"/>
<path class="stroke" d="M228.984,155.337c0.434,1.04,0.674,2.139,1.007,3.221"/>
<path class="stroke" d="M230.191,155.136c0.877,0.866,1.029,2.412,1.41,3.623"/>
<path class="stroke" d="M231.602,154.532c0.578,1.089,0.77,2.287,1.209,3.422"/>
<path class="stroke" d="M232.811,153.928c0.906,1.345,1.019,3.038,1.812,4.429"/>
<path class="stroke" d="M234.218,153.928c1.007,0.943,1.099,2.73,1.611,4.026"/>
<path class="stroke" d="M236.23,154.733c0.525,0.841,0.602,1.735,1.006,2.617"/>
<path class="stroke" d="M236.835,153.324c0.733,1.35,0.795,2.858,1.409,4.228"/>
<path class="stroke" d="M211.271,151.513c0.229,0.794,0.351,1.588,0.399,2.416"/>
<path class="stroke" d="M212.68,151.11c0.291,0.773,0.413,1.658,0.604,2.416"/>
<path class="stroke" d="M213.887,150.104c0.512,1.026,0.768,2.306,1.008,3.422"/>
<path class="stroke" d="M214.895,149.5c0.451,1.176,0.641,2.427,1.006,3.624"/>
<path class="stroke" d="M216.303,149.298c0.547,1.014,0.729,2.268,1.006,3.422"/>
<path class="stroke" d="M217.913,150.506c0.306,0.794,0.521,1.631,0.805,2.416"/>
<path class="stroke" d="M218.92,150.506c0.348,0.747,0.627,1.48,1.006,2.214"/>
<path class="stroke" d="M220.529,149.5c0.389,0.922,0.595,1.898,1.007,2.818"/>
<path class="stroke" d="M221.736,149.5c0.312,0.864,0.408,1.783,0.807,2.617"/>
<path class="stroke" d="M223.55,149.701c0.329,0.571,0.604,1.195,0.806,1.812"/>
<path class="stroke" d="M224.152,148.292c0.408,0.914,0.674,1.872,1.008,2.818"/>
<path class="stroke" d="M225.965,147.285c0.733,1.063,1.016,2.583,1.409,3.825"/>
<path class="stroke" d="M227.575,148.09c0.139,0.913,0.422,2.151,0.806,2.818"/>
<path class="stroke" d="M228.381,147.487c0.307,1.085,0.562,2.214,1.006,3.221"/>
<path class="stroke" d="M229.588,147.084c0.178,1.111,0.555,2.207,1.008,3.221"/>
<path class="stroke" d="M230.596,147.487c0.238,1.055,0.508,2.423,1.006,3.221"/>
<path class="stroke" d="M231.803,147.487c0.182,1.083,0.43,2.223,0.967,3.178
	c0.074-0.179,0.088-0.366,0.041-0.562"/>
<path class="stroke" d="M232.811,147.285c0.273,1.002,0.58,2.002,0.807,3.02"/>
<path class="stroke" d="M233.614,147.084c0.358,0.887,0.612,2.068,0.961,2.821
	c0.071-0.196,0.087-0.398,0.046-0.607"/>
<path class="stroke" d="M234.218,145.876c0.69,0.662,0.943,2.565,1.208,3.019"/>
<path class="stroke" d="M235.225,146.48c0.428,1.008,0.771,2.914,1.209,3.422"/>
<path class="stroke" d="M237.236,146.279c0.156,0.464,0.289,0.93,0.404,1.409"/>
<path class="bigStroke" d="M94.717,313.359
	c-0.134,0.133-0.268,0.268-0.402,0.398"/>
<path class="bigStroke" d="M63.314,443.398
	c4.182-17.455,5.558-36.062,11.261-53.242c3.678-11.08,6.54-22.49,9.372-33.812c2.175-8.691,3.778-17.729,5.043-26.502
	c0.532-3.688,1.628-6.463,2.615-9.643c0.971-3.123,0.592-5.59,3.111-8.051"/>
<path class="bigStroke" d="M153,490.087
	c-6.089-9.84-16.114-17.57-26.389-22.898c-8.799-4.564-17.168-10.488-26.611-14.012c-14.992-5.591-33.074-10.703-48.361-4.545
	c-4.32,1.74-7.61,4.66-11.639,6.895c-1.01,0.559-2.06,1.077-3.19,1.52c-7.45,2.91-15.25,5.74-18.59,13.73"/>
<path class="bigStroke" d="M5.868,490.087
	c0.02-1.031,0.382-11.195,0.452-12.223c0.2-3.104,0.58-6.16,1.3-9.021c0.45-1.811,1.38-3.396,2.38-4.971v-0.01
	c1-1.58,2-3.129,2.46-4.859c0.67-2.531,0.29-5.721,0.79-8.381c1.59-8.439,4.41-16.859,7.49-25.021c0.98-2.6,2-5.17,3.01-7.709
	c3.12-7.826,6.64-16,10.54-24.061c4.92-10.15,10.44-20.109,16.48-28.959c0.01-0.01,0.01-0.021,0.02-0.031
	c0.32-0.479,0.65-0.959,0.98-1.43"/>
</svg>
