<?xml version="1.0" encoding="UTF-8" standalone="no"?><!DOCTYPE svg PUBLIC "-//W3C//DTD SVG 1.1//EN" "http://www.w3.org/Graphics/SVG/1.1/DTD/svg11.dtd"><svg width="100%" height="100%" viewBox="0 0 100 100" version="1.1" xmlns="http://www.w3.org/2000/svg" xmlns:xlink="http://www.w3.org/1999/xlink" xml:space="preserve" xmlns:serif="http://www.serif.com/" style="fill-rule:evenodd;clip-rule:evenodd;stroke-linejoin:round;stroke-miterlimit:1.41421;"><path d="M32.146,63.902l-0.624,0l0,-21.556l0.624,0l0,4.499l0.063,0c0.208,-0.708 0.51,-1.359 0.906,-1.953c0.396,-0.593 0.864,-1.109 1.406,-1.546c0.541,-0.437 1.161,-0.776 1.858,-1.015c0.698,-0.24 1.453,-0.36 2.265,-0.36c1.062,0 2.015,0.209 2.859,0.625c0.843,0.417 1.562,1 2.155,1.75c0.594,0.749 1.047,1.634 1.359,2.655c0.313,1.02 0.469,2.135 0.469,3.343c0,1.124 -0.151,2.197 -0.453,3.217c-0.302,1.021 -0.739,1.916 -1.312,2.687c-0.573,0.771 -1.286,1.38 -2.14,1.827c-0.854,0.448 -1.833,0.672 -2.937,0.672c-1.707,0 -3.113,-0.442 -4.217,-1.328c-1.104,-0.885 -1.843,-2.056 -2.218,-3.514l-0.063,0l0,9.997Zm23.93,-13.402c0.021,1.083 0.151,2.088 0.391,3.014c0.239,0.927 0.609,1.734 1.109,2.422c0.499,0.687 1.145,1.228 1.937,1.624c0.791,0.396 1.759,0.594 2.905,0.594c1.687,0 3.087,-0.443 4.202,-1.328c1.114,-0.885 1.806,-2.213 2.077,-3.983l0.625,0c-0.229,1.874 -0.969,3.327 -2.218,4.358c-1.25,1.031 -2.791,1.546 -4.624,1.546c-1.249,0.021 -2.317,-0.177 -3.202,-0.593c-0.885,-0.417 -1.609,-1.005 -2.171,-1.765c-0.562,-0.761 -0.979,-1.656 -1.25,-2.687c-0.27,-1.031 -0.406,-2.14 -0.406,-3.327c0,-1.333 0.198,-2.52 0.594,-3.561c0.396,-1.042 0.916,-1.922 1.562,-2.64c0.646,-0.719 1.395,-1.265 2.249,-1.64c0.854,-0.375 1.729,-0.563 2.624,-0.563c1.25,0 2.328,0.24 3.234,0.719c0.906,0.479 1.645,1.114 2.218,1.906c0.572,0.791 0.989,1.697 1.249,2.717c0.261,1.021 0.37,2.083 0.328,3.187l-13.433,0Zm27.023,-3.405l-0.625,0c0,-0.813 -0.125,-1.5 -0.375,-2.062c-0.25,-0.562 -0.604,-1.026 -1.062,-1.39c-0.458,-0.365 -1.005,-0.63 -1.64,-0.797c-0.636,-0.167 -1.338,-0.25 -2.109,-0.25c-1.125,0 -2.01,0.151 -2.655,0.453c-0.646,0.302 -1.125,0.646 -1.437,1.031c-0.313,0.385 -0.511,0.765 -0.594,1.14c-0.083,0.375 -0.125,0.636 -0.125,0.781c0,0.792 0.161,1.401 0.484,1.828c0.323,0.427 0.755,0.755 1.297,0.984c0.562,0.229 1.171,0.427 1.827,0.593c0.656,0.167 1.422,0.365 2.296,0.594c0.625,0.167 1.245,0.338 1.859,0.515c0.615,0.177 1.166,0.422 1.656,0.735c0.489,0.312 0.885,0.708 1.187,1.187c0.302,0.479 0.453,1.104 0.453,1.874c0,0.812 -0.172,1.5 -0.515,2.062c-0.344,0.562 -0.792,1.02 -1.344,1.374c-0.552,0.355 -1.177,0.61 -1.874,0.766c-0.698,0.156 -1.39,0.234 -2.078,0.234c-2.145,0 -3.764,-0.468 -4.857,-1.406c-1.094,-0.937 -1.641,-2.415 -1.641,-4.436l0.625,0c0,1.812 0.505,3.14 1.515,3.983c1.01,0.844 2.463,1.266 4.358,1.266c0.583,0 1.182,-0.068 1.797,-0.203c0.614,-0.136 1.171,-0.355 1.671,-0.656c0.5,-0.302 0.911,-0.693 1.234,-1.172c0.323,-0.479 0.484,-1.062 0.484,-1.749c0,-0.709 -0.161,-1.281 -0.484,-1.719c-0.323,-0.437 -0.739,-0.796 -1.25,-1.077c-0.51,-0.282 -1.098,-0.505 -1.765,-0.672c-0.666,-0.167 -1.343,-0.333 -2.03,-0.5c-0.771,-0.187 -1.448,-0.364 -2.031,-0.531c-0.583,-0.167 -1.104,-0.354 -1.562,-0.562c-0.666,-0.292 -1.156,-0.698 -1.468,-1.219c-0.313,-0.52 -0.469,-1.218 -0.469,-2.093c0,-0.437 0.094,-0.895 0.281,-1.374c0.188,-0.479 0.5,-0.917 0.938,-1.312c0.437,-0.396 0.999,-0.719 1.687,-0.969c0.687,-0.25 1.53,-0.375 2.53,-0.375c1.791,0 3.207,0.406 4.249,1.219c1.041,0.812 1.562,2.114 1.562,3.905Zm14.464,0l-0.625,0c0,-0.813 -0.125,-1.5 -0.375,-2.062c-0.25,-0.562 -0.604,-1.026 -1.062,-1.39c-0.458,-0.365 -1.005,-0.63 -1.64,-0.797c-0.635,-0.167 -1.338,-0.25 -2.109,-0.25c-1.125,0 -2.01,0.151 -2.655,0.453c-0.646,0.302 -1.125,0.646 -1.437,1.031c-0.313,0.385 -0.511,0.765 -0.594,1.14c-0.083,0.375 -0.125,0.636 -0.125,0.781c0,0.792 0.162,1.401 0.484,1.828c0.323,0.427 0.755,0.755 1.297,0.984c0.562,0.229 1.171,0.427 1.827,0.593c0.656,0.167 1.422,0.365 2.296,0.594c0.625,0.167 1.245,0.338 1.859,0.515c0.615,0.177 1.166,0.422 1.656,0.735c0.489,0.312 0.885,0.708 1.187,1.187c0.302,0.479 0.453,1.104 0.453,1.874c0,0.812 -0.172,1.5 -0.515,2.062c-0.344,0.562 -0.792,1.02 -1.344,1.374c-0.552,0.355 -1.176,0.61 -1.874,0.766c-0.698,0.156 -1.39,0.234 -2.078,0.234c-2.145,0 -3.764,-0.468 -4.857,-1.406c-1.094,-0.937 -1.64,-2.415 -1.64,-4.436l0.624,0c0,1.812 0.505,3.14 1.515,3.983c1.011,0.844 2.463,1.266 4.358,1.266c0.584,0 1.182,-0.068 1.797,-0.203c0.614,-0.136 1.171,-0.355 1.671,-0.656c0.5,-0.302 0.911,-0.693 1.234,-1.172c0.323,-0.479 0.484,-1.062 0.484,-1.749c0,-0.709 -0.161,-1.281 -0.484,-1.719c-0.323,-0.437 -0.739,-0.796 -1.25,-1.077c-0.51,-0.282 -1.098,-0.505 -1.765,-0.672c-0.666,-0.167 -1.343,-0.333 -2.03,-0.5c-0.771,-0.187 -1.448,-0.364 -2.031,-0.531c-0.583,-0.167 -1.104,-0.354 -1.562,-0.562c-0.666,-0.292 -1.156,-0.698 -1.468,-1.219c-0.312,-0.52 -0.469,-1.218 -0.469,-2.093c0,-0.437 0.094,-0.895 0.281,-1.374c0.188,-0.479 0.5,-0.917 0.938,-1.312c0.437,-0.396 0.999,-0.719 1.687,-0.969c0.687,-0.25 1.53,-0.375 2.53,-0.375c1.791,0 3.207,0.406 4.249,1.219c1.041,0.812 1.562,2.114 1.562,3.905Zm-48.641,11.309l-0.625,0l0,-16.058l0.625,0l0,3.968l0.063,0c0.146,-0.604 0.375,-1.172 0.687,-1.703c0.312,-0.531 0.729,-0.994 1.25,-1.39c0.52,-0.396 1.14,-0.708 1.858,-0.937c0.719,-0.229 1.557,-0.333 2.515,-0.313l0,0.625c-1.104,-0.062 -2.056,0.089 -2.858,0.453c-0.802,0.365 -1.463,0.864 -1.984,1.5c-0.521,0.635 -0.906,1.369 -1.156,2.202c-0.25,0.833 -0.375,1.687 -0.375,2.562l0,9.091Zm-32.114,-21.681l-14.183,0l0,9.747l13.339,0l0,0.625l-13.339,0l0,10.684l14.308,0l0,0.26l6.123,-7.945l-5.842,-7.748l0.812,0l5.405,7.279l5.529,-7.279l0.75,0l-5.873,7.748l6.435,8.31l-0.781,0l-6.06,-7.842l-6.03,7.842l-15.401,0l0,-22.306l14.808,0l0,0.625Zm21.836,21.431c-1.957,0 -3.53,-0.672 -4.717,-2.015c-1.187,-1.344 -1.781,-3.275 -1.781,-5.795c0,-1.042 0.146,-2.031 0.438,-2.968c0.291,-0.937 0.713,-1.76 1.265,-2.468c0.552,-0.708 1.234,-1.271 2.046,-1.687c0.812,-0.417 1.729,-0.625 2.749,-0.625c1.042,0 1.953,0.208 2.734,0.625c0.781,0.416 1.426,0.984 1.937,1.703c0.51,0.718 0.895,1.541 1.156,2.467c0.26,0.927 0.39,1.911 0.39,2.953c0,0.937 -0.12,1.869 -0.359,2.796c-0.24,0.926 -0.609,1.759 -1.109,2.499c-0.5,0.739 -1.14,1.343 -1.921,1.812c-0.781,0.468 -1.724,0.703 -2.828,0.703Zm30.24,-8.279c0,-0.979 -0.135,-1.911 -0.406,-2.796c-0.27,-0.885 -0.671,-1.661 -1.202,-2.327c-0.531,-0.667 -1.193,-1.193 -1.984,-1.578c-0.792,-0.385 -1.708,-0.578 -2.749,-0.578c-0.875,0 -1.692,0.167 -2.453,0.5c-0.76,0.333 -1.426,0.817 -1.999,1.453c-0.573,0.635 -1.036,1.4 -1.39,2.296c-0.354,0.895 -0.562,1.905 -0.625,3.03l12.808,0Z"/></svg>