<?xml version="1.0" encoding="UTF-8" standalone="no"?><!DOCTYPE svg PUBLIC "-//W3C//DTD SVG 1.1//EN" "http://www.w3.org/Graphics/SVG/1.1/DTD/svg11.dtd"><svg width="100%" height="100%" viewBox="0 0 34 10" version="1.1" xmlns="http://www.w3.org/2000/svg" xmlns:xlink="http://www.w3.org/1999/xlink" xml:space="preserve" xmlns:serif="http://www.serif.com/" style="fill-rule:evenodd;clip-rule:evenodd;stroke-linejoin:round;stroke-miterlimit:1.41421;"><rect id="_-hiswe" serif:id="©hiswe" x="0" y="0" width="33.6" height="9.6" style="fill:none;"/><clipPath id="_clip1"><rect x="0" y="0" width="33.6" height="9.6"/></clipPath><g clip-path="url(#_clip1)"><path d="M2.8,3.358l-2.8,-1.395l0,6.109l3.055,1.527l0,-5.824l2.769,1.385l-2.769,1.385l3.054,1.527l0,-6.109l-3.309,-1.66l0,3.055Zm15.527,-1.395l-3.054,-1.527l-3.055,1.527l0,3.054l3.055,1.528l-3.055,1.527l3.055,1.527l3.054,-1.527l0,-3.055l-3.054,-1.527l3.054,-1.527Zm4.582,1.466l-3.054,-1.497l0,6.14l3.054,1.527l1.222,-2.443l1.833,0.916l0,-6.109l-3.055,-1.527l0,2.993Zm4.836,-1.313l2.8,-1.395l2.485,1.242l-2.485,1.242l0,0.285l3.055,-1.527l-3.055,-1.527l-3.054,1.527l0,6.109l3.054,1.527l3.055,-1.527l-3.055,-1.527l0,2.769l-2.8,-1.395l0,-5.803Zm-17.054,7.412l0,-5.345l-3.055,-1.528l0,5.346l3.055,1.527Zm9.418,-1.609l0,-5.539l2.8,1.395l0,5.549l-2.8,-1.405Zm-7.321,0.153l2.77,-1.385l2.484,1.242l-2.769,1.385l-2.485,-1.242Zm-12.533,-0.153l0,-5.549l2.545,1.273l0,5.549l-2.545,-1.273Zm10.181,-3.584l0,4.786l-2.545,-1.273l0,-4.775l2.545,1.262Zm12.728,1.864l0.926,0.468l-0.926,1.863l0,-2.331Zm0,-0.286l0,-5.06l2.545,1.273l0,5.691l-1.273,-1.272l-1.272,-0.632Zm7.381,0.632l3.055,-1.528l-3.055,-1.527l0,3.055Zm-12.788,-1.528l-2.484,1.243l0,-2.485l2.484,1.242Zm-5.284,-2.901l2.8,-1.395l2.484,1.242l-2.739,1.374l0,2.8l-2.545,-1.272l0,-2.749Zm-9.418,1.374l0,-2.769l2.8,1.395l0,2.769l-2.8,-1.395Zm4.581,-1.598l3.055,1.527l0,-1.527l-3.055,-1.528l0,1.528Zm0.255,-0.153l0,-0.957l2.545,1.273l0,0.957l-2.545,-1.273Z" style="fill-rule:nonzero;"/></g></svg>