<?xml version="1.0" encoding="UTF-8" standalone="no"?><!DOCTYPE svg PUBLIC "-//W3C//DTD SVG 1.1//EN" "http://www.w3.org/Graphics/SVG/1.1/DTD/svg11.dtd"><svg width="100%" height="100%" viewBox="0 0 100 100" version="1.1" xmlns="http://www.w3.org/2000/svg" xmlns:xlink="http://www.w3.org/1999/xlink" xml:space="preserve" xmlns:serif="http://www.serif.com/" style="fill-rule:evenodd;clip-rule:evenodd;stroke-linejoin:round;stroke-miterlimit:1.41421;"><rect id="Artboard1" x="0" y="0" width="100" height="100" style="fill:none;"/><clipPath id="_clip1"><rect x="0" y="0" width="100" height="100"/></clipPath><g clip-path="url(#_clip1)"><g><rect x="0" y="0" width="100" height="100" style="fill:#f7df1e;"/><path d="M67.175,78.125c2.014,3.289 4.635,5.707 9.269,5.707c3.894,0 6.381,-1.946 6.381,-4.635c0,-3.222 -2.555,-4.364 -6.841,-6.238l-2.349,-1.008c-6.781,-2.889 -11.286,-6.508 -11.286,-14.159c0,-7.048 5.37,-12.413 13.762,-12.413c5.975,0 10.27,2.08 13.365,7.524l-7.317,4.699c-1.611,-2.889 -3.349,-4.027 -6.048,-4.027c-2.752,0 -4.497,1.746 -4.497,4.027c0,2.819 1.746,3.96 5.778,5.706l2.349,1.006c7.984,3.424 12.492,6.915 12.492,14.762c0,8.461 -6.646,13.095 -15.571,13.095c-8.727,0 -14.365,-4.158 -17.124,-9.609l7.637,-4.437Zm-33.196,0.815c1.477,2.619 2.819,4.833 6.048,4.833c3.087,0 5.035,-1.208 5.035,-5.905l0,-31.952l9.397,0l0,32.079c0,9.73 -5.705,14.159 -14.032,14.159c-7.524,0 -11.881,-3.894 -14.097,-8.583l7.649,-4.631Z" style="fill-rule:nonzero;"/></g></g></svg>