<?xml version="1.0" encoding="UTF-8" standalone="no"?><!DOCTYPE svg PUBLIC "-//W3C//DTD SVG 1.1//EN" "http://www.w3.org/Graphics/SVG/1.1/DTD/svg11.dtd"><svg width="100%" height="100%" viewBox="0 0 100 55" version="1.1" xmlns="http://www.w3.org/2000/svg" xmlns:xlink="http://www.w3.org/1999/xlink" xml:space="preserve" xmlns:serif="http://www.serif.com/" style="fill-rule:evenodd;clip-rule:evenodd;stroke-linejoin:round;stroke-miterlimit:1.41421;"><rect id="Artboard1" x="0" y="0" width="100" height="55" style="fill:none;"/><g id="koa"><path d="M8.2,2.553l0,33.202l14.596,-16.534l0.663,0l-10.814,12.267l14.264,21.069l-4.644,0l-12.273,-18.135l-1.792,2.067l0,16.068l-4.644,0l0,-50.004l4.644,0Z" style="fill:#445;fill-rule:nonzero;"/><path d="M46.281,52.824c-4.644,0 -8.425,-1.334 -11.344,-4.001c-2.919,-2.667 -4.379,-6.778 -4.379,-12.334c0,-5.556 1.515,-9.868 4.545,-12.935c3.029,-3.067 6.877,-4.6 11.543,-4.6c4.666,0 8.459,1.333 11.378,4c2.919,2.667 4.379,6.779 4.379,12.335c0,5.556 -1.515,9.867 -4.545,12.934c-3.03,3.067 -6.888,4.601 -11.577,4.601Zm0.465,-33.337c-3.362,0 -6.148,1.501 -8.36,4.501c-2.211,3 -3.317,7.178 -3.317,12.534c0,5.356 1.018,9.323 3.052,11.901c2.035,2.578 4.733,3.867 8.094,3.867c3.361,0 6.148,-1.5 8.359,-4.5c2.212,-3 3.317,-7.179 3.317,-12.535c0,-5.356 -1.017,-9.323 -3.051,-11.901c-2.035,-2.578 -4.733,-3.867 -8.094,-3.867Z" style="fill:#445;fill-rule:nonzero;"/><path d="M95.11,52.557c-3.008,0 -5.064,-0.578 -6.17,-1.734c-1.017,-0.977 -1.526,-1.822 -1.526,-2.533l0,-1.4c-2.167,3.956 -5.639,5.934 -10.416,5.934c-5.573,0 -8.735,-2.534 -9.487,-7.601c-0.088,-0.533 -0.133,-1.078 -0.133,-1.634c0,-0.555 0.089,-1.166 0.266,-1.833c0.177,-0.667 0.685,-1.4 1.526,-2.2c1.68,-1.6 5.373,-2.578 11.079,-2.934c1.415,-0.133 2.72,-0.2 3.914,-0.2c1.194,0 2.278,0.045 3.251,0.133l0,-11.067c-0.089,-0.045 -0.089,-0.256 0,-0.633c0.088,-0.378 0.011,-0.867 -0.232,-1.467c-0.244,-0.6 -0.564,-1.189 -0.962,-1.767c-0.398,-0.578 -1.106,-1.078 -2.123,-1.5c-1.017,-0.422 -2.344,-0.634 -3.981,-0.634c-1.636,0 -3.549,0.3 -5.738,0.9c-2.19,0.601 -3.793,1.189 -4.81,1.767l-0.266,-0.466c3.937,-1.823 7.939,-2.734 12.008,-2.734c4.556,0 7.563,0.822 9.023,2.467c1.15,1.289 1.725,2.645 1.725,4.067l0,22.335c0,1.289 0.254,2.278 0.763,2.967c0.508,0.689 1.028,1.056 1.559,1.1l0.73,0.133l2.056,0l0,0.534l-2.056,0Zm-17.05,-0.267c2.344,0 4.456,-0.811 6.335,-2.433c1.88,-1.623 2.886,-3.19 3.019,-4.701l0,-8.067c-1.194,-0.089 -2.399,-0.133 -3.616,-0.133c-1.216,0 -2.421,0.066 -3.615,0.2c-3.362,0.4 -5.551,1.155 -6.568,2.266c-1.018,1.112 -1.526,2.645 -1.526,4.601c0,0.355 0.022,0.755 0.066,1.2c0.398,4.711 2.366,7.067 5.905,7.067Z" style="fill:#445;fill-rule:nonzero;"/></g></svg>