<?xml version="1.0" encoding="UTF-8" standalone="no"?><!DOCTYPE svg PUBLIC "-//W3C//DTD SVG 1.1//EN" "http://www.w3.org/Graphics/SVG/1.1/DTD/svg11.dtd"><svg width="100%" height="100%" viewBox="0 0 100 100" version="1.1" xmlns="http://www.w3.org/2000/svg" xmlns:xlink="http://www.w3.org/1999/xlink" xml:space="preserve" xmlns:serif="http://www.serif.com/" style="fill-rule:evenodd;clip-rule:evenodd;stroke-linejoin:round;stroke-miterlimit:1.41421;"><rect id="Artboard1" x="0" y="0" width="100" height="100" style="fill:none;"/><path id="path30" d="M52.234,98.748l-2.615,-0.866c0,0 0.333,-13.235 -4.44,-14.162c-3.148,-3.647 0.484,-155.791 11.919,-0.521c0,0 -3.914,1.965 -4.654,5.302c-0.741,3.34 -0.21,10.247 -0.21,10.247" style="fill:url(#_Linear1);fill-rule:nonzero;"/><path id="path46" d="M53.644,85.967c0,0 22.723,-14.967 17.4,-46.049c-5.127,-22.581 -17.232,-30.005 -18.532,-32.839c-1.432,-2.006 -2.875,-5.561 -2.875,-5.561l0.967,62.919c0,0 -1.999,19.212 3.04,21.53" style="fill:url(#_Linear2);fill-rule:nonzero;"/><path id="path62" d="M48.288,86.803c0,0 -21.315,-14.541 -20.089,-40.197c1.227,-25.658 16.282,-38.273 19.214,-40.561c1.896,-2.021 1.974,-2.799 2.121,-4.793c1.328,2.854 1.108,42.631 1.248,47.28c0.547,18.098 -1.002,34.855 -2.494,38.271" style="fill:url(#_Linear3);fill-rule:nonzero;"/><defs><linearGradient id="_Linear1" x1="0" y1="0" x2="1" y2="0" gradientUnits="userSpaceOnUse" gradientTransform="matrix(30.0597,10.1417,10.1417,-30.0597,34.9358,50.9759)"><stop offset="0" style="stop-color:#929669;stop-opacity:1"/><stop offset="0.23" style="stop-color:#929669;stop-opacity:1"/><stop offset="1" style="stop-color:#fdfcf1;stop-opacity:1"/></linearGradient><linearGradient id="_Linear2" x1="0" y1="0" x2="1" y2="0" gradientUnits="userSpaceOnUse" gradientTransform="matrix(21.0497,81.7152,81.7152,-21.0497,45.9483,2.11014)"><stop offset="0" style="stop-color:#45aa3a;stop-opacity:1"/><stop offset="1" style="stop-color:#3d9439;stop-opacity:1"/></linearGradient><linearGradient id="_Linear3" x1="0" y1="0" x2="1" y2="0" gradientUnits="userSpaceOnUse" gradientTransform="matrix(36.8417,-8.3708,-8.3708,-36.8417,25.9592,49.2425)"><stop offset="0" style="stop-color:#41a83b;stop-opacity:1"/><stop offset="1" style="stop-color:#5ebc44;stop-opacity:1"/></linearGradient></defs></svg>