<?xml version="1.0" encoding="UTF-8" standalone="no"?><!DOCTYPE svg PUBLIC "-//W3C//DTD SVG 1.1//EN" "http://www.w3.org/Graphics/SVG/1.1/DTD/svg11.dtd"><svg width="100%" height="100%" viewBox="0 0 100 100" version="1.1" xmlns="http://www.w3.org/2000/svg" xmlns:xlink="http://www.w3.org/1999/xlink" xml:space="preserve" xmlns:serif="http://www.serif.com/" style="fill-rule:evenodd;clip-rule:evenodd;stroke-linejoin:round;stroke-miterlimit:1.41421;"><rect id="Artboard1" x="0" y="0" width="100" height="100" style="fill:none;"/><path d="M87.557,55.876c2.151,0.062 4.269,1.51 4.609,3.715c0.358,2.32 -1.389,4.514 -3.293,5.987c-3.811,2.947 -8.862,4.259 -13.791,4.095c-0.105,-0.003 -0.21,-0.008 -0.315,-0.012l-0.697,-0.062c-0.044,0.377 -0.088,0.754 -0.132,1.131c0,0 -0.034,1.124 -0.082,2.101c-0.184,3.805 -0.561,7.633 -1.733,11.278c-0.995,3.096 -2.75,6.055 -5.43,7.909c-2.201,1.523 -4.853,2.289 -7.517,2.744c-2.658,0.454 -5.511,0.199 -7.781,-1.243c-2.399,-1.524 -3.72,-4.263 -4.641,-7.009c-1.557,-4.593 -1.446,-9.543 -1.595,-14.285l-0.006,-0.178c-3.413,1.486 -7.46,1.571 -11.083,0.478c-1.571,-0.474 -3.081,-1.25 -4.141,-2.506c0,0 -0.626,0.476 -1.156,0.805c-2.275,1.409 -5.19,1.628 -7.722,0.312c-2.897,-1.506 -4.825,-4.359 -6.355,-7.153c-2.571,-4.692 -4.272,-9.822 -5.755,-14.997c-1.603,-5.598 -2.972,-11.256 -3.721,-17.034c-0.346,-2.675 -0.33,-5.397 -0.029,-8.067c0.65,-5.772 3.205,-11.574 8.462,-14.778c5.673,-3.458 13.044,-3.366 19.652,-1.995c2.045,0.424 4.065,0.973 6.045,1.638c0,0 0.624,-0.331 1.128,-0.586c5.016,-2.542 11.074,-2.546 16.505,-1.626c0,0 0.522,-0.073 0.939,-0.188c7.681,-2.114 16.125,-2.009 23.357,1.744c3.239,1.681 6.075,4.091 8.338,6.971c0,0 0.348,0.454 0.607,0.899c1.292,2.224 1.583,4.903 1.564,7.519c-0.043,5.743 -1.511,11.434 -3.394,16.937c-1.934,5.65 -4.446,11.094 -7.506,16.261l-0.009,0.015c2.266,-0.07 4.538,-0.817 6.533,-0.822c0.073,0 0.073,0 0.145,0.002Z" style="fill:#000001;fill-rule:nonzero;"/><path d="M86.157,59.801c-10.161,2.096 -10.859,-1.344 -10.859,-1.344c10.728,-15.919 15.212,-36.125 11.342,-41.07c-10.558,-13.49 -28.834,-7.11 -29.14,-6.945l-0.098,0.018c-2.007,-0.417 -4.254,-0.665 -6.778,-0.706c-4.598,-0.076 -8.085,1.205 -10.732,3.212c0,0 -32.603,-13.432 -31.087,16.892c0.323,6.451 9.247,48.813 19.89,36.018c3.891,-4.679 7.65,-8.635 7.65,-8.635c1.867,1.24 4.102,1.873 6.445,1.646l0.182,-0.155c-0.057,0.581 -0.031,1.149 0.073,1.822c-2.742,3.063 -1.937,3.601 -7.418,4.73c-5.547,1.143 -2.288,3.178 -0.161,3.71c2.579,0.645 8.546,1.558 12.577,-4.085l-0.16,0.643c1.074,0.861 1.828,5.598 1.702,9.892c-0.127,4.294 -0.211,7.242 0.636,9.545c0.846,2.302 1.69,7.483 8.896,5.939c6.021,-1.29 9.141,-4.634 9.575,-10.211c0.308,-3.966 1.005,-3.379 1.049,-6.925l0.559,-1.678c0.645,-5.375 0.103,-7.109 3.812,-6.303l0.902,0.08c2.73,0.124 6.303,-0.44 8.401,-1.414c4.516,-2.096 7.194,-5.595 2.741,-4.676l0.001,0Z" style="fill:#336791;fill-rule:nonzero;"/><path d="M56.87,9.208c0.233,-0.096 0.711,-0.286 1.206,-0.431c3.096,-0.908 6.318,-1.35 9.545,-1.369c0.074,0 0.148,-0.001 0.222,-0.001c7.307,0.023 14.569,2.828 19.308,8.569c1.472,1.782 1.717,3.198 1.906,4.708c0.621,4.937 -0.509,9.98 -1.866,14.79c-2.287,8.112 -5.859,15.876 -10.461,22.871c0.698,0.61 2.097,0.722 3.396,0.746c2.015,0.037 4.04,-0.349 5.991,-0.704c1.56,-0.276 3.897,-0.114 3.475,2.12c-0.269,1.422 -1.514,2.384 -2.793,3.296c-3.582,2.556 -8.26,3.6 -12.696,3.163c-0.623,-0.061 -1.268,-0.158 -1.863,-0.341c-0.463,4.892 -1.135,9.791 -1.905,14.612c-0.547,3.426 -1.615,6.836 -4.606,8.872c-1.924,1.31 -4.245,1.982 -6.459,2.341c-2.948,0.478 -6.128,-0.094 -8.274,-2.239c-1.202,-1.201 -1.997,-2.749 -2.637,-4.343c-0.338,-0.857 -0.339,-1.145 -0.414,-1.539c-0.819,-4.297 -0.776,-8.749 -0.811,-13.153c-0.009,-1.18 -0.009,-2.36 0.001,-3.54c-2.109,1.844 -4.946,2.932 -7.826,2.973c-2.422,0.033 -4.959,-0.329 -6.828,-1.694c-0.892,-0.651 -1.597,-1.862 -1.032,-2.967c0.77,-1.508 2.94,-1.819 4.566,-2.175c1.521,-0.336 3.11,-0.682 4.096,-1.848c0.476,-0.563 0.926,-1.192 1.405,-1.777c-0.018,-0.053 -0.062,-0.087 -0.162,-0.091c0,0 -0.547,-0.028 -0.94,-0.077c-1.373,-0.173 -2.681,-0.619 -3.877,-1.283c-2.422,2.578 -4.709,5.202 -7.014,7.94c-1.638,1.929 -4.036,3.383 -6.619,2.472c-2.196,-0.775 -3.733,-2.707 -4.963,-4.596c-3.019,-4.636 -4.781,-9.993 -6.368,-15.371c-1.79,-6.062 -3.383,-12.266 -4.026,-18.471c-0.271,-2.612 -0.165,-5.29 0.232,-7.816c0.699,-4.443 2.788,-8.853 6.601,-11.417c3.099,-2.085 6.978,-2.85 10.734,-2.874c0.065,0 0.13,0 0.194,0c4.938,0.017 9.897,1.054 14.435,2.789c3.008,-2.018 6.707,-2.967 10.347,-2.988c0.08,0 0.16,0 0.24,0.001c2.203,0.02 4.405,0.304 6.54,0.842Zm13.059,54.967c-0.055,-0.494 -0.019,-1.014 0.022,-1.499c0.156,-1.839 1.155,-3.7 3.002,-4.424c0.292,-0.114 0.728,-0.241 0.728,-0.241c-1.161,-1.665 -2.526,-3.196 -3.363,-5.156c-0.932,-2.186 -2.3,-4.197 -3.384,-6.365c-1.682,-3.368 -3.3,-6.858 -3.424,-10.723c-0.067,-2.065 0.548,-4.264 2.177,-5.631c2.18,-1.828 5.412,-1.974 8.491,-1.662c-1.124,-3.34 -3.05,-6.411 -5.396,-9.087c-4.821,-5.5 -12.069,-8.771 -19.422,-8.489c-4.164,0.16 -8.263,1.826 -11.085,5.136c-3.554,4.169 -5.018,9.712 -5.396,15.072c2.411,-1.376 5.129,-2.303 7.853,-2.332c0.046,0 0.091,0 0.137,0c1.994,0.014 4.017,0.723 5.275,2.261c1.144,1.398 1.501,3.263 1.827,5.093c0.887,4.988 0.921,10.155 -1.048,14.919c-0.957,2.315 -2.105,4.579 -2.711,7.096c0.155,-0.038 0.315,-0.066 0.481,-0.083c0.124,-0.012 0.248,-0.017 0.372,-0.016c2.675,0.054 4.984,2.913 4.653,5.606c-0.166,6.181 -0.267,12.46 0.46,18.594c0.358,3.018 1.331,6.176 4.463,7.422c2.421,0.964 5.237,0.256 7.409,-0.524c1.617,-0.58 3.165,-1.538 4.11,-2.994c1.078,-1.662 1.441,-3.703 1.743,-5.65c0.841,-5.432 1.586,-10.84 2.026,-16.323Zm-24.918,-3.613c-0.445,0.007 -0.808,0.38 -1.101,0.706c-1.046,1.17 -1.873,2.584 -3.123,3.45c-1.954,1.354 -4.667,1.233 -6.76,2.204c0,0 1.12,0.607 2.094,0.824c3.07,0.685 6.533,0.347 9.032,-1.739c1.439,-1.201 2.724,-2.939 1.409,-4.597c-0.378,-0.477 -0.968,-0.851 -1.551,-0.848Zm-7.547,-47.351c-5.051,-1.729 -10.4,-2.616 -15.432,-1.919c-3.155,0.438 -6.264,1.727 -8.37,4.083c-3.245,3.629 -3.93,9.011 -3.672,14.293c0.149,2.846 0.797,5.641 1.393,8.447c1.542,7.25 3.444,14.497 6.579,21.191c1.196,2.552 2.454,5.21 4.761,6.876c0.748,0.54 1.737,0.885 2.66,0.56c1.571,-0.554 2.543,-2.137 3.719,-3.512c1.74,-2.037 3.519,-4.041 5.355,-5.997c-3.051,-2.666 -4.913,-6.897 -4.452,-11.285c0.105,-1.005 0.253,-2.003 0.33,-3.008c0.23,-2.992 -0.025,-5.962 -0.068,-9.014c-0.001,-0.078 0.004,-0.155 0.013,-0.23c-0.058,-0.693 0.008,-1.417 0.054,-2.132c0.431,-6.728 2.35,-13.722 7.13,-18.353Zm37.595,47.018c-0.7,0.233 -1.464,0.328 -1.964,0.862c-0.706,0.755 -0.69,1.896 -0.65,2.846c0,0 0.607,0.317 1.158,0.42c3.65,0.677 7.737,-0.234 10.477,-1.801c0.825,-0.472 1.619,-1.008 2.314,-1.657c0,0 -0.37,0.074 -0.772,0.151c-3.105,0.584 -6.455,1.087 -9.3,-0.115c-0.43,-0.182 -0.841,-0.415 -1.207,-0.706c0,0 0.017,-0.025 -0.056,0Zm-34.271,-28.937c-2.667,0.016 -5.33,1.026 -7.523,2.535c-0.199,0.136 -0.47,0.357 -0.47,0.357c0.173,3.924 0.28,7.833 -0.249,11.713c-0.71,5.493 3.059,11.619 9.207,11.65c0,0 0.062,-0.201 0.121,-0.416c0.995,-3.602 3.084,-6.89 3.824,-10.605c0.756,-3.795 0.288,-7.736 -0.511,-11.525c-0.261,-1.237 -0.78,-2.492 -1.888,-3.137c-0.745,-0.433 -1.638,-0.574 -2.511,-0.572Zm34.501,24.646c5.234,-8.204 9.101,-17.326 10.792,-26.791c0.531,-2.974 0.93,-6.049 0.348,-8.958c-0.461,-2.307 -2.499,-4.28 -4.626,-5.904c-5.723,-4.371 -13.621,-5.184 -20.754,-3.661c2.022,0.874 3.934,1.995 5.671,3.352c4.21,3.29 7.517,7.762 9.462,12.656c0.345,0.868 0.673,1.746 0.812,2.678c0.039,0.263 0.039,0.545 -0.02,0.81c0.005,0.053 0.008,0.108 0.01,0.163c0.106,3.488 -1.026,6.88 -0.776,10.351c0.267,3.707 1.084,7.47 0.196,11.051c-0.325,1.31 -0.855,2.568 -1.55,3.722c0.146,0.177 0.292,0.353 0.435,0.531Zm-0.821,-24.899c-1.886,-0.247 -3.805,-0.337 -5.569,0.204c-0.941,0.288 -1.828,0.828 -2.323,1.694c-0.838,1.465 -0.606,3.267 -0.289,4.792c0.989,4.763 3.77,9.141 5.948,13.293c0.349,0.664 0.676,1.341 1.036,2.007c1.42,-3.132 1.014,-6.878 0.612,-10.317c-0.331,-2.874 -0.143,-5.751 0.305,-8.724c0.146,-0.978 0.259,-1.959 0.28,-2.949Zm-33.342,1.654c1.393,0.018 3.292,0.644 2.769,1.791c-0.409,0.896 -1.517,1.365 -2.447,1.222c-1.132,-0.173 -2.218,-1.261 -2.143,-2.103l0.047,-0.385c0,0 0.866,-0.509 1.675,-0.525c0.05,0 0.05,0 0.099,0Zm31.007,0.072l0.001,0.007c0.008,0.064 0.005,0.068 0.004,0.098c-0.022,0.451 -0.369,0.854 -0.724,1.171c-0.928,0.826 -2.554,0.777 -3.328,-0.251c-0.018,-0.024 -0.035,-0.048 -0.052,-0.072c-0.387,-0.582 0.368,-1.235 1.161,-1.463c0.462,-0.133 0.945,-0.196 1.423,-0.192c0.638,0.013 1.425,0.126 1.515,0.702Z" style="fill:#fff;fill-rule:nonzero;"/></svg>