<?xml version="1.0" encoding="UTF-8" standalone="no"?><!DOCTYPE svg PUBLIC "-//W3C//DTD SVG 1.1//EN" "http://www.w3.org/Graphics/SVG/1.1/DTD/svg11.dtd"><svg width="100%" height="100%" viewBox="0 0 110 95" version="1.1" xmlns="http://www.w3.org/2000/svg" xmlns:xlink="http://www.w3.org/1999/xlink" xml:space="preserve" xmlns:serif="http://www.serif.com/" style="fill-rule:evenodd;clip-rule:evenodd;stroke-linejoin:round;stroke-miterlimit:1.41421;"><rect id="Artboard1" x="0" y="0" width="110" height="95" style="fill:none;"/><path d="M55.701,3.486l28.887,16.34l0,32.686l-28.887,16.339l-28.887,-16.339l0,-32.686l28.887,-16.34Z" style="fill:#fff;fill-rule:nonzero;"/><path d="M79.43,51.384l-22.773,12.884l0,-10.032l14.189,-7.808l8.584,4.956Zm1.56,-1.41l0,-26.939l-8.33,4.815l0,17.317l8.33,4.807Zm-49.107,1.41l22.773,12.884l0,-10.032l-14.197,-7.808l-8.576,4.956Zm-1.56,-1.41l0,-26.939l8.33,4.815l0,17.317l-8.33,4.807Zm0.977,-28.685l23.356,-13.212l0,9.696l-14.966,8.233l-0.119,0.067l-8.271,-4.784Zm48.712,0l-23.355,-13.212l0,9.696l14.965,8.226l0.12,0.067l8.27,-4.777Z" style="fill:#8ed6fb;fill-rule:nonzero;"/><path d="M54.656,51.952l-14.003,-7.703l0,-15.25l14.003,8.084l0,14.869Zm2.001,0l14.002,-7.696l0,-15.257l-14.002,8.084l0,14.869Zm-15.056,-24.714l14.055,-7.726l14.055,7.726l-14.055,8.113l-14.055,-8.113Z" style="fill:#1c78c0;fill-rule:nonzero;"/><path d="M16.506,87.68l4.01,0l4.088,-13.619l-3.908,0l-2.421,9.663l-2.581,-9.663l-3.383,0l-2.605,9.663l-2.396,-9.663l-3.908,0l4.064,13.619l4.009,0l2.528,-8.724l2.503,8.724Zm8.307,-6.77c0,4.087 2.785,7.111 7.164,7.111c3.388,0 5.21,-2.032 5.731,-2.994l-2.372,-1.799c-0.389,0.574 -1.459,1.667 -3.31,1.667c-2.008,0 -3.466,-1.302 -3.544,-3.125l9.59,0c0.024,-0.262 0.024,-0.52 0.024,-0.783c0,-4.452 -2.396,-7.266 -6.615,-7.266c-3.883,0 -6.668,3.072 -6.668,7.189Zm3.776,-1.488c0.156,-1.56 1.249,-2.76 2.946,-2.76c1.643,0 2.838,1.093 2.916,2.76l-5.862,0Zm10.863,8.258l3.388,0l0,-1.404c0.365,0.442 1.721,1.745 4.039,1.745c3.908,0 6.669,-2.941 6.669,-7.136c0,-4.219 -2.552,-7.159 -6.46,-7.159c-2.342,0 -3.699,1.302 -4.039,1.769l0,-6.644l-3.592,0l0,18.829l-0.005,0Zm3.49,-6.77c0,-2.552 1.512,-4.01 3.49,-4.01c2.085,0 3.49,1.643 3.49,4.01c0,2.42 -1.458,3.932 -3.49,3.932c-2.187,0 -3.49,-1.774 -3.49,-3.932Zm12.006,11.641l3.592,0l0,-6.28c0.34,0.442 1.691,1.745 4.039,1.745c3.908,0 6.459,-2.941 6.459,-7.16c0,-4.165 -2.76,-7.135 -6.668,-7.135c-2.319,0 -3.675,1.303 -4.039,1.769l0,-1.434l-3.388,0l0,18.495l0.005,0Zm3.49,-11.719c0,-2.163 1.302,-3.932 3.489,-3.932c2.032,0 3.49,1.511 3.49,3.932c0,2.372 -1.404,4.01 -3.49,4.01c-1.978,0 -3.489,-1.458 -3.489,-4.01Zm11.252,2.629c0,2.863 2.342,4.56 5.103,4.56c1.565,0 2.605,-0.467 3.31,-1.225l0.233,0.884l3.179,0l0,-8.622c0,-3.048 -1.302,-5.337 -5.677,-5.337c-2.085,0 -4.141,0.783 -5.366,1.614l1.356,2.449c1.016,-0.52 2.265,-0.962 3.621,-0.962c1.59,0 2.474,0.807 2.474,2.007l0,0.885c-0.495,-0.34 -1.565,-0.753 -2.945,-0.753c-3.179,-0.005 -5.288,1.817 -5.288,4.5Zm3.592,-0.106c0,-1.118 0.962,-1.901 2.342,-1.901c1.381,0 2.372,0.705 2.372,1.901c0,1.147 -0.991,1.876 -2.343,1.876c-1.351,0 -2.371,-0.754 -2.371,-1.876Zm16.958,1.487c-2.265,0 -3.879,-1.643 -3.879,-3.957c0,-2.187 1.434,-3.985 3.752,-3.985c1.536,0 2.581,0.753 3.179,1.302l1.016,-3.023c-0.885,-0.675 -2.294,-1.458 -4.297,-1.458c-4.141,0 -7.242,3.048 -7.242,7.189c0,4.141 3.023,7.111 7.267,7.111c1.978,0 3.465,-0.832 4.243,-1.459l-0.963,-2.94c-0.602,0.491 -1.696,1.22 -3.076,1.22Zm5.39,2.838l3.592,0l0,-7.033l4.559,7.033l4.219,0l-5.157,-7.451l4.792,-6.173l-4.039,0l-4.374,5.731l0,-10.936l-3.592,0l0,18.829Z" style="fill:#1c78c0;fill-rule:nonzero;"/></svg>