<?xml version="1.0" encoding="UTF-8" standalone="no"?><!DOCTYPE svg PUBLIC "-//W3C//DTD SVG 1.1//EN" "http://www.w3.org/Graphics/SVG/1.1/DTD/svg11.dtd"><svg width="100%" height="100%" viewBox="0 0 1024 1024" version="1.1" xmlns="http://www.w3.org/2000/svg" xmlns:xlink="http://www.w3.org/1999/xlink" xml:space="preserve" xmlns:serif="http://www.serif.com/" style="fill-rule:evenodd;clip-rule:evenodd;stroke-linejoin:round;stroke-miterlimit:1.41421;"><rect id="a-count-logo" x="0" y="0" width="1024" height="1024" style="fill:none;"/><clipPath id="_clip1"><rect x="0" y="0" width="1024" height="1024"/></clipPath><g clip-path="url(#_clip1)"><path d="M1024,179.649c0,-99.151 -80.498,-179.649 -179.649,-179.649l-664.702,0c-99.151,0 -179.649,80.498 -179.649,179.649l0,664.702c0,99.151 80.498,179.649 179.649,179.649l664.702,0c99.151,0 179.649,-80.498 179.649,-179.649l0,-664.702Z" style="fill:#4d419b;"/><path d="M304.865,698.809c0,-152.32 98.773,-187.088 188.567,-187.088c73.631,0 127.508,14.901 188.568,39.735l0,175.499c-39.51,76.16 -127.508,132.452 -206.526,132.452c-91.59,0 -170.609,-36.424 -170.609,-160.598Zm642.924,185.433l0,-28.146l-35.917,-1.656c-66.448,-3.311 -80.815,-4.967 -80.815,-220.201l0,-253.315c0,-178.81 -172.404,-259.936 -348.4,-259.936c-179.588,0 -278.361,67.881 -278.361,150.664c0,48.013 37.713,82.782 95.181,82.782c48.489,0 89.794,-34.769 89.794,-82.782c0,-46.359 -30.53,-64.571 -30.53,-82.783c0,-21.523 34.122,-38.08 125.712,-38.08c131.099,0 197.547,64.571 197.547,177.155l0,192.055c-70.04,-28.146 -129.304,-39.736 -219.098,-39.736c-213.709,0 -325.054,67.882 -325.054,210.268c0,135.763 125.712,211.923 289.137,211.923c145.466,0 217.301,-69.537 258.606,-132.452l0,114.24l262.198,0Z" style="fill:#fff;fill-rule:nonzero;"/></g></svg>