<?xml version="1.0" encoding="UTF-8" standalone="no"?><!DOCTYPE svg PUBLIC "-//W3C//DTD SVG 1.1//EN" "http://www.w3.org/Graphics/SVG/1.1/DTD/svg11.dtd"><svg width="100%" height="100%" viewBox="0 0 100 100" version="1.1" xmlns="http://www.w3.org/2000/svg" xmlns:xlink="http://www.w3.org/1999/xlink" xml:space="preserve" xmlns:serif="http://www.serif.com/" style="fill-rule:evenodd;clip-rule:evenodd;stroke-miterlimit:10;"><rect id="Artboard1" x="0" y="0" width="100" height="100" style="fill:none;"/><rect x="0" y="0" width="100" height="100" style="fill:#cf4647;"/><g><path d="M54.462,55.856c0.192,-0.713 0.392,-1.377 0.636,-1.974c0.532,-1.363 1.031,-2.693 1.563,-4.023l1.462,-3.656l6.612,-16.651c0.249,-0.664 0.598,-1.137 1.047,-1.429c0.452,-0.266 0.897,-0.399 1.353,-0.399c0.465,0 0.864,0.133 1.243,0.432c0.366,0.286 0.565,0.765 0.565,1.42c0,0.309 -0.066,0.638 -0.183,0.984c-0.133,0.332 -0.266,0.711 -0.465,1.106c-0.366,0.805 -0.798,1.795 -1.296,2.972l-1.662,3.856c-0.566,1.38 -1.164,2.826 -1.762,4.322l-1.795,4.387c-0.599,1.423 -1.13,2.759 -1.629,4.036l-1.297,3.301l-0.103,0.109c-0.159,0.399 -0.315,0.865 -0.465,1.39c-0.156,0.525 -0.233,0.997 -0.233,1.413c0,0.259 0.044,0.465 0.133,0.621c0.087,0.156 0.253,0.233 0.499,0.233c0.309,0 0.691,-0.106 1.153,-0.322c0.459,-0.217 0.954,-0.499 1.486,-0.858c0.532,-0.352 1.091,-0.758 1.662,-1.217c0.579,-0.465 1.154,-0.964 1.722,-1.429c0.565,-0.499 1.111,-0.997 1.629,-1.496c0.519,-0.499 0.984,-0.964 1.396,-1.363c0.113,-0.133 0.25,-0.199 0.412,-0.266c0.079,-0.032 0.152,-0.057 0.22,-0.074c0.197,-0.602 0.378,-1.195 0.545,-1.777l0.465,-1.317c0.2,-0.565 0.432,-1.13 0.698,-1.662c0.266,-0.532 0.565,-1.03 0.898,-1.429c0.332,-0.399 0.698,-0.608 1.064,-0.608c0.598,0 1.02,0.133 1.283,0.398c0.266,0.293 0.399,0.665 0.399,1.197c0,0.1 -0.014,0.266 -0.044,0.499c-0.033,0.232 -0.066,0.465 -0.119,0.714l-0.143,0.699c-0.033,0.232 -0.1,0.398 -0.133,0.498c0.532,-0.585 1.13,-1.163 1.755,-1.745c0.632,-0.575 1.296,-1.097 1.961,-1.562c0.665,-0.466 1.363,-0.865 2.061,-1.147c0.698,-0.299 1.396,-0.449 2.094,-0.449c0.499,0 0.964,0.067 1.45,0.2c0.465,0.139 0.897,0.342 1.263,0.611c0.389,0.266 0.691,0.599 0.924,0.997c0.233,0.399 0.349,0.875 0.349,1.41c0,0.708 -0.186,1.462 -0.532,2.26c-0.366,0.811 -0.798,1.629 -1.349,2.427c-0.532,0.818 -1.121,1.609 -1.749,2.377c-0.632,0.764 -1.197,1.462 -1.762,2.094l-1.396,1.629c-0.366,0.432 -0.565,0.731 -0.572,0.897c0,0.2 0.067,0.366 0.2,0.499c0.133,0.133 0.365,0.199 0.665,0.199c0.259,0 0.625,-0.149 1.097,-0.432c0.492,-0.299 1.163,-0.765 2.027,-1.449c0.865,-0.698 1.981,-1.596 3.314,-2.759c1.33,-1.15 2.992,-2.593 4.943,-4.345l-0.256,-0.243c0.21,-0.143 0.399,-0.256 0.576,-0.342c0.172,-0.086 0.342,-0.133 0.498,-0.133c0.323,0 0.565,0.146 0.725,0.432c0.166,0.286 0.266,0.632 0.266,1.051c0,0.448 -0.1,0.907 -0.299,1.372c-0.2,0.466 -0.466,0.858 -0.865,1.164c-1.562,1.386 -2.958,2.649 -4.155,3.789c-1.23,1.141 -2.36,2.121 -3.457,2.942c-1.097,0.831 -2.161,1.463 -3.191,1.928c-1.031,0.466 -2.128,0.698 -3.324,0.698c-1.097,0 -1.961,-0.232 -2.56,-0.731c-0.598,-0.465 -0.897,-1.13 -0.897,-1.994l0,-0.2c0,-0.033 0.033,-0.133 0.033,-0.199c0.066,-0.499 0.299,-1.097 0.698,-1.795c0.399,-0.665 0.864,-1.363 1.429,-2.095c0.565,-0.731 1.164,-1.462 1.795,-2.193c0.632,-0.732 1.197,-1.43 1.762,-2.095c0.532,-0.665 0.964,-1.263 1.33,-1.828c0.365,-0.532 0.532,-0.997 0.532,-1.33c0,-0.199 -0.067,-0.365 -0.206,-0.498c-0.157,-0.1 -0.399,-0.166 -0.732,-0.166c-0.598,0 -1.196,0.166 -1.815,0.465c-0.631,0.299 -1.25,0.731 -1.861,1.23c-0.599,0.532 -1.197,1.097 -1.769,1.762c-0.571,0.664 -1.097,1.363 -1.628,2.061c-0.499,0.731 -0.964,1.429 -1.397,2.16c-0.398,0.732 -0.764,1.396 -1.063,1.995l-0.366,0.798l-0.499,1.196l-0.598,1.33l-0.565,1.296l-0.465,1.097c-0.133,0.333 -0.233,0.532 -0.3,0.665c-0.066,0.166 -0.166,0.465 -0.332,0.898l-0.598,1.522l-0.698,1.828l-0.665,1.795l-0.565,1.523c-0.166,0.432 -0.266,0.724 -0.299,0.881c-0.167,0.432 -0.333,0.864 -0.532,1.263c-0.2,0.399 -0.416,0.741 -0.672,1.044c-0.252,0.299 -0.545,0.548 -0.874,0.731c-0.332,0.166 -0.698,0.266 -1.097,0.266c-0.532,0 -0.964,-0.133 -1.296,-0.372c-0.333,-0.233 -0.532,-0.732 -0.532,-1.43c0,-0.332 0.033,-0.698 0.133,-1.064c0.066,-0.365 0.199,-0.704 0.332,-1.063c0.1,-0.366 0.266,-0.698 0.399,-1.031c0.133,-0.332 0.266,-0.665 0.366,-0.984c0.764,-1.728 1.579,-3.457 2.393,-5.205c0.814,-1.749 1.596,-3.457 2.36,-5.153c0.283,-0.638 0.558,-1.272 0.825,-1.902c-0.212,0.211 -0.426,0.421 -0.642,0.629c-0.931,0.898 -1.895,1.729 -2.825,2.427c-0.931,0.698 -1.862,1.23 -2.793,1.662c-0.931,0.399 -1.828,0.598 -2.692,0.598c-0.599,0 -1.097,-0.1 -1.496,-0.299c-0.399,-0.199 -0.698,-0.465 -0.964,-0.798c-0.233,-0.332 -0.399,-0.731 -0.499,-1.163c-0.027,-0.127 -0.049,-0.254 -0.067,-0.382c-0.289,0.227 -0.58,0.444 -0.873,0.651c-0.905,0.638 -1.796,1.154 -2.67,1.542c-0.877,0.389 -1.662,0.582 -2.36,0.582c-0.698,0 -1.273,-0.233 -1.712,-0.698c-0.439,-0.465 -0.658,-1.263 -0.658,-2.393c0,-0.798 0.12,-1.729 0.352,-2.793c-0.379,0.665 -0.854,1.363 -1.422,2.028c-0.565,0.698 -1.22,1.33 -1.948,1.895c-0.732,0.565 -1.549,1.03 -2.453,1.363c-0.905,0.332 -1.889,0.532 -2.959,0.532c-0.475,0 -0.941,-0.067 -1.386,-0.2c-0.465,-0.133 -0.864,-0.332 -1.197,-0.631c-0.332,-0.3 -0.598,-0.698 -0.831,-1.197c-0.199,-0.499 -0.299,-1.13 -0.299,-1.862l0.067,-0.797c0.066,-0.499 0.232,-1.33 0.565,-2.427c0.332,-1.097 0.797,-2.526 1.462,-4.288c0.665,-1.762 1.563,-3.856 2.759,-6.349c0.299,-0.665 0.632,-1.13 1.064,-1.429c0.399,-0.3 0.831,-0.433 1.296,-0.433c0.2,0 0.399,0.034 0.632,0.1c0.199,0.033 0.399,0.133 0.598,0.266c0.2,0.133 0.333,0.299 0.466,0.499c0.099,0.166 0.166,0.399 0.166,0.665c0,0.166 -0.033,0.332 -0.067,0.465c-0.099,0.299 -0.232,0.665 -0.465,1.13l-0.864,1.642c-0.333,0.599 -0.665,1.263 -1.031,1.968c-0.365,0.708 -0.698,1.463 -0.997,2.201c-0.299,0.764 -0.565,1.545 -0.798,2.327c-0.232,0.797 -0.365,1.562 -0.399,2.293c0,0.333 0.067,0.598 0.2,0.864c0.133,0.266 0.399,0.399 0.731,0.399c0.931,0 1.862,-0.299 2.726,-0.93c0.864,-0.622 1.662,-1.397 2.393,-2.321c0.732,-0.93 1.396,-1.928 1.995,-2.991c0.598,-1.064 1.063,-2.028 1.462,-2.906c0.266,-0.588 0.532,-1.22 0.732,-1.894c0.199,-0.665 0.432,-1.297 0.698,-1.862c0.232,-0.565 0.532,-1.05 0.864,-1.429c0.299,-0.379 0.698,-0.565 1.197,-0.565c0.498,0 0.93,0.199 1.23,0.598c0.299,0.399 0.465,0.864 0.465,1.429c0,0.3 -0.1,0.732 -0.299,1.264c-0.2,0.531 -0.432,1.163 -0.732,1.861l-0.964,2.25c-0.365,0.798 -0.664,1.596 -0.964,2.427c-0.299,0.814 -0.565,1.629 -0.764,2.407c-0.2,0.797 -0.299,1.529 -0.299,2.194c0,0.631 0.332,0.93 0.964,0.93c0.465,0 1.03,-0.133 1.695,-0.465c0.665,-0.299 1.363,-0.731 2.094,-1.296c0.311,-0.241 0.622,-0.499 0.933,-0.775Zm-23.989,-4.989c-0.056,0.086 -0.166,0.359 -0.316,0.814c-0.153,0.459 -0.339,1.03 -0.558,1.729c-0.219,0.688 -0.459,1.462 -0.711,2.316l-0.788,2.62c-0.299,0.891 -0.532,1.762 -0.798,2.619l-0.665,2.32l-0.498,1.736l-0.233,0.831c-0.1,0.276 -0.2,0.581 -0.366,0.92c-0.166,0.333 -0.365,0.655 -0.565,0.958c-0.233,0.299 -0.465,0.555 -0.731,0.754c-0.266,0.2 -0.532,0.3 -0.831,0.3c-0.466,0 -0.798,-0.16 -1.031,-0.466c-0.232,-0.316 -0.332,-0.884 -0.332,-1.715l0,-0.751c0,-0.276 0.133,-0.798 0.332,-1.556c0.2,-0.765 0.432,-1.622 0.732,-2.58c0.266,-0.964 0.598,-1.954 0.897,-2.981l0.898,-2.793c-0.798,0.865 -1.629,1.729 -2.527,2.56c-0.897,0.864 -1.828,1.629 -2.759,2.294c-0.964,0.665 -1.928,1.23 -2.892,1.662c-0.964,0.432 -1.894,0.631 -2.792,0.631c-1.03,0 -1.895,-0.232 -2.626,-0.698c-0.731,-0.465 -1.363,-1.03 -1.828,-1.761c-0.466,-0.732 -0.831,-1.563 -1.064,-2.46c-0.13,-0.861 -0.263,-1.792 -0.263,-2.69l0,-0.332c0,-0.1 0.014,-0.209 0.034,-0.312c0.079,-1.662 0.315,-3.358 0.698,-5.1c0.399,-1.755 0.897,-3.49 1.529,-5.218c0.631,-1.729 1.363,-3.424 2.194,-5.073c0.864,-1.582 1.761,-3.145 2.725,-4.607c0.964,-1.463 2.002,-2.826 3.092,-4.056c1.097,-1.236 2.217,-2.3 3.371,-3.191c1.15,-0.897 2.313,-1.595 3.49,-2.094c1.163,-0.499 2.327,-0.765 3.477,-0.765c1.33,0 2.613,0.366 3.856,1.087c1.23,0.742 2.393,1.905 3.484,3.534c0.246,0.366 0.398,0.731 0.465,1.103c0.066,0.366 0.1,0.722 0.1,1.048c0,0.777 -0.183,1.396 -0.555,1.841c-0.366,0.466 -0.798,0.665 -1.33,0.665c-0.465,0 -0.898,-0.233 -1.297,-0.731c-0.398,-0.499 -0.864,-1.197 -1.329,-2.095c-0.466,-0.831 -0.964,-1.429 -1.529,-1.795c-0.565,-0.365 -1.164,-0.531 -1.829,-0.531c-1.03,0 -2.094,0.432 -3.257,1.296c-1.164,0.864 -2.294,1.961 -3.424,3.357c-1.13,1.396 -2.227,2.992 -3.258,4.787c-1.03,1.795 -1.961,3.623 -2.759,5.518c-0.797,1.895 -1.429,3.723 -1.894,5.551c-0.466,1.829 -0.698,3.457 -0.698,4.92c0,0.499 0.033,0.997 0.099,1.496c0.067,0.532 0.2,0.964 0.366,1.396c0.166,0.432 0.432,0.765 0.764,1.031c0.333,0.265 0.732,0.398 1.197,0.398c0.532,0 1.164,-0.166 1.828,-0.531c0.698,-0.366 1.397,-0.831 2.128,-1.43c0.731,-0.598 1.496,-1.263 2.227,-1.994c0.731,-0.732 1.463,-1.496 2.094,-2.261c0.632,-0.764 1.23,-1.496 1.695,-2.194c0.499,-0.698 0.865,-1.296 1.131,-1.828l1.924,-6.186c0.246,-0.655 0.565,-1.124 0.974,-1.396c0.399,-0.279 0.808,-0.419 1.23,-0.419c0.2,0 0.409,0.033 0.615,0.1c0.2,0.066 0.392,0.173 0.555,0.319c0.167,0.133 0.29,0.332 0.386,0.565c0.1,0.233 0.166,0.499 0.166,0.831c0,0.831 -0.066,1.616 -0.199,2.34c-0.133,0.731 -0.333,1.43 -0.565,2.128c-0.2,0.681 -0.466,1.376 -0.732,2.077c-0.266,0.698 -0.532,1.43 -0.797,2.194l-0.127,-0.056Z" style="fill:#fff;fill-rule:nonzero;stroke:#fff;stroke-width:0.46px;"/></g></svg>