<?xml version="1.0" encoding="UTF-8" standalone="no"?><!DOCTYPE svg PUBLIC "-//W3C//DTD SVG 1.1//EN" "http://www.w3.org/Graphics/SVG/1.1/DTD/svg11.dtd"><svg width="100%" height="100%" viewBox="0 0 100 22" version="1.1" xmlns="http://www.w3.org/2000/svg" xmlns:xlink="http://www.w3.org/1999/xlink" xml:space="preserve" xmlns:serif="http://www.serif.com/" style="fill-rule:evenodd;clip-rule:evenodd;stroke-linejoin:round;stroke-miterlimit:1.41421;"><rect id="Artboard1" x="0" y="0" width="100" height="22" style="fill:none;"/><path d="M63.111,21.219l-6.401,0c-2.359,0 -3.987,-1.628 -3.987,-3.986l0,-12.466c0,-2.358 1.628,-3.986 3.987,-3.986l6.401,0c2.358,0 3.986,1.628 3.986,3.986l0,3.257l-4.042,0l0,-2.47c0,-0.618 -0.337,-0.955 -0.955,-0.955l-4.38,0c-0.617,0 -0.954,0.337 -0.954,0.955l0,10.893c0,0.617 0.337,0.954 0.954,0.954l4.38,0c0.618,0 0.955,-0.337 0.955,-0.954l0,-2.471l4.042,0l0,3.257c0,2.358 -1.628,3.986 -3.986,3.986Zm-59.068,-0.112l-4.043,0l0,-20.214l10.332,0c2.358,0 3.986,1.628 3.986,3.987l0,5.109c0,2.359 -1.628,3.987 -3.986,3.987l-6.289,0l0,7.131Zm87.478,-3.818l8.479,0l0,3.818l-12.521,0l0,-20.214l4.042,0l0,16.396Zm-52.526,3.818l-4.043,0l0,-20.214l10.304,0c2.358,0 3.986,1.628 3.986,3.987l0,4.744c0,1.909 -1.067,3.341 -2.751,3.819l3.369,7.664l-4.352,0l-3.256,-7.496l-3.257,0l0,7.496Zm-6.709,0l-4.352,0l-1.319,-4.548l-6.542,0l-1.348,4.548l-4.183,0l6.514,-20.214l4.716,0l6.514,20.214Zm51.628,-16.396l-9.181,0l0,4.155l7.44,0l0,3.818l-7.44,0l0,4.605l9.181,0l0,3.818l-13.224,0l0,-20.214l13.224,0l0,3.818Zm-21.309,-2.302l-5.39,0c-1.741,0 -2.751,1.011 -2.751,2.751l0,11.68c0,1.74 1.01,2.751 2.751,2.751l5.39,0c1.741,0 2.752,-1.011 2.752,-2.751l0,-1.236l-0.562,0l0,1.236c0,1.403 -0.786,2.189 -2.19,2.189l-5.39,0c-1.404,0 -2.19,-0.786 -2.19,-2.189l0,-11.68c0,-1.403 0.786,-2.189 2.19,-2.189l5.39,0c1.404,0 2.19,0.786 2.19,2.189l0,1.292l0.562,0l0,-1.292c0,-1.74 -1.011,-2.751 -2.752,-2.751Zm-52.779,0.112l-8.085,0l0,16.958l0.561,0l0,-7.131l7.524,0c1.741,0 2.751,-1.011 2.751,-2.752l0,-4.323c0,-1.741 -1.01,-2.752 -2.751,-2.752Zm79.955,0l-0.562,0l0,16.958l9.04,0l0,-0.562l-8.478,0l0,-16.396Zm-7.608,0l-9.742,0l0,16.958l9.742,0l0,-0.562l-9.181,0l0,-7.861l7.44,0l0,-0.561l-7.44,0l0,-7.412l9.181,0l0,-0.562Zm-37.423,0l-8.057,0l0,16.958l0.561,0l0,-7.468l6.177,0l3.256,7.468l0.59,0l-3.257,-7.468l0.73,0c1.741,0 2.752,-1.011 2.752,-2.752l0,-3.986c0,-1.741 -1.011,-2.752 -2.752,-2.752Zm-20.045,0l-2.582,0l-5.279,16.958l0.534,0l1.404,-4.549l9.208,0l1.376,4.549l0.533,0l-5.194,-16.958Zm-0.336,0.562l3.453,11.286l-8.872,0l3.509,-11.286l1.91,0Zm1.151,9.658l-2.134,-7.412l-2.19,7.412l4.324,0Zm-15.694,-0.955l-7.524,0l0,-8.703l7.524,0c1.404,0 2.19,0.786 2.19,2.19l0,4.323c0,1.404 -0.786,2.19 -2.19,2.19Zm34.924,-0.337l-7.496,0l0,-8.366l7.496,0c1.404,0 2.19,0.786 2.19,2.19l0,3.986c0,1.404 -0.786,2.19 -2.19,2.19Zm-35.429,-6.738l-5.278,0l0,5.447l5.278,0c0.617,0 0.954,-0.337 0.954,-0.955l0,-3.537c0,-0.618 -0.337,-0.955 -0.954,-0.955Zm34.924,0l-5.25,0l0,5.138l5.25,0c0.618,0 0.954,-0.337 0.954,-0.955l0,-3.228c0,-0.618 -0.336,-0.955 -0.954,-0.955Z" style="fill:#e7dacb;fill-rule:nonzero;"/></svg>