<?xml version="1.0" encoding="UTF-8" standalone="no"?><!DOCTYPE svg PUBLIC "-//W3C//DTD SVG 1.1//EN" "http://www.w3.org/Graphics/SVG/1.1/DTD/svg11.dtd"><svg width="100%" height="100%" viewBox="0 0 110 110" version="1.1" xmlns="http://www.w3.org/2000/svg" xmlns:xlink="http://www.w3.org/1999/xlink" xml:space="preserve" xmlns:serif="http://www.serif.com/" style="fill-rule:evenodd;clip-rule:evenodd;"><rect id="Artboard1" x="0" y="0" width="110" height="110" style="fill:none;"/><clipPath id="_clip1"><rect x="0" y="0" width="110" height="110"/></clipPath><g clip-path="url(#_clip1)"><g id="_-react" serif:id="©react"><circle cx="55" cy="55" r="9.124" style="fill:#61dafb;"/><ellipse cx="55" cy="55" rx="48.96" ry="18.694" style="fill:none;stroke:#61dafb;stroke-width:4.45px;"/><path d="M71.189,45.653c13.511,23.402 17.226,46.589 8.291,51.748c-8.935,5.158 -27.158,-9.653 -40.669,-33.054c-13.511,-23.402 -17.226,-46.589 -8.291,-51.748c8.935,-5.158 27.158,9.653 40.669,33.054Z" style="fill:none;stroke:#61dafb;stroke-width:4.45px;"/><path d="M71.189,64.347c-13.511,23.401 -31.734,38.212 -40.669,33.054c-8.935,-5.159 -5.22,-28.346 8.291,-51.748c13.511,-23.401 31.734,-38.212 40.669,-33.054c8.935,5.159 5.22,28.346 -8.291,51.748Z" style="fill:none;stroke:#61dafb;stroke-width:4.45px;"/></g></g></svg>